<mxfile host="app.diagrams.net" modified="2023-08-28T09:47:16.296Z" agent="Mozilla/5.0 (Windows NT 10.0; Win64; x64) AppleWebKit/537.36 (KHTML, like Gecko) Chrome/116.0.0.0 Safari/537.36" etag="fmWthT0GLzRF7Ph-0ld_" version="21.6.9" type="github">
  <diagram name="Page-1" id="bA-p_-ZBcaQEUjuzNQEA">
    <mxGraphModel dx="1050" dy="534" grid="0" gridSize="10" guides="1" tooltips="1" connect="1" arrows="1" fold="1" page="1" pageScale="1" pageWidth="850" pageHeight="1100" math="0" shadow="0">
      <root>
        <mxCell id="0" />
        <mxCell id="1" parent="0" />
        <mxCell id="I9yQGdXgGvzj8MIX47bs-1" value="" style="shape=image;verticalLabelPosition=bottom;labelBackgroundColor=default;verticalAlign=top;aspect=fixed;imageAspect=0;image=data:image/png,iVBORw0KGgoAAAANSUhEUgAAA84AAAHICAYAAACf07NsAACAAElEQVR4XuydB4BU1dn+d9k+2yi2aNTYUzS9mfjFJCb/xBITk5ieaAwWkKL0Jr1KZwtbadKLIEUURHrvve8CW1hYmp3+/M9zZs9w97IYRCDs8vzynW9m7j333DOzieNv3ve8JwxCCCGuOE6fPh1q7vWpU6dCrx2HDx/GihUrMGzYMLRp0wZPPvkkvvOd7+Cmm25CfHw8wsLCbKtWrRqSk5Nx++2344EHHsDTTz+Nbt264fXXX8fWrVvx0UcflRuXuPud695CCCGEEFcLYf4DQggh/vd4ZZWPXkpLS/HOO++gbdu2+PnPf24lOSIiIiTJ/kZp9h9zLRAI4O6778Yf/vAHDBgwAOvWrcOJEydC93L3P3ny5FnzEEIIIYS4WpA4CyHEFYo/yrthwwb07t0bDz/8MG688cazJNiJ8De/+U0rwi+++CJatWplBbt58+Z4/vnn8cQTT+BHP/pRhddHRkbi3nvvRYsWLaxAe+fhn4sQQgghxNWExFkIIa5wduzYgZYtW+LOO+88S3ZdS0xMxJ///GdMmjQJO3fuxNGjR8uJLp8zavzJJ5+gsLAQS5YswdChQ23K9j333GOl2Tve1772NQwZMiQUZea1EmchhBBCXK1InIUQ4jLjXb/smjvupaCgAKmpqbjvvvuszIaHh+O73/0ufvrTn4ZEl8L8+OOPY8KECfj444/LXX8+MC1727ZtyMrKstHo6667LiTPCQkJVtiZGk7+23yFEEIIIaoqEmchhLjMuOgvH10atHf98IEDB2yxLwoy1y5fe+21+Nvf/obhw4dj7ty5aNiwIWJiYvDDH/4QgwcPxqFDh8qNfaGw0Nj06dPx3HPP4Y477ggJNKPSeXl5to+bu9Y8CyGEEOJqQuIshBCXGb8we2WXRb9+//vfIyoqCjVq1MALL7yAOXPm2H5M2f7rX/9qK2M3bdrURoorGvPzwgrbFPTHHnssJM9//OMfz5Lni3EvIYQQQojKgMRZCCEuM17JddLMdOhOnTrZ6DJFldI6e/bskJxSZL///e/jq1/9KsaMGWPF1eHG+TzizOv865i5Fvqf//xnSJ4p9Dzm+l/ovYQQQgghKhsSZyGEuMw4yXWSygrWjOhSTm+++Wb07dsX7733Xqj/5MmT7XGmbi9fvjx0nNf7o9cXKrP+693c9u/fX06eGfF28iyEEEIIcbUgcRZCiMuME16yevVquxczpfT+++/HzJkzy/XdsmWLXcvMaK9LlSbuejeWt3mPny/+a70SvX37djzyyCN2jtwTukGDBjhy5Ig9534A8F8jhBBCCFGVkDgLIcRlxglqSUkJfvOb31gh/X//7/9h/fr15fqx4jX3YWbEt6ioqNy5T6Mikf6sOBF21y9evNhuUeUqeffv3/8sSfenegshhBBCVBUkzkIIcZlxotm5c2croowos/CXnzfffBP/+Mc/sGnTJv+pc0rxxZBm4hdnMn78+NAa7Ntuuw0LFy48q+/nuacQQgghxJWKxFkIIf4HbNiwAbfeeiu+8IUvYMqUKTb1mVHd119/3W4J9dprr+F3v/sdRo8e7b/0MwnqZ+nrx6VdMzJOSZ40aRJ++9vfllvv7NZiK0VbCCGEEFUZibMQQlwG/PLaq1cvK5/f/e530a5dOzz++OP44he/iOrVq9vHQCBg1xVzb2V3vb+5414ouRs3bkRxcXG54xfKypUrrcDfeOONuOGGG3D99dcjPDzczj0pKQkTJ060/SqKUAshhBBCVBUkzkIIcYnxFs3iOmCmPHNbKVdsi48xMTH41re+ZVOzGzdujGuuuQYPPvggDhw4UG4Mb9Vrr6RSmHv27IkHHngAd955py00Nnz48HLbVn1WPvjgAzsfzo/SHB8fH4o2u/b000/bfZ+JxFkIIYQQVRWJsxBCXEK8EWJKbFpaGq677rqQeNasWRN//vOf7d7M3m2ennrqKSurS5cuDY3jr2DtYJ9f//rXZ0nt17/+deR5KnF/Vvbu3Wv3lh4yZAjmzZtnU7VZrOzee+8N3eOee+7BqlWrQtdInIUQQghRFZE4CyHEJcQrktOmTbNrmp10sijYiBEjQls7eenevTsSEhJCqdDEK81u3CVLluDb3/62He/uu+/GCy+8YCPPXbt2RZ8+fT5XyvaxY8fw8ccf+w/btdh/+MMf7D1jY2ORnZ3t7yKEEEIIUaWQOAshxCXECS7XKrutp9gee+wxrFmzplw/b/o1I9Nc5zxu3Lhy54m3aBfH4XhPPvmkjTx/8sknwQHLrvk86dPe6xgt96Z9c29nt/903bp1cfTo0dA5IYQQQoiqhsRZCCEuA4w2JycnhyLNrKrt8Asx6d27ty0Uxi2pXB+vPJOhQ4fa8Z544gmUlpaGjvvxpnj7x6iIis6767xz5HtiVPwnP/kJCgoKQv2EEEIIIaoaEmchhLjEUCbbt29vJZdFwDIyMkLn/AW/HC1atMBNN91kq1q7c/7oMddBc0urzZs329eMCFckrryO5/zXn4tzybVfvLkV1S9+8Qs7h+XLl/t6CyGEEEJUHSTOQghxiWF1au55THH+8pe/jHXr1tnjXhn2CikllwXDWGXbrVF2551ks89LL71k10J7x/JGhP1UJN8VcS5xrojWrVvbatuTJ0/2nxJCCCGEqDJInIUQ4hLD6tT/93//Z8X50Ucfxb59++xxrwx7hfb999/H9773PfzlL38JrR32SzbFedu2bXadM/Ge80NxP3jwoH1+PuL8aTDKvHv3bpw4ccK+zsnJsena6enpvp5CCCGEEFUHibMQQlxidu7cabeGojg/88wz+PDDD+1xrzB7o8l5eXm4+eab0aVLF/vae95Jr1d+XeGuc0WbWciL66G533JFcu2Vd+8x773c8/z8fKSmptofAwi3qOL2WtymSgghhBCiqiJxFkKIS8ymTZvwta997awK1F5p9orz3Llz8cUvfjFUUZv4ZddLRTLshZJbr169cuulvY0wgsytsRYuXHhWH6+wM1r+/PPPY+rUqfb1nDlzrOQ/99xzoSi0EEIIIURVQ+IshBCXmPXr1+MrX/mKFWcKrDf92j16o72jRo3Cfffdh2XLloWOnSuafD4wGt2yZUtbqdvh7unG5WvKb+PGjUOvvX3cXI8fP27H4vvguCtWrMCXvvQl/OlPf7L7PgshhBBCVEUkzkIIcYnZunUr7r33XivOtWvXLrfXssMrp1wv/OMf/9iuJSZ+sb4QuHUU11dT4ok32uzo1q0bvvnNb9rUbtfHn8JNGG3mmm1W0mYa+p133olf//rXFb4vIYQQQoiqgMRZCCEuMUxv/tnPfmbF+e9//zsOHz5s913mNlJsPO+V2JSUFDz00EPYv3+/Z5TPB9dV896PP/44du3aFTruve/8+fPt3tGMKDOa7M47qXfrqJl6zr2o//Of/2Dt2rV2/Tbfn8RZCCGEEFUVibMQQlxiKJSUTIozq2WzkNZjjz1m1z2zPfzww3j11VexY8cO259rjX/yk5/YaC6pKDr8abAv78mK2x9//HHoOAt5BQIB/OMf/7CVu11fNzaPcV7XX389Zs+eHbqOVbmHDRuGhg0b2vXNlG9uQXXPPfdgypQp+P73v48HHnggVPRMCCGEEKKqIXEWQohLDKtZ//vf/7biHBERYR/ZKLHcysm9/tWvfmUjuKtXr8Z3v/tdzJo1y17/WcWZzJgxwwouU8M7deqEfv362TXMvP/tt99eTspddJm88cYbVoop0G6rK25B9a9//Ss0T7a7774bAwYMsGnoFGemlvN9CiGEEEJURSTOQghxiaEA33HHHSHp/MY3voEOHTpg8uTJdu1xu3btcMMNN9hzf/jDH+z+zI888gj69+8fGsO7Bvp8mDhxImJjY8vJLlt4eDjq168fklx/8S9GqinY7Nu2bdvQeIsWLbIR56eeegpdu3bF0qVL7XVMJ2cUnRFyb3RbCCGEEKIqIXEWQohLCAX1hRdeCInrE088gXXr1vm72UraycnJVnYpvYwSU1LduuHzlWbX78iRIxg8eDCefPJJ3H///VZuf/nLX6JHjx44cOBAqK9XnN21jHqzqndiYqJNG/fin0dxcbEd+xe/+IXWOAshhBCiyiJxFkKIi4g/rZop0RRLSvMPfvADm9rM1OeMjAy7pZN3bTPXD7Pfyy+/jAYNGtgUaO7B7MY9H/z357pjjlFUVIRDhw6Fzjlh9ouzO+9Enns0M+3bj+vHyt/f+c53bFq4tqMSQgghRFVF4iyEEBcRv7guXrwYN910EyIjI20EmPCRlahdFPqnP/2p3QLq3XffteuLr7nmGrv2mfsjs4K1G/di4pdlN757pAR36dLFzo/rrbn1lDvPNdGuH6uCM/WcFbu5x7MQQgghRFVE4iyEEBcZr4hOnz7dRm65xplyzHXACxcutKnYPM4o9LXXXmurbm/ZssW+pqxed911NvLsTau+3LCaNqPinA/TvPPz8+1x7/tbtmwZvvKVr9gIuX+/ZyGEEEKIqoLEWQghLjJeyaU4c60wq04zZdqdozg/+OCDNk2badsU65kzZ9rILreNYqSaKd3e8f4X8sw5s2AZ5fn3v//9WRFwzpmRcb4fIYQQQoiqisRZCCEuIhRKb+R1wYIFqFWrll0HzPXArg8rWzdq1Mi+Pnz4sI3ojhw5MnSdw7sO+XLj5HjDhg1W/CnPzzzzTEjoCefMiHl2dnbomBBCCCFEVUPiLIQQF5GK1gDfddddVp5XrlwZ6tOiRQsbpXX93nrrLaxatSo0jncN8qUQZ2/0+lyRbO9x7gNNcX7ooYdskTFH7969Ub16dUydOjV0TAghhBCiqiFxFkKISwj3OX744YetdGZmZoaODx06FAMGDMCJEyfs64qqXF9K3D14f4p+RdW1vXOgIPM9NG3aNHSc19apU8emanNfZyGEEEKIqorEWQghLiGU0tatW1vp/PnPf46DBw/a43v27MGKFSts9Wq/rF5qaXYsWbIkJLznimyzONm4ceNs5ewbb7zRVv72nmNFcBY0y8vLs8cu19yFEEIIIS4nEmchhLjETJs2zaZqR0dHIzc3N3ScEdtzRZj9ry8Fr7zyCjp27Og/bCksLLRR8UceeQQ33HCDXeM8bNgwfPLJJ6E+a9eutTL9xz/+0e4XTS7HvIUQQgghLjcSZyGEuMQwyvy73/3ORp2/+c1vhvZEJv4IMwtvcT/kyyGgLVu2xL333otZs2ahpKTEFi9755130L59e/zwhz9EIBDAbbfdZgWbW2U5PvroIyv9gwYNQmxsLNq0aROa7+WYtxBCCCHE5UbiLIQQl4GJEyfafZspz7/61a/KFQIj+/btQ7t27fDCCy/YaO/nwcn4f4tmv/nmm7awV82aNa3Qf+1rX7MRZB7j61atWmH9+vWh67gHNbfKGjhwoBVtVtiOjIzE2LFjQ3389xJCCCGEqApInIUQ4jJw9OhRtG3bFjExMVaev/71r9uq2m+88QZGjRoVikhzz2S3DvpC8YozH5lGvXHjxnLVsAnPcxup2rVrW2Fv0qSJLVhGoS4uLg7143VMN//b3/6GO++8E6+99prdf/qrX/2qLQy2evVq20/SLIQQQoiqisRZCCEuIV6ZpIByG6qEhAQryWxJSUlITEy0z3/0ox/ZgmGfF680E65LfvXVV/Hkk0+ia9eumDBhAhYuXGhleuvWrXbLrO3bt2Pnzp0oKiqyadgs/DV79mz06dPHrmG+7rrr7BwbNGhgfwQYM2aMjTY/8cQTOHLkSOi+QgghhBBVEYmzEEJcQrwp0+SDDz6wa4O/+93vIjw8PCTQUVFRoZRnFzG+UNy1vKfb7oqS/Nvf/hYRERFWeFms7Pbbb8d3vvMdPPjgg7biNytkM42cUXAWDatRo0a5Of7nP/+xksxK4P/85z/tsW7dupW77+eZtxBCCCHElYrEWQghLjEUWG5LxebIy8vD4MGD8eijj1pprlatGqZPn27PfV4BddeyiFfPnj1tajXhOmq+/v73v4/4+PiQEPsbU8iZuu1e33rrrTbNnFFosmDBAtx0001WrBm5dvd0PxIIIYQQQlQ1JM5CCHEZOJcMMx2a2z1RULm+2FFRX8K1x24NtBvTO7b3NaPNvXv3tingbh0y4R7SU6ZMsWnb//73v22U+YEHHrBRcFbTptAPGTLERpW7dOliRZlRZsIxuRaa82UE221D5TjXvIUQQgghKjMSZyGEuMx4RZdrjL/xjW9YEf3HP/4REtRzCeiyZcvQq1cvW+GaVCTMbC7yy/XIFGTKMQXYD9c/U8S5FRXnsm3bNhw+fNjO4/333z8rgsz7MwLNdO/hw4eXOyeEEEIIUVWROAshxGXGK85c80xhpjh/5StfseJK/MLqYLr1ww8/jJSUlNAxr2RXJM+MCrMw2Be+8AU0bdrUpldzrbI3ddyP9/5ufMo61zlzro888gj2798f6iOEEEIIUZWROAshxGXGK84kNzfXRnC5VdWwYcNCfc5FWlqa3RZq3rx55Y47WfY2N87atWvx7W9/20rvNddcg+9973t266s6depYmeaezaz43ahRIzz//PNITU3Fe++9V258zi0QCNh9n19//fVy54QQQgghqjISZyGEuMz4I8J79+61Va0ptf/6179C64a90eOKIsg/+9nPsGvXLnvML8teiXYsWbIEjz/+OOLi4s4qCOZabGwsvvWtb9mCYoxIO/HmGmnuPc0+XPvs3YLK9fH/ICCEEEIIUVWQOAshxGXGSa1XNKdNm4bk5GRbrXrx4sWhvueKIG/ZssVGjf/+97/btcjevl6Rpfx65bmkpASTJ0+2+zrXr1/fFgerXbu2jTRz7fT48eOxYcMGHD9+PDQOx2cfSnN0dLSNkDv88/PeSwghhBCiqiBxFkKIy4w3IuyN0D799NNWTlu3bh065pdm7zXcvoqFul5++WVbBMz194/vbV5YIZtFwNg+bb1zVlYWkpKS7Ny4DzQlm0XFiH9uEmchhBBCVEUkzkIIcZnxi62DeyVTTu+55x5s3ry5XF/vNd7rhg4diuuuuw4NGjSw1bAruuZc11aEV3zZb+zYsVbOvenctWrVQo8ePcpV9vYKvhBCCCFEVUPiLIQQlxm/YDJ6S0H92te+FpJTRpEZEXZQThkVds17LjMzE9dffz3+8pe/hKpyu2u8suxvPO7WMbvmKCwsRKdOnUJ7TCcmJuLBBx+0j3zNCDSLibnK2m5+nyblQgghhBCVFYmzEEJcQrxC6WTVy8qVK/Hss8+ievXq5aK6XO/M9cYOv/T6xxo5cqSV3Pvuuw8TJkw4K/Xa9fc++mWZUOLHjRuHhx56CFFRUXYurMLds2dPFBQU2LXRCQkJ9ni1atXwt7/9DTt27Ahd78bzz1UIIYQQojIjcRZCiEuIi/j6o7F79uxB9+7d8aUvfSkky4was6I1K1vzNfd1fuuttzyjnYFjMursFeSZM2daceaWUSz6xf2aXTr1f4OR4zfeeAN/+tOf7PVuTpRmztONw6JhlGiKvevDfaXXr18fGsu9X6+gCyGEEEJUZiTOQghxCfFHhg8ePGj3Q/7JT34SEs877rjDrlGeO3cu8vLybJo2o7k8d8stt6Bdu3ZYvnz5WfsqO3gPbhf15ptvomPHjrj99tvttYxAMyLMKtis1L179257/9LSUruNFaPd3I+5TZs2Ng3bRZK9jSnZrN794osvIj8/396PUWm/PD/wwAOYM2dOaE4SZyGEEEJUJSTOQghxGaA8zpo1C3/+859DEV2KLSV56dKltrK148CBA3jqqadCUhoeHm4j04888giaNWuG7OxsTJ061UaU161bZ9On77zzThup5hpkpn078WaLiYmxcn7//ffb/aKZhs3nvIbn/LLsbS5dm61x48ahHwEoz/3797cRaXeea7S51ZV7v06chRBCCCEqOxJnIYS4xDAtu3nz5rj22mtDkkmBpvh6U6290dm9e/daUXb9n3jiCTz66KO48cYb7ThM62a167vvvhtxcXG2T82aNW2jaPsFmI17MHuFmv3YnzJNIf/lL38ZOvflL3/ZFgfjlld9+vSxlbt577Vr15abL4uasQq4u+7ee+/FokWLQuclz0IIIYSoCkichRDic+Dk0FsAzME1yIwMM43ZieVXv/pVWwX7ww8/LDdGRWzatAm/+MUv7HV//OMfbREuSjjTrhnZHTx4cCjlm2uTt2/fbq/h8Weeecbeyxsx/uY3v4mmTZuic+fOSEtLs3Nj+nZxcTE6dOhgI9U1atSwadluOyzC9/bCCy9Y0U5JSbHHvHNmivkPf/jD0H24zzPXQhOJsxBCCCGqAhJnIYT4HHiLf3m3iNq4caOVVBdljo+PR+3atbFmzZpy1zrZPpdcci0yo9VM1WaKNddH79u3L3SeY0ZERGD+/Pmeq4Jiu2XLFmRkZNjINe/PeXz7299G+/bt7drmt99+266LZlVvrlemhPO4k14vI0aMsPd5/vnnQ8e8a7dnzJiBm266yd6D66pdMTFvHyGEEEKIyorEWQghLhDKqSuC5QSRxb0Yvf3GN74RisAylZlRYG+U2V1zrgJa3mPsw7RuSjLTs1k5u379+ujbty/uuusu24qKikJ9/WOxGBi3mHLRazZGom+++Wbb+JpRcc7d4Z0fYfo107V/97vflZNidy8WLnOp5YxYeyPOQgghhBCVHYmzEEJcIJRGF20mq1atKpeWzcatmlasWBG6hlFprzB75dSP/xzvw8rVTMv2FvX68Y9/jEOHDtk+3jH9Qs4+o0ePxm9+8xu77RX3iX7nnXfwox/9yBYKY9Expl1TtP2R8G3bttn1y1wHzcrc7l7ufElJiV0rzfkMGDCgnPT7RV4IIYQQorIhcRZCiPPEL5NeWBX76aefDsks1wtzrS+LfDmc1HrHOdd4xB3396FAz549G//4xz9sCjbF1yvOFTVew6g0i31xvTTl2zF06FBbOIxp2Kz8zX5+mefaam5Lxai1/16EKei33XabLVpG+XbnJc5CCCGEqApInIUQ4jxwEsiIsRPBwsJCvP/++/b5Bx98YNcgU5q/8IUv2AJg3i2mLgZ+geb4Tz75pF237NY9n0tSP/roIyxYsABt27a1qePct5nbXhFuK1WrVi0r48QrvG48FiZj+vnjjz8eStV2fQkLjXEN9K9+9avQXCTNQgghhKgqSJyFEOI88W4dxahqmzZtbAEuQon917/+ZcX5lltuKbcl08XCCa03Gsw9nLl/MouIuT5+eIxz5xx5LaPKlO2WLVuiV69e+OIXv4jIyEhbeOxccL9orodmITGHmwcfe/ToYd97u3btQuf9oi+EEEIIUVmROAshxGfAbTHVuHFj+8giWE4OU1NT7ZZN3CuZkV1/uvPnpaK1y6xmzaJd3KKKVCSqfoHlumZW0abocq00t61i1W4KNAt88b0NHDgQkyZNslFqbnHVu3dvXHPNNcjNzQ2N6d4fo9l/+ctfkJiYiJkzZ5a7Z0XzEUIIIYSobEichRDCx7lkj0WzuL0To6pLly4NHXf9WQSMAkoh5b7G+fn5oT4XAyfO3hRo7sF8xx132MjzuXB9+Thq1CgboWaRr1deeQVvvPGGXbO8fv16/POf/7TS79ZpM3379ttvtxF0vqZYc5st4p0D949mGvcPfvADWyTM3UviLIQQQoiqgsRZCHHV46KnTgb9UV1COezSpYtNSd69e3fouFcgjx49agt2UTLj4uIwZsyYUL9LyVNPPWULhHm3ifIL9ieffGLlmsXEGBWvaG5M5WbVbm45xS2uBg0aZFPS+fjrX//aRpQ7d+5sx/JC+a5Zs6bdb/piR9mFEEIIIa4EJM5CCIEzsunfl5kwXZnrgbkG2BUD84qpV7KHDBlipZnyzPRlFso6cuQIDh8+fEkai5KlpKTY6DDXLlcEK2JzbTJTrRmd5nrmRx99FFu3brXvZ+XKlbaiNgWY4/G9PvbYY3behO8tLy/PVuNmtfDJkyeXG79jx452bF4vhBBCCFEVkTgLIa56KIYUZifATpoZgZ0yZQpefvllTJs2LVQc7FwRauLSlinOrDLN/ZKZwsytnFz7/ve/f9Ha/fffj7vvvtvezxvxZfSZhctYMdudp9BzL2aXis2oMveA5jZSfM11z/fdd5+NHteoUcNW3ubezGyslv31r3/d9uN7euaZZ2z761//alO4ORemjQshhBBCVEUkzkKIqx6vCDvx3L9/v01RZuVsV3iLeKPS3ui0NyW6adOmNgLM6GxCQoIVUn/juYvROBYl99prr8Vvf/tbLFy40EaemVbOPZe5rzLP33jjjfY5I8MU3ZtuusnOkdfzkec5Bvuy2Bj7JiUllWuuH/tQwtliY2Pt8VatWtnCaUIIIYQQVRGJsxDiqsSbXu19Thg17tq1K/r16xfa5sn180aZ/enaDkZely1bZguIsWDY6tWrz2pr1qwJtYqOueMVHauoMd2a53fu3GkLfS1ZssTen8ddn1WrVp01h4qOe1/75+Hv5/oyJd37WXibEEIIIURlR+IshLjqcELHiLGLGjsonE2aNEF2dnZoPbO/z6dxvv2qIv4fFdznK3kWQgghRGVH4iyEuOrwp1oTplhz32KmWbPIFStkEyfY5yt/Th4XLVpk9z/2X3eusYqKivD222/bPZEdrN7NCLIfN/eKjvGR74XbTnHvZe4tnZ6ebufCHwI2bNhg12578cquF75mxJrXsjgYo8p+3LVevNLsPg8hhBBCiMqMxFkIcdXhF0XuY5ybm2v3NWZqtcO7htkvqufCSSKldeLEifb58ePHkZ+fb+/jXlNeKcZ79+61x5jy3LhxYyu3PM+K2RRVnue92Z9p424MwqrXO3bsCG1D5e594MAB1KlTByNGjLDrs1nYjPNhCjorbHMsjsk9lwsKCspdy2Pe7bYGDhxo3wfnwjnxs2DlbYq0i8gTCj/n4o/S+6VaCCGEEKIyInEWQlx1eGWOWzKxkFavXr3KRXe94ufa+UROXR9Get98800rqSNHjrRbNvXs2dNWul63bh06depkX3Prp40bN9rWoUMHuz6aEWIW+OI6aaaOz5gxA23btrVz5DjsQ+FlP86dcusV6tLSUjuWk3LCa7mN1FtvvWUlnns6cx13u3bt7PiE0WXu08y9qqdPn27nzi24eN28efOseDMq3rp1azsPtvfee8+2zMxMe21GRkY5GT+fz0wIIYQQ4kpH4iyEqNI4efNHmcny5cvx0ksv2WizN3rqlT33vCIBdGNWJIgUZ8onxbdPnz429ZsVryml48ePt8L84Ycf2vRwrqdm4S1uJ8WCZBRt9p86dapNGx86dKgVXEZ1KaYU8nHjxllpZvSXws+xvBHnZs2a2eu3bdtmH9mX96fgsphXvXr17D0p1xRgRtop0ywsRhGmaDMKzrlQnMeOHWv78LNi9Jpz4T24XRcj2oMHD7ZVtdmXc2TUnCjiLIQQQoiqgMRZCFGlcWLrTbemlFL2GDllGvKFyh3HdWuW2Zgy7QQ8LS3NijPF84UXXrCRW0aIKdGUUDYye/ZsK7Nr167FQw89hN/97nehdHHOkWLKvowUkzFjxtg5M526UaNG9j1QVrmu2cHo8/PPP4+GDRvaKHDfvn2tIDPVm9Fp3ouiS+kmfM7GHxF4nttwMW2d0u/E+fXXX7fzmjBhQmgulHG+L75X/hDA54yi8326+ZxvpF4IIYQQ4kpG4iyEqNJ4o8KE0VhGRBnBZcT58+AXcgopJZVQht99910rmpRKFuWaM2eOjTAzYvzaa6/ZfjNnzkRWVpaN7rKaNyO6FFKKJwXVRXsZNSZct8yINaO7jAzznrVr17aS7uB7bN++vV3P7IXRZyfOjC5zzTJhBJmRbUa8mSLOVHIKM9cxDx8+3Mo778nPi+/HzYXp5ixClpOTY38QYBExyj7nwoiz/7MXQgghhKisSJyFEFcNjLgyAksxpRQ6Po/YOXHmGCysxUivW//Le3C9L8WUcsxHyjTXFFM2CSUzJSXF7rncqlUrHDx40K49ZvSWgspIL2WZj4SRYYo05ZZp3RRwpkx7i5rt37/fVgenyLo5ks2bN6N///42HZuyzc/CjcFCYxyX4j9kyBAbdeY4nCelmSLNCDRF2c2lRYsWVqw5LlO7mVLO6DP7OSTOQgghhKgKSJyFEFUKlzbtlzUWvqKYcj0xJdHb9/PgxnByymJjjGgzquvgGmSmLzNaS1ih2hUiYwo1I8Es6MW1xxyLadgUaUp3YWGhfc1HnsvPz7fHKeuMBFO6Ga12sA9T0bl+mRFpr7gyjZwFvng/RqQZFWfqt0urZpSYUkxZdtFqzpP34xwYyeYjX3NM3oM/RhA+pzQz9dxxrvXfQgghhBCVDYmzEKJK4STWiSwrQzM1mmnIlEKmOF/tUIopud49oyW3QgghhBDnRuIshKhSeKWZUVxGmLmemRWl3fGrXRL5YwLTyhmZVkRYCCGEEOK/I3EWQlQpnAQynZhreFkEy1sk60IraFdF+Fkx5dsVNxNCCCGEEBUjcRZCVDm4nrlNmzY2HZlbMxEniSpWVT6dnanr+kyEEEIIIT4dibMQotLg5M6lF3sboQSyYBarTHN7JaYie3GyeLVJovvRgCnaLrrsPjfvPtRCCCGEEKJiJM5CiEqDt0qzkz6Xes1K2dxCqW3btrYitUNCGITbXHEPaVbUFkIIIYQQnw2JsxCiUuBk2S/PJD8/H506dUK3bt1C2zy5viIIi4Fxvffy5cv9p4QQQgghxH9B4iyEqDR45dnB/YO5P3NqampoPbNLyb4a07LPBfeO7tOnj13/LYQQQgghPhsSZyFEpcEbZeZ65mnTptnU7IkTJ4bWMztZ5qNbvyuC4ty3b1+JsxBCfF74tVL21eKenvVNc44Tp8v+I4SofEichRBXJN6IsT9y/P777yMzMxOtW7fGsmXLQuf8KdyS5jNwT2uK84oVK/ynhBBCfBZOnDDtJE6Z7xjzDMdxCuaVeXaKXzxnhJm1GNnsMfPddOokTp4+ZtoJe17fUEJULiTOQogrEhcxdgLt4J7M3bt3t9K8Y8eO0HF/CrcojxNnrXEWQojPh/t+OnnKZTcdNwdPBtvpk0aITwX/E/TlkCCf4rlTJ0yXU0Gh5leW7FmISoPEWQhxxUEJrkiamWbcrl07G232r2d21ynKXDFOnBmhF0IIceEwymz014hz2fdPBV87/FaywWb/CS8uMi2EqBRInIUQVyROngnXM0+fPh3NmzfHhAkTyq1ndoLt7S/O5sCBA+jXr1+5rbqEEEJ8doIZ2OY75/QpHDt1GoeOnUTxsWMoOHbctiLTCu1zHjuGvUePm/PBY6HjR4/hveMcRQhRWZA4CyGuCPzrlB3cn9mtZ168eHG5fi7a7G2iYriPs8RZCCE+P6eNLJ8+edqmYjP6POjdRfhN50w83HMkft1rHH7TYywe7zEGj746Gr8x7bfdxuHRHuPMufH4dc8J+FXPUfh/3YYiZ46KNQpRmZA4CyH+5/hTs50cFxcXo2fPnujYsSN27drlu0p8FpjaLnEWQoiLAL+j7HcVi4IBrUe/jZi/dUHYC4MR9uIo8zgCYXXMY91hiKg7FBEvjEZ4HXOs7khzfAyqvZCL8Kf6oOm4Bf6RhRBXMBJnIcT/HCfM3lRrVn/u0KED0tLSUFJS4uktLgSJsxBCXBzsdlKsjM3vLvO69bi5iKidifBOixHRfweiBmxD5ICtiOm7EfF91yGu7zbzuBmBPpuQ0Gc7ru++HDF1XkPj8SrWKERlQuIshPif440yU56nTp2KJk2a2P2ZP/74Y3vcpXCr+NeFIXEWQoiLw6mQOAd/7G01bh7Ca+cisud6BAaVIj6zELFZ+xDI3o/AwAJE5x5GXFYJ4jKKkZBzEDenbUPgxZESZyEqGRJnIcQVw0cffYRhw4bZImBcz+zwSrPE+cJw4rxkyRL/KSGEqPSc/c1w9pELooLK1xTn06fLtp8ytBw3F2HP5iC6x2okG1GOarccMd03oXrqLkS2X4aY9GLE9NuGal1WIyG7ELemrEJynSw0G7+w/MAXiwrmLIT4/EichRCXHf9aZlJQUGDXM7dv3x7bt2/39BYXAxZZozh7f5AQQoiqAPdNPmmb2wKK//84q3gF94Wy+yXz+8a9OEeza5fNGKft1XYUdyq4O3NwDB7i/ez4htbj5yLCiHNs95VIGrgL4a3nIqbLKtRI3YmI5nORMKAAgZ7bUa39UiQZcb4lZQWS6qaj2YTzWON8ngJsu/nfohNobxNCXDASZyHEZcUVAvOuZ161apUV5gEDBmDfvn2e3uJiQXHu37+/xFkIUeUIKu0pW+X6lBVk1ro+aot30W1towaHXpyu4DkfzWX8Yff0SSPOp+x2U9aiWUHb/odjnLTfY+wTStU24lzt2WwEeqxCUmY+wtvMQrSR6IS0HYhoNQ+JA3YhvucWRLZfhOTsAtyausaI8yA0GXce/zw+T9mVOAtx6ZE4CyEuK950a0adp02bhjZt2pRbz+yPRovPjxPnRYsW+U8JIUTlxkaW2RBsVpxPeNzxhGnHznLIs5qNOJtrTx8PXsN1zCeDW08FI9pBfQ6K9jHT9yhvhmYT5iLs+RzE9ViDWum7EdVyDmK6rkZi+i4jzgsQSMtDfK/1iGo/H4m5BbglZR2S6wxHo/Er7PWfynl+FZ55D2denPX+znQXQlwAEmchxP8ESvKQIUPQqFGjclHQitK4xefHifPChZdoTZ0QQvyPCP4g6xFnvgajxE4WmXh9FMG4dPmgrL+5SLQdoSwKzQejyVbHgwLK/wQFmzQbPw9hzw1BbI+NqJFeiMiW8xDXeS2qDyhAtRaLEGNkOrbPFlTruAhxuXtwcyrFeSgaTTiPYo3n+VVYkRx7jzE2bt+fEOKCkTgLIS4q/gJeFQkw1zP37dsXr7zyCjZs2BA6Lmm+dFCcmQovcRZCVDUotFRYK8+ng2uQrSR6RPqMOn5aq+i7x9/Hjhyk7Luq1biFCHt2GCK6r0ds9l5U67XGiPJmVE8tRFS3zYjJKEGUkejI3psRyNqDW1LWoHrdXDSbcB7/PK5oSn5sn+C+0ixaZhvn6TFp38yFEBeAxFkIcVGxa7/K5Nc1vnasWbPGrmfOzMzE/v37Q9eIS4sizkKIqkpQnE9babbibL5Tjp/id89puwyZ5xkx/m/fNDzPvsECY8FWkVK7447mExYjvPYgJPRcj1rDD+HaYftw/dC9uM483jCE7QCuH3IYNw4uxc1DD+KO9K0I1H0NTSacxy4H/23SxE7IfN+a71pbQ6TsR2jvG/A4tBDiApE4CyEuGl5p9sozOXHiBKZPn45mzZph3Lhx+PDDD+1xr1SLS4cT5wULzqOKqxBCVCKsG/K75sSpskJeRqT5PWRa6UfHkPvuSrR7Yxk6Tlnja6vRyTy61mHqWrwybR3aTVmLzpPXoLN5bDd1DdpN47nV5jXbKrSfshztpi9D+6lL0OntNfhpz0mIfSEDX+g4E3elrcGX+63CPQNW4UvpK3Bn2lJ8OWUp7javvzxgJe5OWYtbu81B5POZaPz6RSoOxj6sW3biNE6ctknktqaZN0gucRbi8yNxFkJcVCqKMnN/5sGDB9v1zPPnzy8n0/x1XBHnS8/7779vU7X5+QshRJXCSWJZNnZwWyrqI7Dt0Pv4Sct0RPyzJyKfHXim1S5rz2YgyjQ+RjyXgWrPpiH2P2lI/vdAxD8zEBGmTzVzPOLZLETXzkJU7WxzXabty8fIZ8xjXXOsQQ6i6uWi2otDEPnCCETVHWGev4aoFwcjpm4OIl4cikjTwuq9hoi6QxFu7tNo0kUSZwOLfHOzCr53pq3zhwOvOLunQogLR+IshLioeFO0SXFxMVJTU9GxY0ds2bIl1M9tSeXWNYtLi8RZCFFVsUW/+J1DV2TgmcdY9dqc2XboA/yo7XCE1RmNyE6LEdVtBaK6LjNtebDZ12WP3ZYivvtcxLd+E5H1JiChzSzEdluIyO5LEdnVnO+yyjyuMf1XIoKvO69GfKdViGg5A2EvjUNcmzcR22W+GWc1orusRqDzSgS6rEBktyWmrUJMl2WI7boEtdq/i7jnB6PxhIsnzpTm46Zv0ZEjKPnoozOSXBZqZl1xrnwWQlw4EmchxAXjl2S/BC9fvtyuZ87IyLAC7a7xFgDzXi8uHU6c582b5z8lhBBXMMwzLss1JmUiCPcdEuxhhblsm2XznN8xn9gz2w6/jwfajkJYvamISy9CfPY+JAwsQEJOKeIzipCQWYh4Ps8qRiCrANcO2o3rui1CZP0JqNFnHZJz9iA2aw9icg8gkL0fAXNNXE6JaaZ/ZjFqZR9ATIflCGswCfE9liN5UKE5bsbP3IfqmQcQn16M6EH7EZVjrjX3qJ5bgi8N2IjkF4ai2XgnzsEYeUWNBb+CNb4ZNi57gzzO58zHLvs8+FD08XE0em0K/p01BYuKPggOzXOnKdUnwe20znx+fG4/rLLreReptRCfhsRZCHHBOAH2Ro8dM2bMQMOGDe16Zu/+zIou/2+gOHONs8RZCFG5qEicaXoUSMpe8P+fYCVpfr9YEeS54B7LW458gAfaDTfi/LoR50JE9d2OyI5LrTRH99qIqO6rkZC730aJI19di5q5xbix61zE1RuB6n3WIjBgC8I6LEV0RgmiU/NQrcNiBNJ2Iab/FlTruQ5JmSWIbb8EYfXHI7bHKiPmhajWeQniXl2PxNTdqNZpOWIyChGZshMR5l6JRrZvTTXX1c1BkwmLyt6US6Q+u/E/1Fn+54w4n7DifNoWQEPosxm0bBtq1E9H2H/S8O02IzBm8Var34Tf0TjNvamDH1/wMz0RvI0VZ96FcWkhxLmQOAshLhivODshZtGv0aNH2yJgc+bMCfV1feyXt7jsfPDBB4o4CyEqHTYN2+lcmfTx2ya44RIzlvj8BI7hY5ue7SK0VgoNm40439/hNSO245CYboS350ZEtJqFpLQ9iOm6CtEdF6N69l5Et1+IqC4rUCu3BNd3m4fIhiOQ3NcIbp+NqNb8HcSnF9gtpqKbzUCtAXmI77keUUaQq+fuQ6wZI6z+KAReXYmkjAJUazkHMZ2XoXr6dkS0fheB1F2I62WubbsItTL34bZUI9Uv5pxJ1bYiW3EL1Q3hd23Ze7efgf2NgOIc/E7NK/0AP+4wGmF1hiKi5RsIe24Qbqmfi9Q5m/Fe8OvZXMDa48GocjCKzYh22b1cPXH7XAhRERJnIcQF4yLITpqLiors/sydOnXCxo0b7TGXms3mioGJy48T57lz5/pPCSHEFUtInMsEj982XL3sWnA9My2S0dOTNuDMb5myTG4bcb6/wzCENRiLhLR8I86bEdV6thXnWK477mDEOXMvYs1jTJdVNvX6hq4LEdFwNBL7bUZSr02IaD7Tpl9H9TfXtjDi3C8fST03mf7LkZhbiuhOSxFm+se+ugKJA4uNuM5HdLeViB+4DRGvzEZc2m4Eem5BTNsluCa9FLf334ikF4eg0YRlwUm6MHBFzaZkn7Dvke83uF+1a0y15jmgw6RViPp3CqLaz0XSwN2I7b4GYfUm4toGQ9Hv3fUI5n0Fo9X8PDnOMX629nPlp3oi+Fj2uQkhzkbiLIS4ILxCTFavXo0OHTpYOXPrmYmrmu2XbHF5oTinpKSUywIQQogrnTJftvFRu863bN1vsPH58TK5hLXqE6eDSdpute42pmq3H4Kw+iORSHE2IhzZ+h0kpu+xchvTcRGqZ5Ugpr0R584rcW32Pnyxy1xENxiFxL6bkdhnMyKMLMdm7EZkinneagaqD9iFhF4bEU1xzt6PmE7LEG76x/VYblOxq7Weh5iuK839tiOizbsIUJx7b0K0uUeN9BLcNiAYcX45tI9zMCW7ov8E5fi4TUPnjwR8f/Rb7tV8gu/dvM/NBz/CdzqOM+9xNBI455wjiM84YuazwR67/qVcDFm2vSxtOyjbTMrm5+Si8zZN+7RNCBdCnAOJsxDivPAW9fIL8Ntvv42mTZti0qRJofXMLr2soiYuPy7iLHEWQlQqaHvcm/k0E7IZLWVk+bQ9xnzlU0b6TjI9m8FSirPpcdzKNaUS2Hn4A/y03TCE1TMinJ6H6J4bUK3VTCOWBYjsvhJRnRYjOWsvoozURhtxrpW7Bzd1fQcxDYcjvt8GxJlWrfmbSErfhbi+WxDeYqYV8Lje64w4L0ENc218BxYTG4WEHkuNOBcirPUcBDqvwDWpOxHZ0ohzSh5ie69HZId5SMoqxK2pq5FYLwONX18YepNcycz35m1MpeZ/jpo3xorZ9i3bz4OP/EyCa5JTFqxD3IuZCG/zjnlfhYjLMuKcecTcqwTRr65AWJ1BuK/lYMzOKw3e7oT5hMy1R+1PERRnpnCfCEbqy2YkhDgbibMQ4rxw65O90sz1zGPHjkWTJk3w7rvvlusrQb6y4F7ajDjPnj3bf0oIIa5cbCSZP9hS7I7bKCz/j41fM9TNY1aWg5FTgNW0TTvFR0acP8SPuca5wTjEphcguv9OVOu8HNEZxYjouxURr65HIOcAonpsRFSvTagxaA9u6DYHUQ3GINBvE6LTt5v+SxGfXoS4AbvM81WIHshiX1sRaWS4hpHT+HaLEFFvHOJeXYPY7GKEd12J2F5bkZBWiGrcwipjDyJStiOi52ok5OzFLanrkVB3EJq6qtrBvOsKG4X6OEXa/jLAomDHTGN6dnBN8pHjp/Dv3JkIezYbMd1XIJBbauZwAIGsfYjL2YeE7D2Iaj8LYf/JwTNZs3HgWFCPT504hhPux+zT/KkhuPO1vrmFODcSZyHEeeEizY7du3fbCCbXM69duzZ0XNJ8ZSJxFkJURuzy5TJxPl22N/NnYevHR3F/x8F2DXLACG/17BJUzypAfPZ+JGXvRWJWkRXnBCOayZlFuCG7AF/othgRDSchoc9mJOfuRZLts99I6F7Tb6/dvirBCHJidhGuNeMlGHEOq/8GontuRGKuGSer0JwvQRy3sDKiHGfGiMkpsdfUMPe9dcA2JNQZhRavr/RP97/Anw0+MtL8CY6Zxoj0tgMf4cHOE+0+1cn9txlxPoDo3P2INtLMe8ab+yembkfYS1PxpUYj8Pq6oqAcU5Ypzvw4y7aqcmXDhBAVI3EWQpwXXhnesGED2rZti/T0dJSWBlO/vJFob1q3uDJgdgDF2ZsZIIQQVzqMgnIP4mCO8imUfPAJJq/dicErtmPQynwMX5GHYaYNWZmHUcvyMHppPl5btgtDV5hzq/PQc95mfKXlMCO2Y5DQfRVq9lqJWr1XIanXaiTbthKJfdYjodd61Oi5Etf3XIFr2sxAVIOxSOo0HzV6rUFyz3WI7b3O9FmO6r3WmX7rkdRzNeJ7rUXN3iuR1HIywuuPRXSHhWbcNajZc63pxzHXmderTP8VSDSvE3tuMMc34rquSxBXdxh+M/BtjFpj5lv2HvhYYVtu3tviHXhzQz7eO8kfEIzong5G3+fnleKeVuMQ1vhtJKfvMbK8H1GDDtqoc1zWAfuYkL0P8d1WIuy5Iag9dA4On7CfqpXloDi7wP5JG9VW3FmIipE4CyHOG8rwrFmz0LhxY4wcObLcemYnyhU18b9H4iyEqIzYslXBsLN9vXhXKX7YahAS6mYg/qXRqF5/FGrUG4bqDQahVv3BqFl/CGrUH4qEhkPMscHm+RDEv/gaouqNQWSD8YhtMBJRDUcgouEo26qZFm4kOfylCeb8KESZ8WJfHIZYM1Z0g+GINkIcWe91hL080bx+DbF1xyKm7nhENpyAsJfGI+KlkUion4WYernm9Vgz5hhE1zMSXW+8le+Y+iMR9+JwRDRg/4kIazjRPDfH6mUiqV4GajYcaudcs94gO+/qfG6bmbuZf3XzPpIamOPPZuKR7iNRfIIp27Dp63zy1sY9uLnpaIS1nIukrGJEM+085yDisw9acY7JOWyj0AkpjDqPx/c6jcKGgx+U+4zLY0uQgWMH70CZLmtlQq1vdXG1InEWQpyFE2H/embKMtczM91XQly54I8cFGf+8CGEEJUFu39x2XpmsihvP+5qFiz2FdVxCeI6LkZS+3eR0H62afOQ0GEektvNNsfnmrYQgbZzEG2ENsZIcUK7Oahhjlfv9C4SO81HYue55nEu4jsvQqDLQiR1nodancz1zaYYcR6GpLZTUb3LfCSZ+8R3XoqanWahprm+RvuF5jpeswg1Os9B9aYU7mGIbvM2kjvNsWPU6LAACWa8JHO+ZgcjtZ3NNV0WmMclqN5uJhIbDEFy09cR33EBEnm+/SwE2i8wc55v3sMc83o2Ah1NM/OMbsU1zMPwk45GnI8Ha2M7pqzLxw2NRiKs1TxUzyxBTPZhI86HEJvNNc5MEd+P2NzDRqJLEN56Bm5oPAgjNuxH4QdHsb3kANYVlWKFaatLDmH7gfex78NPuCO2Z73zMeD4J8abjwdrsp3iD+LBat5CXG1InIUQZ0Ep9u63XFhYiIEDB6Jz585Yv369p6eoLEichRCVEv54a8tJB18uzi/FnS1GI6zZVLtWuVZ2Aa7NzEP1nGLzei+Ss4pRy7Tq2XuQzGMD9yCi2TSEN3oDgfQ9pt9e0283Eo1QJuUUIclczzXOgdwS+/r63CJ8wUgyI8bJ/dYheXCB6cOxD6Jm5h4k5BYgPrcYCTmFZoxiXJ9dZER9HsLqT0Lsq+tQ3ZyvmbPbXFNk+hYj2Yxv55NZhJpZe3BddgluSduG5EYTcE2XZUjKPWDmWWL6Fdl11wk5+8w8SlDDzq3QnDOve69DWN2R+GnnUcGIMyn7JWHyWiPOjY04tzbinLUvKM6mxZqx4rjOOqcUsUak47MPIMbIfNyLQ/GjnjPwy97T8K22I3Fby2G4qcUw3NVmJO7vMg6/T3sLL41ZjKz5m7FwVynec79YHOcP6sHq5hey1lyIqoDEWQhxFt5oMvdnfuWVV6w4FxUVhc67/ZlF5UDiLISolNg9mpkqHHy5cNcB3NFqrBHnt5CYUYy4fnm2InYgaz+ieu8wbRsSMveZY6sR6L8NSemFRpyno1qjSUhI2Y3Y/vmI6r4aCel7zbU7ENtrIxIy9iO612bE9NmKWkaGb+y6yIjzOMT33YjogfkI777B9D+A+AEFCH91A2IyixGdYsbpu83I6n4E2i9DWIMpiDbnYo0gR7y6FlFmbFburtZjkxH2EsQMyEdMzw1G7EtwU+omVG8yBtd0477P+xDd0/TpuwPxmSXm+VYzTyPo/XcipquZZ0YJ4vtsMuI8HD/rMhwFJ+wGUjhtU7WBNzcV4KZmoxDW6h37o0FM9iEjzkeMMB9EwMrzQURnBZ/HmvcV3nAEwuu+ZkU8jOnmTabaHyHCGr1u5N+MU2coIp4bguS6Q/HV1iNQd9Q8rNr/flCTubba/D2OcxmW+/sIcRUhcRZCVAileP78+WjYsCGGDRuGY8f4C3NwnbOkufLxySefIDU1Fe+8847/lBBCXLFwja2r90wW5htxbjkW4Uacqw80othtI8LaLDKyXICoLssR2XGJeV6E8DYzENd9OZKN+EY2fQORL49BcupOxL66EdVazUJi2h5z7WpEd1yEGtlGWNsvRFTn5cF9nLu9i2i7j/M6xPTbYPduTkorQMCIdXjLd5GYmodAr3WI6mrGt9cuscXH4l5dYUR4D8Jbz0JstxVISslDtdZzEW9EOL7XJkS1n4caZp7cx/maxkNxTfeFSDb9q7VfYOayBkl8D2ashP7b7fjVms0wwl6ImL7bjeiOwM87D8Oe42Xi7Pkh4cttxhoBnoLEgbsQS1GmOGcdQiCTW1MdtDIdl73PiP5mhHdZhpge6xDoudkI+VbzHrchod8W08zr3qb12Ii4risR/spMI9YjEFk7Hd/oOAI5y7fjPd7bLuFSATFxdSJxFuIqw1+wy7ue2eH2Z27Tpg1mzJhRrq/3UVQeJM5CiMpI8DuLxSeDrxdbcR5lxHkaqhvRjOmx1kjeHCRn5CGm6xJEdaREFxpxfttI8jIrplacG41FkhHnGCOwEUZs4wcaSe22EtGdFgYjtR0WGRFeacS5GDd3eRex9V4zUrnRinO1VtONlOYjtr8Rz1YzkZiyw0jmWiPqS5GUU2rGWGajtQFzv4QsI85t3jHibM6lbUe1NrMRZyQ90GujEez5qJFRiNtS1+D6Rkacuy1AYtZuRHQ04txjDeKzChDZfrGNlMf1XoeI5m+beRYhum8ewuqMwC86D0WhE+eyr+wdhz/GL16dhLAXR9j5xmeXIiaLa5opzgcQax6Zqs01zrGphYhLKUIgtTj4PDUfgbRtSEzdigTz2QRSCs17Kw6+v9SN5v2sRlxDM/bTKXg2dzreOxosTKY1zuJqReIsxFWGE2fvdlEuikxKSkrQr18/dOzYsdx6Zsly5caJ88yZM/2nhBDiyoVfPZRE7xpnI85hLSYbKc5DdI9ViGg7BzXTjTh3Wm4E2AgrU6RbG2HtvhrJRjwjm75lxHkSEtN2IKrXekQYsU3I2GWuXREU5+wic+0iRHddgVo5+3BL5wUI1B2DpN7bEOi7BREtZiAxfZcV54iW76B6/zwk9jQi3HkFkhjR7bAS4fXGINDdvB5o7t1qrhHn5Ua2d6DaK/MQm16A2N6bEdVhCZIy9+JWI6XXvjwKtXosRWL2LkR2nIco8z4o3RT/wIDNiOuzFtWaT0d8RgFi+u404jwSD3UedmaNM9d9mw/nI/PQbOx8RD6XgegO881nstdIcrCitq2qncWtqUwbaER5QD7iB5j3kbIbkWnmvuk7EZ2+FbFpW4xQ7zDHCxCdssdIdR7izOcZZ95j1IsTcEfDQZi2qTh431PMOCtfoEyIqwWJsxBXKU6gvUK8bt06tGvXDn369LEFwRxKza78SJyFEJURf1VtFqy6q+VIhDebjFqZRgK7GXFuQ3HONxJsxLndUlQ3sskU6bjua1Gd4tzkLVR7+Q0kpxnR7rkeka1nIWHgLivKMUzVzilGTPvFVoRr5pbghq7zEVV/LJL7bEFiXyPLzWcYgd2N2L6bEN3sHVzbbzeSXjXPOy834rzfCntYg9GINSKeTGlvMReBLstR3choREvzPHU3YnptQaSR+sSsvbg5fSNqNB6NGj0WGZHejah2C4zErzTXGnFutxjx/Zk2vd6mascP3GMkersV5591HoEiK84smHYytM757W17cVuTQQh7eQKSB2xHQnapkWamaR+wadqxWWaOabsRnboN0WnbjDCbeRkxjkw3n0EaWz5iUneZthsRqeazSy8yEp2HqPbvIqx2GuoPnYFDvCXve+oT8+SEAs7iqkTiLMRVil+a586di6ZNm2LEiBFWslwfrWmuGnCNelpaGt5++23/KSGEuGJhmvYpT6o21/Te3mo0wpq/ieSsIkT1NGJrhJRrnCONzEZ1WYukjF2o1n4JYnpvMuKcb8R5qq2qbdc19zYC23aJEecixLB/57VWfqM6rUdU941IHlSE67rPRVSDEUaaNyBuwBaEtZuHmEzTf4ARzlcWISG10Ej0VnO/NUZSS2y0OqzBKCPlK42wFiCsw2Kbep1MEW233IpzXJ+diOy8GklZhbglbT1qNh6JWnaN815Ed1xj3sd6I84lRv7XIX7ATsQbaQ9vvdgWMeNzFvP6v66jUWCzw46bD4brjINwV+anXpuPsOeH2C26mN4dm1Vit6Ky+zoP3GukON+I8w5Epe0worzDiPROeyzGiHJM6h77PNYcj03faSU7qutqc8+h+HKLbCwuOGDvc4LFwU4fL7e0S4irCYmzEFcBXun1R5o/+OADTJgwAS1atLBS5U3fdv28ad2iciJxFkJcaVC/Qt8swczjsv/H75zgWl4/Cwvfw+2txyOsxQwEsvcaQSxGfPouxGfvQ2xmiXleaIS6wEhyvpHS3aiVvsOI8zRbPTouvQABI9vsHzD94zP43BwbVIq4gcWmFaJWbiG+2HUBAi8y4rzBiPEec91OBHJKEc91wubamNxSc19z7cBduMaIc3y7hQivPx5xXKecsxdxGfkIcOsqI+SB9GJ7L1b6Tkrfg5pGnL+UutGI8zhc030xEjluupFyM1fb38wj3oydmGHmlbILidyiqu9mI7Gj8H/dxmGv57N433xAhR8dw1tb9uCR1LcR9uxg8z5nIKZ/nr0nxTkiax8ibQR5F+JSjMAP2IPAAPP+jSjHpeYhltJszsWk5SEubTsSUjcjtvsyhDUcj2vr5WDg3E12T2ecOInTJ0/guPn3Aa1wFlcrEmchqjhOfJ38eiW4uLjYrmfu1KkT1qxZEzruj0aLyg/FmanaEmchxJUAv2EoZHa1LF/wyUn+aMsnx3DSSNqqvUcwa3spFu3YjyU792Fh/n6kLN6Nm5uNQVhjI8J9NyJmwGYjghsR228TYrk2uD/bRiSYxn2Ya7y6HBGNJyP85SmI7rnBnNtu2jbTfxvi+m21hbhiWYyr/w7E992Ca/quRY32cxHe4A0kdFlixliPRDNWbP/g+LEpmxGdstXejxHpWqy8/co7RjRfR0zHBUhggS4zh0B/M7a5R8DcL7bsnoG+m1DdjH99zyWIY7Gy9u+avsF783xcv+3mvZT1Lbs2YI7FdVmGanVH4jttR2P0xmJMXrUDme+sRrOxi/HYgLdwU5Nh5vwguyY6qts6I/rcA3q/3YKqWsZeVEstsmuXY1IYYc63ksx1zIEU0wbkISFlJxJTd5j7bUIko+f1RqN6nXS0mrQYB7mW2v6xmC8f/DFD8WZxtSJxFqKK41KtvQXAyLZt29C2bVsrzvv37w/1VXS5anL8+HGJsxDiisEJ2CkbXT4dKgDGiCafHPrwEzyXMgFfapCF24wY3tVkEO5qlI2bXx6CwItDbTGusJcmIOzlcUaKx9n1vWGNJpo2KfhoXkeY45ENRyPqxeGIrDsc1Rqavuaa8JfGh1o10y/UzOto9q8/CuEvjkBEg9GIeInje8c27WWOP9EcH4+ol8aYfiMRUd+0BmPsGGEvs88kcz74GNbojWB7+XV7PqrhSMTUHYyYeq+ZOXruX0GL4DVmThHmPcfXG4ybGg/H9fUHIbluFiKfy0ZYndfs3OI6zTXyu91GtuOzGB3fh7jMYkSm7UFk6i7EG1FOTN2JOLa0XYhN223keZeR551I6LPRyPlShDWfhrDnBuE6I83tpyxH8XH+dbjO/KRNlw9lBehfEcRVisRZiCoM/2XESbNbk8THefPm2dTsoUOH2q2nCPu5tcxav1T1oDgzVfutt97ynxJCiMuPNWdmN52wRadY54pfPcfKApw7Dn2Mn3YYibBnc40Yvh5sjY2sNpmMyOZvI6LZW8HWZDqibHsLkU3M8aYzgq0Zn5tjTd9EdLNptkU1m2qOTbEt0jVzrFxrOs22qGbTbbMVudmazDCPM+yjGz+yqWlN3rT3jzGvo+0czDXNzHn33LSIppzLmcZj0WbMKN7Lf39/a/qGuddERLSajPAWUxFm3k9Y81kIa7cYkd1WIdpIb0L6DtTMKkBC7j5bDCzALaiyShA9kBWy8xGbshUJPVYiqetyJPZYhfjuq+we1xEd5wVlucFY8zkPQaDOYPys+0SMXLELR/jnMX+J46eO4wSOm7/RyTJpNn8zxZzFVYrEWYgqjjfS/PHHH2P06NFo3ry5ra7sXc/sFWxFnKseTpynT5/uPyWEEJcfjzifMCLGbyl+9diMYPN81d738PW2Y2zkONBrBeL7bUIgNQ/x6XtskS+uYU4auBsJ9vkeVGdL3YMaqQWmFSLZPCakmHOmf0J6PhIG5tstpRJcG7gLieZ6f0tIL2t8nV6ApLTdSE4Pju3G5714PMk+8v4FSDTnWAws2Ry3c0nbVa6xf6I5b/umFyE+rdDcp9Dcc89ZcyjfzFzTzPs2zc0vMaMwGFnOOYCY3MOIzjkUqqAdlf2eeW5eZzDanIfYtJ2I7rYcYQ0nIOz5EaaNMm0kwmoPNrKcg1ovDca3XhmGf6ZPwYB3NmDrwbLioPwxw0jzaRwD9222r/kng8RZXL1InIWoYrj1yd61zYT7MzNVt3PnznY9s0OiXLXwrmPn43vvvRc6l56eHkrVZuV0Zht4//sihBCXDf4jh0HM06eMmp0y8hw8cLrsO2tpwUHc1cqIXuPJiGcqsZHNqKxDiM49grjcg4jP3YdATglic/cjZtB+xJoWl7PfyGQpEoxExmeX2jW+sTnB89H2/EFzzUH7aJ/nHvK1g2a8UjNWqRHS/bbF2VZqx2YL8B68t2lxLEhmXsfa6w4Ez5t7slBZgNfl8Lpg30BuiZ0v+8SYvtGDDlrpjTtrDuVbfDbbewhkmr5OkO243HLqAAJZh825Q3a/5hjzPDr7CKIz99utpWLSGG3ehmot3kJsnVw80GMK/pw5C3/NmoVnh81Du6nLMWbNbqwsOYLST46e+cOcMn+NU+b1qWP2OVMBuNT5WPAvBK51tn8uIa4yJM5CVCG8suxNt96+fTtatWpl92feuzdYk9MrWKJq4bIH+LddunQpcnNzsWPHDhtxnjp1KjZv3ozBgwcjLy8v1F//PRBCXFbKxJn7NB81L6w4c4ulsm2Wlu3ej7uaDzXi/IZdgxubVoiIjIOIyn3PiKMRRiOklFJKZJQR20gjxlHcfsmIJeUyrqzxObdkYovNNsJsRPTczQgwo7ieZq81ohtlRNi12LJ7x5p7s0+UEdpoI+LsF10m2LwuMuewOXfQzvHMNTxXavvGUODPmoOvGSGONy2QfdhGkmNy2DjmQSvOXM+ckGXumc19m81xvt/0QiPOebZqdlS3FXYd9LfajMDS0o/woflu+MD8M58SfDZMmWfqPP8a5u/ADbRpzGUPrKZt/81C4iyuUiTOQlQhXMq1S83m46JFi+x65uzsbLv1FPFHJSVNVQf3N3X/HThy5AjatWuHOnXqoEmTJva/C8899xxycnJs+ra7Rv8dEEJcdk4Hi2kz1kkxC4pzMPK5cs8+fNWK8yQk9F2LWO5BzG2VrGxSJEsRyGLU9VAwRZmCa8XxjHRyrW+wHQ6u+7XR2k9p2Yzgnulvxy4bn+nQXgEPZFFcuZaY5w+XtWBfzi+YNn3ERoB5jv2CEWJGwim5Qak/aw6+RtFmZJvSHccIuo2il5YJfVDW2Y/iHMNzGcVGmFk5eycCA7YhqvUsxD2bjo7TVlnxDapv2T/v7WcebDwa3CHaJmfbNef8WuCj+5EjWPU8WA1d3xjiakTiLEQVwkkT4XrmsWPH4pVXXrHrmZ1IuWi0kyWJc9XC/V1d1JmsWLECzzzzDJ5++mn861//Qv369W0E2vX3ZicIIcRlg//8sWnaZeJsv48ozqexZu8hfKv1SIS9PAUxfRlx3oHotD1GHBm1DUpnIGu/jbbGs9ntl0qtQLpGSQ1GZPnoEdBzNaZZ2zHdNcFmBd2OWZaKbSO9wWgv+/MYzwUb+wVFNjgn9mc/zzU2nfs85hOaV9n9mRZuXsfk7jPCHIxqU+itmBtZj87ch6j0PYhL2YFA6g7E9lqL8Hqj8Y3mg7BqX/CHc6ZaM8ofrMbGHyqMTrNqtjle5sZBaeZj2Wum09vF5yf5fRGMPOvfGsTViMRZiCoIt5caMGCA3W5q3bp1oeNeaXbPJc5VC+/f1Qkx93Du27evlWa2IUOGhP7m3mrqQghx+QiGMalr9p8+/MfVKSYI2/rN2HzwY/yww0SENTDi3HtjUART8xGXudemRUflBlOWGX2Ns1FcrjFmJJZp0GXNplIzTZrtTPr2OVtZlNeOUXYdj9lWJsOxbGVR6OC4QZllC17nZJZz2hdsWbyuLHodSrXmvZxkn7vZVPNsFgA7jGDqNiPiwYh3oCyCzX68d9TAvYhK3W0LgsUP2IbwNrMQXjsbzcYuxFEbOT5ts6z5WVOG+ZPFKRtj5k8X9mDZ3+HMXyj4N2K/4F/G/jjL8/rKEFchEmchKjH+yCLh+tX27duje/fuKCws9PQ+m4stS94Itjei7Y9we+Xd29c1h18Cz+c6PvorhJ/rsaLr3PmKrnfNvXZz9N7P37zXuWsqus7fr6JG/Pfyz8l7nI8OrnV+9tlnbcvLy7PH/Nf578VH/xzP9fhp11U0T38jPOe/zn+9/5qK7lfRvbzPHe5Hg0+7zn8//728137ade5+n3ad//qK7uc973/tvY7nKrpfReP4r/O3/3avc93Pf925xnDn2MTVxGnGPq2sBZ35tI1onrSvT6Po41P4Rc9pCKs3HnGvrjPSvBvRpgUozjY1O7jW2aYy28hsUHL9a5SDfYItJMHnatn7jfDuQ9jgA4jIDUoq067ZEjMoqRT2w1Z+3b28Y/vvHSwodmZewcrXPBdcS33W/c/RQuOVzSVg24FgurqNau8zUl5g09n5OcWkFSGuxzqE1RmEb3UciZX73w9+5PzfGP9nW/Y/Xf4FgpZ85n/L3vNnDvAvcsr+f3uq3Hkhrh4kzkJUUrz/wulYsGABWrduXW5/5ssJ5+P9l2cHj/nxnvf/S7j/X8i9fNq45xrDP773uk8b33sN8V7nP+e97tPG9I9/vu/Vf50X/zn/eyeMOnft2tVGmx3nGt+Pf7xzfZb/bV5ePu1vcCGfiR//vM51nX9e/nPnus5/b+9r/38vvfjHP9/P0v838PJp133anC/0b3Cuc592b96rovfAPmzunxviaqIicS77wcX854g5+OeMd4z8jUCg2wrEpe1CtGmBjIJgWjK3XbJiSWk+I6ifpzF9OiGzCJG5JTaazHRtrimOyikx0lxio80RuUdsRNl/7aVstsK3fY/ljztxZhQ+Ji0PManbrTgH+u5ERMsZSKiTic5vroDVZv5PjsW+hBAXjMRZiEqK91/qP/roI4wZMwZt2rSx+/SeOBGsSsrz/n+ZvZQ4EXDz4vOjR4/afyk+cOAAtm3bhrVr16K4uNj22bp1KzZt2mSLVB08eBCrV6+222ax/5YtW2z0nM+Zes5zHIMCyGt4Lc+xSjjPcdsl3mvDhg3YvXu3HZ8Rd96P6725/RLT1nmM17HP+vXr7Tl+fjzHsXhdXl4eNm7caO/F4locf9++feXmxTmXlpbarb04L37mPM7z7Mf3wesOHz5s58Xx+P45Pt8/r+N9eX/OY8+ePfZcQUGBnYvbLorPi4qK7DnO2c2L5/jeeB+e45plN69Dhw7Ze/Nz41x4nJ8Xjy1btsyOyc+bfd282I/zcnPm/flZ7ty586zP0n1e/s/Szdk7r/z8/NC83n///7P3JoBRHWe2sLAx2DhOZl5m/klmMsk4xo7tZJI48e7Yk8mb+TNvkkwm87LZ8RLvcRJjB4SQMMYLXjEGY7EbMKsQmMXsqxCr2XcQ2lv7vrakbnW3us+rU9XVKi4tEKAFSXVEce+tW1W3bt3qqjr1ffWVW763Lks+l/dYdswP7/HIe87yMsuS+aKleIZjHniPhu/0N+b34z2WKfNCf97nuS7LvLw8+Qw+m/niPebLWZZ8JvPFb63rrM4X/fhsljfDsgxYXnw2n8N4rD98Pu8xX/ob83ksK11eLEPGY77MPOvy0vWSdZ95Zro6X7osWfd4j/lhGixLxuO7sLx4zrSYZ8ZnWTJffF8zX3wuvzPLkt9Plxev6a+/o66zDMN0zHyx7jnLkr9RhmX8aO2GRd9DW8SZPlzpHLt4P658cgaueW0nrk3MxjWTcuR+xtzuaeBMSn6rI+rRFyLBbcuRiF43vVoQURoSUxatBwpi3n92GQbMKpUSaWmALErcznRKJdw5MaDWXF8tCD2taA+YlIsruf3UpDwMGrMbMc/OxL1vLsOx8vrwOuUQC9nxBSwsLC4EljhbWPRwkLS9//77UtLMwasGB7EcUHfXgJSD9pkzZ2Lp0qVy0Hzo0CEpCacK+c6dO2WY2bNny72FORgnieEe01QpZt4Zd/r06fKccceMGRMhuozDuMTu3btlPA7sOTDn2u6VK1fK9966dSvGjh0ryQXLady4cdi0aZOMxwkGrvslySCZYLjt27fLeMwzt24iqeHAn+nv2bNHxtP5IrEhQeC9w4cPSzI7Y8YMufUTCQOtmTPPJDNMJzExEfPmzZNp8DlvvvmmJOp8/gcffIC1a9fKZ2/YsAHvvfdeJF8853sQfC+mQ+JBYvbuu+/K92e8BQsWYOrUqTJfJHfM14EDB2T5sbyYL56TOPPZuiy5tze/C9Pgd2Ge+c4kjMxXcnKyvJeSkoK3335bEiKdLxqdI5h3bnVm5ovaD4y3bNky+XySbZJDSr2ZB4LlQWvvrB8kZcwXjyxLxuF9luWOHTvk+7AsSeomTpyIhQsXyjSYL8YjidO/BX4/Yt26dTIvLEuSb55v27ZN5mvFihWyrrAMWHd4j3WP95KSkuQ3JrFkWTDP/MYE6x2l9vxt0Y/3SGZZ7qxPOl+pqanyHok0y5LlQ2N9TJ97afMevz8dn81vS6xatUrWRdZlvhPLnHWJ8T755BNZLiwfnS/+Noj58+dHvjGJKuNxgoHxWMasHzxnWiwvEmnWS+aLk268x+/J36dZlsuXL4/ki/f4/TlZwfT5GyIYhumwLEnueY91j2myPKZNmya/Mb8/fyN6soRbozE/fB+LvglFnNFKnIN6sldpQ3y0OweDnkhE/1GbMWhiBgYJ4sy1ztd+VCqlzoo4K4vXHUGcpRr0jAYMnFaHGEGgY6YJN53bSlHiW4nPTaehMLUX81lxu8Fd/ZEgzVOLpUGwAYIw959ciIHjT6DfX5bgr5+dhJm701VJskhF2cqCtrCwuGhY4mxhcRmCAwc1eDjb3wQH5Rw8c0Cr92cmSDa060jofJnOBAfGHLyTlHFQTmJBUnKh+TDTdT7DRHfec4ZzXreFCy0Ljfam70R7450rXHvvnSucE+eKd657Ji62LM1450rfea+9+eqIe85wzmsT7Y3nvGeiM8rSeU2QQHPSgY4TNZzI0hMUmlBrML525rVF70H4y8o/8NuGWhAK0ql6sKOgEv/4pynoF7sGV0/IwMDJLlwjiDPXOUtjYB/R+BfJ84WtGW7Lcaurq6eW48tTsnHbwlzct7wQ/zynAF+cnC/IdJV4bp0gz8rglzNuZznTqBknC+Q6aWkhXJD56SXoPykfV3H7KXG8JjEP/UanIubpKXh06jrUtYSXY4iDLNdQ28tILCwszg9LnC0sLkNEGyyafhysUmrJraYoLaR6ZGeDz+ZzeeSgVxNzSouo3kniTpLMwXBX5MfCwqJ3gG0KJ9kokad2CKX35j3tdPtj0XugviatNmviHJCkmSSPKG0O4D/Hr0HMHxej/9hTgjgLAjspV+5VTLVquaWTVNW+dOLM+AOmleL62Xl441AVDtV4caS8GikFbryYWom/m1qMgVPrcS1VueXWUGen0RmORJkq45SGq72fwyraogwGiPIYkCjKQ5TJ54Ub9OYBUVZJ+O5ri3CwTPXDLGNpBVvKni1xtrC4FFjibGFxGcM5aCQonaHKZmxsrFTrJYk1w3YWTCm2KWWiWjClzE4L3jpcZ+bJwsKi50K3WboNY9tGiTOl0FQD5zXBdsScrLNtSm8Cv6XeComXlDbzO/NS7Sv8ytrDuPLZebji9X0YmOjCgEkuXDWlSJLHz4W3ezp7/e+Fu6tmVOILU/Iwcl85cpr9mP/JUrzx3gcornMjT+Tj4U3FuEY8+4pZImyU+J3ppHSd207xmqR5epm0MH51Yg4GCXddYja+8O5h9HthCb7451mYsSenlSLLcpX/hZ2FhcXFwhJnC4vLGE4yzHXDXHtLSTOlvBp6YNmZA0onaaYhIapmc+0q152aeTXJfmfmycLCoudCtyeaFGvQsBzXp3OdtYYlzr0VDuJMe9ryO4v+I6TUtVecKsaXhnyMK+LW49rELGkE64rJhYLolgsSWY4BwpHIqr2RtXNuSeX0D1+Ht4ai6ze9El/5uASrS0PYdzQNP/2/D+O/H3sWG7bvRpPfjyknq/DFKRmIEXH6h/eQju46xlCZ6SLEeUYFBk4rxVWTCzCQRsAEYb5uUjY+N/4EroxdjWufnYbhS3ajJsDC5OZRmjMrqb795VhYXBoscbaw6CHQ65lpeEdLdzU57YoBpX4WQVVsGhzau3dv5L6Zj67Kk4WFRc+FSZxNYqxBY3OpqakRAq0n5Gyb0ptAMhcAjYTxs8rvy3oQooFtGo1rQXqdFz965xPEPDcP1449hEEfpOHKD7JwZaILA6cWYMC0YlwlyOTAqSW4+jxu4DTl5DXPpxbLI90Vk4rw1Vl5WFcawKETafjlbx/DD//rV3jomedwuqgEM9Nq8KXE0+ifSCvW5WelHXEiL1cLgtvuvaPP58KkmdtOSdI8iRa086X0+3OJWbhuQhr6vbwDMU9/jP8zfhUyajyqaKUFbf6e/FJ2r2iz/e1YWFwKLHG2sOhmOKWzzoEh/WmhePTo0ZKs0kKwjtdWnEuFmaYzfapPUvLN9cxayt2Ws7CwsGgLZjsRre2gITFa7CZ5jhbHojcgFCZ1BnGWjudqTS4V9l9bcxBXPT0V17+1CU9tKMEf1hTi2fWF+FNKCZ7fVobnt5bjhVRxjLhK5bZWYIh0yv+57RX447ZK/Dm1XPiV4gXheG+IuMe0Erbl40BZAxpEP7fkkxUY/fo7mJu8BJVeL7bk1SJuYzZe3CLipDB+uUizXMaleyG1VLo/bK3BjUmVuILrkZ0kOJr7SK9f5jptSsG59ZSKq9Yzq+2oBswoRf8pBYI4F2Dgh4W4NjEPX/jwJK56JQUxf5iPu0bNx9bcCkWPBWmW65pZhiESZ0qf1Z+FhcXFwxJnC4tuBgcJJgHW0heC6/24njkhIQEpKSlyIEmYUpnOgikx1vnhlj5cz8yjhYWFRWeDhsI4UcclIbodsuh72FFYi8EJc3Fj/HxszGtEhRcorGtGia8FVaI7rG0JoU6QxZqIQ8TVSheSrkZUIenEeXWLcpXCVQRCMo16fxDegFJx9otjfX2jPPqFh1uGCaI6/Aym25q+eoZbuDzRTf/P+mr0m1IqVcHPIsoON4hbYEWIM1XHK0Q85WiEbBCl15SIT8vHlVPyMCCxQJDmAlyXmIWrXt+OmOfm4J9HLsCmtAIpX5aK71q4TPasGLSVN1tYdAAscbaw6GaYxNlc68e9X7nn6fDhw3HkyJFIeK3a2Nnk2XyGPnL/3dWrV0tC39nPt7CwsCDY3rDd4Z7Puq206EMIKZL61ILtuObRcRi99DM0NHvhaayF2yOIbQtVvZW96LD+QvhKO11fxDHoV86xoXGL4pbSOyBdaz2TfTP73ZCZIiPoNHT6yq9OHB5dVyq3iZIWsaOQ5TOJM9WwKVlW1rIHcY9obnel3dRiQZRdgjBno//kPFxN0jxRkObXdiLmDwsxeNg8LDqcLyXzXNpMki9psiXOFhYdDkucLSy6GZo4m0SUlqrffPNNjB07Fi6XKxLOXAfYmcTVfJbOH/dlphEwjc58voWFhQWh2xm2idS6se1OH0RAaRpsyKnE156fjluGzsCG08VobG6Cu74W3oZGBAXz5YpoEkdJDiVhZDzKXxXVlUrhkjQro2OVIsj+onpklNaJ+Mqat5+kGaS/ov8L0XHf8WalNk4xrlx8zYeQrLfQlJn6n/0kw4PSa+C360pwxZSCdhDnMFkOO26v9Tl5pLXwMgyYXoKrBGm+9sNs4Vy4WhDnaz7MwFWv7pLq2dcPm43pO05K0kyo7DEvzIlSgZeEnpMAljlbWFwyLHG2sOhmaBVtjT179mDUqFGYM2dOhKia5Fq7zpS6OMk8pd/cY5Xrms37FhYWFp0JUyOHk3cVFRVn3be4/GF+pwv+ZpKoAo3iNH7lAVzz+ET8bs5uZLhb0NTogbeuFgGPuCtILgltq5TZdAok1zWCHe8orMEflh3DrQmLMWTmWtR5mkAjWuTo7NpCIZJhEmFBkLlGmOlK8hxU7JTEVBJU0lK1JpvkmU+qbCFxrsAVk4vPu8ZZqWarNc1cy6z3ph40vQwDpxah/+R8XMW9mmkMbHIBPjchHf1f3o6YZ+fhxhGzMfdghiLNfHZLeFwg86WIvyLO4SI4sygsLCwuApY4W1h0MUxSapJmvT/ziBEjsHbtWvh87OJbw3clnMS5vLxcbg+jt50y71lYWFh0FtjO6LXNtLI9e/ZsuV0VYZJqi+6F/gbOvk1f6/4imt/5ENE2Fjjt9uL+MYvwV09NwXvbslEpuHJTcwAeX0ASWCdYc0i4S0X8bbmVeH/zaTw0bSeuH74MVzwxF7fEL8GHGw+hvkkQ52CLJM7yWeHnqVOmrM7ka0pyGibSOrD0U+dVwvvBtWW4cnLROYkzDX/RDZBbWKntrSihHjitDAO43ZYgy1dxz2pBnPvTeviENPRPSEHM43PwnVFJWHw0T04ESDYcPDM/WhrOfEf4siXOFhaXDEucLSy6GNEGDtzeaerUqRg2bBiOHj0aCesM15UwB0A8cp2hk/RbWFhYdCbM9oYEmmudT548edY9i+6FkyibkxrmuXls97eTXJDElDQxiBVHs/FPf5qOf3hxHp5P3ofEHbmYe7gcS0+VY112FTbmVWOlOC4U12N3FuHxBYdx1xtr8eXnF+Lap+bir/+0CLe9uhovrz2BI1Ve1EOR6+YQJ2kC6lnhLpe546le20ynqKiSbGtCrXzVtloVItCv15fhiintI87SavaMagyYXoH+00rRX5DmgXK7qVxcm5iDz03KQv9xh9Fv2Fr0e2IW7nttKdZnlsocUDJONXKqlJMs67xohtyO0rWwsLgAWOJsYdHF4GDBtA6bnZ2N8ePH45133kFubq70cw4stOtK8NkE1bMpAadFbz147QrjZBYWFhZOQkZQG0e3QXpLPIvuRXv6KGe/1u4+RHJBSlO94qQZTSLuqysP43NPz0C/x6di0NOz8MVn5+JL4vrLz83Bl/6chL/9czL++rkk/LXw//Jz83FT7CL827gNGLHyOJKPlyCz3gemxqSbxf/NgobyT65l1u8RltDyUnNpTaKlZ/ieOqdTeyVL4kxV7Slnq2pLomz6UTV7OveE5lZTSjV7wGQXrk7MxucFYf7rCWm4+tVt6Pfnebju2Rl4aMpG7C+ul5JmSdtZLsJp+XJrpsOnYRh3LCwsLgGWOFtYdDHMwcXu3bsxcuRIzJs3T265QuiBRXeSZvOZXHPN9dZ6gOrMn4WFhUVnwSTOur3ZsWNHxN6CJc6XB/gNqJXE5TzUoKqsrERBQQFOnDgh+5D169fj8OHDkQnYC+k/qH1MghgI+dBCoihQ0BjAU/O2IubJD3HNnxfiJ1P34IWkA3hi5nY89fFu/GnhAYxecxqTduZi8ZFC7CqoQW6jIssKaj10IMjJYJGXgLhuCSjBdvhPkWGThOo7rf7yHSJOSZy5xvk368qjSpw1cZYq2pIwl+DaSYW4JpH7M+dhwKRcXDM5C59LTMegdw7gyvjNiHl6PgbHzsWb6w6j2KOUs/2COvsk0Q9JNh/ke/C30ppVI9/q0CqHtrCwuFhY4mxh0Ykwia85SKDEZMWKFXjhhRfkgELvz0w4CbMzbldAD2wIrr32eDwRf+3aLS1oJ7rrXXsSnGXjvLaw6G3QbY12xJo1ayR51vft7+DyAIkzSfKYMWPksqOhQ4diyJAheOaZZ+Tx0KFDkbAX0t4ri9W0iE1tJxGHxsIEsuoa8MvJK3HNY+Pw4/dXYkthvZT2Vtb7hfOiRpBMf0TBWsXR1DIUpFOCbLXPVFBa1eapkt2G4+l1w/Ko09JOy3j5P1Wl6RRx/vWGMvSbUoirZ1QIolwhCLRayzxgVi0GzKjGwKnlgiQXYmBiHq6ZKMjyh1TNzsPnJ2Xj8+OOo/8rOxEzZAn6PTkF/3vsp1ieXgqaL1PwgTbEKWeWxcfsBVUZqfyE/4tcqIMlzhYWlw5LnC0sOhkcGJiq2TU1NZg5c6aUNB84cMAIeflAD2a8Xq9cT9hEwykdDCcJ724p++UA53vrsnGWifPawqKvgHWeRsLq6+svSGpp0XEw2x/tdPvNSdadO3ciISEBjzzyCB5//HE8/PDDss+7uMlWUlFKgltadaUliVUbMKW7m/Hg1LX4q9+PxQ/HJGNVWhlqfaLvEqS5wV2Lhvpq+JoaEPD7BLlUhJfrgskgWXWUM9+Fder8TlqsZv0Lk9ZQyCuyxgnwEKrFY35D4jxVSZwHkTxPL8M100oxgCrZk4uk4a+Bk3KFy8bVk3Mw6MNcXDs+Hde8thP9hizFFU/Nw9eGz8dLn+6By60mrmVphPNoYWHRPbDE2cKik2EO7FwuF959913pcnNzjVCXF3SeqW6XmJh41hYwlwLngMvi/DClbbbsLPo6SJzZflpbC90Dkyjrc0qbNTIzM/Hee+/h2WefxWOPPSZ3iigsLDRSuBBQ9svVx0q6KvcpFn6hYEASV379E7Ue/GHudnzhsfEYHDsTr6Ucx4nqejQ3N8JT34Daeh+q3D40NXnR0tyEFp9PSa3ZhEriq5wm5nqrZn10ntP5KZeWZF5mCNyuyq/MdaFapPHgunLETC5B/xmVuHpqMa6b5MJ13Is5MRvXTMqRa5gHTSZpTsfACUfR//U9iBm+FjHPfIR/HDYTT81OwYbMilbV8nBzr9p+7WlhYdHVsMTZwqKLsGvXLrz88sty5r2qqkr6sRM0pdGXCzQp476pp06diqxL6wg406EqOKVH3Cuaa+N4ro990fHdtSNBMNX4CUuaLfo6SMIWLVokl7zY30P3INoEHtvw5ORkqU21ePFi2deROG/evDkS52IQlErJpMuK27JF5NrkCHkX10XeIN7YeBj/OHQyBj09Hr9IXIOVh4tR6Q6gUdST2ibRx7hrZBvLdpVaVD7R9wRE+xoIiNQDahKGWQzJFM/lSNgp8eYWVn5qeUuL3I1yDbYfZd4QfvVpMWIm5OHKyQUYMDkHA6dkCpKchWsm5+K6REGix2fi2rePYOArqYgZukgQ5ln4/4bNx29mbsbKE3moNZdvSX5+ZllfbFlaWFhcGixxtrDoZLCDW7lypVzztXHjxkiHx6MpSbzcwPyR1Gvi1pEdNQdYBw8exKZNm+T+0MuWLZMDLpZTX3affvqpdKtWrZKWzLn1Do+sN8ePH5eDPhMd+U0sLHoKOKHHJSR6izz7O+h6OMv82LFjeO211/DGG29EtlTkWvS33npLfi/iYvs6+aywk/2SIK9+QZx9Ir0WuX8xDWaFpHR2c2Yhfj5uCQY9+iG+/PxcPDJjPVafykaZz4N6vw/1Hj/qGptQ19CAekGg3e5auBvq4G4S5143Gpob4W32SlLtF+HpAgGSa+WknyDivuYA/F4vmj1NcHuaUdfkgbuxFv7GahTU+fDfy3PRb0I6BgqifPXkfHEsxNWJ+bhq3Glc+eouxAxfjZg/LkDMk1Pw9y9Mx3NzUrAprQg1fjWRHhCvm1Ndj9PVdajX65ctcbaw6HZY4mxh0YHQZFiDlrLnzp0r13vRaIoZziTQlxt0nmi5dtq0aY675wbfX1u6NcuDg9z8/HykpqZKckjSvH//frkdV3FxMUpKSqRKuHWtjmWSkZERsUpLck3NhdLS0kh563LWZX051icLi44E67nWgjHbUovOgW5XopU326mFCxdi+PDhWLBggdSU0eDkqCbRzngXhIgaNXWiaQ2bStFc+UyCybz5w2JZFby00Y+x64/g+68uwlWPj8Pf/3kSHv1oE2bsysRuVwVyG5pR7fPD09wEn6dOkN1aeN2CPNe5UVfvRn1dPdy1dcqJ92ngtXb1vGY4QcDrm9FQ34gGQcQbmprQ3OgGvE0oaAJ+tbwIA947gUHvH8e1bx/E1a/swhXDNyHmz8sQ8+wcfHHILNz37lIMXfEZNmSVoSHysqqM0gqqMGvrMUxL2Y+jRa3tvYWFRffCEmcLiw6ESZqzsrLw9ttvY+zYscjJyTFCXf7QAxxuJzJr1izH3XNDE2ctDSI4gZCSkiIlEEeOHEF5eXlkL1Yeqa6tj9ad6VguLFMaaiNh5mQDy/Gzzz6TW7/oMtflfrFSHQuLngLaXiBJ4+/jkgiZxXnRFmFm+85JvDfffBPjxo2LEGRCE21KmvmNCGf8C0FkfbFckKyIMw1k6fXGel1ygMLa8FJr6kkdqnRjzKZjuH/Mcnzp6an42ycn4DsjZ+F3MzfhnS0nsOpUCQ4VVMNV0YCKWi/qG4OCTIfgbfaLfHtlm0vpM48er0e6Zp9XOB+avEG4m/yodntQXN2E0yKNvYVV2JJRjGl78vC9D3YjJnY9Yl5YgZg/zMWA52bgH4bOwgNvJOOFeSlIPpCLtFoPlCxecX6/eAeu2yZ3PuQqw8QNhzBh5Q4cyVRbr1lYWHQ/LHG2sOgEkNxwndfs2bOlWjJxKQOH7oAmYxeyvpnhNIHTa7cptaaEmWVCi+JMj5ZX6Uj8OLjiejPrznbOsuEAjgNREgdaruWWZlr6rMu+vd/KwqKnglJOtq38Peh2yqLz4JyQ4xrzSZMmYdSoUXI5iZ7AM9t/3Q7pfu9S2ib2JFTGplPkOSCZMpOTSdJLrnmm4/pnSqJV/0P17fRqD5IPFeLFRXvw3fg5+OJj4/C3T3yA64fMxvdGLcGPx63Bwx9twYtJ2/Haqn34YPNRzNqdhfkHCpB8tASLj5Ui6XAx5u7Lw/Qd6Ziw8SjGrNyH4YtT8ezHG/Fg4nr827sr8d1XF2LwsMn4++cmYtBTifj8c9PxrYQFeOijbRibIoh6WgFOVNajjouiJdS7BENBqZrtD3EvZq7bb0F1cwBHimtxNL8CTY1n2rmwsLDoPljibGHRgeAsPKWB3L+SarV6fbAe3PU08kyiq7fMak++GcYcNFHqTol1WlpaRKJMMkinSbN2TtJonSLOumzMsiJhYHlyX9SlS5dKib4ufwuL3gzdxmhNjEshZBbtgybN7M+2b9+OuLg4aTWby2zMMOz/NHE2v82lfie1/RN3LlaSZMmWyTkl0VTrf6mqHWoJSNVtn7j2h7eMioigIU15Ia3Wi0WH8hCXtAs/Hbca3x25CH//p+n4/FMTce2T7+PaJ8YJ9yG+8NRUfOHpKcJNxV89w3N1vO7Jybj29x/i2scm4Oonx+Pqp8fjb5/9EF8f8hG+M3I+/v3d5Xh8xia8sf4wlqWV4XiNB7UUhxuQuWK+W0iaA/IdaOWb22W1BEW9DtFxV2gVNmKTzMLCotthibOFRTvhnEF3kmCSzDlz5kgjYOZ6ZlMi4oxzuULnMT09Ha+//voZfueDfleuz01KSsLp06flgEpLmJ2k0JLmtp2TODvvcyB7+PBhfPLJJ7L+Ee39ThYWPRX8LXDJh9PifF9BtP4n2nV7EK0/c6ZFuFwuTJ48WUqZaW9Bbz/FcE4Jsz5GcxcOEYcGwILckOpMIklirDaqCohLtb9ySygsHWc3xGXPJPLSCjb/VFSCua/2h5BR5caOnGIsPpKDCVtPI2HZQTw1fyd+PW0DfpG4Gj+dsAI/eX85fvbBp/ifSWvx0MwUPJ30GRJWHMY7W9IwbX8mVp7KxZ68UmRWN0qL2pEtpCJQOWceyaHl9lf6ZaRHC8X68oacYGjh/tDML22Jc/02DaBdTNlZWFh0NCxxtrBoB9jhawKsZ9TNbaQoWeU6L87C05iTGacnQg9yaMWZ0uILBbf74OCKW1mxnJyEz7qOcVp1e9u2bdI6ubmXqoVFbwUn5djWcjKuL0L3LboPMvslfa+9JFWHNY9mfLYztPLPrRRnzJgBlyDQXQ6Zl1BUwSt91Z2zbkQC69Mooc4CS5S1yi3Ia60/gBqfH9XNPtQIVyeu6U/J9flbWvOpJmV33JIudGYGI/nW79aenFtYWHQFLHG2sGgHOIjQZNkcsBBcuztixIiz1jPrAUhPhH5fqkNSSnyh0gKWCckcB10c3DoJn3Ud51i+lMBxyypKny0sejtY5/Xyjwtpl3oLdPscrX8xCXB74CTNZt9GbaF33nlHbjNFLSo7MWdhYdHXYYmzhUU74STCVBOkVPXFF1/EkiVLzpj9N0l2T4QejHINGyU7FwJuR0IJRVFRkZSGOomedR3ntCo3y5mW201DPRYWvRUkcKz/popwX4PuW1gWbGspCdb7vF/IRGe0SV6mw+UftNVBKXNVVVUkbE/u19qLCyk/CwuLvgVLnC0s2gHn4IKSZRq9Gj169FnrmTmQ0YOLnj7AoPVUrlO+EHDtYWpqqpQGkdRZiXPnOl3GPKakpMh16RYWvRllZWWy/eVShb5Mcti/UMuEW9PRcSJX76Pc3jIxy4/9Fg0OcgvFMWPGYN++fZF7uj+ja2/aPRW6TMyyieZnYWHR92CJs4VFG9AdpB4o6M6S2ytRCvvWW28hMzMzEt4cVPT0DtZ8b03+23oX05/ny5cvR25uriXOXeBMg2Es72PHjsltqrT2Q0+vhxYW0cDtqDihxzpP9Lb6rdtdZ3+iQX/+5mkQkLs4sL3lhOXWrVtRUFDQJrnVE7rO9AiWKScjaPxr8eLFEUv9hBk+WlwLCwuLvgJLnC0sooADA1NyrEHpMrfi+Oijj+RAQ4dtazDSU6Hfpby8XK6dPRfMd+aewiTOlHpYwty1juraxcXFUupEQq2/TW+qlxYWhF4K0xvrtibMptaSfkf2SdQo2bBhg3SUvHNZDH/z1A5i+7t58+Y2l2swLb1llFluu3btwksvvYR3331Xrms2w/dldXgLCwsLJyxxtrCIAg4UTNLMIwcksbGxkhia/po4OwcjvQGUqOvtqKJBv68+aqkHSbNWH3YSPOs6zjnLl9eUQJmTOr2RXFj0bdBq/969eyPbUfWm+q37Eu1MkNTS6CIlzGxnuWvByZMnpUV9rnOmUUY608CXCWdbQOJNo5acDF6xYsUZVsp12N7Yr1lYWFhcLCxxtrCIAj1gIKiyxv2ZuZ6ZarAazgFOb5qZ14MmEjEO0tp6Lydx5mCOA1ptvMdJ7KzrHKeNhHHNJzUEXC5X5LvYga9Fb4Pejor1nehN9Vv/XunYp/BdOYHJyQKuOdYSYfZLmzZtQmVlpTQMyDXOtDROzZO2oMuJBJn2EGgte/z48ZEtFAnz+bb9sLCwsDgTljhbWJwDXM/MtczckoMWpjWcAwvtessAQ78XB6YcmOl3dcLpR5VBGqvhgE+TOUueO9eZ5cvvlZqaGtl726ynFha9BSR+bI97o7q2fh++G0kyJyLpSIwpXd6yZYv8nVMdm9pPO3bsiMTTOFdfRJI9ceJEvPLKK5I8m1JmszzNfs0iOtoqYwsLi94LS5wt+jxMcmEOEqh2zHVfU6dOjezP7AxvDtrM896CrKwsvP322/I82rs535nSTpYbJc6WNHeN02WsJc5U5dTEWX8jC4veBLYv3DLJlI72BOg+xtRQcvY7+l1o+Iu/ZUqWSaBpsItHSp2pmr19+3YcOHBAbkHntLdhTuTqtNk2cD00lxtNmzZNqnabiNaXXc5lGy1f+n2dZRutnM04zrDtgTO8s8zMvJwrXfqb+Y0WzkzrXOHM707otE3/aPE09D2zDpnxzLR6k4adhcWFwBJnCwu0dhQEOwQaXuG6r2XLlkUst/Yl6A6RaoIsg7bg7IipOmgSZyfJs65zHdU0Odg2DfxYWPQ20GjhlClTIttR6bb7coZJeHSezX6H4H7JNNSVmpoqDf1xDTK3h6JRSh6p0UNCnZubK42EuVwu2VfRz5mmmS7bg8TERCQkJMi0e+Pa8Ghwlke0td+aEGq0ty6Z5a3PneVpPtcM64S+r+EMY15fSDom2oqn66PznNDh9ftdTDlZWPQ2WOJs0eehOxSC1qDnzp2LESNGRFTgCGdn0xegyyVaZ6vh7Ggtce5eZ4mzRV8ApbBUU2Z9P1f7dDlBkw86to8mKDE+ePCg7HO4nlmrZpM4U7rMCUxqkaQK0kvtJ0rbaQRs9+7dyM/PPyNtk9DocqJ9DtrpYDoazrA9Hey7OcFArSeqs7PsCJP4Rasn+j7bT1omd36btmCWuU6XR/Z/nOCgSnxb4UyY9zkRxHxEC8f3Y/50fqOFYRpU4WddYjnQsS7pCaa2pMRm/gnWE3OJlpl/bfgzWjoWFn0BljhbWITB9cxcy0yjM1RRJnSn0dc6Cf2+lHrQ2qrpZ8LZgVvi3L3OEmeLvgASAEpNe1rbzLzyd0oyQwLM/JNgUcpMorx27VpJivluNLR4/PhxSaZJgE6cOBEhQGxfSaSYFhGNmFGNmzsivPHGG1JarQmhDtsWieopcOadZTRs2DDMmzdPbhc5YcIEuFyuM8KcC7RQzv7fXJbVHrAsCfZ3fPbkyZPx8ccfy629UlNTo0q52wJV6fmdo4GTIKwr+nltgRMqzz//vCwD5ocG4Dh50t4JAYKTMdzaLBpYR7nW3sKir8ISZ4teDye509emHzuC+Ph42elxQHKusH0B+n05gUDjaKafCWfZWOLcvc4SZ4u+AJJLEsvLeRmNs+/QRxIp/kZJiPl7JREh2SF4JMklNKGmBJG/bU3AnETMqZ5Lte2FCxdi6NChSE5Olta4Ncw8OYl2T4Mz75zg5dZaGiTSY8eOjezwQJV2rhPXUnfG5y4ZixYtkv0cCSttmrC8qAbPSQuChDopKQnHjh2T1xwfsI+jJgDJpc4H6yOfx36P4HckgeZkB+OQvHKrQH2fxu1YD+bPny+fT62Dhx56SJJ31guS108++QQrV66U9Z3O5XLJe9RK4PP4PpRCm2Ca48aNi9SJ3NxcaadE55XxWC+0RJ71h+XA8qOkmssgCgoK5H2WHespCTgtrzONhx9+WL4n88t35DadPPI5BCceWFbnI/gWFj0Vljhb9GroAYIeJJjXBDs1dqgkzexM9PYmFqpD5YDDVO9zwhwYEpY4d6+zxNmiL4AD+Pfff/+yaq/NvkX3N+a1KeEluaBRL5IekiH2Qfzt0p/nfD+G55pnJ1HWcJJfSqmpqkwJM4nS0aNHI2HNPPUmmO9DaS2JqgaJHyXQJKiUvpKQ0igaNcrYp5F0UiLPOLTjQbV3lh2P9GdZkjSTJJI4U4JNP05mPPXUU9LPJM5MmyriTpCIMr0PP/xQpkWVeRJp2lChNJj54TmJ+mOPPSZJL+vEzJkzJanmunSu5+ez+R4krC+88IIMR6k2raObk/0kwfTnBAr7YU4I8BlUvWYZMQ98Z/5+SM5pZO6DDz6Qz/v5z3+OpUuXyudyYoD9OesSiTPjsF9hHrmFGbUmnn76aUnuWZZ8F9ZVXvMZvbG+WVgQljhb9GpoYmeSZt2Yk9ixM3j55Zdlp6RhG3xVbuwEWUacfdbl54TT3xLn7nWWOFv0BbCes10iWYzWLnUHzD7GnKg182eek5SlpqbK9aL8zVJqx/uU3JlqstHeTz9HgxaySXxGjRqFTz/9NEKkzPz0xn7NfB+SwlmzZkWuSRxfffVVKWElydRlwnKiZJqEkMSRYH/FNeS//OUv8eCDD0pyTJCwMg32aTSuRpLK9EhgNXQeSERJWglzsiMlJQVvvvmmPGcbTYJJzYJJkybJOkBQ0s1ncAcP1gNOoFBCTUI/cuRIDB8+XNYVElgScRJXTgzwm1KzwNyHmyr/jzzyiHxnCgSGDBkSSZP+JMVU4yfp5fPo9NI0viMlz5wU4CQAy5Rq33wHLmXjuzLfzCu19BieYF+vJ2tI0rUGhbP+W1j0BljibNGrYTba5kCDHSZnRTnDbHY6WjJghu2L0OVGlTDd6UeDs2O0xLl7nSXOFn0BrOckl2xnLqeBuc4LVciprkrpIM9JMkg8TJAws+1KVYkAAIAASURBVL1kG8v1qyRGVMsmdB/kbF+d4PuTyJEgkdBog1SEJsta0n2udHoqzHeiSjMNe2pQmk+jaJQgU9rL9pEgISXhowSa5FqDkunf/e53kmhSfZtlR8ktiSnJ5owZM+T3ouoy7+sy1WMFknGqYmvweSTg9NdEm3WBxJL+zCu/PeMzn1ST5v7anMSnqjgn9CnJpQYC4/A7U1pN4sy8kDhTfZuGTM0xDNMm2ecEDEnwr3/9a2mrhO/6s5/9TBJqEvDp06fL9yHh1/WGz6MmxIIFC+Q95o1LCUiK//SnP8l+hWVJcs6JBuZDW2inhJrhzHXifX0cZdE7YYmzRa8GB1jsQDhI0SCxY2fDzpOqcITuAPWxrzf4elDAzpkdZ1twDsgsce5eZ4mzRV8AiYCpqn05kEKTRBFsB9keakvPJDGaPOv8UtJHwsz3IKkySa7uh9p6N0rcaZODxI7kShMYwiTd5nlbafVUmO/D8uXkAft6SpdJ/ig5JdHkBDmlrFRXJgkl+SXJ4/pcTlbwu9CP0mC2nZyI4PcjGSdpZrtKAk5iTGJKAquhv/nhw4elRJoEnHlgXD6L35fjDdZZSmRJLF0ul5Rmk3wyPp/H/LFOU7rL78l3YX3g85955hlZhygtZ5/M7051c77niy++eAZx5vP4XF02JO2cAOAkDt+PKtbsK0ieec5JAPYZHAsxLf3OfFc+i2XG9xkzZozMF4kzy43lw3xoOwPMw69+9StJyAmz7llY9CZY4mzRq+AcILCDYseh97mk+hHVopYsWRJp8G3DfjacAy7t54RzMGaJc/c6S5wt+gIo0aKEqyv2Izb7FE1mnWTUbC9Jdti3kAxTesffI0GpHqWG/J3qOMw/pc2mxWNn2k7yQaLH7Y5I0ki+XKKPOxc6s2wuB+j3oxSUBJVrkUkcSW61YTSSXmpOkbSS/BHUAiBRJakkwaY6M+OwDeV3I3lkPdNq3VRp1tuCsZ9zPp/fif7UZOPzSSo5uUFw8pnEk3lj/8hnUKVe3+cYhfWD5JjElGEoGWY6XH/MeFQD533WF5JbHvl+XFut0yGo6UAyzGcQJL/ME/PNusIyYF6oBs56yrh8R0qPuXaa9ZXknUSe66MpBWccLmsjUdekXluB13WXefnjH/94Rtk4666FRW+AJc4WvQrOgQY7J6pecaaXM9AcbHDGWM8S60GQxZnQ5ce1czSa1hb04E7DEufudZY4W/QFkJyyjemKgbmTwJrk2fQjSB7Y15DkUNKZm5srSQh/lwxDfxIbZ7tpwnyGc9mQNvREY1M06qTJUVtp9RXw/TkJQfV9lyCHJIPOiXFKTrUFau2nLVVrjTQeWd6sW7xHsIwpkdZq9LzHtNsqcz6H311bz9bhKHHmPYLP4MSKrsM857fmO7De8Mj4fK4Ox3zQMZw+Mi7zrJcs6HLQ9U3XHd0/EBQicKka7zEsx0gkzSTbnEigmrh+R4J5Zhlp7Q7eo/Sa6TGMzgMnc0io9Tvq/LRVThYWPRWWOFv0KpidBQcxNKzx5JNPSuuanDU1Z2bNAYpFdFDtjDPybcHZMVri3L3OEmeLvgBK27hWtauJo+4zzL7DvOY6VRJnkgfmkfkjwaW0jyDhYJt6LtKv0zJJM3/bXH/KfoySUJIrDSe5tmiFLkfTWFdb/b6+Nvs05/eJFs+EM7xZX0w/rZKv86f923puNDjDm3XRee0Mr8Fr1ldtJIzq5mYY57s6r7UfyTgn2HW/Qz9dxy0sehsscbboNdAdg274qZb9+9//Ho8//rjcQoHGODgjzZlTHeZ8HWFfhS5HDvyonhWt0zXDaVji3L3OEmeLvgCqzNKycFdsR+Vs45xg/0HryJQOknhQ8paamiolzVRnpQSP1/x9mnGchMp5j+B9qhRTVZjaUtF2f+irxFmXndnv67Kj0+ViOrO8ooXR6Whi67yvSbhJxDXM50c712nqdLVzpt1WPH0eLT/O8OazooU1r50w03c6Hd+Zp3PFZzgLi94ES5x7OJyNkvO6r4JqVTSEQdL87LPP4rnnnkNsbKxcE6a3XjgfdMdzrvPeCv2OLEda/tR+TjjLwhLn7nWWOFv0BbCe6+14nG1QR8GZJlV3SWJJjjmZyPaNEmSC61NJmDkxy9+ey+WSy1y4JpXSYUqfTdVhM9/mc8xzSq25vIjWlbkGV6vA6nA6jb5KUPT7mmXoLFuzbHg0wzid09/8Pk6n0zJxvmfzSDif5TyncxJkHc8kyTqe089Mz0zXmaYzjhnG6X+udPUxWjk471lY9AZY4tyD4WzITNBCIgkPZ8KpJtYXHN+VAxueL1y4ED//+c/lnowJCQly7Q3X8NCgDPcY1OWij4zH9WO8znVY4XaWs9m59Fbod2MdoiGRtqA7VA1LnLvXWeJs0RfAeu4S5NSUrHUkTLLAZ7EdZNvGvoPrlGmBmRJmSpX1/sC0nUEDUyTPtFbMa/YnWiIXLY9OkkHwqLcUolT9+PHjjlgWFhYWFt0FS5x7KNjRmjOIBA09cNDMtbyUttKACB3P+4rjYIPvzO0naD2bpJl+tKhJdTceeS9aHM7sMzzP6actXWqY5LmvEGdOwHAQ1xacg1ZLnLvXWeJs0RdAVW3aXuAEp0k6Owpmm0ZV66VLl0bsY1DyTGvCJMgkyiTJBCXL3K2BhpdoCIpSZk3sdV/thLP9ZJrczodbTHF7JW1gysLCwsLi8oAlzj0U5kw1wc6bhJnkkJ26y+WKGE7pi7gYUsvBjbamSfJHIyyUtnJttDbGYpb7xTyjp0C/pzlJEO19nf6WOHevs8TZoi+AUl5KezlZ7GyDLhU6LX2k4SO2ayTrfB7bt9TUVEna2VdwT1tKlkmiKY1meA1TmhyNOGtoI2Jcx0yr2eZyoo58NwsLCwuLS4Mlzj0U5mCB6sdvvfWWNETiNNRgcWngGjZKESiF5to2Qg+EejN03aKUZd68eWf4mXAOWi1x7l7Xs4gz6412FhbtA9sb9nN6yx1nG3Sp0OmZaZIYr1mzRhJj9rMmOabKNvdnpkq13qbInHA0JyCjgVpN3LuXWk5cJ83fMXG+eBYWFhYWXQ9LnHsIzM7c7NRXr14t997TRkqcYTsMITW8JS0P8SwozloC4oKDA+XfgqBwAeFCKpw5LmZ+wL0GgzqR1iGzTpguyBsiXY4VeA4+g9dB6Se9GSdyciacZWSWgfO6LX/nNcEBU3x8/BnbLfRm6Pd3uVxyfbjpZ8JZVpY4d6/rOcSZvx8/+PuW7YK4ZgvBtoNnbEv4d0ZD4XRnnlr0IXAJCbe/6aztqJz9B5+zcuVKuVOD2fbrMJREm6CfSZ6dy6oIprlq1Sq5pGjatGlnbZXobFstLCwsLLofljj3EDg7YmL37t1yX0dNmju1k+X4Nchn6Gsx2A1STc6PlhAJM3ku88YhLwe/4fzISNqfR7JfddTh5MhXBuNAoUWmTdLMaxLxkCTpIRmGQ2y/OOEzO/V9o4CDJk5S6HVnXf38rgTfjeRXu7bgHNxZ4ty9rucQZ9YZNVum6HL4zyAMql6xDQkHd7ozTy36EGhRmxN65taCnY3c3Fy57pjq2e2Bsy6b+aSUmSrZnIw1bUgwTG+flLWwsLDoybDEuYdAd7xaFbu2tlaqdh04cEBem4S6U8DxqyS2QUmQtVSIxDZIyVHIJzIRlhTLsS7/GIr3WxSpDkuJg/AJX9JfdU8NnJkapdX8Y1yVslemoOKpuCKMeBadJNldCJbvxIkTpcoe0ZsHOHoAx7WEx44di/g54RwQWuLcva6nEGdJeNlOOJz+nWsn/cNh1UnYheG4tOgjYPtCdWkeO7sd1m0cn0Or2hkZGc4gUeFsGwnmefny5Rg5cqSUMnMCQMM5MW5hYWFhcfnBEuceAmenSoJC65uE7tQ7s8Ol1jSJbED+tUglS+VIckmYfVIyrCTIrcSX96WfFEmT+So5syTLlFpTuhwi8aYjKRdBJflWBJ3PkPRYDqwVcZcB/CGVqS6CLltuWcUJC72WrbdCvxsHiVzf3Racg0NLnLvX9STirFdnhFdusNlQ/0lH1qwl0eq+hYUG6zrXHWvjYJ0Jpq+tY7PdN7cqPBd0PA3ayKAlcBrwpDFPU5NH9+Gd3Y9bWFhYWFwaLHHuITAJCjtczlZTVZtg56w79s5CZPkxO/agWpVIaTD5q3ws1arZ+cvQSlzE/73CcRWaT7qQOA/J8zPBkBxEkESHwg+DPJJXy2NIEXepps0xNf07V9BwBnTZspy1IbbeDF3fKHHmZIH2c8IS58vL9RTiTLRqpWjRsmxIwk798E3ifHbts+irKCoqkiSUqtpEtLapo+AktRdKbisrKzFr1iwMHz5crsvm+mwNnZbTWVhYWFhcnrDEuYfA7FDZ8U6ZMgW5ubnymp1v51rT5uA1bKArzKApKZYqchG+q2TRlBBzKFMhwhxu8GFFWT2mF1XjrYJajMqrw+j8eozLr8Xcolqsr2zCMU8QxaEg3CIm/6TqtnjPQIjrmEMR4sxRs1IM189R6uJdBT1gIjgImjx5siNE74I5WDzXli9Of0ucu9f1HOLMHzTbFO1alCaJnJ3jPR7D9Uu2N8oFu1DLxOLyhdvtxp49eyJS22htU2fBJLhOZ5JqHg8ePCg1duhOnjzpSMnCwsLCoqfBEuceAk1iCFrfJHHjTLZ5r/MGD2EjXVxTzIEr+bMgtgFaCiVhDymV7SxfAEsEGR6WUYMf7y3DdzaV4mvLs/C/lqZh0Ip0DFiRhWs+zcWg5Zn4/PJ0fGVtLr6dUoyf7KvEqOwGrK5uRlFQyaAol+ZaaBogCwYpeYJ6dgsl3n5QWVyZJOsasGz15AStq1LdrjdD16X8/HzMmDHDcbcVesCoYYlz97qeQpxZY4L8TXFJRrj9IilW/q0q3JIoS0OA2nVWG2fRk2BuR0V0db1wEmWzfyYKCwvlNn6jRo3CsmXLJNG3sLCwsOj5sMS5h0B3zoTLpbYIooEwonNJs4ISNHNEq4iz3EQmxNXOQaT5fBifX4+f7inHV1Zl45rl2fjy+iLcl1qMxw5WIj67Hq/luTGxoBEf5DdhtEuQ68x6PHioGHdsc+Fv1uYLMp2HG9fk4bf7SzG12A1Xi9rWStrQDgkSTavcHENribdW8ewimARx48aNUk2wL4CTNLNnz3Z6R2CJ8+Xlegpx5i9XLd/QJJk2DVoNBfKPFhUiVvbVD1+SZwsLThqTmHbWdlTng9numefUzklJScErr7yCCRMmID09/Yw4FhYWFhY9G5Y49yDojtdJnJ3kpTMgBc0krlSpDFuz5kqtOSWN+GFqLq77NAd/tSwTP96Vjzdc9VjlDuBkoAXFIhLn2pVCnQIHy3XClQjCf6qlBSvrfBidVYt/2ZqHLwjSfd3qPPzks2IsrWpGAyOE/OKRzXKNM9Phm8rX7dxXPgsmcR47dqzjbu+Cnqgx189Hq2NOf0ucu9f1FOLMGqNXMyuEqXSwSTjxqw+KViPkbDksLBTKy8ulJgzre7R2qbPhbPcITjKSLHOLqa1bt55hRMwpkbawsLCw6Jk4P3EOj3DkQDos45P9BTuBiOUmFUaFCzsdLnwtb58RTqVH+YKUZJojqXB/ZMoVdVp0RpA+A7OjzsvLQ2Ji4lnE2dmRtweqjNXey5GPFl5fGPkc9OcSxBAVtqlC3YJT/iBeOF2Fv1uZi/+1Igf/ubcMswWJzguELWvLtFV8KVKSjJcnynq2SpRQT+GddF8AEwubcP+uUgz61IV/WpOP17LdyJdmttX2VX7WG9Y9JYCKQFePyInpOgi6fEkOuQdnbwffl3VMb3kWrX45650lzt3rOp8480enlk5EfoLy96xsDqhlFq1tu9q9XbbyrT95xhTEOFRXgkD+MXhObIZvRzKa1s9A5coPUbF8PKqWvQf3yvFo2DIPDfvXwJu+HcGyEwh5uWe9mriTkE2J6kNkPdSNlnQh2c7o3Fj0HrB9ITG9lL6vvTCfoZ1JgpkPtnsJCQkYP348XC5Xm3EtLCwsLHo22kGcQ2HjLGpVaYCNvx6UBLmytUVZWubaU6rXcgshrn/lejR2LlyzGqRar3LhMZb0o/En+rUwfnhGVsVRfIfDLbWzL/1DkZFaeBjmyGjvhtnxct0piTMtHut7FwtFm6kOzUEmPfhd1QeQxR3i90P4IohmET6l1oP/2F2Cq1Zk4/athZiYVwcXv79OU35DRcfVt1PXfBb/whVAHllP/KxffEZI8es0fwtez23ALZsKMVCQ8kcOV+JYk08aHvOTvLPeybqi8xw5tJ6YroPRF4izrlOZmZkYM2aM424rnANCS5y713U6cZa/XbbJyko+tUCkca+W1t87t5FrCYgwwt8fbJbti44brC1G06kUVGyYipJZcah857eoSvhXuIfeg9qhd6E87m5UDb8P1cPuQZ24rhl2HypjH0D1yz9G5fjfoTRpNOq3JcOXfQxoYvsXpuZMm7YQOI+r53OVikw4V8xxJzQGFt0Cti1sZ86lDdNR0ERZa+CYpDktLQ0ffvihNP5FKbO28t0Vy6csLCwsLLoe5yXOIUl3ODxSUknJr9hvhPmPIrd+QYA84ugF6Q2Vav1SpZfSxWZwj18lbWRHEmZIPKWXFltIaSbTYRw+VdpxVkRLW1xtoWSBfrzbt9BZxFl9CK4h5HdW31OuI6S3PHIyRH0vfqottT78KLUQg5a48NMDFdjhpi3scDJyxOoXdcAnJdM08MU1ymqNopI7KQ0DEnL5SHkS4p5WdAH1ED6nUbgNtV78YHcu+q8Qz/qsEvsaaRRM1BPWlRauf1T5iloZtH+0e5eIvkKc6WjUhns5twXnoNUS5+51nU6cjXZf7dLuD7fP4Xu8IwhziOsx/MIjoH7/LTXFqNvxCSqmDUX5a79ASdy/oSz2HkGY70KjODaMEEQ54Xa442+DN/Y2NA27E97hP4Bn+N3ieLc4CjIdezfKxXl1wg9RM+Y3qFzwBupPbkLQWw4+mWSFTYhsRmRToqbqmEur8N27UFJSIpfLmFLnzgTTN7d8ZN+7ZMkSjBgxQq61Zn40nOTawsLCwqL3oF3EWcl3lURRSiBDJC2cUVWcV8qEpfEmSg7DZCYMUm7KHJpFeI+43yCuG6HOvaJz8UnJpIqiKDX/V0Md2UlxxBNgx8inkDhR0hiO0IfQecRZQIppNHFWBFcmKWfNqZqtVhanNjTjgV3FGPhJNn59qBLpJLuMJUapIX4jSp7CdUPWFiYijYlxeE0NA0WYGU1+cym9EnE4sSJcMEgr2hyEt8jrFkG8D/t8+O/PStB/WRF+trccuc0qL1JLgekzC9FeX/tHu3eJ6AvEmZBERBBgErK26phz0GqJc/e6zibOrT9pSpmbJTHW8lzVgPOcfQHPhfN60LRvI6onPofqEQ+gbtgdcMfeJYjyXWhKuAO+4XfBHXcvqhLuR8XIH6As4T5UvHQ/yl/6IapiH0BNwp2oj/8+moYLch1/ryDXIvyI7wlifQdqht2LktH/B5XzRqI5Zz+oAcUssL/xcbs8sA3hhKzKmkXvAduW48ePn3OrvI6CM31uK0UJMw2A7d+/P0KSNbm265ktLCwsei/OS5yJVn7CP4oSmsDhSesNKWqIkBQKGgqafNhcVItJp2owYnc5/ri1AE9uysHD67Px0IZsPLrFhWe35yPus0JMOlGOLYU1yBHEzB1SFpslJJMjIQsr28kOTD22r6EzibOaFGHBkoxSOT78SUOU1vB7B5EtvsMv9xViwIp0/NfRUhyTI2OG9EiiLYcJYcNhUqs+pEiy0rBX+y8rSTZn7TnoJmFW5FdqFZAsS8IsZ0pkODkwF2mf9LbgJ/uKceWKHDx/tAaVekyi69ylvf4Foy8QZ12ncnJyMHHixDP8TDgHlZY4d6/rbOLMXzx/2/J3GqDRPtUjkD5z0ow/TUlUQ43wFp9AZfJYlLz0Y9TG3ibI8m1wU6o84k40xQvyHH+HlDS74+9B7fC7Uf76L1G/aRa8OXvhPbkW1fPiUT7yRyLMvWiME0RbkOzGEXfDI4i2Z/i9aI4TZDr2dpTF3ov8Mb9C3aaP0FJXKPuoUMijjjJfYWfRa0CCyvalKwlqVVUVPvnkE7mWee7cuZHtIGUfFibL5rmFhYWFRe9D+4izdEr6CHjDM/nhNaZUoSYZEnfymwNY4arC63sL8ch6F+5fcArf/vgUbpybia8tyMY/LsjB1+bl4Ktzs/HV+Tm4fkEWbpyXhm/POyrCHsFD6zIxcl8RFuZUI7+Jz+JATW5IpKTZcg9fQ9LYh9BZxJkxzyC+QUWcA5ywaFHrA2mCLD69DtctdeE/PqvEIZ/63gzfIMitS3z30qAaMKs0FQGX1rB5lGsgmTa/G9+D6tYBub5ZrU9UEyIEn10o0s0SZLmJqvl0wm97kxd3bi3GF5cXIjHfzWmbMDNvLRtnOah62/HoS8S5qKgISUlJZ/iZcJa7Jc7d6zqbOMvflGx/1bpiX0hpkEiiEOSiDTYEDfAcWIGSCb9HKSXKIwRZTrgL1Qn3oG7kfWiKI/m9E43Cr0mQ6ObY76N+xAPwbpgRnixTT2qpzkTdxKfR8KIg2YIouwWBJskmeW4S5Lkh7gfKjbgPNcPuQGnCD1A1Nw6B/ENgS6LsM6h2SC0jObv+WvRMVFRUYNasWZHtqC4FTtJrHgm2ZZ999hneeOMNvPPOOzh8+HDkntn3ONtCCwsLC4veh3YSZw6UuJaNSnABSVp8lB4G1Cw+pcSr8+vw3MZM/GDBAUGGTwqinIfBC0pwM11SAQYni+vFObhlUba4zsE3hN83kktwU5JwCwvxjYX5GDw3Czd/fFqkcQpPr8/Ap7lVkrQRlHz6Q82CzPkVWZcSz74Ds1PuaOIsh5Q8kRJjyobVYFiOisW/ZdWN+NK6bFy/qRCrq5QEGkGvDLOy1I3fpBbil/tKMSqzEhvrfeFvRsJMQykqb4xF/2qo9csKvKfqUJnIwNIaD4amV+Jne0vxi70l2FHbLFW8qRZK8jy/0IO/+bQA39+aj33hiRXnYMcEU7/4kmkbfYE4Exww0p2rfjkHiz2FODNv2jnv9WTX2cRZNhRywkvZuZdWB6gRxKaDUt1gHRp2zkXZ6z9BTezd8MbeBd/wu9EoCG5t/AOoE+S2URBgb9xd8IwQTpDoxmF3oHLM/yCUv0c+Ikh1VyjbGfUrRqNq+HfhjqNk+gHUJtyH+oQ7JeEmga7jdbxIg1Ls4beheujtKP3gaXjTD4bTYjfVIq3xW/QeUPrLCT0a4zpX+3Q+6H7D6XSaXLvMba9eeuklrFmzBvX19Y4ULCwsLCz6Es5LnBW1oXRBr13lkmPJsuT50VoPEj7Lxx3zTuEbczIEAc7CYEGOBycLYryoVJDkEtwiSPIti3LFdRZuEvduTHaJMIJMLyoS1yTORSJMIb4pyPY35+fhlvni3rxM3D3vGEZtyxXPaJTWnGmGipZag7T+0sc0oTqTOKuJEZ6o70qy6uO54L4Vgjz/5mARrliRgb9kVCvS20Jjb/WoFwFePFGH/p+WImaDG/3Wl2Pw+hzEp1dhrz+Ivc0BLCqtx1t5dRiW24Bnhf9zaZWIz6zFhNwqrChvwpHmELZ5WvDM0RJ8eV0mYtaJtNY3oP+aIrybUQWvzBjXQAdAxbjHDldg4PJMxGdUhAk6iXXXzvb3BeKsB5RURyQR035OOMu9pxBnp+stJLqziTMJrfq98dtT3YMW7pWV7VCgATWp81D08n+gLu52NMTfI1Wq/STQXKM84n5JnOsS7pUq2o1x98Mt/GoFiS575WfwpaXIZygdE/YvIZSuGw+XIMd1wwTZHk4pM0nyXWgWcbwj7kD9yNsFkb5D+JNIi2fE3YvKYfeh+O1H4U/bJds0bXvQovdAE1zTYNfFwEmcNfg72r17N2JjY6URMu4uYMa5lGdaWFhYWPRcnJ84h7imjdtGKZVeZZmLq5xDUi37f5afwOC5x3H9IpcgxIW4cVG+OOYJQpwniDJdftjl4foFufjqfBe+usCFry3MwdcFmR6cnIubFrtEeOUY9iaRzk2CSN+QlIsbPj6Gn39yFCuya1FN6YF4rj/Q99TuOos4K8LMIaoeDCvTbJQi0XdFRQP+QZDhWzfmYbeHYiVKcRjJizJBoB88WIkr11chZosHMSlNgkBXY9DaQnxnZwm+tasEgzYVCL8i4SoFKa4VToRdU4yYVXn44voSfGdHBW7aXibSEOE2izBbRBqbPbhKEOehgiS7QeUCMTAPcb1iECkNPnx1Qx6+s7UQhzxKOVypeoclzvJ9HK6D0ReIs0Zv3Y5K540SK0o4uZWedIIE+n3+cLjLN/9tuU4nzvz9y0YgKDV/uMZZwu9G7c5k5L/8U9TF3itI7H3SAJh75J1STZuSZQ/XJI+4F/Xxgggn3CMIL6XFD6Ax/m5lMXtmHAKlaQj5qhBqKkLIXSGu01GxdDxKR/0M7qG3o2nE9wQhJ3m+X6prNwry3BhPd48g4T+QKt9N4hk1w76H0vGPwJe1B1wu0scUlHo9KPml+rTvEo2D6X6DBFzD5XJh+vTpGDVqFFavXn3GFlNOibSFhYWFRd9CjCIWrZ2AlChI+QHV7sK3uEyM2rngGrYW1IpRyORjJXgg6RRunH8a30jKxs2CBN8oyPGNyfmSNN+cpMjzzSTPC124ZU4W/n2JC49tKsSjm/Lw78uzcOv8dNwo4n59cS6uXyyI9ZI8DBZhbkrOxg3C74bFBSIN4UTcBxZkYNyhMpTJEVB4mytp9IWDuZDi87IzUzPQ6j3O7FDP19md735XIVo+zMFBXl5eBxNntac2k5HfOSxJokT3hdPVuGZFDl5Kr0ED1MA5IPlpEOViAPHE0SoMWF8mSHMN+qVUo98WtyC+dZJAx6wXbrMgy1vrEZPqxhWCXPcTpDhmqyDHWxtEHHFvkyDSGytEPBE3pU44EV+kcfXqQiQcKRPEmeZ9uNczHx5Ejbh+5mglvrA8F1MKGpWaOddlUxsiQpx55MuE36+D0ReIs65vJGOsb9rPCeegtauJs9vTiAZx9Lqb4GnworHJK/y94twDb6MHTY3hsDIvDEvnFuFU3ioqqrD78Els2H8cGw6ewMZ9h3E8IwPuxgZx39P6LJ1OE0m3uOdxi2eL54fT9jaoPPC6UYZrVM8MP/dsd/a7dITrbOKsflaiZZV7qStL+Vze0XxgNUrH/BpVcZQk3yVJrTtekOSEu6UqNcmuWttM0st7d6Eh4buSRFMFuzHuDlSOuAflE59E+eK3UDj/ZRQvHAOv6xDgKUPTZ8kofe8hVMTehRqRVs1LDwii/C9SCt1ENW4Rl8Sc6t9U266LV1tXVU5+Ci3lp2TelRw73CzIFwlJD2XAUIe4/KB+Xswb+7bWd9Btd+TahHw/qT8fuRvpIrWTNidaLzl5GjUthIPLE561kkxldC3s5AQsw+kwrSmpM4Y50998esSdkUkd1jwHiouLMU60wV6vR15zDHAxMNsvtlfr1q3Dyy+/LIlzbm5uJJy2li3HFpY4W1hYWPRZxKjeUBEN9gVqx2buvUyrqeE+jLflujMfasUgacKhfNw2JwM3zS3ELYIg37LIJY9cy3zD4kKpin2z8BssSDTJ9LdmncDzm3Owt9qHMn8LysWgen+tD3G7CnHb3OMYvChTkGaXIND5GCwI802LcvD1JSThBfjWggLcurAI/7QgH9+cfxKv7MhEDReukTzL7Yv8CFDywSW1zCO3T+KATuSWe/1qVS7d4Tlh3tPn7ekUnR1oe+K0F878EKYqmcvlwqRJkzqGOBMhpiE3kVETENKytQ/pgq3eu6McX1mfj1S3MsLC22rfZtaGIN7IqcO1GwoEMRYkOIVkWBDfrXQNYXLsjviRFPdjGHlPh+P9ekmaeZTXWxrwhQ1VmJLnlusog4LEKyvdaj/W5OIG/N2qPPx8fxkqZKa4bzSl0jzn4I+1mJVWvVtHoy8RZ5/Ph5qamoifE87fS1cSZxLUWm+DIKuN8Nd70VzvE+c+4e8T5+La7RF58KChkSS6QZJYkt16bz08TQ1oFm3RZ0dO4rcvf4D7X5uN+1+fgXteeA1x701AbVM9mrzNIr4g4o0k4s3ySGLeINJqbKxBHdPy8F4jfHUeBOp53Sjzw/Q9jWHH8yYScRGPzsNj55RNVxBnthPcOk7yIOFHKXHte4+h9i8ktZQqC3IsSDO3j6LjuXS0jk0n/UmmKY2+G7UJSn3bIwivO/ZOQXh/iJK4fxEk+R4UjnsU9QdWiYdUwV9wCJUz41A84gFB0JXBMO7zTElzY9x98A+/Q1x/X5BxQZwTHoB32N2o+8vtqFgyBiF/rWq7gkptW257x/aU3VyIrR09naSu+yHLO9yvSavlzDLbQpLoAG1+tCAQ5G8wKNs+hpc/R/l+ao9tucSKbad8b6YhYssZ0IDUGmC7qQxE0oKJulbpqBM9QaLi8zmU4KvJVto90dsJSsOSMhzbXkqCw0ST6cuw4T5b5ke15yoMnconv4vsx/kMaoCE05CkXLw/NaGYD4/4bebnZov3Zy8UnsA5D8x+1exPCe5VzzadUmb+fjrC6JiFhYWFRe9DjOxsJc3Qs82q05P+cpChOkiSF5oGW3C6BHfOOYhb5uUKwqzUsSllJkn+RnKeJNC3UsJM4rxI+M87jWE7clFCg14SHACobYaqxDPGHCjBP887JQ2GcS30rUmFwlHdu0Cm+62FufiWSPN6Qcj/aVEWvjtjNz48mA+a6CCNahFpUdooJ9elReiQNF7Wwu2OwqT5XOpV5+pMzwWG16T8XOlfLMx8meeEy9WJxJlJUZokynZTjQ9fXenCD/cUIUsOKFVeqC7Pv1rh9XxGLfpvLhKEtw79NjeeSYgv1m1x49qUaowv80optxpUsQz4VOCkJ4BvpRbg5pR8HJIGzNR2Zcy7yh/rgSXOlwJdp6iq/dZbbznutkLXT42uJM50DRGC6paS5DqvW5BXXgti7W4Q142S4DZQeizIr1c4j4jXTGm0YFCbjqfhx2On45vjluCfX52DW//4Gv785ruo9tSiqdkj4zV6PJKMNzSRODfAK0hvcwPJsVcS5UbxbC9JeoNb+NUrctykiL12znx3lut84sy+gDOqlDiLQ8CD6sXvyHXFJMF1I1vJ8bkcJdK+WBoKo8o2DX8pg2HNcd8XaSjXFH8bamO/g/JR/4baTz9EsL4YcBeiau1EFLz2E1TFkjTTYrdKj5a6qR4uVbkp+eaa6OF3omTkj9C0e57IbJMkzTQryB0DFNFUxE5JLC9P4iyJbihs34NlLhs60cu1eCDtTUTNs278zHuMLHtHOQGpZj54ra4UeK7Lgff1vTPT0qV1pr/jeXIWVqfT6q2ewT7mXOA7Kqeso7OPD5N+4e33B+CuqxZ+7P/lpmPnhW6rzPbK7XZLo1/Dhw/HtGnTUF5efkb4ju7XLSwsLCx6NmKUehVldGr9sLSMykEFDyEOMmiRVHVLn1U04j8+ScONc3ME0c0VRDlTSpdvoIr1YhdulpJmSp5JfF24cX4OfrIiE/vr2TkzTQ62xPMCfjX1L553vCGIXyzPFmlmC+IsyLdwNBTG9dKDF+eL9LJxqyDMN3K9MyXS89Pxg6STWOJyS8NRATGgkNsayXVsATUwYkdH4mzA2WE6/WWHbKxzOh/aS7AvFs5O3uzAO36NMwcnSiqhRjMtUtI7JacGf7MiG88dr1SSXRlUTbSwpFZXNuLGrQWISSnDFVvq0X8TVbCjEOELdoKEbyzFfbtLcaRZlTNJsxR1i2NRIIj/OlyFL67KwuISUuuw9CI8EJZG5PRg7RKKpi30JeJMq7LLly933G2F83fV1cTZ2+CREt8GTz3qvXVwe+oEwa0T99xKhdrbDJ9oC7ycVPOLOuEV9cnnk465Ts3IwH98MAW3fjAft74xE7c8/yqGvDMWdY018HmZviDKJMaSKFPSXAe/WxAwt0+k34Bmn5Imuxuppi3CNtSJa0HiqcYtnUf4KwIuVb8bmV9Ksc9+l45wnU2cydxCQZ+cSOVsZf3BjSh86ceoj71DkN87w6T1vrOIstOR6DYL4qwkz5RS/wDe4fcJMn2nuP89NAlCzDBNNDIW9z1UiHvl019EU84u8e3K0XBoFcomPI6S+PtRKeLXCcJcF3sPKgVZrhFxamO/K67vkAS6ZthdKB73CFqKjipayGYuLJ1VE248Ybt2mRLnECevlXYVz6mc3CjK3ieufaJesx9kbT6fk31lkLtTcGeMFpFOENy3ICDSDojvyklyX4htP+2ZK8dwlOnSl2fU7TkzXVq7YJ7Cz5ChOHnNMYVqiekYhnZRGI7X+l6zI4+MJ10ofJThw9LuECXvqo8uLSvHtMmT4PM0cGQhv1x7oPt4fvNjx47J7aVow4GGwPQ9cyLd2b5ZWFhYWPRthImzmgOmmpbcd5eDiDBx5rpmyqOz3F48tTodN8zJxuCkYtwkiPFNi3MEuQ2vS16cpcjyoiJp4IsS6BvmZWDotlyUhfd6RoDEWTxFkGaOuzgIIO15PrUQ/zgnUxoK49pmWuS+QRBnrnG+cbGyxn1zkiDXSXnCvwTXz8/DL5ZlYHdZvcx7ixhA+EXn38KOVWVadHp+lJQWweVytUvVlJ0kB/u1tbVnbXERLR7h9/slieUaUJ53JLQUm505t95gnvT2QAUFBR1MnE2JrfLm4CwhrRSfX5GF9/MEAQkH1wOUOjHwfOJwKa5Yn4eY1BpBnN24crNDBfti3ZZa4SrQf20hXj1dLeuIFAvJ+ZeQXOf8QkYtBn6Shveyq2R+5ECY9TYUtr5uifMlQf8mzMFjtHrm9O9q4qxUqH1oaOTRI6XPTR5NnL04nVGA1Sk7sTJ1O9Zt3YYNKTvEcSvWbEnF2m27MX5BMv736Lfxnbc/wjfHTBXEeTRefGscGgRh9jf5RPriGY1U7a5Do6dWqmn73c3wCtfU3IjSimJFipupFt4oCTTVsCllJnnWBNokzl5BnCkRd75LR7hOJ86sF9S0YYtRk4/SyUNQGXs7Gkd8XxDeuwRRvVe5KGT5DDeClrXvQ0OCiCOIL7eqUmuW1dZSJN8Ncf8q3A8FIb8P9XF3i+fciZKx/xf1O+aLxrcCgbJjKE0ag8L4H6BsxB0o++AZVC4ai5rl41A6NxYlb/xMkGZB5mPvRumIH6Fm7STRB3lk/0CarGSrYeIs53G1hPTygcwalyIFRb5FH1cn2rjEzwrxq3kn8eDCTDySlIXfJaXjkYWn8WjY8fxh4aedupcmwmXhoUU5yn/RKfw2+TQeTM6Q148vPInHF5zCY8I9mnQKjywS8ZIyRJwMcTyN34v7Twj3sDjn9WMLGY5pp+FBke7DC9NFmBN4YsFx/H7BSeEfji+flymef1KkfULmT14vyBAunFeRBh3Telg8++EkHkXe5p/E04vTsLPArT4PJ3flMiKgsroaK5YvRcBHOt5+4kxUi7gLFiyQa5mTk5PPkDLrtcxO8mxhYWFhYUHEKLakeImSO/vCg2GEp+b9cp/m0Ttz8a2ZaXILqRsEWb6JhFmuSc7DNwRh/obogG9YTOJchlsWCcK7qBBfn38ao3ZnozpMzkmaQ8FGcB2T1PYLqjn+2N0F+MqcDBEnS6Yh1zpzfXRYXfsmQagpeb4lKRc3CdJ+Q1Ipbp51GkM2Z6BK9qOcGacqG/Ms3sDbjH1H9mPPgX04ceKEHEi6XK6oHaDpR/K7fft2aXjECR1OH2nVk2FJEg4dOoSUlBRJcDsaJCAVFRVyUM5n8Zz56zDizC8j1bTVN2c9IGgY7ImTgjivysH8MkWb+RytYHfY7cfgLUWC4FZCGv9KaTTWN1+io9GwrdXSwNj3t+ThoI8zISG1jl38MTevZ1fiqk8zkJBZqwZNsgKznmniLEfHynUwnMTZ4/Fg//792LVrl5Rc8Lh37165lZMGJ2844dFerQYnIY0GfZ+TPVlZWbKuaP9ocVm/OcnDekMVbKopanCAmJOTIweVhI5fWloakThHS9P5rK4mznSNVL92B+Bzt0ii2+CpESS3Dg0+PyYtXYPb/xCL7w0ZjTuGjMK3h4zEHcNG419eHod/Hf0BHoh7Bze++C6+9PJM4SbjK8+MwpC3JqKu3gOfJyTS9ofXSTcIAtwgDZE1NTTC6wsgT3zfIWMnYtyiNagTYXzNPkGcKU0mOW4U5Jhq3CJOI9W3w0bBSJhNo2Ud7DqbOLdK91rg3vsJyl/+F0Fybw+rSNOSNkmxWuN8LudOuE/tyRyvtpGqTrhfSo29w7+HGkGCa4eTON+DphH3i/uCVMfdj3pBqGvjvofSkT9BSdI7CNSeAhoL4d4+H407P0awLB2hpnqEvE0Ieqrhy9qBylkvoGq4SHvYPSge/xiaC07INoHtg5wolu/CNpDthzq9nCDLW+atCVS5yaz24gfj9iHm+QOIGZaGmL8cR8zQQ2F3OOyOiHtHhTshzo8pvxdF+CEi7AsnhRP3nj+i4g4T18OYhgjzF+H/FxH+LweUo3/saZXOsGMqbGy6CHtShR0m0hh6UDiGOSX89qt4Q5kO0wzHlXk4Hk6b6fCczshvxIX95D2RzpDdGLMuM0Kc5RrokFouJEtHrvtuVdV2tlHOa7bTI0eOxNtvvy3HBibaM1FoYWFhYdG3ESO7hnAfxE6IK5mbqXDF2fcgPcVguMiNf00+jpvmkxiT1OYIMisIc1KBILT5ck3yzYtyIhLnW+SWVPn4+twM/GFDOoo4Yw5lNISS4QA7u4BSD64W5Py5TS5cP4fq3yKeIOI3SmNjLty6kKrbReI6LHlOzpLWu28RpPzGBbm4bcFxrMxRu/lSLi61uER6mZkZ2LJ7B7xhIpGbm4uDBw/KwTyNHZE8kGho4skBPsOQTKxfv14SU3aglCYzHEkPO1FzFjo1NVWmqXHgwAGkp6fLc5KN7OxsFBUVSaLE9AsLC+VzXS6XJCc88jnMEwkWSRXjUDWW5JjnJESMzyNnxVeuXClJCe9Nnjy5Y4gzo0qJc5g4q08OTgE8KIjzFwRxXlymDKVQzV6uNxPnM/JqcO36UkGcw4Q5leubO0jivJWGwgR53liHv9pUhvlVpMocNCn9B6oHjs+uwMAVGYjLdKtBk6yvysCMMnFzCWVyHpjEmWXPOqW/2dKlS5GWlia/F787vx+1BUhSOdmi6xDJNuOZ6+QZjn4kuLwm6MeweiDH8AxDgqS/O+sO88R6wns6HOuWHgzqus86Q7dhwwZZPwk+j/nbvHmzfAdCP5/1//Jd49wopcBNNOTlFu1WXUCS2qamSgQaq0S5NeO9T9fh+uFj8OURE/D3giD/3agJ+Pprk/Ht8Un45geL8J03ZuGfXpmDL76zDH/38ixBnEfjz2+NF0TYDQ+/m4frmBU5p7VuqmM3NYly9vswf8MOPPD6TNw+Zg4SP00RefHKtdPNbkFg3YI4yzXPbhGeEnCRR2nNWxkG66nGwZRmkkBdBSpnx6I67tuC3N4ppcXu+PsVcaa6dhSybDoaDavX1rXjuVb5PrkeuVaQ58Ix/yncf4u0SZ6pti3CxD2gLHBTGj3shyh98UcomPQUGjJ2QhkzDHdhIeU0Bw5UZaJy2ouoGXoXSkb+Kxq2cq0zlYLZQtD4FOuvImCXI3Fm26ZsSrDVCyKtohH3kDiTyI44jX4jBImNF+fxPNIJohovSGyCIK3xGTJMTNxxXBV7ALe+cwQ/mX0KP/s4Df//R1n48kskqoKcxjG8iDuS8U+hX/xx4SfuxYu4IzKFO6XSHJGuwo4QhD0+XR3jGCdLXl8Rd1TEDceh//DT6D/8CK6MY16FX0KOylNcGvqJdK4cIZ49QjwrIc1wzAsdnyHc0P0YtTJdqmvLjxNec11X78Y20Qf7/Vw2wPaqleyafbVGWVkZ5s6dK9cyL1y4UGqUWFhYWFhYXCgkcZZSRv4X4volrpnyi4E317CFUOYP4oVtBbh1zilBYrPkFlNKCpyHby2kMbB8aU1bHpPDhFeuf3bhpoUuPJCcjuWuatnxcRDA9cctgRY1SBHYVFiPf08+jcGCJA8WhHjwIhoIc+FbSTkifZLnItyUVBJWCc+SKuFcR32TyMP18zLx6OoMuHxhmiSS9fuasXfPZzgtBvyESSJIHCgJ3LdvH44ePSrJL0krSS+lxocPH8ayZcsk8SX52bFjh7S2SQkiiZDuiEmkV61aFSGuhCYpJNspKSly4Mp4JB7/j73zgI+juta45ALpwMsLBB7NxjY1gHHH1JCElwQCaS8JgQAhlNCM1SX3XnHv3VZzr3JRd+9NsiTLktV7WW1vkqXvne/Ojr1ey2BANpDfHjje1dQ7M3dn7n9OIzCvXr0amZmZClgSExPV9lNSUhRQc6DLaQQOghffirNNe/bsUfvgdrg8S2Ww3bQMtllyMK7Kc8SBJLuAFzi/mVWNmzYVIKbGk2GU85oZrwZEZJSh4xaCs12D3HRmxG4bcA5MMYsSnq0ITKrHxLO0gmpgzCEvhzxT8uvwvbVnMCjXqF17vjXxxL/RKs2D0QbQX+HcXEYImN4WZx0yCbicp4cGsM/w2vG686VMYWGh6ieEU15fWqdZi5TAw37CFzGcxj5KYCbYHjhwQC3La879cFvcJvuZbr3myxa+VOF63AbnEYTZp9km9hN+Z7u4bw4i09LSVD/nd26ffY592rv0FJXr8wXP5frY1w3OdodB4LZeZbK2WwRcVV1m6aFu5lEAZm1OQqfgkbg1dAr+5/3RuC1iKu4dPBsPjV2B+yZF48ERc3DXsPm4cfQK/DRiFu54MwwDx05EY5MVjLh0S293tDhlP3TFZhyzCY0C6zazEYOXbkSfxfvx8Po8PDslGntOZsuNQPqoU34jriYF0iqbNl29Re0Os0xjGStarq/OubkW4Myr7crdj/pRL8IW8ohK7mWKeAa2MCb7Igj3uwSUL1GBZpaScoRrpaqsof1RH/k86lcNgzVnmwBxKiybpqBh6HMCy91l+/1l+0/BFdIPTtmPPbgfquV71eZp8rtwqOeLqj/PXz/vZyp8R+uXrlPJqBj2G9QH9ULDgoFotlVqR+HxtFH3iBZCtNeBflOE97AWtlG7k2XV2dF3ylFl7Q0UoG1HqNVBU+A3UEA0MFLgOeqMBqkE3IHH0G1SFuacakD45pP4v4UHMfOkASFpNfhhxDGZvx/tIo+hQ/gBdAjeJ2ArQBuSie+FHsJNobvRYeABtY0OQQdxc0gKbhyYjHbBsl5IFq4LPoz/Ct2FjgP3CijTMn0K3wk7gh+E7kH74EMy/Qi+P3A3fix/fyf0oKyTIYCdIyrtJIwryL+MKnA+gkFb8lWUDl8f6OBcWVWNqVOmwOmwa9f7nPaCUJ0yr3sSfw98zjOOeerUqcjO1kqTUXzh2i9+8Ytf/OKXz5MALdETrb+EWS3bJhOEoIlpwYANArZ9Y7PQVUCW2kWglcpyU/fHahBNCzFBmkpofii2QH0ywVdn+f67dVnYUS4DRmj5nfioInwdqrPhtS256BaTh06rigSOSwWSy3FfbKmA91nNwqzAvFK5fndZdRZdV3E69yvtEGD/2fJTWHi6RjMWSLudbif2CnAWFZaoA/R2jaUrNTNo6m+b+UAlyBJQ9RhiTtMtz0weQksioZbgoQtBZevWrWqgSvHeB0GIkEuhJZDwnZWVpbbBhzTBlzBEIcDzQU6Xb+6L++d+CTQEH8IN4YvLE7AJTJzXtq7aUBfk4lg/qGs1MKsSN27Ix/wK+iCIqFi7JgWuHx4uRftNAs5006ZbtbIStw04B+jgTGv2diPG5hLjPf1TxTgDg/Ma8J3VuRibp7kWq4Gv7rCnjoN9+uqAs6+rtj5g4zXjPN1Fmy9d2L84nX2KUFtUVKSuKyGWL2r4ooTQzH7DaQRjukbzGhOA2Nf0sAAdeLmeblmmcJktW7Yo0GY/YX/mftiX2EfZh/R+xf0Qjrlt7pd9in9z2wRnrqcfE7dP+GU/prTWz75ecKZaYbabBUYtAqcOlFTVYH9eAQ7ml+DwmTJELo7HHUEjcEvEDNw58FPcFjYV3SJn4aFxcbh3YgzuHz4bt0XNwA9GLsCNg6fg5ncj8erQsTh0OhdH8wpxMDcPmcVFaLDSYqy5ajfZnaiX+8K/58XiwRVH0VX6/YMLUzF6ZQKqGyworzeh3CjLn2uBu6lFJSlTsdd03bazJBaThfkeR9vo1QZnXmrG2xpSFqAu/Bk4g3sJODNeWWBWQTAThLUCyr4q4GxXbt39YI0UoA3qjbrF4QK1DJPhE0nuOG4TbGvHoz6cYM6s28/AHUz3bsL5IzAOkm0c3QTtVy7rNMtTpZn5KejFwURaWjKtFnstKucNQMPA7qga9TvYCw56joV9XPnaaP34oiP95gjb5g3Ovaec0CCVYEkLb1SuAmdCc7vwk6K0QBM8cxFIy++AQ/jViiIk1rvxq4m7EPCXdbhr0G70nZeDPnPyEJxegZuHHEWX8Ufx8R55/o49isfnZyM8vRCj9hTj/9aV4afDjuK1hAIMTs1F5M5SPDrlJLpMOITIQ+UYvqsIb6zKx/cFunstKEBoWgkiDpThrwnluG3IEfxj3VlEJp/F0EOV6LukAIHBtEKf0KzQ0v7AiKxWlZbuwKDDCpyZc+M8OMv5cLjc6l7X1MRrzPJaF9ysdeG9bPr06SqWmfc//bmvzmcry/vFL37xi1/88nkSwAEHEZmJtXTYIJzIEwkWeagMkIdil+VZqh5z5/hSAdwS3Otxpe58Ps6ZMHtWuW13UQCtuV3fLeB8h8Dw3TH5eC4+ByP2lWJRVgUWZ5Vi+MES/GJ9HrquOItOss7dKwvVPphYjAnA7l5TKHpGuYXfLzD9QGyZsnarmOp4fpd2xJSic3QB3tqRh1IXa/02qtqPRw8dxukszW2aQqsZH6JUgoxeo5FASligpU53j6XFjzBLEOF3gi4tcoQS/SFLkCGAE6p1IcQSRAg4utWOMMJtMJYqNTVVbZ8QzW1yWwRnQjZBh/tkGwjudOUmRPE798H20Yqox1+zLTNmzGgjcOZgRBuqqqzayqqsJQcbfaYON63Px8gzDbBx0WYOUNxgSrbROWZcv7UGAen1AswCzgRdBdGsyUwA1r5rMMx6zoRq72n81NfRgDmQ66p4acY4NyAg2YzvJZgwp4ADHsbHN9PfH/XSzHeyzPjRhgIsKCXic2CpFaFSo0vPMTBEn8fV1uILzvr558CML0h0cGZ/oCWXwr5HoCS48mUKRX8pw2nsYxRCNj0R9D5I2CYo09uAVmcuywEjRd8v+wOn654Ver9in2PfZ3vYZvZHtocgzL7E7bJ/6hBOiC4sLFTb1F8GMPyA1hrv/XnL1wvOjCXmfhoFSB1w212YG78Oj7w9AA8GDcejn4zA/R9EovOQyeg2Zh4eHjIT90RNQ6egCegybC66DJ+Le8PGoXPUFHSeuBxdxyzCvQLRD/wrDD0GDsMjwaPx4L8j8FLEMOSVVKDF2Qi7xQ2noxl19Q34cFE0Hojei05pNjy4Ng+Pj1uI1yYsxBsTqbMRtWAZUo6ehIUxz3YmLmPiMIFmh/NbC86UFnslKlaEoSb4aVXyyRGmlZKyRDKzdh84GJ/M5F8Kkum2zazZ/dXf1kjNwmyW74aoJ2AS4LaGd4dh4GMwJy/Wti9dj6WHKLbMNFQM/S0aWF5KwfMTMEY8gYaIR2Ec9Qu4czUIVlZZ5W6teUpptYIZzsB603aY1kxGQ3APlEi76nfFeNbhP1p2cHbhbyI6qyaq4+FLwRbkCDj3mUL3ao+79HmLLV2zNTfrwPBTmot2ZL6Acw7aDTwiffskludasK3YiDGJmfhTzEl0HJCO55fkYqcR8ns4jt4zMrDO4ETEmiOIPWvE/8Vko8+MU/jn2lyM3lWC6blW/Gz8YfxKnrmvRJ/A8jP1GLqrFH0n78XKfBtCNpxGfLEbo7Zn48lp+/Cn+GP4e2wGNlU24tezD+Gl5cfwzJJMBIScRAdatdlO3SVbV91lm9/pCh58FJEC7Hwe6Z4BvFgueVYys7byjNNf+nqE9x7eh8LDw9VzUg9JoXhDsx+c/eIXv/jFL19UArQsxIIcmnnufKkOPqOK7I14Yd1pdIopUNDaTSBYq9dMeNbimPmdGbYZ40ygvmdVATrH5KLrMlk+Nl8gOBtd4jPxwPJTeHjeCfRYcBjdFx7CA/MP4T6Z9uCKPDwUnY/7RbuI3hMrEB1fjTtXlwuYF4pq+34otkSVo+q0WnMNVxpbpCzaz63Owe7aCzFLpSWFSE/bKcBggNPpUNZcDiYJEAQVQgzBlA9XAgrBlUBKsKDLKwGFcEO3Vj6E9ZhVXfiw1V1tCQdUbp/AQhgh6BKiCMwEH1oe+cabYMO2cF0+tAnuBGmuS0sj90VoIlCxfXT71d19CeOEHbapbctRtShLclOLJ4pOjdQ0z4CVVXbcsiUfrxwrgzp69WKFcfDN2FLnxq07ygVya1Xd5cBUgeCdBvk0o738HZBO+BWoTpPPVLtAsNMD1wYVE91Oh2MFzgRrTjNpyqzanJdSgy7bSpFu0hz9G1UcG1DW2IL/PVCFu3YUYZuF8/jqx02uV2BN7wnNBkU7jQaAbSm+rtq66OCsJ4njtdLBuVCAlEDJ/sEXIhQO6AjEnMa+Q+G6fLlD8OE8rkdLMfsp+wT7nK8FmCDNvsH+4w1O3A7BWbc4s1+xPXpfYv9k3ydwsT/Sms39UfRBJddlOy4nVxOcVQ1kxhd7qT6PEKrU0iTwTJh1qJjm2XHr0e29MNw5ZDo6R05C19CJ6D4pGj3GzUfPyMl4dNRidA6firuHTsM9Q2eia/h4/GzyMjw0PwEPT1yBHoNn4MH3hqDbkKm4c8Qc3Bk6Ds9FjsTp4grA5RZwZh1nO9wCv9M3bUevhQnomtKA27dV43vz09FxShp+OOsIbpqZjBsHjMFvQ4eirLwKzS622+SJcWZd6EuPty30WoBzc0Uuaj/9BwyhLCHVT7lbE5jNAsh2ulEzGZfArVllzGbG7X6e7NiPwxTVHabInrAIMKvM2aF90BDyGCpH/w627HTPDqBe3PIhZNsXj+pBzwks94ZRwNwuAO6Q7TuCe8I49Few5+xVcKl+6wq4uS6tz3qmg0a0NMr9NHYYzMG9UR3cC6a4wWhxWzXvJ/Xc4+s1T4JE/SC/KeLJ3aAeyCKZdU70+vSEcpPWwNnjjh1JJSzr4EmQpjU3Bx1pgf5wL24M249fLMzG7Kx6pNZZMSK9Aq/E5CGpogn3DTuM3lOPYmWFGQtTM7BGIPuO0bLeBwdww4eJmH+sGp8k1yBgwEEEvHMAT085hiP1jRi07ihenJGE6BOlGL+7BuPSy7H1bD0+iD+C3iO3o/+kfYjLt2DeoSL8cU4qOg3dh3ahJ9Eu7JS0zQPOCvqpPB7Pd7qgK3A+hoiEYuWqrZ0D7TxUV1dh+oyZ6vmuT6PwWUtYHjp0qLoX6d5gvvcpfZpf/OIXv/jFL19EAjhIoa1OJdfgM5oPIUVPwKa8GvRYloV74uk67QHmy6hKCCaA2yk2B0+uzcInqaWYerQG005UYvrxMtEqTD1Wj2ky7dNjoserMeVEtUzj9BpMOmlA6O5ivLAqAw8sycE9cZr7d+fVzNhdhAcFqJltu9MagrMnrlqmd4krQPeYLCw5XaPF3xHuzrmQT2g5cgwnTp5Q8KpnCyZk6HHOdJ8lIBCkCbOcRmAmoHB5gi3XpYWYg1Jv4QCV0EsXbi5DIOY0LkcQ4jTOY8Imgg+3T5ggmPDhzv3SmkcI5rp6SStCB4GYVm1+5/qEJkI/28u28O82TQ52rkUlg1OFx9QAQ5t1wtaI+1Ly0X1nGbLcMlHFAbpV/yiTdV46KNC8rVKVouqQpLlXt0+2oV2yQ4NhQrOCY5PMs6rltO+yXAotyzZPjDTBmdZmWp1tMl/Wl+UDEyrwzoky1CqLQpNWlkXatdfiQtfEUjyzqxRn1SE4wdar+Gwei2fIrEUvXn1w1s8/wZmwqnsi8Hrpbvl6XDOvJ6fpLvq0KvPaEmjZH9j/CKrsf5zG660DOK3RnK97NOhWYb702bBhg+ovXJ79mH04NTVV9UH2d74Q0r0XuD7n8ZPzqYRoxuHzt0DhMbG/6uVZLie+A9I2B2cf1bJS6+As23da4T7nFFZS/gaYsz4Bnd8LxW0RU3BH2HjcJfqz8UvxyKBpeOSj0Xhk8EJ0Dv4UdwlU3xk5FZ2CtfkPTF2LB0YsQPeg8Xj4n4PQNWIabh00G7cFjcPzg8ejoEJ7GULXa60GfTOST5xC39EC4psK8cOEIly/Lhsd1pQiYN1ZfGdeEh4Mm4qlm9LgtjPBGzNrm7W60ExgxuNo5Zi/ql4LcHblHET9oJ8rS7EzvBccBGABWpaNYpIvQjO/O8P7KHdsa/hTAtRPClDTatxHLWsLfUqrsRwiMDvpddgzk9HiqoWjMg8tzgbpWHKuSg6iZvY7MIb2BbN2myL7inJ7feAKeRT1st+65BXKRVu560oHYAJ+vgRkWUKWgFeeNHW5KJv4Jsyyr4bQ3qif+jrOmSpUf1H3DL4kUuDsjWDfEFGeYJr1nXKyXsB5EjNkM0HYMS1JWAhjkvmZiQCB0oBQz3c17TjahRzDnRNPo9PEowh4fycC3t6ONxfux45iOyK2l2FHeSPuHbwHP59+EOsFnOcnncDaMzbcOfq4LL8XPwjehzknDAhJLkfAR7sEpo+i74wc7KtzI2xLDp6bcwADt+fit4tO4eZPtuPZmYcRkVaK7XWNeHpmBu4avAv/u/g0FuQ0YFamCT8exEzc0rZQTxvD2G6Pqjbrekq5mYdtKfKAs34faoHJaMD2HYkqSR//5n2V90AC88KFC8975ai1vCzMfvGLX/ziF798FQngaIFDBg48OGrQBg/NyjV35MEi3LMkU9VT9gXlS5RwHZ2LP289gx2VNtQ2aWWDyFt8J+yUT5fnO7d9XluY7EkehPK9VsBod5UZ/9ycgweXZ6jkYvfEM+lYIR4QQL5HQJptoUu4ctVmEjLGWy/PwqDd+TAR/DkIatZqOtucToEZ2/kay/qDk/HMHGTqA35+0jJH5bJ6pmMOQjn4JwR4A4L+yeW4HQKTvm3O06dzfU7n3/p2dRjRl/Oepi/ru473unSrpUW8zSzO4PpUxgi7ic402io4rms6h7+cqMING8oRU0sw4TloUlZd9pMNdU50SS5DwI4aBAosB6a4PIm9mOCLoEwYFnjeqcGzloFbz77tVIDcgaCtpnOaQDVBO10AO6EefVPLcdBBF3waxely6VRtmFrUgB9uKEFojkWrL92iWaQ1p4lzyoOCL4I4IL4w2Go7uZyrNq8TIVbPgs2XH4Rifif0Elz1pF98YUKQppVXT8DFwR6hk2DO68xlCc0EcII0t0MLsN7f9D7HvsZ16RrOvqHH8hGe+ZKGgMx9cntsD+fr7aRyHT2JHdupW5upXI9ZaC8n3r8LSluCsw7J3nre0ixKy6/JUo/80iLkFRQhX3T4oiW46+0g3BEyGXcHTcZdA8bgwREz8ciQKXg0eAJ+FjkLXT4ciS5ho3BX+ETc+ckoPDhsJrpPXIFHhs/DoyFjcf9b4egaOgl3h01Hlw9G4bmPhyBt/0kUFJXgzNkC7Dt2CjO3JeONeevx8JQU3LrqDL4/PxHfHbMYN4xcgVtGzMFzo2YidvsBOQduWN1ONLhsqpYz47AZK/1tzapNcRzZCENID1gjHlbxxo7Qp+EUCNbim/sKJNOlujfcAtYOAWtzBN2rCc294BIIdoU+KWDdF8Whj6Fs3vtoLDkqnbgKpq3zUPzpG6hdHgZj/BDUTH4V1ZFPyjb6wRnyhHL1Nkb1gmlQL1hCHkN52FOoSlwkdwQ+VaC8eBtbPEnCmumHwl+/DZaEuagP/qWAel9YwvqgfOiLcFZ4QnkIpp4+/BVvo1dJ2C7+HrW/MutseHbqQdwUeQA/HXIEtw49ip8OPoKbhxzDzUOPyTRN9b9vGXIYN0fux8ury7Cs1Im/LtqPB4fuQGhCPuYersWrC47gcH0TwlYfx+xd+epl6cg1B5BQaELQumP4/ZzdGJpShtkHKxCfX48/Td2Ot9fmYOCWs1iZY8CMPQV4adpOzM404vXobHySUIA/z9uLv83dLdt1YERyCT7aUojeIxMxJSUXWwtt+NmYQ7hp8AncNOwU/nvIcdwylCptHXZM++TfMv2/B4uG78eQhLPafd5zL9fKUtFLTnuRyvvaokWLMGLECPWCkfcebTn9umrqB2e/+MUvfvHLVxUFzoQNVcOZDxf1hG5GgcOJPwjAdorOU0m7LgFlH71HIPbZNaeQUumpDdtMuKINk+p5l6/YnP/xb8KOJyaNcUrKHU2TAw1O/Hb9KeW6zfJWLEFFV/B7VjKGmuCsJSKjC/e9cTIt+gxe25aLfCtjNWUfKqOqZkFQTfGAgP6piz7N94HKv3VY9p7m+xD2Xs97WmvreX/3Xq617elA7S3e+yLgtBU4c03lnq+GmS710kQ5HLRotTLnlppx44YK/GG/EaUtmgVHxdvJwIWxzpOKjbh5exECttGCTBfteuW2TRhWAJ1KV2yzsjZrFmezBsZpdplnFXDmsnThptYLXIvuqMV9SaVYXWlVXgQsXeZW2VTdqJTG/fZQLX4qg7EEI9vMA/AMfultALqSE5y54rUBZ1/Rr6ku3teSibzoNk2LM92uCcaE4fT0dDWNscqEntauqfd29P7i23cpen+6nHhv23c//Ft/eUNh+77IsbY1OHuD8nmAZmyz0yX7OIeMrBz84gMB3XeGo3vIVDw4aAbuGrkMt0xai5vHbcLtI1bhzrFxuGvyatw9cR1uHb8Rt4+KwR3jonHzxLX4ydiVuG1cPG6fvBH/M2kD7poQjztGLJb1V+In49bjrjFr0GXQfHQPn47ukZPlcxweGjof98/cjIdisnD7mkrcsPgAHho2HW/PXITBS9dg9c4DKKusR6OrETaXHUanwJsqZeWCiYnBHEwUxrJWrRzzV9SrD85uWHYtQq0AsJku2mFPwh3ylAJic6QGzoxr1stMucJoLX4c9YP6KeglUNtDeqNC1itdPhSNDfk4ZylGfdxY1IU9B1NIT5iCHoHlk+6wBvWFiQnHIvvBoVzAGSfdC4bQXqgc+hKMO+YAtkI0yzaa60u0+8B5kfurqx62/WtQP+Ql2AeybdxOb1SH/xKuPC2ngA7Omnqt/g0SLV5b+55VY8a7awrwZlIjPkw/h/dTGvExNdWNT1KdCBIdKMrvA1IdGJjiQFCyFeHJRizKcmBLqQ0bisxYlW/GWLlXh22rw+qMOqSVWpBYbMdmAdvxadWYsa8OO4rNSC4xIeaUDcN3VGJFjgkpslxyiQXTd5VjXFoVdpTZkVRmQ0y2BUO3VWHBUTOSyu3YVGzFskwrxidXYNMZA7YVNWBriRVzDxoQtqMeA5Mt+Le0WWu3C5+kuKTdLtXuT1I0HZDixtub6jFzTylsmmvA+XPSYKhHwtatyuLMexVfEDLUShf9Ger9zPW91/nFL37xi1/88kVFuWoTNlR1XGV15sOlGdlGK55ck4vOcQTUS0HZWzmfpaHC9pVq7/4ZY9rSqCJPVc1mWgT58Oe+WjTVBiycIA80Dnj0mTJ6oSV6XGY17luRi25xFSoRGctQMTFYt5WE+CJV75lx1rR0dxJof35dNg7VeqD9XJMCZ4KfL6ReDli91XdZHSK8l/feRmvb9Z3mvX3d4tzafP1vwhRduAkfunA6pa3BmaedWWgJztp1IUxr1yLLcQ5P7qzGLetLEF3j0uIC5fy2NPLqNqNOdKYMnh5LKUfHbcUISBbwpfWZMc3pWkwzk4W1T3KgfbLHfTtFpqUYFUirZGBpNaK1AswGfHdLDZ7aXYOYeieUc3yzB4ibtVcty6od+K9NJcoSXs6JyvqgOrF6A6BF7HMaG9qsXtO0tbQGzvo10K+ft+jXVhdaggsLCy+Km2dsc1FRkQJr335E0fuNdz/S5+v9yXd5fZ+tbU9fxnu697b1ebR80w1S346v+G6zrcGZJaCU2vWYZ4cAqB0NZs2qfiKvAA+PnIvrFh/FXdsb0D3RgN7bK/FQSgU6p9TjvsR6/GxHDe7fUYduSUbcl2rFw9vL8ejmQjyc1IAHksyyTB26yvcuySaZVovHthThoR1leCC1AV2lr96bUof7tlfjXtlO16RKdEuX7chyP91YjOtWZeHHk6Ixc0vi+XOAJrmbOuxodDKbthluixXnTEwI5oTBaZdPKxyq3nQrx3wFqudV0NV7nl5+Rwfn1q7Z5cS7L3hnbT8/T31xCLDORVXoE7AK/LpCnoA7mAm++sMQ1R9G5U7dAw0CyrZQZt2mS/cTAs590SAAbAzpg+rBv4Jxw1S0WAw4V3EKdUuCUBvSX6C5nwD3EwK3fQS4e8h6Wj1oumjT9dsm4FxDnfEOHJnpoDu3PScVFbM/QuWcj2HZGQtnzi648nfBcXI9TCtHom7wSzCH9ZNtMPs3rd09UB/6LNwZO3kw6kWhOjIe65Wfqov6/Rc5x1cq57ffot2flReQSE61ER+vzhWodCEq3YbBcm8dkmLCULmfDk+tF63DCNFh8n2o9N1h0ndHpFRjVHIlhgj8Rko/HrqjGsO2l2FYonxPNSJKpg3eXoXw7QaEyD14sGwrKrEBQxOrMDypAoNk+4NSbYhIaUCE/E6GJNVjpMD1MNnmINnOIG5XtjlYthUu88Plt0YNTTRiaHItRmwrku1XIFx+m1Gy7ujkKoxJKsPIlFoMl+fDsLR61V69/cNTtPYPk2dFyJYyzN1doDzTvC9QdVUlpkyfDruKcb5YvPsxVb+Xed+D/eIXv/jFL375MhKgPZtpR9Syi6oBhPx1ymBDn5V56BJbpmKKfWH5YnAuxgMr8rEgSwM5WpiVY69uWD5HeHZr1mz9+edRbVAguOOJsVUZTuW/lSUNeDQ2F11jy3G/SkyWL7DMuGfCcrF81+KqCc53y+dTK3OQXm3WjoqQ7tnFt1Xo5jt37lxMnjxZxaXSpVaXNgdn9cl/6XWg1aNmGCc3y9iyCQUNuHF9IX5zoBqnGz1WHX5Q5VwTcFPMbryTXYsH0yrxww0VCNgmICyDq0DR9kz2xQRh6YxlFmBWVmazSioWIAOp9ltLcENCER5LlwFXjgWHrI0e50t6JNBFW4P5DBk99hOovnVLOeJr7Z5I5kYF8JpBgkfjiW9mV2P/ugq9oDVwbkvRB3m6egNza4NC73n6+t59wnedKxF9WbpuM/Zan+YrvttsU3C2XwBmC5ODuZzy6cL21FSMmjABu/btx9a0vXh01Dxcv3gfblt5Cp1mJaHbhPX42fJ96LI5D/ftKMEjCWV4aHMpuq07jXtj9uPuCctxR9QsPDwvDY+uOYOfyfxuW8tw/8Z8PLx0H+4eIvOHReOBJbtw37oM3JeQJ8tU4OHN1XhkE2vLZ+L2SZvxw/FxuOnTOPQZNgVHc/NlMF+OQwcPYdy06VgWvwpGkxkuabdLzmGjWYNcExOc0c3ceumxXolyG7wX0D2Vn97z+DeBl7Hzekk832vv3Ud8hdN0uKD7PisOMD/DRXLODdOm2agPpot2T2XBZakowyCBZvm0hwg4B/dErcyzBPWGXZazhmm1nQ3B/VA+VEA2fQXgLIcrNxk1096EIaSXgO1jMET21sA5lDWeCc19lKs3Y6HNAtU1kU+jdtUQNNbKsTlNMO5cjaqxf4VxoKwf3Bs1EU+idtSvYBjzPIyDnhVIfwpGAXwT60wTvj3gbAh9Gu7jKdDuep6UYBduhOdFPx/e58739+Z9ztpCeP18PUvOnWs5D86nq4wYuCoLQYlmAddajEyqxggB3KHJdQLKtTKtBsNF+X1oCqfVqWkjkioxSiB4eLLAcgqhuh5DZJ1BqSZEyn14uNqGAZHy9xAB5GEC5KHJRryxoQovLSvDbxaX4PlFBfjN0hK8HFOFf20xYlCaCaNSuR+2o1K1Z4jc64fowM62CVwPlf1zXpTMi0y1yn7rZXq1QDnhu1YtO8zTdiphm8czJLUBQZtKMU+Bs/fFkbu+3Auqa+uUuzb/bq0/+8UvfvGLX/zS1hLARzQxU2UfpYXO8wA6XmdDLwWuzGBdfAkseyuTgj0anY1VBRq4KmslqZkBZ8wl1Uw4Jjgz+swjXKSFxplmuGW/bvlkGSytDEkLdpSb8fiqXHSJoWVZBr3Mri3KGs60NBOg74/TrN0E534x2Ugq1yxjGi5d+YO0tYHl54nvOq0NrHwHXd7zdVcybyjynsZlmfH4X//6F95++20Fakw4xnnMqtxW4Kzk/HhEe3GhXnywrY08i83Ib2rG8/uL0XFTPqIKjJ7SVFDZa2ldI2y7BVhrZZ29ZicmFhnx+0wLHt5bhx+kVqNjErNlCzTvYgyzQXPZTrHhBzLA6rHPgH9kmDCn1IQj9iY0wJPfVvpLS7MgeRNd+RkD34IBp2vQcX0RPjjZgGqPWzbDAbTlWzwD3wvngq3/Iv3gSqWtwZlt16+7/reuvn/7Tvfua77CmGq9NFZr8z9L9H3QBZKxg5cT7/ZQ2hKc9azaVg80G8xm7Dl0CDPnz0fEsKH4dPosTJ2xCD0/HonvDpqLGwbPxE+CR+Lmj0bip+Fz8N8T1+PHUzfj1slbcMuEDbh59HLcEjEJt38YhbvejcL/BH2KW0dG45ZJG3DLp5tx+6g43Bk6Hbe/Owy3vzcStwVPwc0jF+LHk+Lwk2lbcfOn23HH6NW4c+BC/PSt8bj17eHo8soAhI2fjm3JyYhetxaTZs1H6PBxGDVlFhJSd6Gsrh5Wl0POhUVzz5Zz0mh2CExferxXooxP5++en/r5JURTCV28zszCTxf7ryLc/qefforQ0FCVrI4v8pTIPcK6aZYA6WNwRDwKW3hvNIQLFEf1EVh+HFVDXoZh1oewrwiHee47qBn+S9QJBDcMFPAd9RfYjm+S33QNrIc2oHrMS6gJ6QNz6JMwC/SaovrDEtZXuWWbw5hsjK7VPVAf9Dgqh/4R1vSF8kwpQ1NDHmqXjUBd2M8FzB9Dc3B3NIb0gJnx1ALpNtmfPeRx+VvAmdslOCv3cbqO90Bd+NNwniA4a/cIdQPU7x8+4vu78/7N+f4+P2udK1EKf7NMGMicA97CcBpKTmUDPll1CiE7TAKfNQLDlRiZWK1gVANiQiiB2aAAlsrpCkpp4VVgTWitUtMiUwSUkxswdkcpRieVY3i6rJNqxN+i5Tk78RS+PzgT7cNz0T4iWzRDvmegY1gmbhqajR7T8vGvzWYMTXdgjEDwGMJzkuw/qV7aVaXaxrYMFhAnRI+UaWwP/x5CSE8xq+96u8+3PZlQ34DBqWYM3FyBubuLLgFnvpAqYkJNT/Z17/PvF7/4xS9+8cvVkgD12FHARHy+8IBOLjKhZ3QWujCOmLDaCjB7W5wfiT6F+GKTQhknH2QcXLQwWzM0y7P6m2/3uUP+rSnLYJ1/v84vnlfrSWVGPLUyU5Wn6raywgPO+Z7SV2UCzYx1LkWXVYXotLoYvZdnYXBsKmJXrkRc7HKV0Cg2Jk779GhMTMwlGh0dfV5XrFhxWV2+fPklumzZsvO6dOnS87pkyZLzn766aNEiLF68WCm/U5kF1FsXLFigps+bNw8ff/wx3njjDbz66qt4/fXXMWvWLJVZec6cOW0EztrFaFGDD/6pXSe62CvX52blB4Ct1kZ0ST6L27blYWmlVcEz46JbWMpKuVJzeW3kaZc5LJi0oNaKu3bVIDDRgXZJTqhazaz7rGo0u3Df3nqsMDpQAS1RnNYPpI80u2RTjFNvlO1rqX9mVxjxk4Rs9EstQ5ZN66sqIlv1XTrl86WMfgz8n8fkPdhqO2lrcKboA3G62tJyqL9QIYDq8/Ra4/yuw5K+LpfzTnrH9ZlkjNmyfQfnV9Jf9GUI3kxgdrl1vLdLaUtwvlgdsFjtqKkzwGA0w2x1ijqQW1iK309cgOsHLUPHSQn4/uzN+MGczbhx+g58d0YS2oteNzMF181KwndmbMENU2TetO24aWYavjsnFe3nJMv8RHxnejK+Pz0VP5q5AzfM2oabZL2bpqXgR9MSZTuJ6DAzFQGfpqDdmE34/ugN+MGYtbj1k6kYOG0FamuMMBlNqGowoMZshcXilN+mtLXeBBMtzWy7Q4BX1CxKV/MvU8eZ15dJ3eLi4tTvn/cQ3od4b4uPj8eaNWuwfv16dY/g/Sw9PV3FO/N+wZdwzObO5El6pQCWwGNlALp106tATxBHpaWZ2+K95x//+AdGjhypYvKt5no4dsyHIYRlpnrAIZDqCHkS9RFPo25ZMBqL9qHZWQe4TWhxVcNVeAhVy4aiZOb7cJxNlQ5TA+PuFaga+gIsAsTWsMcFaJ+Sz6dV/WdbaC9YQ3sq+LWE9hHI7YuKmR/CxnrNLUY4TyejZuobMH7SA26BbqeAu4Nx1ALbpihm3CZ4M7u3/C3QbAt/HHZZhpm4qfawx1AVKeB8Wqulzq6rQj0Y2KOqBrTez6+l8Fp+8MEH6hlSkJ+HZr489Eh2tVHAOQdBOzSLM+F5WJJmoVV/J9Uoay6/a0BqUCCqWaH1ZaoEYiswku7bsi5hd2xiCUan1uD9hBr0mZaF74WeQEDoKdHjaMfP8CxPyas8rVRUGLNeH8FPhx/H72MrEC6QOyKVcF4tMEzwpQW5VgG0gvUkQj6t2vUYJGDOaXobvdutLNGqrfUK4IM2lWHeJeAMVFaUY8KEiXCoe6AfnP3iF7/4xS/XRgJoXyTUKog9jx9AooBzr5hMdFpZoNyifWH5InCOK8Zjy/MQV2ADMZgZjenRe9ZqgaHREzerIEyNUjyqYQ2zbjN+qZJWFLeWQZkwn1zagKfjM9A5rghdVpYLNBfiXoLzKgHnuHI8EFsmwF6KrtI+1nvuszwTQ6K3Y3lstACzDCajY+TzAjTrykGnr3KgQvX+e6UAOHXVqlWtKkv3+CoHrr66du3ai3TdunWXKAeovko3SQI5B1CvvfYa3nrrLURGRqrlOYC9GuBMcOWmmptpxyWktWgeAE10oxcQLjfj9gS5BkllWFIrg3nVd6TXNNFayky2sjITvQlQZzsb8fyBEnTYwYRfTARGd22WpzIJPJuU63bHzVX4094SnGVnIai7WVKK1hzZN8GxhRAOLKlxoHNSAbptz8eGWrVX2V+T9B32Kf5BuKfN23MMStmbud2vcm5al6sBzhQmt2FyMGbbpqstIYmlpQhMhGaWjaJFitZEvaQalyFU8TuhiJ963XH2PwITLZEUHbqvpL9wGW8viMut5zu9TcH5ouRgdEt2yqcLTrtbtBFuZxPMTjtCYtbjxsgV6DB+J9rN2YWAxfvQce4hXLdgH9qJBiw4hIBF+3DTwnQ8GnsUdy89iuvnHpDl9iNgiSwzfx+un3cA7efL34v2yjT5XHhYph/FdfMOosOcdAROTxRwTkLApGQETtqMDiOW4eej5+PE2RKVwd8l7XI5HHA5rWgSOHaJ2pwOFZPNbNq0mjtYispCeLaJtnK8n6PsB7yuW7duVfcywrH+go4v2xjaQWgm5I4ZM0ZZjNlPqRMnTlSfDP2g6tN19Z0+ZcoUjB07Fu+9956697zyyivqxd2KZYtQu2MR6pmsS4CUWaqrw38Bw+pRgKVQ/fZ4D+fPkko5Z62D21CCloYzMG2ciopBv4EplMDbR7lmN0QyRlqgVoDZFNYL9YOfQe3gX6By8POoXTMGzTWF8pCohmnnAlSMfgm1wf0EmB+HK1SgWz6ZsdscKdAcwbrSrA/NbbJ8FbN491ZAbg0nRPeVeY+hfNCzcJUcV21TPMYbjbS8sqoUGzasV2WNeI7Zl/nygRZ8/t70soNM4scXDcx2T5f2wsJC9bKBnkDMbv9VlDkOeH//8MMP8be/vYKBAz5CtFzjk5lZsEp/yqqxqBjngYkWDYppVU7WVLcoK5hWrtt1F1mclZs2AVtZgQ0YlGIUaNaAlS7Xb2wy4a7xrJ18XMD4rEDyGbSPOIEO4ScQKKAcGJEpyvrKhGhPreiQE/hh5Ek8tUjgOdmEUSma9XtwslG1icCsLMyyP1qc2S5lgU7WLNBs83mg97T9AjibMHBTBebuKvbEOOs9CjCbGpCWvtNTMcPzwtQvfvGLX/zil6ssAep5o6yMemSy9nA6VmNFv9jjuHNlIbpcATj3WJGD+AIm7NFGTZZzzVhxqggZ1ax/2qyASHtpTGvhBXAm6FTKIDvuYAaKTCxMpT0eCc5Pxp/y1HMuVVm07xVI7ibtUTWcY2VafLmafk98PvrHnERyuVarWSMntTPt72+pJCQkKGiOiopSdXgJSRSWCGpTV22FzR77bAtPHfsCYQnKoqyNhJtRL8uML2rAzZtPo1NiEeZW2KDSsam4aFqpoUCaGLu83IKbdpQiINmiSk0x03agypxtUt9VZm0ZXP1ocwliy+kG2sJ6TgrWPeNYGOSf2VUWdNleiDu2FmBOlVWVLlNZZpvYZ7XlFLxrLfYCZ4/F+Sufm0vlaoAzoYjWwcLCQmV15kCdAJyYmKgG5IRqDuJZxooxrHp5K1qD2R/oTst5tBTS0qxbimlR1OFWh+HP6y/ert/cN1/gUFpb72qDc+tKiHao765zLqzbfxL3hszFdWO3IWDqLrQT2O0oYNxxwV50ECjuMPcI2s/diYejk/FadBJeij+CH80WyJb57RbsQeDCPbLcHrQXeA4gaC+iHkAgYXrGbgROTkTgBNn2xO0ImLwd3xm2BL2GT8HmI8fhbLLC4jDBbhWgtzpELSohmM1uEWC2KWBWSvC12uCysCzVl7M4U/Vzqsc5e0/X45/ZT3jddU8E3YtBd/Nmcjr2D0I4+4teHq2oqEhZnakEQ1qzaXEmNA8cOBBLBOCys3NgOZaM2ojnBEJ7whDeA6VTXkdTaYa6/syNoKI3+InzDkRgroKGDTNQEySQHNwXTgFkR0RPAV5ahgm7vVAb1Q+1MaGwn0yG5dQeWE8malmzS0/CtHwIqiOfQUMIYfspZVlW5a9YP5q1oiP7yTYeF0iWbbGWdJSW5dseRitzf5nGWtIC2NLeitEvorFGj9v3qHwvryhDfFycsuTPnz8fs2fPxrRp09QLhfHjx2PChAnnP6l8GaGrPs13+hdV/QVGUFAQ/vnPf+L119/AX/78F4SFh+NExklk1VoVOKsYZ1qUCc1JtPDWa7HCHkuvDs7eqrlzazHPQ+ST4Kxio9OMeG+bGZ0mCiyHCBhHFijLcrvwDHQIE2iOPCWQnIX24SdF5W/5DAwXaI4sFM1X9ZavC83AU/OKEZlq1lzEkwnLbJ8G6fyugFjFQfO7Zl3WXMjZJk2Hy3zGPqvlUo0KnOf5gLMKKWMC0Eb9hd7n39P84he/+MUvfmkLCeCIQbM28l/NXY2SVW9F/5WZ6MREXK3A8kXgLMs8Fp2JVYWerNYiJqGamcfLcLBMg1mCFV23+ZDT4Vx/1JW4GzFr50mcNak8ykoSyxrQf1UOusbRNZv7YTZtwnORSgpGV22C8z0yvUtcAZ5deRLpVQ3n19eQXNvPt1EISoTjjRs3KkDyFg5w2xacP1+UJViuGKPIp52twW3r83BzQjmCz1hQwpEyhadcQJuu1ZPP1uN728oEmgnJWh1nDZ7rZVqDVrqKpaoEnGee1bNL69gLnJH+89EZA36ckIf7E85gWYVZ7VvFNdOFm9T8NV3eqwHOhBlaugjPtDozzpEutHSnJUTrVmhauGhJplWKljCWtiLo0LKsx70SmAlGBGzGKFO8Y5xb6y/ecE3V460J8oSHy8lVBefPVRvcLjNMFgvembIENwR/iuvGrMZ147fguhlJ6DgrEd+duhU3Td6GH01NQKeF2/BC7F70XboH189NFWjej/YLDgo4C1wLQNPirGB77i4EzkxF4JRktJ+QhPbjdyBwInULvjN0GR4On4ZNR07B1UQgNQokCyjbXALyThXDzHZd2ta2U+/kYLrLvq60wHlf9y8rzKQ+atQovPvuu8oLh2CtX+fGwhOoGfN7mEN7oy6sN6rWjgHcFuU0wmRN9P3QQ3aUrwO73jk3ajaOQ0VwD1g81mqrKGObaQ02fdID9Qv+jSZzodqH/oSwFx9F4fSPUR/8JGwhXIcALOsTuqN6aK7Y8jezb3+W0n2bsdO1oX3QsPBDtJgrzr+4VeDMPt+seVew71LpqcGXDlSed95veS+mVZgvMXlO+PugBwjPN182fFXlb5m/a76oYHjO2++8gzlz5yM765S0x4WMajM+EnBmjPNwBZoCoXS3Pp9kq3UlMOvxxHTVZtIuulMzEVhYqh29Z5xBYNBhBITlCiQLPEdkCByfEngmSItGnVaw3C48Sz4zERAqGkY37sNoF0K37ix8N/QgXoopwbBdFgX0CoZbacsF1SzkF9zK5VhS6LatAfVQaVvQxvJLwJlSX1eL2LiVcm20aiBfNIeDX/ziF7/4xS9fRgLOW+b43FEQzaFOE7Ia7HhiTS66xNLCeyksfzY4tyhwnn60FAdKaXGGFouqfdP2p5bSpFDAeVraCRSYL2SO/lxwZqbt+FLcs6oMd8cW4fk1WThcq4Gkdhx8AaAN/r+NwvJEHKDpwoGdPjhoy6zaVyy0Oisw9pSFKrPi4dQKfHdDAV7YW4HVdQ6UeGKc2ZqpBQ343o5yBc2Ma24ng6DAFLNmbSYwM8t2mgMBW0oxq+BCWaYq6Ter6234zf5i3LD+DJ7aWY5NdcygrW2YsdQtzW7lFn4tDrs1uRrgTFCh1ZiDcIPBoAbi/GQ/oLcBvQ/4NwfqO3bsOG8t1OuXMo6VCZx0cOYAnwBFd1KKbzIjX9H7l646EBMgCGitrUP5usHZYWtAi9uBrLMl+HXYcNwfMRH9ZqxH9wVb0W/5NrwcvQOvx2zDh7tz0HnBTvxg/mFcv3APOi4kONPifFBA+YDoXrSfk4b20xPRbvJWzbossBwwiboV7ceux4+GLMHPh8/GlkM5YE6iRoFlul+zXBZLTdHCbBeIttuvTo3mK9GvUsfZ+1oyBpovaOhxcNF8fhoKUDXvXYHZvqgJewqm9OXKoswfaXMTX2wxESTrqTP0htkhtfUb9i1FhYCuWdYxR/QRoO2nYpOtYfI5sCccyQvV9oVflaWar1iNJ7bi7KAXFDQ7wgW6FQQ/Id8FuiN7wcoyVeFXAs7yKfBcFNofddtmyH3Moe5jKnrYE0KkP5e+buHv+9///jdmzJihfksqxMkjXxacNXjWLMDKqusB1iE7rXhtbS3+K3yvimcmFLejVVnAma7amvWZn6cFpvmZp2Kfvx9+BP3n5eN3Asr/M1IAO/gkAgYeQpcxR/HJDqPsr+GS/bemnwvOm8oxd/el4FxTVYlZs2erl0XKA8kPzn7xi1/84pdrIAEKMPnQaVJjBxnoMNmGA8W2Rry4uQBdVpxVSbh8YfmzwbkZJnnQTTlcjN1FGhR5huzqP+8HICXP5cbEpCMovGJwFo1jhu0SdF5Vjjuji/DKtnyctbF4knYcWkayby8466IDjZ4sikJwZizjtQRn5THAWGLlh6m5Ye60uvDmiRr8ZEsBbtxyFr8/WonFFXYclZmji20CzlUI2NmgYPm6RCs6JFkFnqlMFOYSeLYhYGsFRhUZkS8j5dgKB149XIFbt55Gt4RcBGXUIMPp6Ss8D1Qmy2o6p2Lov66h0tUAZ4Kmbl3WY5gJzZxOaKYFWodRWqR1azTjnmldpnsu3bc5n98JzrRKMyGUNri84Kb9Wf1Fn68rgZ4Qpc/zFd/tXVtwtsMifdBmFVCTPpd86DA+mDYXU5KPICa3BjFny7GzsgoZdbU4YLbin0nZCGSc8tx0XDc3Fe1n7UTAjJ0InCo6JR2Bk7ejncByu/GyzMQ0BExlQrDN6Dh8CW4PmYq35q3FsYISObZmuC1uUSdsAswmB8tkEeKZNZvgfPWP+3L6VcDZ+z7DlzC614E+jwCnLLTnjKjbMA6GkL6oDnkSxpQl0gd4f5CZjIc/xxJyLAvH9H2O8z9UQ/oCNIT0gjukn8BsL9gJz5F9BKJ7whj0GKybpil4ZZ4N3smJss790WiIfBaukEdhD+8OU3g/2MOehDOMNZ/pts345c8HZ5usZwnti5LBv4HpZBKPQhV9UMkwVagJq0pciOXX1fdFkvf3tlZ1jgwGlQuDv123S3ueUVrUtWhBhopxPuMBZwJw3ZWBsweWVZknQq38PUIgldbmHlOz0S7ogGZpDqdb9ikPLItG5SlgDozIkb+zEBB2CteHncDT84sQlmbBiN0mvLquHj8ZflpZnb8TcQgvryjCsDSzatsl7fhS4HxxcjCCcqPbiTpDg/ISUCUsPefPL37xi1/84perKR5w5ghCednKoIUWArtK2jXsYDk6LT6NrvFll8Cyt7IcVXdm1S5kjDNFA+eJh4qRUqiBMwdB+n8qg6kX9mQJOI/eceiLgXO8gPOqYgHnMoH7AoTvKYVJjdwUY0Flef6WgjMHAb7WP/07pajo2rtqs9Y2M12fa6ZFSSZoo2RUSZuW1TjwwsEa3LK5GDduKkT3feV4aJ8B7ZMZ02xVGphi0azOtDgTnBnjvJMu27V4ZF8Vnt5Tjls2nsFdW/Lwl2O12FDvQr2ni/Cwuc8WXlMVSy1D8hatDNXXIVcDnCl0s+VLEbpjE5r1a08IpoVZv8687oWFhaof0BrM9bgMP6lclgBF92+6k3pn3/YepOvCv2lZPF9yCNqyFFq0mWxKX85XfLd3zcHZ5oKVbtJ2C2xNDqRnZmDE/GjMXZeG7YWV2FVWid0F+dgt5zXmdDmeXJGKjqPXanA8SeB4cgoCJsj38fJ9wi4B510InJCM9uO3oePgaNwcPA1/mLQEMen7UWmoQ1OjBQ6nRfZJK7MLZoFmk5OxzIxtJjh/fdZm6lcBZwqvpTcwX3wv0sCZlmDbkY0wRj4D4ye9UbUiEs2NJj0VgnzyXsEygy1aSAXXcVtRGTsYDUGPwh3aW7QvHOGPwzSoD4xR/WCUv2sm/AXu04Ra3tca0VR+EoY578MS1AeusO6wRD6mSkvZFDgTiBnn3F+zOvuC8iXaG6aQnqia/Aaaagqgiu7xnkLVLeOeWFnv/uz7m/ms30BbqB6Lrgv33yQPZg2caXG2XLA409VZwefngzOXIZCqrNaMbZZ1R6XV490tRvw46jACQjIEkAnHOVo27eBMDaIVLOegXVgmAkMP47rgQ+g/W6A5hWWoZLsplRiUakGPubWyPK3Rx9F7xmnZh0W1zbcdvvplwJmfDrsNp3Jy1P2u5fx0v/jFL37xi1+urgQoy6wnIRNR080BRbNW/mJjXi0eXn4anTzgfF8r0HwBnLMuAedxB8uwNV+Lz1WOcC2aauWDLjwIjzjcGL79KIq+ADjfK+DcVT67qMRkp7E016BwnMJ/9SHelxF9EEPRB076dO/PqyWtbd+7TV+HqzavnwJmdVoZr+6ScabWTzi9Vk71GgHof2RU4f7kPNyYUILvJTTg+s11aL+tEgHJVQLMdfLJUlQC1YkVuG57Eb67oxL/tbUU3dNK8EF2DZIbBEZavK5cMwe4KvpeufvzUBlB6YYNTEN2rcT7/DNhFxP4/CcJswUzOREzc+tZuCmEaYIwj12HaW/xPi+Uaw3OdJV2WE0CrUbYBV5tjS6cLq7EnMVrEDJtIWZv343NGflIySnCnoIqLD1dgedX7MWPRm1F4NgtCBi3CR3Gio7ehMCRoqPi8b2R83FX2Hj8bfRcrN22H/U1djS5m+FyMylZA+iObRLAMTidsNhl/3YTbA6TwDMTdBHiudylbb0W+lXB+fNEy4Uhv8GKPNR/+gbMn3RH3cj/hSMrEQqpZaabL2D5O5VPPULnnM2AihUjUBn8OKwhfeAW+HWFPKEl9gp/Fo7QZ2EP6g/T6JdRv248DBtmwvzpv2AIeUZL7iXg2xDVR5Su2bKuTLOH9xNoJjzTgu0LyherNaIXagXYjWvGocVlVs8H1W+b+T8jsj2lEr9Gae0+zmmqWoFnXqa3q/YXBOeRCpwNiErVwHlEegP+GFOOjsFHNOiNICAfx20js3HfpLP4ftQxAeETMi0L7UIz0C5oH3rNzENkqg2jUwi2VQLPDfh4qxFdxsn6YbQ6Z6DTmEx8tFXal/r57tpfDpyByspyjB0/Dg6nNmbQzx1fOjA5IsNYdNHvUa2dX7/4xS9+8Ytfvoio5GBq8OCBEw6ZGz1uziV0115/BndHa27RCp5XXeq2fSk4NylwHnOwHBtP1yoI0sCZmZA5WOEg5cKDcL/FjcHbj6PIcsE17bPBWdoRV4hu8YXoGn0Wv43PxMFa3Vqmv3+++EH7RcTXNY/CWFHGnnlbgK+leD/4aUW81uDM66X2Q8+4ZrpTNinLr+oqqiII7VBa8rAshxvram0YdboOHxwsxisHyvCL/TXos79B6a/21eK1/eX4+FApJp01YoPRhWxXkyo9pXVGWoD0hHX811OnmYMndVk5kGRswbWzOHuff8Lhfxo4sz+zfBFr9jK2kqV3dMuXXj+6tT7vOyC91uBMC69N4NXFjNVmK5zy9zm3S9V33X88A/OiV2PUghWYELcR01ZtwrRtiRiVdhy/XbwDdwyehdvCp+OeqBnoM3o2Xpg0F29OX4hZG5OwLzMPNfUW9TbRbW8SMHfCpspJyT6tBGYtpplZtF02k0C7SblrW+1usGzWJe28Rnq1wVn77Ym6nKjaNBc14f1hDX4UVXPegaNov9wfPJUV1Bs2ejpImyqL0NhQhmZjMWrXTUfV4F+iPvxRBbOMdTaHPwWbgLOTtZhDe6IiuB+qBgjsBvdRSb3ois3YZmOkgHUks2Y/oabT/drmiZX2BWVfNYb3RenIF2HP3A7l109Xcj6P1EF57umeln+TRD2e+Y/nN5b5lVy1WSrKoJKEqeXTTPjFggIEBh/TYplDT6HL6BN4e4sZQbua8asVlfhh5FEEBAk8Bx/Hg9ML8HGyHaNSDVpG7LRafJRkw6NTz+I7QQcFvmmlzsQtIzLw1kYjhqcx1vmz2/VlwdlqMWP/gQNwyW/dO6s2w1Z4b6aXDMuG6eJ7n/KLX/ziF7/45cuIFzhrWZOJKQqcZXDhkO9h6QKoS7PRzRuWfeCZMc6PRmcjrsjm2WyTshqOFnBee6pGDaGIQByaKHBW8W+EIe1BlmZsRNT2Eyj+AuB8r+zzXlqel+Xi4+25qHVr1ke1D/XFM8D7EnLBNVEbVhECGFPM2pp0o9WXuZby9YIzzyp7A+MVm7UkQOfYTzT3TQXTup+mxzWT19Ysa9XKZ6lMynG24KRD09PuFlTJdEbE80XN+TPJGOpmBgtQtTrONGGpgZFMUZGPWjyB5h5xDS+B9/lnBusBAwaoetusq/15dbp91bdmN5UZtb21tWlUZln/PGUyMW9lTXBv9Z3O+GkmJmOfYgkclkBjNmVm02ZGZdYMp7TW530HpNcanC0Os6jAq9MFF4HVQXdpI6wuExrPuVTSrqLyGhw+mo2ktH1YvXU7Nu/ahw17j2Fp2gEsTz+CjYcysDv7NM6Ul8NEd3Vm6pXO1yjbtHAfTtZiNgskm9FoFmC2atDstljRaLGAbuIW1m22033bUyqrlbZeC73q4MzfeRN/gM2wnj2JitF/hTmkJ6oj+qN06j9hTFkEy+k02IuOwJa7F8bUJSif+S4qF4egseyE/OCNsOyKRum4l1Glsmr3hF2glnHLhOKGqH6whLOMVF8B496aVTn8cQXOFs93lpsiPFuv0OJsl/nVAtoVy6PQbCr3HAfvLx47M//nrQveaPbNELbn8uD8xZKDaTWTNUBlveShaWb0mZaDwNATArxn0DEiC3+Jr8LoXSaVNCxipxO/XV6GG8L2oevEXLy93aVgm7Wfue4nKSY8xmzcwSfQIeQk2oVlyHYy8N9Dj+ON9Q1tCM6XlqNqlj5odzjQdI6VQC5+mc28DDExMRg2bJiqOsB7kV/84he/+MUvbSGqjrN6186Rwzk+fJoEiFhQRLM+bygyoV/sadwTR2i92NL8eeA86mAF4jOqNIOk+q91cN5e24jwbVcOzvybGbW7xRXioWXZWJarZe7m5jT494wzvuQoSH8I6w/iU6dO4f3331f1TPlA9o4BvFby9YIz98EBSqMauyg+ptcAk+oowPX0HzVNc9fU4gW1q6ydLU7UPBm4EV4ndZE82brV+VbbakETQweYPbtFcw9XTK5fWbqHizZx+at/2BeJfp5ZLoYvUVasWKGU9W4vp6yB/Hm6dOnSS3TJkiWXKOvLtjbt83TRokUX6cKFCy9RLkeL83vvvXdR7V72swULFlx0/N7ydYMzrc02mxWVtXWoNgkwyz6tNosWc2y1qMG1w+VEi5uJ7ZpgaXLB7rSh2eZAs116nJteE240NrLsUJMAuBsWqwnVdVUwy7bNAs1mbsPOGszcpk1BstnJDOYWVZuZCcKMDsY7f7uzal+RqJ8640odQKMFhpUTURX8hADw4wLQ/VAb+SzKRr+MivF/R9Xwv6Im/OdoCOuJhuDeqJn0BuwntskGGmA7vQ9l0/6FqqDecAb3g0tA2RihxTsrK7KAtJlZtyN6gW7a9nDGOfdWStBmXDNh2hzJZT4bnG2hvVE19H9hO7FdoZdKCtbMfsv7lxb+wZsJ71ffNPE0zfNA+2rgrMGpQcHqyORqDE63oefU0wgMOY6AiFx0CD+Jv6yswZhdDRgiywxn/eVUK16JL8K/NtVgSJpN1qvFyNQ6hCRb0WtWrsAy3byztbrOEdRT+Mmw43hzXe1VA2dKbXWV3P+WwulqPX8D/+Z9OiwsDPPmzTv/rPSLX/ziF7/45auIB5xbtAezGhQRfBhFqiFOhVDLR7sEUmOy0WVlIe4VYH0grgD3yfcuq8rQbWU57mWc8fJMrC60eh5tzbDKlzH7K7H4ZJmq66ths2cQwGQnXlS7tcKF8IRjKLJciHFOLTPiqXgCe5Hso1Rp11X8ni/7LZK2lOOemDP485ZcFDZq0dmK6MhWLZpR8ssOg7wfwEysNH/+fAUUH330EcLDw1WtzWstXzc4q75B7+hmJgqjpaY1ky+vsSdWUOtY6uPC+35O8ECzPoUW5SZZT1mAmrVkQp7ZtGbTqk23bbU5NZ3bd9FR/KLtXG3xPv9XKznY1yk8NoL+3//+d2VNJ9Czn3nPb62f+U5vS3CmBVd96km3VOItrU6y00G1olGAtb7OiMFjx2DZ2jVwyr3AStAVMG60yDJ2gq32Scu0wW2FxWWWvy1wy/3GLW1ksi+bg+7VTH4n96OUFLwfHITc4mK4Gs/JtgSqbXZZh/sXKKe6rArAHXYmc3Ioq7RZwbpJpmn1tNl2JntSx8P98O9WjrMt9WqDs/aY4G+PHijyX0Ueaj59C4bgnmgM7wFHyGOwhAr4hvaFJaQP7AK6NmVR7gOzLFM+7EUYdkbLTcGIpupsVC8JR3XYc7JebzhCaWnup0pN2cIehylSPiNpke6lLM8sKUVLNMHZwezayuIs8EwrdQRLTjFp2JPaNLVub1jC+6MmuC8MMVGAw6CeaVqpK4oWMqTdr3jfuXDv+aYIm9MW4Mw6zsymrVmbWce5GlE77XhiXhHah2jwGxByEv8zIgP/2mzA6F11GJlYiaHJDZqVObVBoNaIUckGRMrn0wsK0TH0mKzH2s6ZGjhHlag4558OO4Z/bazBiLQ2iHHeWI75rdRxJjgvWLhI9Xd1njznx/d+xAoFI0aMUDXJvZ/b3su05knzeeK9eexjtwAAgABJREFUvve+9c/W7pV+8Ytf/OKXb78E+E5oTXaUm/DsypPoFFsgkFyOh/i58qwqBdU1vhLdYgsFnI9hZaHZA6zNsMtzY/T+Msw6XgirGq5oLtRqsKXGJ2o0oLa/rtiBAQknkG/VEJtWysRS2WdcNrrGlsg+y9B1ZQnuWVWC+wWku64qwD3xBei+IgOrC+rV1ltaHGDtUPKz9qFt58sIH3r6w5TZirdu3YoUGUxHR0erT708z7UU74fx1wLO0EDW2xLP+sEJCVuwcmW8Gqw3etzlOUBhRme2j25zfPmQlZWlyiVRaLHPO5OHCtapbtEGLpymHwfrV5+Vbeilcbz3qcm1Od7LyX8iOOfm5mLw4MHK2u09wOT1Y2ksSmv9zHeQ2Lbg7FAWZZZ4corarKIOgUPZNl00mayLUmkw4tV/v4up8+bBIdNNLgFiAehmgV6X9MmmpnM452pUQE1rNOHXLNDtdLvRJMvZZRnnuRZZRzuOhXHxeOrXv8aBYydVOGyz+xzcsk2baodVlhOQlv3YXE40ynrchpPHyvbR2i3fXdz2OZZNaxIwd2nnQuD7Im3lmL+qXnVwpqprzt+rNs12aC2qhv0S1tBHBXjpYk03alqP+8Ic0d8Tp9xXTWsQ+C0d9GvUr5+AFlORwGwJajdPRc2g52EL6iXLChCH9FBWYnNkX+W27ZD17KH9Vc1ncwS3/biyUFPprt0Q2V9Nd4b2gzuErtyE7p4yr6cA/eMom/QaGkuPeB/Gt0Z4itsOnAmnXKda6aCdVrwQU4XrQw54ylAxo/ZJ3DE2G+9tqcXItDqtfFUSY6IJtQZldf7fJcX4DmOfw3JlvVx0CDsh8Mz1iwW+z+CuUcfxfkINhqcZLmmHr14JOM/zAWf2v3NNbpXZXrM0tw6++n2JCQ7pnTNo0CBV7173GNOfK/pzxvde9lmiL68/l1gFgSXEysvLL5ruF7/4xS9++c+SKwJnqwwOh+0pQddlOQLJ5bhPgSwBlnHGxegSn49HYk8iroiITCRmzmNg2IFyzDqUDxfRlgMtVcLI4x5HO6QnK3N0vh1vb8vFabsWvMrEU9vKjHg6Pgv3RpfjgZhydFtZqMpiPRxdhftjZd8CzR8nnUFtI02hdOelDZTmZrUJ5fL7ZS2S+gOUDz8mRqIQAgkEFO+aytdKvhngrA0WKIWFhSr2ddWqVSpedurUqerFAgfuZWVlCpIZb8uBCts5ZswYtQ6F52/27NnYmpBw0bZ1YVZU3T1Yl2t1jFci/4ngzKzaOTk5l/RrJsXTy1G1Jr6DzbYFZ80V28H4YUIpY4ebWnAqvwjxG7dg/vJobN29B0fyzuKtAUGYt2Cpgl+bHEJeSRnWb9mKRdIn127dhtNFJXA0NWvWY4tTwLcFpbV1SEhMwZzFyxC7fj2OZ2Wpl3DL1qzDcy++hCPZp2E514yUXbtxKidbwbBbIDxH+nG09O3pSxZjw7bt0t+r0exqFhh2wEILs/TvsppaJKamY+3GTSiWwbSzUQb6nmPyPc621GsDztDus56SdC3uOhg2foo6WotDe4LJusyRvVS8Ml2qVempsF6wsCSUAK5RILg+9BnUzR0AV/FBWb8atj1xKB/7ZxSGPYmKUS+iZuQfURX6CzQwMZjAMes209psjmS88xMC6P1FCdL9ZZtPKouzLaKHxzr9uKhMF/iuHP472I5sU+38NkpbgbNSgVHC8xBakQnP6Qa8tbkBN4QfUPWZAyJzNXfr4Ax0m3gGH29twJiUKgxLqsDwVIHbnSa8uLwEP4o8Istr5aoCwzJwXehxdAw7qWXmDsvBo9POIDLJ0DblqASc515icW5R94Ojx457ns+tA68CbA8ks1IAX3rz5SDDVfhCUF9GB2jfe9lniffLXP03x3tfenq6ekn8dYRz+cUvfvGLX66+fD4489kgz5JskxN/2HwanZcV4t64KnSLo5t2Ie6LL5TvZ/FgTDaWFxCXuYJNZUgetK8SM/YVaJZfZbrRszrx4cS/NTer5dkmvLkpBzk23cH6HBJKG/B47Bl0iS0TMCekn9XqN8vfnZeX4RerM7G7wqQWp4WZzzDW5tRiqLkZNdpQ2/+ioj9M9Qev98NUf7he6QO2rcR7n18HOPseN5Ol0RKvi8FgwOrVq9UnYZn6wgsv4M0331QJ1ZjptKKi4vzydH/nQOPAgQMq2RYlLS1NZXPetWuXcosPCQnBhAkTvnHxaf+J4KwPAr37PpWZtenueLk+5vtbaFNwVlZaqkUBp1Mgdv2OVLz82lv41R9fwW//8ip+/ue/4s8ffIRf//nvWLwgVt0PUvYdxl/fflfB70t/ewXPvPR7/O6NfyJ5/yE08ZbjBk7lnsU/Px6AX738B/zuL3/HL2SZdwYMQKXRhNgNm/DLl/+EA9m5WLp+I5767QvYuHW7uq2sT0zGy/94A8/9/o/47f+9otZ/898f4cDh43A1NsMl96ITOWfw76AQ/Pw3L+DPr/4DRzIy0CjnyOKwwypKq/nVAuirDc6e27PnxWQjNLdtuZsbClG1MAg1A/sK0PYWYO6jANcS/hRcArCuiMdgFZi2CgA7BZxpUTYE9UbN2H/ASbBtscBRcAC1iQtgy90JV+EeNGyZgYqhLwo89xdw7iPr9ZDt9YKJFmbZrlXUHOnJrh3eF8ZIKt25n4A9+HFURv4c9UnzmRb9/HPs2yZs8uXB+cqzaqs6zp6s2lEpZrX8SIHi8FQLHpyUhYCgowLOZ1Ssc0BoDtoNPIqHJ+UgJNWKkbsaMGiXGS9El+KHUQdlPqGZywo4RxxHB4Kzx2LdPvw4frOsHKNSjLK/z27TFYHzZbJqV5aXYdy4CZ5yVK0/j32fWRR60/BF4NixY8+/yKV4w/OViPe2eb8jlBPO6WnFF7/04PGLX/ziF7/858nngjOfI/qzJK3aiGdWZ6DzCgJsJe6PK0FXwnNsCe6PzkfUwQoYmhlf3KQg+BUB7RH7S1EDrTCJo4XFSQBiENXRoiUgW5hlwO/jDyGh3KBcvVnQZEJGHX62/Aw6rypE5zV5uHdlgbJud4o5i56xp7HsTK1alwMiWpubm1oUQDN+TWvvlx8peT9s9Ycp31DTKqdPu9bi3aavA5wp+nETjiMiIlQ9aQpd4Vg3k+3hwJ2QTBhmG5mVmfM/+eQTBcHx8fHKbY5Zm1NTU1WyNVoAKLRCMzM1AZoJqjIzM5UVm5D+TcqM+p8Iznr/8rW+6ADsOwD1XU+XtgVnukdrAN0o0Lz36HE8/4c/499hg3H09FlUGa1I2LUPf3r3A/R45ldYFrMWZ/JL8X9vvo1X3n0few4fQ43ZgrTDR/HK+x/hxb+/jpwzRairN+P1997H7199HWn7DqFGtnP8dC62JCfB7Px/9t4EzqrizPvHfYlJJpPMO8v//86bPU5mJpn/TBYnyWSZLMZk1Cz/jEYnGo1JTFyC7CB70zQ0iyyyiCj7joKCRGVpQUBAREVBEOimgd73vr1vz1vfOvdpqg+34QK93q4fn6LPrVOnTp3af/U89VSNLFz9rHzn5p/KIyOS5D9v/bkMHz9Rik1adr21X240RPw3j/STvW8dlOLSKknb/YbcdMcdcvsf/iAZOfmSn18sv32wt9x2z33y/MbNciI3X0orIMzVzYRZXfh728K1O3EOlIdsP42JMHsCcrRfqD2xX7KmPyAlfW6Qur4BcS4dBMFFfTrY68x1mSHCJYPNfUN0I71vkMKht0pJ2lJpqi00kUOEAs0kaSyVkrUTJHfAt6Wyv4lz4JdMHF8KiPOgb5m42M+MNPurVsJcPPgbUjDUxG3IeXHf/5DCFWOlsTILWhVY/e+GINWtEufzOMeZ+xDS4RsL5VFDaodDnDdmSdIrZXL7qny5buBu6TXggCHCB+XygW/LpYYM9+q9W/5xWobc/UJEfrzklHxo2D57TjPq2Va6PPg9494yz+wPrvvtk79P2icPrC+VUeYdIzbGSEebEOdA4vzGW2/ZrRBBHxS9pSFCfZm7AM5YjkHEIUOGWPVq9XelyOeCPpOXl2cXkNGyUqClw+JvvHF5eHh4eHQfnJM40/XXCkabgkFg9fF8+fqyt+X6+ex3Pi6fRl17aY58ZslJuWHpYRmwo0AmHorIPWmZ8k+L9sutL2bJiL1FkvRGniTty5WUvTkyeq8ZGPfly5i9BZL6RqHclZYnX1j0pvz8hfdk4jslMsr4f2ulIcuLj8inVh2TT608Iv+0+KR8dsEp+efFb8sT72ZKZXTgCowyM8mqtz/4HVhyDgy/XCx0gGRgRPUYdNaAqGmBsEJKXXWzMIFpD+h3s7e5f//+cuLECfs7LS3NGl/h+A8m7BDd119/3ZLel156yRKfvn37Wikzxx6RjxiggjgjpcYoFWAyw5FLWENdsmSJ9WPvGISbveadCZ2IAb4pEYlzrN/p6en2XOfWEK53bUqcOSu5oloqqw3pNG5M6iT5uSG7hzNPWWqF6jRvTnttr3z/5/8tsxYtl7nLV8std/5KXn/3oE1PVU1g6eC99BPys7vvkScWL5UV6zcYYnyzrNu0xYaprmmwRsBUvXKhqZ9f+OZ35Js//qmkPDZTCsuqpLKuUZKnTpOf/eY+OZqVa8NxKtO6TZvlh3fcLg8MHyYni4tlybKV8oMf3WoI+R6bxqra+mCvdnh/c3fd42zLG82egN7aXrapLjDqZ1CfuU8KZz0oRX2+IeXsdx7EkVP/blW0ywd9y/hBem+whr9KhqDW/SUp6/M1OTXovyTy+nO8wRpowzH6VO97RrKH/UjKzHPVhjRHTHh7NNWA/7AGxCpN/OWD2FeNcbCvGtL8Jcl+9D+leGWqNJUctxJxCL7VROqGINVtQpxxGs66PLvPeZTxH7CpTL4y7bBcinVt1K8HvimXDH7HXLPn+W25bti7cu3gfXIJZHqwIcyDDpswB+xfK6EeYv4OfFeu7vea3DI/U0amVRpiXtR+xBmDkabxcVScawfDJcvaV2vfpP2U+vPc+vXr7b5nFnN1LHUXDd14YwFtHKTLnLrhAhsoEHKFG2c4rvBvDw8PD4+ujXMSZ7r1+iZWbJH41du9y4vfz5f/WLxPPrnwXfnEyhPWQNinkT4vOSb/ND9dvrjwmHx2yQH55LJDVsX68wsOyj8vOCD/tPAd+cLCA/KPC96T6xe/L9cvel++sOCQfH7JUfnUimMmjsPy+UVH5HPG/1M8uxzr2ZnyqeUn5dMLMuQb8w/I0weyTBoCOm8tNDcx+JgJdFO1nRwFsgokIexwbrtBiQkpalgg1gDY3nAHfSTOkNOOJM7u+1FJGzlypOzcudP+hiRBbFNSUqyKNsd/QJwxNMU5mkicIb8QbgXHH6HeBkHmGrBnGokzkw4INUCSPWbMmC5HnJGqJzK0LmHshollawjXu7YkzpWVNc3EucRMUh/u318GjUyS8upaqa6ukpqKMsN66yQ7t1Buv/9+mTx/vow2JP8PgwZJUXml1FbVSmWkwoSrEYquz4iRMmRCqiTPmiE333mHHM4wxKqOfc+GmEcqpdo8w5fMf26tfPaGr0vvR0dLfgHSdpH84lJ5eOAgGZI0VipNXGVVdfLk/EXyg1tulSHJSXI0J1t4OmXqFLn97nslu6BMqmsbzeS60pLkKqxyR/9i8bu7EmdrwwISA6mQgM9hu8ISZ+tRJ/XZb0vekuGSP/DbUtHvnw2x/YIhyIHRsPJBqFZ/zZDgG6TcEOeygV+V2v5fl+KHvyRFa1PtG2yfbnf0NEj1jkWGCN9owkGUv2yI81esQTD2OLPvuWqg8Rv8/xki/W9S9si/S/6IW6X0ZdOfRHKFFFab9EKc27NvbE+Q6laJ88b4VbUD42DRo6hezrZ/h2Ls6+U8GbW5QO5fXyp/P2a/9Or7ulXB7jXEkObBkGNDjAcYYtz/XSuJttazBx6SS7ke8K4h2EfsvuhL+u+WG6YflgEbq2Tk5lJ7nNW5jqK6YOIsgVXtJ+fObT6OSvtnl6SGEWucxK7DuHHjJDU1tcUpAsTjGg2LBRaw6RtV8wowR2BxmEVlxkn6QBBOW2txenh4eHh0bZyTOAPGrKaGOvNfte3wUZF+8VSRfHvlbvn44v1y/ZJ0+fzS4Eznzy85Jf+4KNPue/4cataQ32XH5fqlx+RzhiB/bukJ8zfLkOos+YQhxJ/luSWGHC87acKetAbAIOGfNs99btkxe17z/1lkSPPyd2T5+zmWGDOAkgokynb8aWR3MwrigTqWnczZ/1p8xkWBQRBV5M4a9Nz3MlBPnTq1mch3BPT9Sh7feOMNGTZsmLW4jFQYKTLq2OxnxlAY/hxptHz5cnufI0FQYQPkJVJMSBZEmbM2mbRwdjBkG1Vt9kazTwxV7ylTpjQbaessuN/+4osv2oWARIZ+r9a51up92L8tiTNk1pJOQ5xLze9BI0fJvQ8+LDmlZVJrJrW1VRHbxt85dERu/O//lllLl8ukuU/LL+//o5wqKLbbN6qrqq0ySlFxudz94EOSMmOGzFy8RL7385/Ja28FWy84u5k6WVddExDnNWvk+q99U/7r9rtk0yu7rF9ZZZUMH5MsD/Q2dTW/SMY+PlO+fcst1kBZpSHvWNeuaGiU5GlT5Ve/u1/KKsykuTqYOHOMVpX5C2nmewJr4Wd+b1u49ibOtl4Yx5YYmzGUvWF2aCRxnJweHddYcUpKNs6QE8O+J8X9/lUihthGBgaktxLS2z+wfl0x4JtS1/8bEjFhssb+l1QffMn253T0dVnvSN6M30v+gP+wx0rxLGc285ejqao48soQ8LKB/yq5/b8ix8ffK1VvppkHUfcODsYjnWzl4czmNh0QOgg2LzWfJUyc4zcOZq1jGyIK2R79co79HahsF5jfWTJ8S4ncsbpQ/tfwfdKrz57Ayvbgg9GzmQOjYUiZA0nzAbl00NtyGQbB+r4pV/bdLV95/LD03Vhh3lFmSHOhjNhsyO8myPOZaTl/4hw2DsZpF7mycNFiqallUUzH/bNLiVsLwziKNhTbj3QxGITDucCPMYnxjsVhFooxCvb888/bsRG7EKhw4w4fPtysKu7GFSteDw8PD4+ujTiIMwMNaox15i/HwDQG+tEGL+UUyc/W7JN/nHdAPrsQI2EZhuhmymcMOf60IbyfW8a5z4b8GkKNvz2P2RDjf1iaJddzf8VR89cQ6sXH5TPLs+VT5v7nINzWUrfxW/y+fG7Bu/LD1QdldUax3VcXWAKLrtpa4oz0g0EI+QKUHoLPZM4mvc3ACjJqxKC1wbQ94b4zIyPDEmf2GivCg3JbQycR6gB7kDG08sgjj8jkyZNtukgDEwnyCxU2CDITB6S0SI11wrF582Y70eCcW9TOsboNaSbO9PR0K4WGbDOh0WOsOhv63UyGOM+7PfO7s6HfVlBQYImY6+ciXO/ajDhDmCOGcEYwDBaRapP3qze8KN/88a0ya9EyySkuk0hltWScypZByWPl+z/9hew/nCE73nhHbrrtf2TC7DmSk1ckZYZ85xSWyKRZc+RbN98qL297TQ4fz5abbr9Deg8bLkcyT0pppEpyCgol42Sm1a5Z+Owa+cr3b5Kbf3Wv3HLn3fLStu3WuNeGjRvlpl/cIXc++Ih85xe3y0xD1DPzCyUzM1uqKuukxrC0cVOmy//c93spQaqMxIlzpCNlwpFa5AeEOcLZz+HvbSPX3sSZvhciZ804Uuy2/CHNbI5BMTogq7ZGNJZL5f6Nkjunn+QM+YGU9DVEd8BXpdS4CkOEKw1pDqTQX5FyVLf7/Zvkj7lVSlalSunaKZI95W7JHfDvVuW7yoSvGPQNQ5K/ZskzpDnS798ln+OmRv1E8lePl9qsd6NJhKTUBvua4cv0nXbJ9cz629VBituCOKM2rerThGevc3Cuc4EhqtmGsObKsLRy+dXqAvls8n5rKbtX37fs8VSXDHjTkuVeVrpsyPTA/YEV7v5vyEeG7JXvzT4qA18uN2S5xMRZEEibN0Kcz5GmTRdGnO0ijZmP1NVz3FytPPPM6mYDkzpOnq2vUueOZfRXkF7GslWrVtm2BFob6/U5wLgG4WbBlzGN4xQ5bYJ9zhjERAsLzakwYsXr4eHh4dG1cU7iHNDTesOVGWSig4/VpQuGsT2FlTJyZ5Z8d8Uh+SwEmn3JS1GvPmWlxtcvP2rIcrolzJzH/A9Lj8s/Lck0Dovch+39z6Hmbe5/1pDo65cdkU8uOS6fXXBQvrPyoAzckSnbCyoD0kxamuqkoTFqEATibKXM3OI/QqHCHZ25teG4xKr0vn377HVnDHg60APUZ1Fr1sH4bCvjbQV9vzvxuBBczLOdCTf/USNHtS+RoWWElgAWaF0/F+HybDviXGHPbrbnN1dEpKKmVgoNwR07ZYb84Kf/LX/sO0iSxk2Su//wgNz037fJsjXrpNo0/bKKenl83kL57k9+Jr954GEZMTZFftv7EfneT38uU558WopKTF9iONTqDS8bgn2b/PI3v5XBo5Plj/36yaCRwyW/vFwWrXpWvnvrT2Xt5m3SZ+RoudE8++qu3VJeXS1Tn14kX73xx/L9//82GWCe+82DD8volAlSWlEjtaZ6jJs4Rf7nnt8Y4lwR7M2GONuzoyPBdVWlPbKq2xLnaMdPU1AZbmBZO9D+se2EPpkAgXqQNJRmSWTbSimc+bBkjbhJcjiaqu+/GfKL9PhLUvLov0jpkC9LJdLofl+Von5flsL+xr/vV+25zjUYBuuHSrch3OZekfHP7v9tOZl0mxQtHiHV72wx3X6gEmsXVpsYA4J91xgy66ac2cIOY+Sr7XuaLHF+cNX70vulcru/eTQk0xJhyHHhORzEObiGRDcTaUte2fOcLyO3lMpDG8rku09lyydTDspfDd0j1/bbLpf2jx5BZUj0lf13yceGvylfePy43P4sZLlcxkDgzfPDDGEevgniC5kPvz+WC0i9/raLAS8Z0vwycZVIX85x3pYhZdQrp68pLy+THa/tsobpFs6fJxNNf0zdBy4hjgV3DAuHZYxnEZcF34yMjJjPuH1erD4RiTN2OjAmyjX7oNGowk6Ke7KE+6wbX6w4PTw8PDy6Bs5JnC3oyK3T387KrvnJWaev5FXIoFdPyQ8XvSH/PJf9z4fk/2AFe8VJ+YQhy59ZhhGxwP0D6tqoYy9DJfuE3cf8maXHDFk+JNfPfUe+tug96f1Kpvw5OyIFzWOImqJBrsFfhTvIcN2+g44Oth0Nd0DFKAnEmf1ZgPSEj83yaFu4+c/+cqyBJzL4VuoU5FeNwMVCeKLXZsTZukDF2ao3s0e4pl4Kispk/UubZcyEx2Ro0jiZPGO27NizV8orIak11hWXlcvLr2yT8dMelyFjxsq4qdNl89ZXpbjcxFdTJ+ydrjRx7dy7Tx6bPUcGJ6fIqAkTZd2fX5ZIdZ28/tZ+mfnkU5JVUCTHs3NlyszZsu21Pfbs52JD3je9ukOmmuceTUqW1OnTTTxvSsTEV1XXKC9u3CILUN826UebgraKc7+rW1vVBtGh4PRwEPw7DdNXN2sGRcOx97n4qETeWivFy0dI/vjbJWfQf0pWnxskr99XpNgQYvYwVw74klQa0hwxrhxL3JDrvjdISe8vS17vr0jesJska9rvpeCFmVJxeLc0VaB14/bHmrJoetp/SGhXkH92uAnEzvJ2bpk8sOqIPLSxypLdMS+esIRzuD2bOUxKw06JM38Dh+T5NHEtkFEQ183F8uiWiPR+sVTueSZPfrbklHzvqRPytdnH5WtzTsmPF5yS367JkwGbIjI8LRJ9Lte4gIAjxQ7ijd/xXvtu0vIy34NEHOJ8Qp585YiUCnvVyYfgdIVThoCmTJhkNeAyjr4vg/r1tZpNNsg5iPO5gC0O7HRgOGzPnj3N/sRJv6Z7n2OBvhDyDWFm+wdaVxy5iOr2s88+a0k0hLq6OtibjfaVnlrgLkx7eHh4eHRNxEmcHccf7eRtRx+shCNnKDPutdxSmbH/lNz5wjG5Ydl78g9LDsmnF78rn16yXz657F3530sPy8eN+9Ti9+Qziw7I9Yveli8u3CffWvqm/HL9EUl9K082nyqXvKbAyFegeh2oX9vxRCcRHTy2oLKKOlZnDWz6Xn03FqsxQgJ0otAZ6eop0LxFbXz48OF2IpTIUOIMEXON0IURbg9tS5xbOqxsV1bXSk1dk5RX10sxBLi23qSxXiqrqg1BLQ/OfTaEtaa+QSLmXqkhwpDaWnNdVVUTqEtHSFeFVJtJK2HKCFNbJ9XWAjbvqDEkvVYqTJyWaPOccaiGc5+4K0wYJMcVZnJcVVcv5RVVVi2cd7CvGrKs72rrfDib6xDifA6wrGktWfMjOm4E5z4H/XlTfUTqcg5J2etrpOi5KVIwZ6Dkjvu15A6/VYqG/lCKhn1P8od/R3JGfUeykn4oeY/dKUULB0nBxicl8u4r0liaZV5SJRjfCKI/s14mCmhaLkfbn1UsD604II9sqpDRmwslmf3Jm0utmvTIzUUX7UZvKpIxm4pN3LhSGbOlXJJeqZARaRUyfEul+WvcVuNe4brMvLfIGhcbvSlfxpi/SSZNI7cUBS5G/Ge6QuuIAzdyc1SN2/gN31Is/Z/LlLlbDlqJczNxbmow7axa3j96TBrMXKChvlZmTJ9q1aNtkDYYC1n0YmsWqttoGPEbKHmOFb9a5WeMQOKM8UtsfbClKi0tzZJo2ifzCDR5iAML3DjtR9si7R4eHh4e7Yf4iHMIbgcfXKNGFUiCAf/n1DTK3rxKWfB2tozbeUwe3X5U7tucLj9Zf1R+9txh+f3mo8bviKTsOCxP7UuXXXkRya5paFbJtirXjVVmblRlVbNV485aKsPCdysrvu0F1Kyee47jUoLBs6Oh+a3vZi8wVqzdAd2j/aCTGfaxIXF2/RIR+m0sEJxNLb1DiXNFpUQqkOJWWaIKebWkFsJq90Sj3l0p1RBja4RLpdAQ2cCPMDZc9HclRNnEwUS8CqNd5RXWEre9hvRGr6vs+wMSjLSYdgdBx0WMnyXKhOX9Jq7msFEX/pb2cl2BOCMTRGk26K+jzA8DjowTdFNRFe4gcK00RYqktiBTak4dlNpjb0jd4V3G7TbXe6U694DUlWeKVGMIMZA22n6Q8YZtO6hkW8NfiQnNPj3u6728Mnlo4evy+1WZ0nfNcem3Jl0eXpslf1p7Qh5Zm3nxbs1J6b32lPRegzspjzyLX4Z5V4Z5F+6Y9Hk2Qx4m3JoT0oc0mN/9nk2390lTnzU8E296TgRho8/0Nn7Ei/uTScPvFh2UeYY4VzdFd6lb4mzK3fQvJWXlUh/Nl1e3bbXWsdvi5Av3ub1791rJMxJo9i6H7yt0bNZxGGkzW6kgzUicN2/e3ByW3xi+5D79JYvywH3ew8PDw6Nr4oKIM3CJHIN68/4ja5CF0f50WOxfR4wHhxEdjtTJeyU1kmPGP0w+YYIDk14WjEecxWz3VJsJUQPHTEHIozZebKDAurdOojoKDISsJLvktSPRIr/NX4gJRrV0ld2j/YF1cI7GYtECxJpAJRqYLOqCUSyEJ6jtSZxxkFNIcDMhtZaqA7JbzZFSSoqjzp6fzLMQaVS1lWBHCbQNZ1XBo79NGH3WWsF247L3AklyEKemI+rX/M4okXb+hr+jvVxXIM4g2E5DP8nuZ6xtYzzM/Guk/3aZ87kRxCLB+c7RqoasuQGjldH+MGHBtyFZt1txGiW/tlFmv3pYHlm1VwY+84YhrG8agvmuIbNv2WtcX+evXrfmHw7T79l9zX6BM7/Ne/o+s9fcw70ehHnGhDWuvwkz4Jl90h/3LE7jfavFO8LvOv3OfdF3nv7b18TVd82b0tvGv0+2p+fb0R47K0L9MWWfl5sjs2Y9IdXVwb7mXPMbWwy7d++OZtuFE+cwgWV/MlujOILRVd0OI0yeAXuaUdFmwZVjGZE0Q6KxU4If6uV6bJWm+ULT7eHh4eHR/jiDONNpM/nCOiQTsLS0NMnIyGi+r4OCDhLNZx1GXWNDvXCuJxKGJjPIIRXgqCgsXpeXF0hdVSlPE5P9y796MyDWM5ki7saoZVYbV1OzcRdu2YmTnYYFZmlcItnegw17ktj75L6zI+EOqvpurHn26dPHHo90tnAe50Y432Ll4axZs+wRW/h1Rh3oSOg3hv3CCOcR1tNd4hyWuIb3++LC4cLPhO/Z450wthVRS9VKoqOumQxHbNgIxDYaxhJp7mkYS2zLbdjAzyHD/Hbfb+OstAa+Is3xVQTXVUi4A6f7msPf0RHuYohzuC9FRZ/+H3VT9dP7blj3maKiQvNcIT24qPkwqlGdcbVN+DZIWWWp7Nr7mmzc+ors3PO6bN26TXZu2y4VZRE7LNDv0+3XNdHnKxlpsspGWMqurqyRhjrUZRujFrRbpkm/xa2/4bS636N/dTxz4+tssCDNEV92YZpTLUx+Fpt0naqplRxT1tnGnTDXJ43D72JdluP4Tby4zJALh9Xw7jPhuGO58LOuO2lIcXZtvV1cZ8HElpXd49woxUUF8uyaZy3pBA1m3rFgwUJ7MkO4jM8XsZ6nXT3zzDN2vOXoRTVEpvUkVt0ibTt27LDkGAkzhBmyjPYa6tq49PR0649aN3MuVQMPx+vh4eHh0TVwBnEGBw4ckNtvv13+9Kc/Sd++fWXw4MFxWJSG6DKIBQa8AmnDaTQY1suZvFs2vdzCHzAZOGOKwqBR31IygVaWPT80CtLCRKcjDGOx6swxFUAHtc6Efi8T5Pvvv98OyC7ciWOsQd3jNMKTlHDZQiDmzp1rz6eGnAB3kp6I0LxgsYjjt1pDuE65Emclc2ECacmmQyz1N/fQ6tBwrtTWfRYyXGHCVRnCakkxRLYquG4msdZxzf2K4H4lJDog2oSzYY1fOQTcWr2G+OIXEGMbtjmuc7vyqLNpDX1jmOC2l7tY4qz7NJGMTZgwwfb/kAUWjNzj7xThNsAxeU/Pe6qFnwWLnuywMdFn5+TJxMkT5eGHHpSvf+3f5Tf33COjh4+Q/Ny8Fo9AmsM4eTxDnlmx3ORvuR1nrMp2jL44nK5wPQWxngv3A+FnOhqkkBKxKWUVuYW0nuuO1LwiLzo3PzQNHJFpfznlijSY4xHps9oLzIM475lFVG0PvN+dg2ia8KMP0HqmYWhb9JNInfmbbsgzWz9ot1xrHDqGx6qnHh4eHh6dg5jEGWMVTIAUB80kbMSIEVZVlQ6dMxOXLFliV0hrzUSN8GVlgSQ580S6nMg6LlU1lfLiSy/KihUrJftUjh3vli5dKRvTNts4XklLkwULFsg+M8kG6RkZkpa2VVYuXyWvbHmleRB668A+WbxsgbyybZPU1lbayfKOV7fLnzdssGQWdMQEB/LE94KuMJC5Ewasa7PfmcktK9u6Cu9xcaDMkRhwPAn7miEmoCPqW1fBkSNHbN1qDW49BGGJM3nmEmTXj79hlWaXKDf7EZ7fUZVo3UuM0yOeLHkmHNfR8AEJDqTNZ0iFjSu3/tyHcJc3k2lLsM1f9i+fjivqWsTf0ilxtoTbUdHuSPJ8McRZy5HFC/a1p5k+WoEkjwVV7f8xTqhqq1gG5p1I4vr3H2DvgTff3G/GiaWyc+cOaagLjglkb6qL8WOTJDcn2DualZsjS5cvkxc2vCClpcFe1cOHDsvSJctl3QsbpKSsTJYtXyq/vPM2eefAfjOkoJkUECgsv7NtBYNOECfaKHtJSQuLipAWVGU5Yx4/LBsD2jjp5jndw+qS587HabLafGUvGINw5ILN2tMBLsIFsbKQHfxjq5TdQ67HfDVSjsGpFudyFmHPM1xT1LX8GTzLj8bAOY+A0tJS2byJOQEbwU770VfpufNtCZfAZmRkyKRJk6xqOH2dQsmuEmQN7z7LXyTQaIsxbqtqOSAurHFz3zXI2BXmGx4eHh4eAWISZ/ZwTpw40U5cQb0ZCMaOS5GdZiLCZGTGjBlWPXjGzBmyY9urMm3KVOO/y4ZdZiY+O8xEaeWq5TJr1gxZt26dTJ02XbKysmXl6tWyZWua3fMzzgw6q1etNKQkSQ6/f0gWLlwoDz34kKw34YcMGSxbt22Tg++/L+MnT5QNL22QmbOmy8svrpfM9GPy23vvk+XLlneY6nRrA2Jnwk0PYPUbiThSIvY+L1u2zJYRk4itW7fKNpOf/PUutoMk4JAAMJGGKCBhZm8bkxvNZ833jtBy6EwocUASghGb1r41TDDIPyUlPItjmwN/XfLItUqXw4TaJc811TWB8S1LaAPCW2Xjq7bEudZasa6KqlFjxAvL2VXBe4gTdW1IcHQfsw1TVWvSVNusqm0l2FHVbDUGZlWyUeu26dX4oiQZf4h71CiZTXfURZQ4G2cNiEW/KUxw28u1BXFWw4OkW/1VhZS2wT3UVllMZTGRdgORWL9+vdx8880yf94Cef/QUZkyZbpdPJ09d7a8tGmDaTuBMa967FeYf6VlpXbf6NFjxwxRKLVkfdXqlbJgwTxZvOhpOXnymPEbL888u0aWrlglb71zQNY+t15++7v75dD7wdFDUCn2kTJeQZxZ0IV8uOPU0KFDbb0kzbRrxiSIMuSExUaINN81Z84cycsLpN5dpZ8PpMqBjXK7zxcvyyCV4rYklBcL4m/peDOlxT/e2Sz/DsFNSZC2uECds05/R13zvYA4B+8/HWtOdrZMNnOD6uqqFo+vNnMMjISpKnVbQeuD1gn6LsbbgQMH2nqvi9U6F9GwOla4cwfV6oAgo65N22Lhh7qqKt1qMEzf7eHh4eHRNRAXcabbfuLJJ2TDn/9sJdGQsoyMDHnyySfNJGm+PLNqtTw190nJOZUlMx+fIa/t3CW9ez9i9+0cPXZUBg8eYAaXNcY9J+ueXycD+w2Qg/sP2LiXm7hmz5pt42RiA17fvVMenzpFZs6YJdOmzpDjGcfl+WfXyuTUibJv71sycsQYM7kNzkFkEGpv4gyYUDGggY54XzzQwdmd4GFVlIkjE8Gnn37aTgZRM37qqaesc6+9a+kgydR7FnGYaKNS507A3AlRmDAmGvRbIb1I4lr73rA/bQRioosR5CPHsLhEkn5FCTWknMniMUOe6Hc0HFJMJpO7du2WsnJUqQNiigXs3LwC2bEDS7VbZOeOnVKYWyA1EOZIld3/WmOIsbWEbUhtdSVaKoZQmv6iuqLa3svNzpNDBw+be1V2P3SNeR+u2oQpLiyRd/e/K0UFxcYPUh51Jt6qCsg6cZh3VNZKjbmujmCNu9qGscddWUvegco5EiT2M/KdrnMXE5TwuvfCfq5/rGfbijhrP8JkngU4rfs60adM2LaDhhGAfE6ePFmmTZtmyxhAWhgX5hlCOnPWLDtOrH4mWNBjIcPG04QsE/IRMcR5lBw/fsKMFWny8IOPyJEjR+0i7MBBg8x73pQ/3P97mT5tqmQezxS2+7z99jsyY+ZsUaNQgMVWFrkUEJH09GDvKG36O9/5ju33cA888IBNK9JnJH4DBgyw6rdcQ+L59i4Fq57dkjjb5tZEHxSMzW3rzP82YlzUE0SvXa+WULIM0SXNLUl9a+5Meo6/S9IDoq737PdLsH84NzdbGhn/6auifRCnALC1QOtjW0D7uDB5Buz/HzJkSAvVbfcZ4I7T7oIrbZjnOdsZA4yknT4PLSfCpqen2/u6gOXh4eHh0flolTgjQWCCBphAjR8/3k4qGCR+85vf2L/9+/e35JjO/lHze8H8BXb1HsLx85//XB5++GF7lMMAE+6Nva/L888/ZydbPHvSPAOef/55KxlgpZi4wDv735bHzISMSdgdv7zDxP2o9O/XX5YsXmwGxHclJWV8h6sjsx9J93rGIhAeiQFftgE0H2jLSUlJobunEYs40wegzotEjwUn1GOZFKqUmb8QF675SzgmumhFKLFG7ZJ+iAkl91V6TXwvv7zRSjpLS8vscTGbN2+xYeinmLwirVECzjtYTCo0fuXmXfgxMSVNKt1mCwrPqGo412WlQfqID7XKCBa5o2kgPvyCd1Tbb8CPsNbPEHKrSmryAqkSz/CbeEkn8fJOnlMCrHESTkkwfu4z+j0ajt9hafbFEGctR9TzUUPVo30ACxv0/5DL48ePWz++jz4aUswkHyDBZQvOVEN277rrV7av79e3n60TEG/egSVsQH4TX2bmCVm3br384Ac/lGHDhsnAgYNMHz/Wfg/v5dz0O++809YFFiPcbRNglRk7IMUuGFcYp5BCsxi22IwdvJ+xBn/ew3hz11132XGMfatIpqnvwF0g61ycppinr9oZHfISxdm+6sx7+ouypG1oGeniDn+Zu6BZ4BLecD91sXDJc0ZGhm0v7K+mvbthXBcL+NO+tT6zHQKyTD1HAk1bc8k28xDap/7W72/Lb/Pw8PDwaB0xiTMSBSYrTFqYpNGBM1lh0sYEaMOGDXbSxt4xpJt02kyQWNlnwswgwIQKdTkmeGvWrLWSl+XLl9sJK/eYyOCHpCAtLc3Gy15SJsZISlHn5j1IAnkvE2QmvEyYhw0b2kzqOwpq7Kg9BmEPj64Grd+0R/Ytt4ZwW4CMoD2ibR+CCJFjcQ2pHu0XcgdRxtEHIPHDn2eYRLJ3FpJG+0cNUskkbR418O3bt9vfSkiZuNJHMKGEfOPol7hHv8H7iY/nUOvle1io492kgYkq7yQs0nXSwT3+8gx9GmF4B++iv9q16zWbbsgvcRAnf5XQ4o/UnT4UR74QH+FIC9ekE7JNuunbeD/vgxBgv4FrwiHBJ4zuucefv3yLS5rbgjjjICWcW0t/Tfnr4gnfAClBI4N8mjJliv0ejD6uXLnS+t122212qwhSNNSmSdPrr79u81AJgJIc8ggJNosqEIVRo0ZZDQR+U/bUHeoFcTAeQEzYNgFJIZxCF3QpG56lnhEGVVreAVFGvRxyz/YenoUkk6+Ma2g8kOfUNY236xBnj1igHNF0oE+gjFxySvtgG4Grdu/+bQtoPdZ30jaZ01CvaBO0IaDpYv7QGnkG2u6YU1HXaTPuVglA30K7oH6rvzpfVz08PDw6BjGJM5M2Bh4mS0w4UHdTKQOTNdSSmMQgWdC9OEwSscKtFi3VKitkmM6eCR0TTqRITE5Q+WbVH4kA94jrj3/8oyXSTMyYLCFVZvKGVAJ/Jj68nwlZR0uckY5oHvgByqMnwJ2QtlbndeKmUOIMCYEIQpiQFDKJ5TdEkAkiBAgHqYToQZAgp0hcmDwi7eQ3z7rEWQkm16ryTV9AP0RYSBCEiwU6FgDplwhPfExouc+klHcQDiJOfwdx5nkmpYSDqKJmjgRJtU3wQ8pK38a76c8gqHwH15A0JbBcq5VcCDXPswjJ8+QR1+QR300cxM272a4CISfd+BEOLR2+BadSeRYGiEfzoK2Is07ueS/9MP23GgrjPn03hIX+H6LAu+mT6c/RSoII842UCYuhhHviiSds36nx635piAESahYpAM/R1zPmkAeUMYSccYixhG9ioQEJshqAUgJDXpBWFmXJJ55nfIHcky7IPeQc4k98bGUhHfjxPp6jvK2xqWicZ6v3Hp0LiCoL+tT3MHFkgYuFE9oK0D6qLctS36n7l9WP/g7yzIK/a+ArnEYX1HP6OvokHIuMCu1/cbr4R70Fbpyx4vXw8PDwaHucQZy1E2ZAYsLKIOSungJ+MzF0zxwEOtnQcMTB8wr3Hs+699iLy0SNQUTDAK6ZHOp+Ox0sOhrh46j8QOXRE8AkTq0kx6rz4bYA+YE4q4QWl2ZIF0QPMgOJpe1DXnEZGRl2gsuCGqQaYow/cUK2mBxDlnSvL/ESjytlhYARD0QUgkw/xAQWckV4pJC6cAdRJQ1c06/wLggzE1beBXHnG3iGOJCi0g8iQeW9SIO4Jm6eI918G453kB5VqSYMCwMQYpfw8k6u1ZAahBBiTXj8CMs7IK98MxNmCB7kkPdzn8VIFgdcde+2IM6uFI1rvoN49T6g/8ff7Yd5L/np9vE8T/q079ZJvobBucQDaP4puKdSfAXxqaTRrXukibqgfjyjadLv0u0CSj7ccPqcm85Ydd6j86FlqnXAdYCxGm2CsNGutoJbh8Nx03ewGMPCjar+6zNh8Bx1kfkFC2Vaz912ArhHm1eNHBbjdOtD+P0eHh4eHu2HM4gziNUJhwcm198dEM4WLta1gkkzk0pFrDCgNf/2BhNApE+xvs3DI9GgdZxJIFI6189FuD1AOpHuQQ51YodEFrKKn1qRhSDjDzlGuspEUPsA7jEphsSiTqt7ACFMEMI0Q3rxIx6ILb95nn2tSEQJB/FkgkmcTDohWoQjTvx5J5JOyCdx8BzXEGtr1NAhzpBxJbmQcybDkFrCIm3lu1QKrsRPJc4QZ8LxPiXOfLcSZ4g974NcQ95IN9+Pn6pic8271QI8knL6Ip5p6z3OscpY0dr9sB+/XTLMb5eMutexwqtf+H3uM24YvXYR63fYrzUiE+vdHl0LtH8Wm5QYax3SMqXNjRkzRtKje+/bklxq3XDjDNcZ2j9G8thCQJtV4YM+F67HYbhxo63DIh19JQuZaKXQxllAC1vfDqfDw8PDw6NtEZM4e5wJBjK/wuvRk8BEFDLoWosNIzxJU4kzpBBiB+FjggcBhcAy2UVKCyFWiTMTS93jTDjiQLoLkYUMK3HGcQ3ZhIATP+SWeJBK4k9c/IYko2KtxBkyix/EmXdBgCGXSJpJDyqQ7HtGzdeVOENe+X7Ut5mEq/o3RJ1nINy8D0JMXimRdfc4807i4p4uICgh5jt1EYF7bE0hLtLGN3KfdKFizvdoeslT4nWlzRdLnC8UZ+sLuadSZfpN/avOvaf9qv4N34tFNlwiEiu8e98jccCWMPbSu7ZO3L6ItoaavmvQ82z1tD1AXaQvwV4MWxLoE9Rf62msNLltAEcfSt9AP0S/inQapJn+jPjp39Ci0Dbj1n0PDw8Pj7aFJ85xggmyGknqjEHYw6MjoZMwJmSQttbqfNgfiSmEUlUPkYxChiF4TGbxR2LLX6S2SHNpW1zzF/JHeMJAOpGwqAquS0q5R9xIYXSfL+QZf55FKkt44lRr18SrVqohxky+8SMefRd+EFTSBWnW7SpIp3mOd/EszxA37+UZpEKaPrXOTdxqlZtr/AiHIxxxkh6cpoF84b38hajzLaiQ806kazxDeXCfdHUV4kw+sVCAKjmOBY/wXs0wYVCn92L56XYgjYPv5RvJV/IrTI71HW48njgnHtSqti5mu2WtYHGM/fCu+nNngPbKnmsk4FwrWiO34XpL+nEsrqlWHn0U/QJ9BItr9LnUe0U4Lzw8PDw82gaeOMcJJrOs9gI/IHn0FDDRw1Bga9BJq4LFJfbj4qcTPlcSq7/1nuu4T7hwGPXHQUr5Hb6vcbuO8Ko+zXN67YbVeNz4XD83TfqsG1bv6X03na7qtuZB+LlwuiHHPMtEGOkykmUk6RB5N5x+k75T09YZxBlQ7hzthCEuVPuR9iHZV8QiCIpz3dP7EANIOfWLxQik/i5ZUJwtPo/EAO2JhRmIsxJQ1wEWl9hnjMQWdHS9cMkri27z5s2Tfv362batiJUm/R73eRaQWKjju2n3aOOwMAkg07oVhAUl+gcQK24PDw8Pj4uDJ85xgoFLLa62tlLs4ZEo0AkoUh3XOm0Y7kQVsLgEsaG9uIQuTCr1OhzGJYNhxz33WTec+3z4uXB8sZ5r7V7YL9ZvdeH0xXKx4gzHx2+k6kiXIQdqACycN/ou/QZcZxFnpHsYdwwDVXklLmgjZGRk2HSiQsuxg3q0DgQItVP89FgyCIEuEiBV45t+/etf26OykNojcQaornMqA9bHVTuBPIDMY/lbVVs9EgcsZLNAo6rasYgz4zQGwlCT7gyQDtWw0N/U+0cffdRuZ1HV7TCUMOtcQ7UoFGihsJgG0GSh7bGQRD3XI/ToO2L11x4eHh4eFwdPnOMEEzJWeMODs4dHIkInbTj3+JMwwm3hbMT5bO58wrrPuGSzNRfrfiy/8H2X1OpfJXLhsLF+h/1jxdtaGJU+qwXp1uINP99ZxJlyf+CBB6xUDQKNVWMWXdjbzXFW7GnHUFJ6erq9hiBDbNmnChFAgsY191DzZi85R1kRBySZfaLsDe/bt6/dBw5B4FhEyDVHSXG81OTJk+09CPWdd95p0wC54igrNc7kkRhQGwKu0a1YYzMEc9CgQc3HZHYW3DRhm4Aj0WgXtAeFS5jV6bYDBdeuZgqLTWh2oBnEt7KgwPYVFqnoD9zn/IK/h4eHx8XDE+c4geQHIz0gPDh7eCQatH4jxcA6bGsIt4ULJc7etY3rLOIMCe7fv7+VfnFsDobP9Bxbjhq86aabrGo1k/3evXtb4oxRNMg05zxDIlT1FEAAIM7sVUeaxnYB6iKSZSTY1DGIM0elab/MfVTFIROcJ00dhETwrKbFIzGgkthzkUEINmeDUy87G25fyYIQbUCtbivC3xPuX11Qp9WWhKpuY0SMa7SEWOxnL7QadzxbXB4eHh4e8cET5zjBhI9JmK7cenj0BGRkZMi0adPC3s0IT8Y8ce5c11nEGRXUuXPnhr0tWHi58cYb7SSfvdq33367PPjgg3b/KaQW0s25t65KNSqoEGeMjkGeuUaSDAlHGk0dmzlzppVuYyRJn6GuQtpHjRpl+2nIhMbjkTiADKJRoGeExyKE6sfCCgszqtbdWdC5g6u6DaFnIYm9+/SXbthY36Rw76ORoee+I8HmuCqMCaKyTfy0B1S3/bzFw8PD4+LhiXOcYHWbQVoHv7MNah4e3R06MUMVkgldaxO5sL8nzp3rOos4o14NWWXiziSdRUYkYuxNHjhwoCUuSIPxh/wiEVMjR0iiUdNGzRryTP2B8CI15lsgBffcc49kZGTIjBkzms+/Zv8qz2M5mfCkAZLOO5F+U3dRix06dKiXOCcYUL1m4USJcyxov0Sdo25SFzoTpMe1LK+gvpI+thqQVjd8a1CJu/a/LBqxlYFFAtoTbYjtDPTDaG+w/9+1cu/h4eHhcWHwxDlOMDChggg8cfZIdOiEDEkdkzD1C8MT567lOos4oz7N5J89xY899pjdV4wKKnuPVRUVI01M7iHWkF6O6HnuuedsmpGaIbFG8rx06VJb75CY8Rt/HH5Iz4gHskFdY78ncbDPGZVviDekCqNgEAtIw4oVK2zeeCQOWBRhMcTdExyGklP+ota/cuXKUIiOBWlUiXM4zdR/jN6hVq6GvxSxvk3j0r+AdkR9Z0GKNkecgDbBAhPtgmtcLGv0Hh4eHh7nhifOcYJBhwlpeMDz8EhEaB3nfGEmc60h3B48ce5c11nEGajBInWkRQ3LKfQ3xIcwLpjMsy/TndRDjMNxEG948ZK65oZz7/n+OvFAvaBvcqWuYbh1hDbBYg5bBYBLPDsbSnxpP2x56NOnj13scQ2fuRLms6WbPoCFKc58xmgY1yz40x+wEEX/jLYHC0+8z8PDw8Pj/OCJc5zQASvWarGHR6JB6zcTzT179oTunka4LXji3LmuM4mzh0dHAQ0wtAwg0Do2h+H2TSx8jxkzxmo86L2zEdCOAu8PHzeFgS8sgbMtAQmywpUwx/peQL4gXebMZ74VK/eobGN1G4k7cau1ewyHeXh4eHicHzxxjhOohekeqc4ebD082hs6QYMAn8sAjyfOXcd54uzRE4BmAirNSGXDfZDCJcYQU0gklqzd+50Nlwi7R09BatnOgLYP0mHFucg+/S7hyRukzpBm+mGu2U6hRsMwqAe59vDw8PA4P3jiHCfYF4S1SnCuwcvDo7tD63dGRobde+f6uQhPWj1x7lznibNHTwAkE2nz2cZi7Zv0PtJWiKie6Xy2ZzsKSpw1na40mf4Ta9sYycPoF98LzkX4WUyAeNN30ycAFv137txpJdgQ64MHD3pVbQ8PD48LgCfOcYIJKSpOYaLg4ZGI0DqOlVclzrEQbg+eOHeu88TZoydAz0E+m1Vt4PZPtA+IM8bkwvc6E5oGTU84XUiKBwwYIFOnTrXfrXDJdmvfof6QZMgz3/7GG280q4afi4R7eHh4eLSEJ85xgMEHIsDAe66BysMjUcDkinqvRmpiITzJ88S5c50nzh49AZxZjKV1zmY+n7EYyS17nWkr4Hye7UxwlBTHrpF2zjFX6P7o1qxkuxJsQH7RN8ci6B4eHh4e54YnznEC1ad169bZaz/YeCQ6dIGoqKjIqvipXxjhyZcnzp3rPHH26Amgf8EqO3/PR2qKlWnOFXfJZ3cB7XvVqlU2/evXr2+WtusCZ7h/DquA6333d/gZDw8PD4+zwxPnOMEKt56v6Acbj0SH1nF/HFX3cp44e/QEQJqxGq3GweKB9lVIqp966qm4n+sKcEkv85ARI0ZY42Gquh3uh9VPCbIreQ77e3h4eHjED0+czxPuoOPhkajQiRgTVMhzawhP2Dxx7lznibNHTwCS47Fjx1rVYxDPeKxhMBKGyrMaCdN78cTRWQirXKMBl5KSIklJSfaoKRfut+j12ZxHx+Js5aN+scK2FWK9O9b9eNFaeluLvyvCTevZ0hz+vjBi+YF44vboPvDEOU5wHBVGOoCv+B6JDu3gVSVS/cIIDwSeOHeu88TZoyeAPgl1a/oZEKtvag2lpaX2DOi0tDT7m2eVmJ5PPB2NcNr4jsWLF1vVbc5u1rzoDt/SU6F1DfV6t5z0Gueq3ev9tixL912algttA5q28PMar3vEWldGuFzc74r1fa2VSWt+4bzx6N7wxDlOsMK9du1ae32+nYuHR3eD1u/09HSZNm1a6O5phAcQT5w713ni7NETgIo2ZznrJPR8xmPCslf4iSeeaDZ86E5uuxNI77Zt22TYsGFW/dxV3e5u39JT4BpyC88llWy6BK2tQZzuOxTnIoVnA8+63xUr/q4MzROFS3JjGd4737blhj/fZz26HjxxjhNMSFnh9QOSR08CKoFLliwJezcjPMh64ty5zhNnj54A1KxnzZp1QaragKOZRo8ebY/b03vhvqwrIzzRz8jIkEmTJll7FGfbWuPR+WD+mJ2d3TyfBEeOHJH333/fXmvZan0kbHFxsRvFRUPnsTjOBw9bp4+nHTDWIFDiqDPiYcznnHAWtLrbPFnzgjGUvNbfmg98F8aBt27d2qzZUVhYaDVR4wHxkF/EH0/eenRteOIcB6jorEzT0YHutJLm4XEh0IFP67kO4mGE/T1x7lznibNHTwDGOhcuXGjre6x+qTVoWIjChAkTrHVq9153mezrxN61Kg5hmTNnjvTr18/2ATrB9+h6YKsAYyXA2Nudd94pL774ov1NPXQXRQi7YcOG5t9tCUjzsmXLZP/+/eFb5wRHpN16662yYsUK+5vxhyPTIJfdDdovYHAwzdnCoX6UwaOPPip9+vSxmiplZWWyZs0au0UiHhAXZagnlHh0b3jiHCeQvNFQQHcZXD08Lhao/m3evNlex5qgeuLctVwiEGetU7Hqm4cHgFiolOx86oobjkkvxrUgD3ovllpmV4UubLrfj9+WLVvsJH/RokXNi/3h8OB88s2jbaEEE7s5f/rTn2T79u3W/5133rFSTMZPxlE0Kx577DFrCG758uWWxAHKbffu3fL000/b/p6yRfq7adMmuxiERgVxQoqfeeaZZon10aNH7YITYZAUHzx40JJf4iEO0jRv3jzZt2+fDc8YDqF/8sknZceOHS32X+fk5Mgtt9wiv/zlL2383EPrgXC0I+YNPPfSSy/Z38yhIaVLly612x4x0oc222uvvWbjY+yCXM6fP7/5uDjygm0VCxYskHfffdcKsCCfpJ9wSOoBEmHOaOc7iBfQromPZ9944w2bbsLxzueee665bej3kEbmL+SJgm9MTk5uTg9hZs+eLRkZGVYCTXiM8/FtgGcpB/0Wtk/wLOX4u9/9zhJw4qDcyRvaKu+HiLPlYuXKlc1x+bbZdeGJc5ygY6ABUJk9cfZIdGinjfoYA0drCE++PHHuXNfdiXNYy8HDIxaQrkIM9DiqeOqKhtPxmwnuoEGDLAEBui+zu8JNO+0fcsZE3e0LCKPfqerAHh0L8nzKlCnWKvwDDzzQLIXE4B1HjEFuVSOCujl+/Hh5+OGH7djK9gJILQR7+vTplmxBdDdu3GgJcv/+/WXPnj2WRCIdxZ94EPpAAlV6DXlFUgzx/P3vfy/PP/+8JXGTJ0+25Jn0MY6/8MILlihyD1LnqpcjcSY8++uxg0JbnDp1qk0zY5A+17dvX/uNvINFAtL0hz/8QUaMGGH9MG7HPIN0QSb5JuKB7M6cOdNqURAP6WIh/7e//a39dtLPu/kGFgggshBy/NiCwUIDz5JvxE16SSekGTJO+hgz9Xv4NvJJ7QQAFgFmzJhhFxkUurhGWNJFmvlewFF3LBRA7Mkb/Fmgo68ZOnRo86IAZcoiB+VN2iDclB3pLyoq8jyji8MT5zigA647QPsBxyORoXWdVVv2WLVW3902ATxx7lzX3YkzdQk1XOqch0droH5AAuif4p1kxhrDmZizVzosje2O4BvchSekWEjgICuQkXC47r5Q0F1B+QwfPlxuvPFGueOOO5q3C7AYRF1MT0+3/TjEC2ksJBGyCSBrkDPIGpJoCBekMTU11UpSIcwAUoZkGaSlpVkCSThILGrZSJFR6Yeko3oM2YXIEi9xQrYhlhC5u+++2xJEPb5N6wzklLRBBP/4xz/atBEXac7IyLDvgCB++ctftkQVgkjaAWlRY7scDcezLNATjvdD3PkeiOVtt91m1dkRXlGnyTu1TQDBfvbZZ+03ER+k+qc//anNL/LEHUfwY6GC9NIeSLN7lBu2ASDVrtYJz7jE2e0flDjzTdq+aG88A4lHEs+1EnHKg7whzUOGDLFjNFbxWeBASk48aqzQbcceXQ+eOMcJDAGwkgd8hfZIdOhklAGcut/apDLs74lz57ruTpwBKnlMlDw8WgN1nTquqqOx+qZY0LAanr4KiZeqR3ZnIqlk2JUk4wdhGTx4sCUr7tGCGtajY0HeQxaREEPc7rvvPqu6S1lBnDMzM225QJyR1CqxBZBDiByk+a677rJbDZBkQjiJD8IGIHT8BqhMozKMZPonP/lJ8zOQU+o9RA5C17t3b0s8SduAAQOa91xDTFl8IZ2QegXkFYKNOjXpu/feey0xR50caTAklUUBDNYRB5JYiCKAoDJXIC9QQ4eE8v4HH3zQvh9yjLQXQKCJi3iQLkOIlcRDrPku8oPtCeQXknziR+PCNaqG9PzHP/6xldoTP+9lkVbBuKmSY20/lAtSam03gG+F3CMtJ28pn1dffdXeI58133gfmgLkXUZGRjNxZoHgRz/6kf0LgSb9kHnu67aR7twP9QR44hwnULXQTul8BmoPj+4Ird+sSLNvyfVzEW4Lnjh3rksE4sxEzJ3QeHiEgWQGlUYlfrH6pjC0r1KJK6DNIBVrL+NLHQn9PtcpmOhDSCBjx44daxHeo+NBWagUGSkxpBSpKVoUkGOIFOrMLCBCBCGLEFWuUf1ViTJ9JWEgmZBnlThDUlHH1mvIH2GIB7KMqjd1nueJk3GbvcAQXvwgfZBGiDJq1BBVyLQSS5BhyCAknH3DAAL+mc98plnaC4HMy8uz+6DR7CBOlTij9g2ppv6hWs03QZB5FrJLWPIDx0IC8xDehWQWgs13cg/yyzMQZ1SxIbU333yzzR/8ILfkG2QeUg3R55tYsGBhQYkqxBg1auIAbv9A2ll0Ih7erxJiyol8w5YAkndI/UMPPWQXCcgb3sH3q7E+4meBgOcoDwQSSKpJK98CAWfOBPw2iq4NT5zjBAO1u1rr4ZHI0EkV+6JYvVW/MMKTL0+cO9d1d+JMXUItju/w6moerYGJPNIm6gmIp564hNINz6SdxUGdtHZ36Lfx15VcMYlHuoX0GfVdhZsnvs21P8hfyBPjpAIVX0gr5A6CiOQZopVhCBgkElKKBJWxmLGVvh7yCQFHyslCI+RQJdOQXmwA8C5IOCQZMsY+YZ6BuKGarGmBhGv94P2khXdAWGln6qdbIwDvhCSqKjLCpVGjRlnDZDgIOd8BWUXoBNlU4g3ZZ6829Y3vgJxDJAlPHPp+8ojFBCXIkHqkz4RhEYhvJj/4Br4LlXRILAtFLBAQH5Jd0sm+cbRGSRftnTzSbyFeiL57rrveI13kMRJvFgRUG4q/LEAwR+IbkeCj3o4fZJ/f5BtkmXghyeQlfRfpRTUesky+k1YItB6v5yXOXRueOMcJJnOqsuoHF49EB/WbAcmV6MSq82F/T5w713Vn4qz1iJV6DMN4eLQGpM1I2MLnz14IkCQxwWWyn2hQ6brmEdf00Y888kgzEQLcV9VtP2lvX2j+hueSOtZCslwCp391kcgFfu4YrfG55R2er/JM+Kgydw8v993nCeu2M36H65Qbv6aHcK5RLU2XG9b9PkBcumiq0IVUgAEv1MHZzuPmo4bTd+tfwoT7iHD+hp2bh266aCvh5xThb1U/JcKA8GrMEHAvPL8Kl59H14QnznECFQ4GauArtUeiQ+s4q6Gqxhir3oc7eU+cO9clAnFOT0+3EyMPj9agE3rd43wxoM0gKULylUhwJ+JhcoMUUqV2qp4KwuE82hbkbZjoumTJJYxuuWmZhJ8B+lv9VM03TADDiyJuGI3HhYZ3362LK/oO9Xffr9cKN343fRrWjTscp/5W6BFTKuUOvwtousPP6zsVsdLs+ql/ON/UD4TTqc+F3xsrjHvfDee+36NrwhPnOIEqh65Ihxuqh0eign07qEq1hnAH74lz57ruTJwBdYm6w8q872c9WgPjMaqNSHnCfdD5QJ/DmBL9HFZ7Ew3uxN2dwLM3FdVRVFD1SCSP9oeWgxLQMGlT55LU8D11LtlyiW6seNwwYX9tQ+6z4XSqBlo4nvA7uReOJxyXGwf3wt8Z6xv0WhErnBvWjT+esPp94edcp2mN9ayG0bTFCh/Oi/B73Htce3RNeOIcJ8KNz1dqj0SGdvBqVVv9wtBwCk+cO9d1d+IM2APGHjEPj9bAMTPsU1RVyFh9UzzQ59CsQQLLvstY97sj3LmK69z5C/0FezuxLI7EPaxuGu7fPS4e4TJR0hQmT7GuYzm9r2RLf7f2rljvDPuHr8NxuGFcAhgrTKx3x/IL+7su7OfGG+v5cNz8BXrvbHkTfte5/MPXsfxc4h/rfbHi57dH14QnznGCgRXDCkAruYdHokLrOBNTjF+oXxjhtuCJc+e67kyctR7546g8zgXqORLTtpLMEAfGmDjqh0mr+rVF3N0B2BTgOB8sEauVZKCTeA8PDw+PAJ44xwlWuLG+CfxqkEeiQ+s3qtpYpWwN4cmlJ86d67ozcQbUpfLycnskie9jPVoDklE0EyDO4GLqij6LlV2MZmEszPVPdOh3MsfBevOIESNaGOejL/fw8PDwCOCJcxxgYGHPnZri9yuwHokOnUxx5ARkuDV44ty1XCIQZ/pZvqWnEBeP8wdaMBz3crGq2kCfpe1wpI0aAXXvJTJcqTJtj6N7hg8fbs+5da0Ce3h4eHh44hw3mMi5h6P3hAHVo+dCF4i0nocJsiLs74lz57ruTJy1HnEGJ+dzeni0BjQS0ABzj3e5ULh92Pr16y15RusB9IRFciXOKr0HSJwHDRpk95GzeOrh4eHhEcAT5ziBsZrly5fb654wmHp4ANT3Vq9eba/PNkHVey+99JI1sKPE2ZPnjnHkcyQSsRKitLQ0Sz61XMKLG10d9LXdkfh7dBzCC3oXWr/Dz2MIEVVlNRKGf6KP963l3cmTJ2XixInW6vb+/fub/cPGi7wgwcPDoyfBE+c4wTEV7Pd0B2wPj0SF1u9jx47Zsz7PBQ2PtPOdd96xkiBPmjvG6QIFTiXOenRemBh0dZBO93gPD49Y4DiqF1544aKPo4qFefPmWddT65+rus1CHAKDwYMHWwk/qtwaRvPdE2cPD4+eBE+c44BO5nSQVj8Pj0SFToio80xSz1Xf9T5nq6KqTXtR4uwJdPs6N5/DEmedAJ+r/LoCNI2nTp2yCzbdIc0enQMMg02bNs3Wd5fotQXYJoBBRN7RE0G70zNtAX9fe+01u++ZPHfzRUmzJ88eHh49BZ44xwmOaOC8Q+AHCI+eAOo5ZAwSo7/DwE8d2Lx5s+zevbtZ4uzVtdvXufmrxBl1+YyMjOby6S6TWk0j0nLqkIdHLFBP6F/Y56zHUbVl/S4tLZXU1FSrudETQV66584qmAONHz/eqm5zZJyiu/QvHh4eHm0BT5zjBHs9N27caK/beqD28Ohq0Pp96NAhGTVqVAs/F9oWdILF3kDIMwTOE+b2d5rH7G/mmr/r1q1rNujT3foq0qrf0Z3S7dGxYEsCe+Hb66iklStXtjjTuSdB+3PtO9w+hLa5bNkyGThwoF2gQyNJn3GfP1/wBI7cxrWI4fyj6xS0rCnu13icgW6QNW6d1AQ32X/BVbepmBeJcLts/uqumgVna3rqH+veecAT5zjBCiyDdXebiHp4XAi0nmMsZ9u2beHbrSIvL88eY4LUxiV23rWfU6LJYgVSIfYi8ht0t/6KtPJNSpy7U9o9Og4cR4XthfY6LgmtB4yEpaen299uXewp9TJMht0zszdv3izDhg2TuXPn2j5f/SHchFNNgLjQFBASYq8zrt5e49do7wUu/FDnIyBR+q/R/uOvTTdf01Rv3GlL5T0a1AWbF+RLYytMrOuAJLEkhwvKlVpZb64abN3kL7U0oNEJCltmfGmQD7HbJmFCz3U2SE9jk3VavZqrma13wb2LSbcnznGC4ynef//95sEh7kHBw6ObQidA7jEl5wJtA+Kcnp5upRFK7MJkz7u2c5q/5DfWb1nocCe53aW/0jRCWvbs2RO66+FxGozHW7dubV7MbmsQL2rJeqIA6GnE2YUSZ1cCTx/P4kVSUpLVTFK45PmcIBsdPgW3sk4nuNbTTNktCXUn6/Fc6++wfzzX53rWOOgEf7nU9HNtncbR5Hxsz0SwqADprGt2DSajcI2msHE2087IezfPW/OP5/r8nw3a+OlbQr23flH/5jibwp+bOOC7o2s/Nh9a1HG+nXKjbbp5HCs/Xf94wrTmH1+YpibqVr1xLHI0dy92maPR+Dc21Vpnw18gPHGOE6iFrVixwl73tEHTo+dB6zj1fs6cOaG7ZwdngKalpXnL2h3skNKS7zqJ1Ql+d+uvkJp742AeZ8MFSTbjhMbH1qyhQ4c2a2/0ZOh+Z/LGJc/kzcKFC6Vv377WMKTei7ffIUQQlrjNLL0R12An5jzOhLc+KuVTaW7XcKQoeoY4n2y5HxN3/Ex6jX+dTXcciwcJDptF1BtcNPeCMqftkl/GWVlmOI8719nFGuqiJWSBdJmitnU26hIZLdplc9uEoAZlGsjgA/l7OO+6hCP9FJjy7MagHuryDeV5ofDEOU6wwn38+HF73RP3PXn0TKSnp8v06dPD3mcFVrjXr19v1SlRpeQIkzDJ865tnBoHQ0KWkZHRQk3bnex2F+jE3B9H5XE2sIUEaXB7bJ/SuFBB5him7du3h0L0PLikOWw4DH9Ic//+/WXBggXWaFu8IKcDBVim4SiD1gTOkineaTgpE15n8ts1XFNUYioBcbYJ5KiuSvtFfE2t/ds+e/C7DWz+kDdRwhX1sj/tf4GKgSVoZ+RxZzrShjRVFZSVHoolXPqPX4kKvpe2Cc0UwZYB22IC7Q9ygnaJOzPvOt+pwkdQ0fA8Xc/ML7ucdTEl54lznGAiFz7D0MMjUaGTUeo9BE394gWqtlu2bLFtxiXOXgLddk5JM/nLAgVW/zlDG2j5ua674MSJE3L48OGwt4dHMzgSafbs2ZY4g7as3xoXf+fNm2cXDukHu2t7agu4362kOTwPQtNl0qRJMmHChDNUtxXh/ONvQ5NOdPEPpJCNhjw3QaCR+LXUt+w6js+yaUf+bNLcVGm8apvVzRsbA9lXzwakBbVY036iWgTWSeCaL5TNdCEXSFtP7/Hlb1CTlYhFPyRBQZs83TbJC/rAWtsu+Wtvxsi3ruCaF9rsP7QFWIgLtEHsB53uki4InjjHCaxqb9iwwV73xIHTo2dB6zjSYyxlq9+5oGHQ0Hj++eftBAoJhVp9Vhcmgd7F59z8U9LMpB6pGMQZ9fjuCq071BnU/T08WgN13jUgF0/fFC/c+N577z1rJMzVNmvLdyUaGC+QOiN95jgv3eeskmpXWk0+Nhpi3NRo+ixU7hsCPsKkFxXQejNBb0Tihwf3IF5dyKlYC2VVpMt1qGhHeWKw9ROi0cMlziwdQLaa2Mts8qqRvfIsJwTGtSCeluDYv2fmcWc5yjaQuAayVhxyVuuDNgR1NpFZs1AmiG7NtxqCrO0SLYt6kxsN5Ihd1Doz7zrbBcQ4SHBzTUPSbMm/E+Yi4IlznGCFOy0tzV77wdOjpwASM3z48LD3WaESBvaqok6ZkZFhDVe5hM+T5wt35B2kAdJMvrKwsXTp0haWtLsrSLuq97c1IfJIHFA/MNapx1G1ZT1x46J9YQDrhRdeaHG/Ld+XKNA8YfGOo6rY97xo0SK7iKoIS6ohzg2NtPUaOwlXiRGXUBN+EhLHqNKVnF7wx0okmwISGJB8djhXBQSjBwPiUmcypQ7SbPKn3jgIjDUQFlVk13IO529nuqDOBarZpBFniX5U2qqkWutnIsJ+Z1OlWClt9GOZ2gXK66e/O5x3XcOhtRJYRrBdCl0LdY+b1D+I9UXAE+c4QWev6lqu6pGHRyJCJ4fsV0PtOt6JorYPDX/06FFZs2aNVb1FrZIJryfNF+4gx3r0FPkJaebMWfaTg+6+qEfamWgjufIExaM1oAGGSrAeR9WW9STchiDNU6ZMse0P+HoZG+G50cGDB63F7alTp1pjf244FiSUUNeaiXm9Ic/SWGJmt4XGFZtrc6/R5HdTxDjzu8ncayrvWq7BpK2BdBnXaK7rK6O/s810PV9qmmqsgmhPrinUhjpIi7lorDf/1bFAYvJOCozLN/dLjENzJEb+dqorMwmmHmq9M7+bTN1syjN+hbZu1jfWWsvNiQoktbWQZ+o239xgyqyhzPDOCuNom+QJbZO/4fzrPGdmEFFHu6QMjasvNXWP9sr2D4hz+GvPD544xwnOpdX9g+GB1cMj0aCTQxaLmJyez2SRcK61Wya5TD45Jol2pHGGSaF353aqmp2fn29VITEGhjYM0H4p3nLqquA4qt27d4e9PTyaAeliQc/de9xWCPdf6enpMmrUKFsvPVqHEmeXPGNgjX3iGFmjv1IwJqxf/4KV/GBGq/LkdsnfPk5KX+0v5a/2kfKtQ6Rs60gpe3Wocf2M3wDjhp7dbVM3zLjhUmaurXv1UfPbOPOXa/wi26LXNv7TcZTZZ4c5vzUO911BXKUmjtJXB0rZ9oHBc68MN+keICXb+0jBjrFSlbu/R5NmYIkziwdW17dSGvP2S9FrM6X4VfK4vymHflKxbbAtjzPKM+Sayypazs3lZ8soWm7R8grKe6gpH1w0bvydMm9RpvaexhutM1sHR+MbYX5Tn3h2iIlvhBRuGy+VR9YFpCxBYQ2AVZ6S4rcXme8lD/uYchpg3PBo2xxs6n5/mydBXjpl2NwWY+RtqI0FZTusOd/JZ/c5fSbixnU2Z+MfIZGtpp1vHWSuB0lx2nApeeMpaapKF1Tt0Xy4mLbpiXOcwGDNqlWr7HVbDtIeHl0ZGRkZzVa14633sSaySBDT0tLsGc9vvvmmnfgy6VUptKrnug4/7wLJMhIa8gsNgJ07d1opM3+5r3muf8N5393AQgD9bXf/Do/2A8SWdhFW/W0LaBvSOFE9njlzZovjKNvyfYkEN+80j+i3WOBDdXvx4sW2z3rrrbcsmT5x4iRPSdW+GZI56ZOSN+GDUjzhOuM+LIUT/9K4vzDuQ8bp77D7SDTMX0iRccVcT/ioFKb+P1KQ+jEpMM8VTP6guX+dFE26TvK5NnGXpl4nBeZ33qS/MmE+at73IeP+wj5jn7dxmmfN3wLzDlzwrg+bd3zQvOuDQdyTSNeHpGjCR4wjPR8y33CdnJz0Kak4tKZl5vRAUAPs3lO717tW6k5skuOzviE5qSa/bL6R70Hen1m2LV2+cQXGFfPsBPL/Oik0+V9gfudP+CspGf8x40xYUw5lNs4PS9ZjH5YcU+bBeyg3U+6mrPIn4oKyC8rP1J3Uv7RlaO/bcv2wLVfeiSPeotSgzp1M/TspNOTRSlwTGI2l70nusl9I1njKi3ZJHmpZ0T4+ZPOKvzaPUz8cLZ8gL4ut+4iUpAbtON+0tfyJH7PPWkebs/4mjyf9heRP+YDkmnZJefBMkQlDWRVN+JiUmzSUjec52uGZ9aPZmfdRVqSD+HlPbsqH5NTin0pj+UEJdj174twhYCKPOqSupvqB0yORofUbAjN37tzQ3fOD21YyDBHHaBhux44dVoWbdyCBoH3pX3WQqJ7s2CdO/mCkaOvWrbJ27VprpJB8SlTQx6oRIQ+PWEDjgvOD1ap2e4O2h9oxGjPAj//xwc0nVLdHjhwpc+bMkSeffFLuvfdeMw6st/ca9k6WIjMprhjfS6omXCrVqZdIVar5O+GSwKVeZtzlwV/ut3BBmErjKiaa542rGX+lVI2/XCom9JLIpF5SOfES43eFVBq/yMTLTNzm74TLjLvKPHep1KT2klrzbv7yfPWEwFWYe9xXR7rsPROO91XZtJm4TVqrTNoqzF++ocyQ75rDgaClR4PiR9hsyUqj1J/cKLkzviBl40w+mzwkvyptWZ/bVadcLlXjLpfyidEypaxMXlePv8xcX2niCsqbOmDLcxzlZ54x92vGXRLcm8Azl9j3RqLvJp6KVPyMG3+prSNVpq7YtFEf7f3guepxpv4Zv5JxV0rpK8PFqgcnKCy5NMS5dMmNUpYS5Df55bZN2ip5in+NzWfTRk3+0TYqyeuoo4wiJmzZxCtN+V1u2xDtrdbkN/cps0rTZitTTRudSLlQptEyo22Ze7XjTDulvM9o/y0dbVLbJe2X64qxvaRw0felMXIkIMwX2X174hwnWHUuKyvzq80ePQJazy9EVTsM1z6A4tSpU9ZyMkdWbdy40VqERp178+bN1o+/nA3K357syAPyB2k9UhrItCJRySWLK14t1uNsKCgosNLLjiLOEPVhw4bZdugRH+jv6Z9w2vezGJqSkiL33Xef3H333ZKUlCxFpYXS9NbjUpD6l1JuSU1AbCsnGPJrJtnWcW1IbvD3ipYuGgYSXD6R32ZyPZHJOCQZMgXhuVJqUq6WunFXRUn1NcZdbYlV+SRDoiYGxNsScPv+IO4K664ycQXOpin63gpDAip53wSIwBX2XoT4DEkrmfBXUu2Jc0zinDPjX6R0PITrUptflEEl5X0OV2XKrmL8VVJq8ryMsrXlBJHl+nIpM2S61LhyG+cVhmhdJrUpl0od5T72GkvMyignEwdErBpn6kWVcTxfPuEyKbdk2ZTnOIjz5bYuVtoFlsuihPpKSxqLx18rpVbiHBjkTETYFmuJ801SOo68YPGItkhdj7Y7bYOp5Om1xn3A5P01tt1FaFe2bQXtyebjRNqNEmeIMM+z4GXanSmH2rFXmXIjPlMWk3D0A0EdKTPP2vYdbv8hV2nix9GHUA+4jhjiX7j4Rk+cOxpM9NevD1ZH3YHAwyMRofUblWoIrrvn73xBe1GSp8eTKIgTYo4kp6ioyKp0c81fve7JjvwPkwPNx0Qjzlq/sJbMIoGHR2ug3tNvaL90oX3T+YBjljinWC15e5wdlImWD4IHDISxxaRPnz5y1113ya9//Wu59977ZFPaRpG3Zxji/FEriYQQQZQq7GQb0mT+piKNiuWYWAcT+cpxZuKe8kErYUTaFTGT+XLjKg2BqhxjiFGy+ZtiyFTyVRIZY8h1ciDNKjPEmLAREwfX5Uz+DUkLJGCGrKVebe6ddvyusOGvjJK+y6ISyivN+y6TspRLDLHyxNkiTJxPbJTsx//FEOfLLFklzyGolVYb4Oyu3OavKYPxlBfkmTgMWRpH/ehl8ryXFKUYgjX2OhPmGnN9qXkP9aCXVI39gFQb//LxVxt3lSXLtSZsnXH8tUR5HO8gzktMuiDgaBAEpB2CT32oGg95v1SKTF0r3TaqBxDnQ1Ky+CYpNu0mMp78CNpi8Je8CfKExQhtEyxclJuygeSW055Sr7HhkRbXjL/EhqUcy0wbK0025WXKqdyUb4kh56Vje0nlWDQGLrFlG6GtsaAxMVgQ4feZfUBLx7uCOsVCFgtf5nkTZ8GiH3ri3NFgxRnVUtBRA7WHR2dB6zfGXdjf5x4pcr5wJQ+66OT6eZwbmmex8jKRwDdBTHCJ+H0ebQP6JYx1uv1Je0HjZrvEI488Yk8K8Dg3tK8CLHJgkwEL20OHDrXk+f7775fb77hThg8fLEUvD5fiSX9tJtOXSDnSLTORjpiJbwWTdVSuIaYxHWGC66qUqw0phjxfHRCglKukZOzlkpt8neTO/FcpXPhtKZj4d4ag/41kPf2vkjv9s1KY/AGJmGdqkiFWV0qZmfyXTIBcnY6fdEDWIOFhF7FhDCEfR3rxu8J+gyXOhzxxbo04l4yDiF1u8yvIw/gc5VJGmZs6EhkPMTZlYMq4KPlSyZr+eSlZe7eUP/V1KRz/F1L23A8lZ/kNkjnhI1I85hqpSqYczTOUkXmuzMZlSNW4S6UyxRBBU18qxpmyRw07lbpwOm2k0y6mIPU24QtTeorE2RBnQziLx5p8YrHDtrfT9Z72QZ7YspzAFoXA8Zu8rDD5FBl3ncnPa6yafd1YQ4hNXuekfFAyJn5Cylf9RKqW3yR5KX8rRQu/JfkrfyxZE//GtEtTVinXGBJ9bTT/TRmZ56tSzqwTYce7g/ez0BJoE5SNMcR54U2WOJ/+uAuHJ85xwB2UE3XC6uERBnWcCQ8SQKSevs57tDeoY0ja0T5ob0Lk0T2gBMytD5AwVLVdctZe0HdioI9jqZCaKvTdvp7GDxbFsNuwd+9eWbd+g8x7eo4cWf6AlEz6Wym10icmzWbSa1wEggVJQp3WceVmAh24Ky3R4ZrJvH3GEOBSVDOTrpS8x/5eip+7R+qytopU7pX0p74ruUt+IE1V26X21CYpWf0rKUz9uJSO+qBExkDIIMFm4m/IUXkKKp68G6fpCIibdYYwQPIjKYZA2PRebd57hZU4FxniXOWJcwCOoooaZKo/uVlOTf+iFCdDWC+z+Uj5hcs3trtCSiC+5rmqZENgx1wqecmXS/ak/1cKV/1CajNfNG8olMjOJMmZ/WVpKN0ujTXHpHTHeCmc8RUpS7pGIsm9zPOGNI+71pDrayVvwgeMu9qUlyFXpswrDAmPjL3KhLnWknJNWxn1KgUieJWtG/nJ10pxWk+QOL8nJYZwFlnJMNL8q6XcuDKTR7SPcpMf/C41+VeS2suUTy9brtUsVCRdLZXJV9i2g6o37ats1JWSO/ajkr3wO1L+9kyRhgypO7lBsmd/U6oOLjAVpUgq9y8w92+SrPF/LWUjPyDVoz4gFcm8j8Uw3hn0Da05m07C2X7AlLVpkyWje0n+AohzdNHzIrtrT5zjBNZsOTMVeOLskehwJ6loWxQWFoZCeHi0LbS+sb95165dobsePRVaL9w+CeN4KvntiLFY38GRSuzRZRsJCBN6j/MHZ+FW7UyVvLF/KaVjDTFiAmwm5qcn5zpZ5ndLV2om5mVIipkkm8l5kXF5ZoKeO/6jUrTkZ1L93grD1o5KXW2+NDUcl4MLfyH5q34tUnfclBnnux6VigNPS8Hi/5KclI8asn2pVRXlnSXEa4kwk3BD9FJwpCUg7aST++VRsgWpgDiXjr1ECsd9TCoPnV5g6dFwifMJQ5ynfdEQMVTaL48SmzPLNZYrS8ZdHpDfUZdLlqkvmUv+S0remSeGbUmNIUWNjYVStmuSnJr1Lakrek+a6ipFqo9JQ36alPz5Qcmd/PdSMOoSqRzTy5AxQ+jGXmPqzAeMM+WGtkNKr6CsIc/NdfAqm078IhA4U0fzDTEs3gJxrgh/bcIgIM6HpHjhj6RwDKSZtgZxviaaL7SDII9KTFsoHnelaTNXmzz6gFSNvtYQZ8r2Uik2hLrQtKncpGska9bXpejVsYZQ7ZX6iCHN1VlSn7tFTiy8WSoOrZbGmkpprMqUhvLXpWDXOMmdfYMUjviwlCZda8rHxM/CWoy60aKe2DZr0pYclBuLHhDnPE+cOx6ZmZmyZk1wvIAfJD0SHe5k8OWXX24+isXDo73BIg1GhDw8FNof4ZBYQpzZN+v6txeIW20zYJxv9OjR8vrrrzffa893JyLcxQbVFajfO0VyDBEqHnOJJUhMesvMBP20ZDk0QR4LuWYSH4QtT75SikZfLjmjPyA5c2+Q8jeni0ROihjCXLD3ccnZ87g01e6Xg/N/JQUr7jd8Z7/kbJ8oxfvmGBKdKU2Vh6RkV6qcnPkvkpN0pSEKV1gSUJJiXDKTcAgyLpBou9Is/CNWCneN9Ss1xMsTZweWODcGxDlzkyHO/xKVYJKHVwfEWcvSukCq2dIZ/zFXS5Epm5xRpowf/7KU7hknDdUHDTE+KMU7x8v7zwyQ2rIDUvXaZMl7/FvSUHRAKg+ul8xne0v1qRdMIk5IdeZ6yV39S8lO+YipL5dKRdLlUj3mMqkkPWMhZgFhDurf1UFdhESTRvbGJ5OWyyTPEufRPYA4H44SZ0gz7lppSZyDxSPaSXHKB02b+ZBETN5UJAXhc024TBP++OT/LYUv9TXNca+JOF0q3ntajq74gxS/v1bqs7fIqXm3SNWRFVJzMk2Or7pfyg/MM+WVIfVF26Xk5Yfl5KRPS55p26VjUM0PFtbOrCNRabguaIWJ8/wfeeLc0UBVVa1qe4mzR6JD6zk4cuSIPYfT13mP9oaSFN3j7OERBv0RKtNqd6G9+6VmkhfdpsUxWPPnz29hmKy905AocPPL5mcTc9gGqdv7mGSP/aghqZcGkr5kSAtkVCfsgWSr2VnpI2TGTNoN+Skedbnkpn5ail4aLE2lb5o3ZRmStEGyFv9SjiX9jRSt/YNI1bvyzvz/kZxnzHXkLUOgfyGZw/9Ocpb/Wqqz/myfaSjcLYXr+kju+I8bYnWtFBkSUGpIuSXnY067yBgI1pXWWVLNJD35GkMcrpKSMZdKgfmWKk+cA7Qgzhvl5NQvWglm6VgWJ8i30+XZmis1ZVww6krJmPBxyf5zX2koeEOk4YhUH10mBU/dIidG/i859sS3pb5ih0R2TZDMWd+VhrK3pWrfdHl/5F/L8Sn/KEVbRxie+45JRIaUvjlHjs3+gWSN/kupGNlLqgyxQnuhwJC/IoihKfNSU/9KDVmn/K32AWWfZNJiiHZOkqkbVuKc2KraTaWHpGjhTZI/mvzA0R6utXlDHgVt81IpNuVYZEhzMYtdaGwYl2PKLCP5f0v2gp9LTcZzprxOSl3udil87ndyMuVv5Wjyx6X84Hzjt00yn/qJVB5dKQ3pz8rJsZ+Sk8mfkPy190td4SaTimNSffzPcmrRbZKV9FdSPNrUHdS+Y9QTW1ei7ZLyKrHpvUqKTRnnzbtJGsuPnf64i4AnznGC/U2oZ/mB0qOnQCc3/GWvM23A9ffExqM9gAouhp88PIBLtADnAesJF24f1V7Q96vUec+ePZKcnGy3sOh93xfGDze/tNhq906RrOSPGqJ6mSGeZgJsCGuZIS1lSLogx8kQUvM7yRAZVEBxoy+VIjMhzh7311K46n+k7ujzZnKeLfU5u6RkQ285OfFTkm0IddHwy6Ri7UOGOB+S/fPuklOr7xcpf0tKV94mRcMuk4Lh10rW5M9L8eZBhpDtNok5JnXvLpbcRb+QrLF/a1V7iw0ZJh0RiFMSBIqJe0AmLHm36TOEIgnpFntgPyaV7/k9zhYtiPPLcmLKF6VgNPl4pRSTh5AgW6Ym/0ZfKyXmutjm5xXW5Y28XLLG/Z3krrhdqjNMnjYclbpTaVK47ndyLPUTUjj0OikffIWcmvMfUl9liPNrkw0p/r7Ulb4lNW8+LidHf8QQv15yatR1kvPE96XqzdnSVHNQGiJvSuGWMZI97V8lf9Rlkp/US/JTrpYiyJdJR3HSdZZ4FSf/X/bOAzyqKu3jSk2F0O3rt0Vdd1cQlWLX7dZtn+sWdz+VEkoCIb0RuihIkaJiw15BEbsUBaQTUmcyvZf0XiDl//3fMxkcZ8FlRVjF+z7PSWbuqfe859x5f6fdXixHLzTOJhTOiVQQ75VBlS1yONhXPzT1my4BcNaj8rlfo3xOb1UP0vZr5kSzn0azTgLtX1ZkKJ3Ni2GdEaBnnwEP+6r96ZtQf+ApoEmPjrqDqPt0PlzLRsKbx7B51Af7bYP+GRyq2AHbMwLO6wACdtWDF6I2pyfDRcOz/Keo3zYPnXVF7L9GNO5fBfdTN8E7rz/7ZU+Wo49qI9KGagSUVZkCYF03N1IdCifPjWrm539awFmbcT6lIq+j2rBhg/qsgbMmp7sEDcWggWOz2VT7F4AWCfpp/UCTr1s0cNYkVIKDdPKskZVfct6IDOKFDuCdzOdQ8Pc+mIfkv3DhQmzbtu0L/pp8dWnbu5zG9mC1JLSGcFw/RyCU8DxXjGJeE8NYoHW2gEsk/LP6EIgGw0djuKXgSeCwBZ1NJajcuRiOVdcRtvqias6ZNKwJPTMJZRumktqKUbz2bnjXjaMxX4TK1+9BOcG6TmawcnugPDcKrseuR9Wuh9DRQEO9zYiG/SvheeJ6uOfEENJ7E5wiWA4a4wS/WoFnlq+BrppGu8BEvVyf1RP++UPJC2+E3+Z3U0LB2fkBHEsvQ3keoWY2dTS3J0FMDm+KQC11WzubQDpb6riXgh1PXn+4n7wVjQWPE3bL0Fmbj5qPc+Am7HrZBipmSzzCdk5vOFbfiMNNe9Cw80FYVt+E9lo9WvKfgHP2IFQTimVVQlVuH7azs1Hxyj1otbwpJI9Dnq2oJITbFp4Pby7LQ1Cvm8U0Z0ezbH1QObcHy0Nd50UF2h/z9eaxPWyeyc5fH363p40ocK4tQ8XaX7K/sY1TV3WzqavZvHeBZ/Yb6ZNV0l95vYZA7M6NgWPFVajZNouw/JkarGrc+zRcT97BPhSHKupU6WLOGXAsOBv1BOe2SoLzE3eSi9cD9g3wEZyr2D6qZPBiZg/WdX84nrkF9QfZz1tM6Kjdj9qt2XAsuwzumQLhPVgu/qduqudIefismCOzzJIGoXk2dZh7hnpWaDPOp1jkx1LeLRr8sdZ+KDU5nSXUWBQnsyvr1q07ckiYNuOsyckQaWuyTPtUvp9Xk2+2hD6HNm3ahB07dqjr8vw5Fe0kmHZoPq+//joWL158xBY4mfl/F0TA2U1wrhQIlVm9Od1wSuO8VsBKGewEGDpXbjSsj4xG7WeL0FGvJzR70VDwDFxP/xLOeXEEqgiU06D3y2uK5vVQM851GwnOHToUP3MX/K/eBzTqCM5/IxD0RAXzqJIZNcbz5sXCOfcsuNbehlrDSyyZC+3Ve1D7YQYcD1wGX24cKmmkBwx0KV9vBQ3VCiCk3GKw94Rv/hCCszbjrOQL4Pwh7N3gXN0NztWsw2rWYSX/VxJaqwhgTurYtfRyNGx7kLBTRh0bUbt/NeyP3kiYJgzNPBP1MwWuBYx6oHLmGXCvvhkdDbtRu5fg/Oj1Cpyb2S7seYNRwTSrZscxfAzDMp+cSDgf+DG8b09De/k2dbpzi+F1+J/5PcMPhT+PAE1Xn9eL7aMvfITzKgXpBOiZBOfcWFQJOOM0B+dqAyoJnH4CarUMKPD+ZVChehbbefegR82cM+HJIQjP/wGq3pyENv+njOhW7zH3P/8HeGefg4rsKNSJvgiylQLduX3gnH0h6kufY/htcKz5A1rL3kSXZSPcC38I38wI1nukOoW7IbcHv/eFY+458Dz7d7QaP6S+7GjzbUL1holwzr8QntwIVLGfy2BM5WxpExEh4MxrLJ/vKQ2cT6mE/jDKfw2cNTndJdjOQ2d0BGiam5vV59DZaE00+bpE2lbwcDDtGauJSPA5I7PNMngnr8cTCf0tPtltJfRZKFJWVoa0tDT1buegvyZfXVr3LFMzyBU0xBWgzBLDVwBVQJrGdl4UjXfCzgIa4evuwyGfDJ740ebZAs8r/4CHxnlVdg/UEqDqZtEwz+vPeD3VoUB+Qlbl21OAQwaUPvEPlL80ibxTgopX/xflslRb8pwje2gjCW4xaMzpg8rsnrDMGQbfugk45N5KQ92JVvsH8D3/d9jmn6dAImig187qE4BAxhf4riJseecNIZtr4KxEgXOAVdodBOclAs6BmWUZsJAZwSqZpZ/bG47ZMazfi+B/IxGtvj2MVIFm60fwvHAX/QagXOm3ByEsAvU5rH9pJ3N7oTz7DNgeuRHtjQdRvXcFLCuvR0ddPpoKnoY5dwiqctmW8gaqdlFFfVXNPoMA3Qu+3N7wLL4M9dtXoKvFhs5WM2p3LoNt+Vg4cgeiJpdtQpZ4z+vPtin67o0GgrMvh+1r0xyczuCspNqMqqduQ0VOJGrzZDUFgXmm9E2pw17w5EXCPjsO7mdvVadiy2n17RV7UP5+LkH6h/Bn92LY3ozbE/XdOqiY1R817GPumReisegFtJVvg+2pP6KlbAM6LR/AukDA+Uy2DfZnxm2kngSeZVVBRXYsbAt+ivL3ctBRuZ8Ny40mw6twr70dzlmD2K7k+SFtSsoYzc/SziIZ70x4n7yF4GwL3NcJ/lxo4HycIu8VDb4iRQNnTU53CRqj4Uuyt2/frpYoBo3WcNH6hSZfVYJtR15HtWfPnjBfTb6rEhy0q6ysPOoS7ZMNzqH5BZ95Uo6HH34Yzz///JG85ZTvoz0TNfn3osB5NsFZQVQAQKtlxogGcMXsaBrh34PnuT+jqfQlBE7b3Y3Kj7JgX/wTOHMIsTMFXCNQLkYz4bc2dwAasiPQkNUTtqyB8LyfzXg6FD51N1yvjgOay9QhYa5Mmb3srZb8ioFdKct/BeYEyAhVbjHUl4xG5dY8ghifSa0G1O5fBc/jN9FQH6JAu04AX4GzzMSxvDTe3XOHauAclHBwfng4/DOjqOcIdeCXzBrX5cSqlQKOtTeiQfca0OJAm3c7fG9PgXPeD+GlnioJbHW5otto+GfFsu7ZTvIIYARo0/wL4Xw3lX3RgoZdi+FYeQ0hKR+tzk9hWX4NvDm9UDGzByoZXgZk/LLceFYU6qmr8hxZYjwM7iduRUPJ89Qx25d/Lyo2TCMwn68g3z8nSs2ASvusIch5c/qh6uN5vKPT93Awka4aEyqevpV1JHUte4XZxqk7WZbtm9kHrmVXomb7UurLgo4GAz8vhn3pGFhmxsE3SwajIuBhv/LM68X67kn99WFaveHIi4Pr8dtxyPcJDlVsgnnNb9BkXI/O2kK2gT/AntefbaQnqqgvNYjG/Cpkplv6eXYfOLP7w7d8NPNbgs46k3rfdN3W+fAs/jH8efIMkbJGs41Eq+eJBs7/JZE9zhs3blSfT+aPtCaafJNFDuZ56623jnwPNV5DDUtNNPmqIocwytYA7Tn73ZPgcyQUiMXJ+5Nltjkop3LwOlim4LLw4DNOypSdna3etiEgLcvIZUWOyKks37dfutC2ezmceUMJnbLkUgxkmWUWCI2AN7cfKjbOQIe8p7fJhPJdy+B49Fo4Zw5AZXZgJqyShrK8pqgiLxbVNPIrCFfO7BgC7AWofGMqWr35QFsx9Ktvhvv5PwCHzWj17YT/lX/CPZvQldWf+cYSivrAN6cnwUzggIb/LIGqWJZtMNyrbkKdvNaqpQAdNftQ/vyf4CPwVecS8MWgJ1RI2cv52TlHW6p9RLoC4Cwih4PZFo+AT2ZyRb+yFz2X+s4cCO+cc9FavAxd7U5UbV0E2/JRMFIPFbl9A7PLEi6HLjcCrpn94OB/O+HI9cRvUHvwOXS1WtBeSZ0+9yc45l+Exv1PoqvNh0OeHah6ayLbwrlwZ/VV0O5nvKqZvQnh0saiCO194cjpwXjnwfnafWgs30kmPgj/k7+CO7unAmYpb7nAWF5PwnoMKj9awHtr+cKtnm4ip2r7nv4N27ncfx/WG/Uhy91zZcY4FnUfpDCQH7WFr8D55G2qn1Rk9WI/krrtofqFezbrd04f6rEXPBms54cvQ8XWeWivPqheJVaxZSbMcy5G1TsZ6GoigBOeazbNgnvxSDiy4uDNYb8Wnc2KURBcy35ZzrJ4qRfPzCHwPf471Bbxt6HTi4aPsuHLZhuRpfkzpazR6vC/8qwecD9xC+He2n1jJ/Zs1sD5OEVGk+VHMfRHXRNNvosiB4QJ2MgqDJHQ2RgNnDU5EZHnqjxrZVmu9oz97kk4OIvIbPOHH34IiyWwP+1UQ2mwTOHlamxsxIIFC/Dpp5+qwcSHHnpItVsR7Tn4n0g3OM8chgoCkoBUpcwiE1T8hCYvgfpQ6auEZjPsL/+DMEWIzelFgOqNOgGqbIEgMZADcb2ZfWHJ7Q/7s79Hs4nwetiFDu8eVLw2Cc7c8+CZ9yPUbJmHToKWLMFuKHyRIH4r3BlxqEmLVFDlo+EtB4xVCkzTcK+SJb1M1ymvr3rtfnQetuPwrgXw5A5kmZm32mMpAB2lyuycPRRN2oxzQELB2f5xNzhHKaCpkFlnfvZnxcI1//s4ZHwdbeUHYH7gZ4SmnrDP6U1oikatGqCIQlU29ZIVCWtmNCxLhqNq+4PoajSjq9mM+l3LYVl+Lay5Q9k+JL2L4X1jkjp8Si21L1sP29o/wpR9FioyIqnXvmrQo4Jw55ndmzrvRV32QXHqADi3LmRhXfA+/xe4Ms+g/gmBOWwbBPYKhnMR4APgHDgs9XSVzjodvE//mvDaB+Wyt5t9w88+UZ7dBw5Cct32xeg67IFx2U3wpPekX2/2HznJvg/7JmGb/VMGl1wZsXDM/D7K1yXiULlss3CixbwO7ufuhnH2BercAsfcIXA983u0mDYoGD/s2cW+Nhn2vPPVigN/Tg+mfQZ8s3rCS4gul3ZBSPem9EDpE3ego9OAxr2PUF+xamm+tCsJUyHtK4PgvEbA2Ra4sRP8/dDA+ThFYKG8vFx9PpU/2ppo8k2RUINVTj1++umnj8CzXA/OyGiiyVeRYNsxGAzIz88P89XkuyLB54wAs+wlDv7uBv3+G+Ac6pxOp9qyIs/ANWvWIDExEePGjcNjjz12pFwaOP8n0oXWXY/AnjOMBjlBRqCEhm+5QDNByZ13Ntp0r6G9cg+MS0bCmyX7U3urWcsqhq/Lika1GNY0ou1ZUWp/avXOB4G2QnS2HUD9zsXwLLmWBvVAph8FX3YErFlD4Xryj2gufUUdDIWmAtR8OAvuB66Ek2H82WfQUCe05cShmunL8lJZmupLOxPeFWPRXl+CQ7sXw5EzlGkGQKJSIIwQ7WX6zrxhaCrRTtVWEgLOhwnOloeGw6PqVAYZAvr2ZPWB7YHvodXwFg759sE5/0dK916ZYcyUMLFqSbaTdWt+4CL435qMDt8n6mC4lrJ34H3mbliyzoKTQO0hhMnAS3kG20NGFExsMzXbHkJHo56QZ0H1tuWwLb0OlpxBbDM9CVnU6axYtotY1GdFwJTCvORVUx0egvNf4aXOK3NkSXe02ttcntML7kxC2YeyVPv0nnFW4Pzkb+Fj/5KZf49AM11ldi9Yc4ewXpeiq9UKx8IrUZvSk9epS8KqZ2YM+w9BO+tM2HLZ1x7/E9oK1hGk3Oio2Ivqd5NgoY7taQzHOOWEbYFiJ3VmmftTVL6bqfq7vHO7peglOBjfnnMW20RvdaJBaV5AAACAAElEQVS5N7c/20R/VGbFwJdKnT36a3S0FaF+91I4sqV8fVGRLWWIVe3Ml94Drsdu1cD5VIv8WK5fv159PtU/3Jpo8k0QafdBOJb/smzb7/crw/ZUnG6ryektwbZjtVpV29Lkuy02mw3PPfec2iYlEoTm/8YAXVcIsMtqm6eeegqTJk1CfHw87r33Xvztb39TJ22rsKe4bN9++Ryc/QRfOYFXDF8/4cdLsHLOPButpS+jvSof1qU3wpdBoM2lUS5GvEAzYcpDYLItGo6Kd9PR7qfB3WZFY9GzcDx1O8w5Q+BP74Uqwo+cviszwlVZveFO7QPL7IvgeX08Wu1vqpN6Dzu3wbtuEuzzvh+Ao2ymL7NmChqi1Wy2Z8V1aK8rZpkXw0Zj3k9DXWbKK1gODZyPIv8OnAWcWK+O+RcSnN/EYd8eOBdcAn+GhOmDavoJXNnmnA/3C/egyfgGug6Z0erYog4Rs879AewpPeDLimS4ADRXCHQLkKf3hTutBwF6MJxrfoe6wrUEPSNa/TvgIpzZFxLCs9mWcuLYlgaiMa0XzMn94PhkLtuDFZVr/wQ/gdBPCPPKPmzCWkW2LDlmO/2IYdAUeqennXTVGuB74laCZ6TaFuHJ7YfyXOlzrNPcwajuBmfnorGoTu2pBr68M/vDk90PnpyBcK+4BnW7lqCrqRjttQWo3PIwHIuvgz01Eu4MCR+DGoatYDzZa16eEcN+yb6cEQn78lGo3r4InQ16AryZkL4C9ofHsu4HqHii40rq2M20jI/eho5WPZp2LqPO+fzIkjYQ2w3O7JNpGjj/V6Suru6IMaf9MGryXZTQWZdQefvtt/HGG2+gqenzHxEJEzR0QyU0jfD0Qv+H+x3N/2hhjydeuF+4C5dw/2O50PCh/8OvHS3OvwtztGuhcULDhMq/i/dleRxPvH/nvixeqF+oEzAKfSVVaJhjpRWaXniY0GvHcscKGypHixO8Hu5/rOtfFu9oYY8n3vH6BSU83aO58PCh/8OvHS1e+OfwNI91XZ4XMpMrB8TJUmh5DWRQjpbPfyoSt5OOLYsuYNAHDy5SqXZ9/vmIU3E6lQvm3dDQgBdefBH/+Oc/cd999+Hv99yDzVu2KL8jYcPT+YpOytkun6Sg/NLBMrR3Xw8+XYP38G2V5t0rYBVwJgBXCFRlC6zSCCdIO3LPQbNuHToqCmBbciMhOACpsry3PDMW9lnD4HnxLrTa3iOZuXHIshnulxMUFDuSIuFIkZnrnoTanmqmypfVH/60nnCnnwlrWgQsmf1hXXgpKjZmoMOfDxxyornkRbgf/S0chKmK7N7w0aj35MQogPA+Iic2l6CFQGDLPgu+TBrxWVKmqMCsZCbBOfcsNGrgHBDpD92t87DtY5gXDoebei6nbn05EQq2pF6ds3+AQ2UE5/KdBOeLeE1mIwO6FgD2PHkHOmoK6YzwfbgQ5kUjYUvvDVvuANgWXQbHvAuUrioze8Ob0Rem3GEMMwqORQR1hnGmEopnnwf3S//AIfM77FQe1G6dC3v2EHilPGxLtWxblqQ4ODfPpr8Blc/8Eb4ZfdhmBJplUER0LTAeg/KP5FTt0+dwsPBnuvpcY4Lv8dsD95spKzECM8QVmT1hZb1Vf/owuthfbItHozztDPYR6knCsF/5H7wCh/Qb2J/sqMt/EsbHb4OBfdyaNQD2By6F84GL4cmKQyVhuYLOkTkYtvlXwPHwKLjmDIFDdJE1DI41d6Kx4EW1dL7V8DLc8y9W7aFcdJ3Th3rtDcOjtxCcdWjeTnBOjWX5ItSgmi87ms+JGF7rCacCZ2ugJZ7gw1ID5+OU0EYVDgOaaPJdluA7zmVwSVZmeL3ef+kjoUZvcObmaIZwqF/4yo6jpRGM82XxjuUX+j34OSiheYX7heYXnlfQPzTusa6H+oXmEUw/9PqXxQt+P5ZfaBrhfiKhfqH3drT8wuvraPFCyy8SGjb4OSjh8URkRk/aUei1o8U7VhnD8wv6hV8PLX/Q/2h+4fkcze9Y+R0rXrh/+L2F1kmoX3hex4oX7ne0shwt3tHKeLR7C8YLTzc0XmheoZ9D8wiNJ/uDbTYbVq1apeA5NK2vQySZzo4OdDD/Q7ScDtN1iusK+KlsOj///Ln74j0GS9Pe0a72Nk+In4g/33039u3fp64LNEseAuj/mtZ/7gSaW1mwzo5O+YLDvNiGz8Ff/sj/zzX67ZOm3SthIWzKLGMFIcYvM1c0en387ph5Hpr1b6Kj8iCsS66DN00gR8BLZpIiYVo4ggy0Be0tdnjfyYVp9iWwycxVRiQ8iy6Hc/VNsM09m1BOeCYcuTNooC+8DNYnfgXXyqvgktnGdBrgabEwPjgalZ+tVEZ6ve5VlGR9j9Ak+2rlgCHCE41598rr0V5fSnBeBluWwL74RarZaV8O/9Ood2SfjYYSbY+zkq4Oab3qo8w4mwjOLupV6k1m52Wm2EU92mZ1g7N/pzrcy50RpfwEgpwEMZe8f7vdBs97D6EseRjc6WcwnTNhXPELtPo+QuXGKQS8XvCmsv4zz0X1pjy0V3+Cug+S4coepJZu+zKYFkHY8tBYdDSZ0FL6Oky53yeIRajyVLJc5qT+cG3OU+Dsf/ouuBhelTVLVjbI7HgkHIQz34cy4xw4DPB0kOCzWQatj/w+1BrhJfDa0tn2BZx577IqxMN6NLPt13yyGF1tdlgfGgV/ck/4GMYn/S6lDzzUCzsRKg48B13aBXCnRFGPvWFd8GP257Vo2P0wnHnnwU992VP7wfXMn9HmfQ+thUvhfvASAnF/5tMPHsYxZF2AmpK3gRYDbCtuYPi+SicV1Jc9NQr61QTnllI07FgOW1qc8gvoLJJtKJp594JD4LrBooHzqRR5FYbsazqakaCJJt9VCTXAZYbwgw8+UHv9ZO+zzMrIMsvgu5+PZiyLhBvxQfmycHI9+D30c/D7sfL6qn7HMvaDfkEJL8uxPod//7I0jzdeeN7HujeR8HDHW5df5nes/MLjHasug/9ltnHv3r1HwgblWJ/Dv4eX5euId6x7EznW/QS/h34Oj3c0v/Bw4X7h8YJyIvcWnt+x/I5Vl0cLF/5dJFh+gWQZcJPvLpcLL7/8stK5nE4tLhgn/J5OSEjIXR1SrsDXz0t3YvL+e+9jWkIiSkpKw72+NpFaEBjv6uA9yH3ITcgNiEd74N/XWFOnXBp3rYApZ5iaeSzPkCXRkWr5tTc9GrbgjHPlAVgevgae1GgF2MowJnCVLRyJrtoDqPhsDYwpA2mc92EaPRg3FoeKn8bhloOwrLkVvuRe8M+gAb34arQ4PwQO6VC9fjKhKQ5V6WcSiHrBltoLhrk/Rpt9Mxps76Ig43uqLArU02NoxPeFa8W1aK8rRdNnS2HNGKJAQYDCR9Dz5BDAGMaeeRbB+bXw2/xuSig42z6GccEIOKlXr9QXYVT+u9KivgDO9nk/gktm9wVmZTY6JRLuF+8F2sxwvp5K+BVoOlPNNupW/ol5VMJDiLMkE8DTBqJyQzI7jBst+jeZ1khUJfVBBeHYkUUoTomAYc5Pcai2BE3Fr6Es+0ICd4TKq5zlMk3v1w3OJoLzn+FkXL9AfKYsL5aDpgLg7D/NwDn4DD/yClK5VmOE57FbYRVwlj5HXUhdyFJ1E9u4AudDAXCW/hXsCy72M/cjNwMNpXDueBRF0+JQkdqHdd8HhgfH4lDFLrSa1sOadz5sSewvq36L9qp96Kw/APea38Kd3Jf6jWXfjKFOesCcFIHKvU/zQVEG6yM3wUodyqCa9Elbcgz0q24NgPP2R2BNHcDnSGDQzZMpq1ai4WLZ7Kt/S3A2B577J/iw1MD5OMXj8eD9999Xn0MNAk00+S5LcHQy2Cfks+x7lsP05GCf1atXw2QyKUP5448/PjL4dPDgQbzwwguoqqpSr3N59dVX8dlnn6k05B2+YkjLa4nEuJZw+/fvV34SX/YSCpTLYNazzz6rZrtF3nvvPbz55psqb8lTDi+T7RVySrPMDL3zzjvKKC8pKcHatWthNpvR0tKizi6QuFJ2KZf4CfBLHpLX1q1bVZnFsH/xxRdVmcQFjX0RKbvcQ7BcEi5Yri1btqg8ZADB5/OpMksZRDZs2KBecyfl0uv1ys9oNKrvsvxdyiV1LGnJfk+bzaaWsL722mvqpGEps9SN+EnaUmevvPLKkXdty7vnX3rppSPlkro8cOCAylvCyCt+JD3RmaQRnOkTXUnZRG8CNs8884zSp+QndRksl4QXPznxWOpS6iu8XFKXomMp8+bNm4+US+5VyiRtQMq4c+dOlbcMvjz++OOqvqRcUpdFRUUqXrAuJS9JV9KXehORMkldir7tdrvyEx1LOaVckq6USw4eEz+Hw6G2F4geg+WStif5SV2KjqVc8toh8RMdy3t75brs65e63Ldvn/KTMJKHtL1guWQAQPILrUvJM6hj8ZM2Kb8rYqxIm5W2JzoW/Ut9ySuOgm1P4gXrUsospzkHyyVlkZl6cVLmHTt2HCmX+EkcWQkin6WNi5+kLfqXvKRcUmY5mE3KJXUpZZO6tFqt6r6lXFJO0f9HH32k0pD+JfGkjcj9Sd7SX0R27dql6lJ0KHUmaYS2PdknLANsUtfSr4+2LDscwE9IJB1CZ0dNM9r0bhwuFufBoVI6XbfTe3BY5z0+x3gdxnK0FbuwZ+1bcG3Jx2GDP+CnP0r4r+gOlXjQbimngdqubkFNkYvhd7qBc9YwBcICLwJT7kwBVYJzNsG5NADOZoKzzFwFwFlmkgjOD1yBLhrdVbsehz2DcQSaM3rDljEYrcWvEJzNMD32B1gS+8I8+6do0L9KgitD+XuzYU6/EOXd6anZrRR5fc4PCXgfod6yEQfTLwic6JvOMOmy/5Lg/EgYOKcHZtmUoS4zXOkEgSyZcdaWaitR4ByQL4JzN9jwv0v0nEdw1gs474J97kUKpmUJdQXr10kdeZ7/P3S1GOBdN4NgJqDbB87kaBhX3IWuw+XwbXkIJdPj4H9xInm2BPVlr8H44JVwEMKqZDCFcOyUpf2pMTDNuwyHa4vRXPQKDFkCzn0DM6osl1GB8yz2KzPB+W4FzjIoImVxZ8hy/ajTEpzl2R6U4DP3c3CWfiXgHBi0chOgA+AsS7Xtakm8l3CqBkMyIuBJ7g338huB+mK4dq5GcdIAVKf1gmdGH+gfuA6tvt1oNryJ4qwLYHxoLNocm9BZUwjb2n/CmNwPlexnVXSVsi0jvQ/hOAq1+55QIG5lurZucJY+eQScW2XGeQWhemB3n5T2FRVoXzN6E84Zpl4D51MqYnyJURT8MddEk++6SF8Ijk4ezcAVg1yMZgEgMaoFMsRwlrACNAIUAnriLwZ+ENoEhARkZOm3AJ+EC8KRAJSElTjiL5AmwCEi0CMGuPRTGegS41+Mfem7AhdiyAehSgx/gRAJK5AhICfhJC0BGQGjYLmCoCFQIbAhECLlEogTOBI/AWH5LiAm/hIuWC6JL6AgeQkoBF+tE4QeyV/KJcuTxU/+S1nkXoLlkvoKllmgUcolMCV1KRAmfgKgAsECLoWFhcpPwEbqUsordS3lEgAOrUtJT6BF6jn4yh+BXilX8NVjUidSb1Lm0PoSqBIglfoWHQvMSbnET+pL7ie0LgVapVyiTymzlEnqS+pOyiMiYd59990j5ZIyy/1L3qF1KdAtaYiOxU/0L/UpeUu7k7ylvqSNSpxguUQvEk9AUvKQ+pH7DZZL8hM9BcsleYqf6DjYZsXJ5+C5FzKwIfcu5RI9iJ/UTXAAQXQp9SN1EdSxlFnqUcotZZQ6FD8pl7QHqS+JK35Sl1LPwbqUckmewbYnZZa6knLJ/QT1L/+lLNIu5Z7ks7QXiSf1LGUOlkvqRHQs+UmZZCBD6kvAVvykfOIndSx9WdIX4BY/CSP9XfIOnogufSNYl9Iu5d6C/UXuUfQWfH1TUIK/r+Hu65CgWdh4wALj5GXw/vVBlP/tYXj+TnfPw/CJ42f/8bh7ljLsEv5fgvJ/LlPO89fFKOd1uRbwP0q8/9SxfFaW07dsPboaZXG57HHuRHuXLDWXWejAjZ0O4GzMHkpwllm/GGXsBsCZhnH2uQTn9eioEnAeq8BZ9hV7CTEuftY/cBW6KvejYvdjhOVY+AhBMjNoyDoHLQWvEXLLUPbIrSjOuRgN+S+yvqpQ8fFiGLIvIiiLYc7wmf3hyIyDJ5UwNpcAZw+AcwHB2iNQLMCQFqtmzJzLg+C8DJZMwr4y0sWxvLJvl4BmyzqX4Pz5e8e/2yLzzQHb4LBtE8F5OJxpAf0FwCYGztRoWGf+AG26DQTn3bDPITinBqAnCM7u5+8HWkzwrE+BdUYMHPSz879p+Z1AmxP2DxfDuOav6Ko1odm+BcZFVxCi+qhl4b60SFSm9EWF5EudG+f8GIfrigjOL7GdfI+Q3jcAhixH2TS2hW5w9j1FcJ7eR+lftUkBZ7ZRe3Isyj+YzzsKrI45HUSe3zLwGZzAUFJnhvvRW2BlvbmlD3TP5MrSemNGEJydMC0arWDZI1sk0mTGmeC87HrGPwjXZytxMGkIKtN6wzejB8rmj0abdzdqSt5CydJfo8X4FjpazHBRv6JXD4HZm9Yf5SmRapbay7yNyf1RtZfgXF8C67Ib1YyzmgGnn3VGNMH5FnS26tCwfQUsKd0zzukCzrJqJTYEnK0aOJ9KEQNLfuzlhz0cEDTR5Lssof3h29w3vmrZT3W8b4OcyL0J2AVn649XTiS/b7qc6ns72fkdLf1T8QwJ2krN2w1w3DoLNWMzUHtdNipvzEH1DTn8nBtw1+ccl6u5PvuIq72hO94Ngeu1R9y/xvtPXB2de0wqqrOeBxo6FPzLwWay71lMdjUY0PX5BPS3VQScDYRQj8z+pgaWaLq6T9i1ZnXPOAs4L75GzTKKMexmGGcKjeYHRqGrKh+Vu1bBRrj1pcTCmxoJU/pQtBKU22r0OPjkBJTvWMKc/KjZuQaG3EthTxUQChwk5RHjOm0Ajf++cBHaDts3od76DgrSZDYyksa7AHl/uJIj4Fgmp2oHwFnyELgX494taQikEfgsmQLOgbewfBUJ7wPh37/pYrPZ1KGhwW0XQRFwLps3nOApuqWO0+VU5Gg4ZrDOcrvB2bcb1tkXw0E9y6FUfurYnsQwL4wnpFnhXJ8Bw4yBcLC+BZoMK28neDngt+xDa1UhWtx7YFnyS8JVFGzp/WBPG0QI78d2FUUoEwjvBdPcS3CYENZUKOB8IcE9gmWhHhlOlxgHxyY5HMwK35N/gWOagFxgVtzFdiBbBWwzmJ4C55P/Hudw3cv3oPu6JTMzE0OHDkVqairMNgc6qg0E51thpr5kIMPHe/eK3vjfkHYWqrcGwNnw4FUKTp3Sb9NYx/zsWno9QbcAzp2rsGf6uXCy/7gJzsYFI6kjgrOzENWmTehqtcD5mgyGDFUz0i4Crys1jrqPVXEc6QOgJzhX7nuGz0ADzEtvgnlGhNKlj2WxTI+CbgXBuUWH+m2PsKzsx6kC4AGdSTqOaX1gfUT2OFsDN6qB86kRmSGQpZMiJ6vRaqKJJpp810VmMQWeNdHkZEjLDiPcd8xB3bXZqLsxDzU35aH+BnGE6ZtmoZbf6/6NkzABFwj/xc/BNGb9S7z/1NXTea5NR3Xui6TLDnWatszeifkRPNRMjMBvuzXSsJPgnC7gLIa5HAgkUCUzyjEwZ5yL5pIAOJsEnAlLHhrD7rR+hKtY6BaMVuBctfNROBjeN4N+vG6iYd+S/xxaG+xwlWwmXJWhau8KlM66CFbZQ5kaOEhKYEggToDATYPcMetSAt5mgvN7OJgq4CzAJTDen3lHBsC5NgDOxrShjCtlEWDop5Ygu5MjWeZzUFcYtBe/CDvHazueisGkkyWyQuiSSy7BnXfeiXc3vo2aujp1/bBlE/RzRxA8A7p1sm7lvy1JwPmHBGfCtm8vrLMuUbPJLjmEi9Bmm054fv5eQloZHOtTYEgSGGbbIHCXrrwNh5q6gQgNcHywEKXTRFe94E6Xg8UIuulxBGi2l/RI2JJ7wTj7x93g/DL0mRfCTsh2UIeeFIJzwgA4Pp6jDiLzPnk37IkRqn04CGLONFnOz88pA7HpobvxwtpHsXbts2qLzclyshVKXPC7bEELXg8PeyJOtv/k5uaiR48eOOOMM3DOed/DKytnwb36FljZ9qWde2Z0g3NKNzhv+RycnUm9VR1KfTuSCMBLbyA4FypwPpB4FuypA2FL6cX+OgKNTtmWJWtmgGrDZhxMuxSuRMZLi4ONsOyRQRPmY00bpOrcyPZRpcDZSHC+mXqPVGXwpgg4R6NEgbM+AM5JBOcUGeAIAL6bzxNHYl+Cc+BUbSUaOJ8akaWO8jAQOdqyVE000UQTTU5M5Lkqy4G194JrcrKkcZcR1jvnwH99FioIprUE5uZrA04+1x2vu/HfuPDwX8EJzDsJzr5ZBOeWADirPhGYej7yTqpvey9p2PkIytKHwiWGeXI/ZTSLweyYIeB8HpqK16O98gCMD11Do1yWTPdTUCVwVTr/KnRVH0DlzjU0zAk2hCk3r1tSBqH54Fp0dVSho7MN7Y0uFK/6HUqm91YzUX6G8zMvZ8oABWHu1CgCXQShjVBl26LA+UCKzEbKXmqmmxzHvCNgXyrgrCM4L4cxdSjjBwBPTgEWcHAT9Exp52D9ong88ujjWLVqtTopPtTJ2R9f5iTME088oQ7a/E/iHY8LL8tXTTc8jWA6jz76KNasWYNrrrlGAdiZdHfdfTdcsmLTuQ1lcy9nPYsOpc4EwvoRnKNhzpEZZ4Kzdx8sMy/+F3B2PfsPoK0YzvVJBKk4tdrAND0GJSvvQEerBbXWPQq62zw7YFpxKyyJUQQowlxqH3VqswyqyKFTzmkRMOb9FIfrqMPCV6HL+D7syYEDv9zJ/aGbOgBO2b8sJ3gTnG0JEaqsdnECkAL6M/pj35pJ2L3jY+z4bKda3nwynGyLCjrZOiMu9JpsAQqP81WdbM/JycnBmWeeiaHDhmFC/BTseWct3KtugUn6iSyjTg4MSslqgLLUswPg3EZwfuBK1muwnllP01nPS25ixy6Ge8cKFE+NY1zpX71QvOAqNHn24VB5GZpdO9HZaIHnxckwTx/IOu5HSI8JbMdgeJfklxIBy7S+qNn7VGDGecnN1DvBOVmW3cfCPI3g/IiAcxnqt69UbUPK6Fbti+2MOpPBD8vywFJtJTLqeAKigfNxiPxQCSwHjbmva8+VJppoookmXxTZlxzca62JJl+3NO40wn7bbHivy4T35pmouDEPDdeKm4UqgmrNDQLTASefw92/+F0/E7XXfdGpa+KOFv4Y7mhh5Jrj2jT48wjOzYFDlmSpdlf33ma1v/nEbMBvhAg469OGEJzFOJeTj2WGLwDOpvRzFTh3VOYrcLZPlyXaAryxCrhK51+pwLl81xqYUvor+JbDo4w0mpsLn0VboxO+ku3oOuRHU8k6lM0aDtM0GtXMx0EYdtLJXmkx+K1JUbDmXYzD9iA4f4/XxYAPgLMAgW3J5+BsEHBOlvIQJpi3TSCa+VvSz0fRO8twsLgEBQWFauvJlzk5i0Bc6DU5H0BgRs5YkLNB5H+4C0/naC48jpxBEH4t3EmYf+ekTEdz4iflvuGGGxQ4D7/sZ1hJoK5vbEaHfSv0c0awnqX+pc5Yd8kCzlEwZROcSzcqcDYTnEW3MijhZX1ap7Fe194HtBphW58MPcM7kglDiTEoXf5HdB12w/7BUpQ9/g90NhvR4vgEZQ/8EqYEWV4vechqgmh4ZNAlIYbgfBnBuQyNBa+iNPUCQrrovx/cSQTnKQMD4HyY4PzEX2AhOCsYlPYmAMm0jInyOqqFOOGpy/9AhDvkvJGTKXl5eRg/frw6W0M9VhpscBKcjTNi1XJ5V5IMPsiAVTT0IeBsfOAKOBN7K/B1sF9ZEyNhf/hmoL4Urh0rUTg1lv2nD2zT+6Bk/tVo9uWjoWgDylb+Tg10dDXoYV9zF8oSZP94NGyy6iRZVo9EsA30gYnp1exdG5hxXnwD+29f6jVagbwpkeC8XMDZoMDZcAScqSt5zZX024RucOb9KDnBh6YGzscpctiMHIIiooGzJppoosnJETlASg7N0kSTkyHNOwzw/WYWqkdnouK6XJRfn4vK68TNhO8GgjS/l9/A7/xfJdevz6FfDqrku3ymq7o2GxVXE7yvzoCDAG6+MROGmzNhvDnw2X59Jtz0Kx+bgcprsgJxJB8VP5BuNcFa0v08n8/zrL4uGCYX9rGpqMh5nsQvO5vlEG15h/Pny7WFn0/MDPzvS8NnK6BLHQYnjXMv4UVBrcAKv5vSusG5ogBlC68NQNSMfmpm1z49EiVz5VTt/fDvfgxG2YtJsLbQcC5MH4LGwpdxqMaAojVTUfXZ08ypCfX7XoY+Z7ha4ikn8goICRA4maZ1egSh7cc4ZN+MOtPb2Jd4nloa7hZgSBL/SILztWivKUHT9mUwJA9TM+DOJJmF66fA2cHwptTz0EQI/Koih+nde++96k0N30aRAwtHjRqFxYsWoaqy8sj1Q5aPUTprBOs+VtW3HLLlJJRZqQtD1g/RUhpYqm3K/THs0yJZl4QftgcLQdX5zASCsx22dakwTIugzvrCmhCLkmV3oau9Bp4PH8YBQq/11UT1Hu5Gw8fQ5Y6GdUqs0onMEltnDIItMQKGvEvR3mRBk2kLCmaNhi6RupsWBS9d6aS47hlnOzxr/sz4vZhXtCqrlWnYkgTWCHbvzcfJ3OMcvrRfllL/6le/UmctiXzdK19lYlA4J5RvuqqNsD9CcJ4mg1j9lS6kLzhlX/GMs1C5eQnB2Q39gjFqObSEkf3f1gTqbrGAcwmc21cgf2qc6iM2gnHpnKvRQnBuLn0ThSnno2zJbThcrUM7+7Bx6a+oi1j2XwIv05J+aU+mvgjHNfteANr80K3+C0Fcll9HwMt2Y54ag+Jlt6Oj1YT6bSuUbuQZIPnJqgUpk3VKX5iXaeB8ykVODZURQJGvs7FqookmmmjyucgJ0HJiuvac1eRkSNOOMjh+S0Aek4mqq3NQcW0O/ATYCnH8XHFNLjwEVp9A7TXisgPu6iz6ZcB5dQqsN6bD9acF8CWsQcWCdXA/uRmOV3bC+dJnNLY3oXzZu/ClrYX9Lw/B+qtsWAm/5cyvnMBdyTyqmG71tTOZf+B7sAzl1wbz7Hb8bh3DuDk0GpsC4KxcSN84HXpJ/Y5HoUs5lwZ5LDzTxciOo8FLQ5vwpCC06E10VBZAt/A6WKZF0zAmONM4thGgiudehc5KeY/zagJZDDw08i2EXF3KYDQdfBkdtXqULLkFhdkj+F32Hdei6tPVKM24mOAdxbwEnOPU/mVrQk8YZ/5Mvce50fkJdmeMgiEhDp7E3gwThbJpNOoXX4P26gI0f7oEZYQH+/T+qtwCZzILaiVkGVLOQ33B8R8OFv5aR3nlnszWXn/99eqk/m+LBEFP3ngQfKuESBDFDls2E5wvh1lAjDqyS71PF6CKgT7zErToN5CNdsOY8xO4phLEpsURqgfDKKD0zP1C3rC9nALjxCi4CWfGqbEokhnn9lq4P1oG/eRI6KafD9+GPFaqDzUF61A680pYEmQvbD+YmadzyhkoSz4L9YWvs0Ae1OnehHHN31GSciFsk3qgeGIE7B/KHmc3vI/9L1zxZ7BN9WFZmcYMgjnLbGK+3nfm4WSCc6jIb+Itt9yi2sSyZcvUta8bnI8mAs7O5bcSTuNgmz4QNt67h/3PmxCB0qRhBOel6DrkQ8H862GbQlhmHdsJs9bJfWBb/HO1VNu+dRV2TxgMp8z+E2BLZo9Bs78IrbqNMKedB8NE6v+ZeHS2mNHs3ALdop9DnyDwSwBPGqAGx8omRcC3cSb1VYEG5y7YXpwKY9oPYJkcBVN8JIqW3IH2VhvqPllJ3RCa2U8d0wODHHYZeGF5zEtlqbY9cGMnOPepgfNxiDROGY2REwKDDfVkN1hNNNFEk++iaOCsycmURoKz9be58I9OV+BaQSj2ywwynXyv7r7mvS7wv2ZMloJmx+hkWG5Ig33iKlS9tBOH9rtx2FSLjpIKHDrgRstndjR8akHbLjs6DnrRTr9D9Kt9txienJcJ67MJ0Cnwj80kJGej/Jos1I4RGM8mpNMJVF8dKIv7uu4y0c84Nhm+7M9nnMPBOSDf7nO163cQZGecAzuNcuc0Mb4DRq81MQLG5PPQWLgBHRWF0D9wTWDprPhPHwBDYgwK516NrqqD8NFoNk6OgZeGsz0xmlA7BM0Fr+FwvRn6FbfT+O5NKL4cDfqNCqpc7z6AwhnDmEcvNTvlJvC6p/ZQoF6392mgw4fq4g0wrf4T84mDeXJf6KcNgGnRDQTnQjR98jB0SWfBKq8vEkNdlg8nEZx5D4bk8wlmxw/Ooa9dk9nmG2+8UUGSOHlF0LdFpF1+YcZSQFrurfv7IYJzycyRMBGM7ALP3XVnmxoNffrFaNa/TXDeA2PWj+GYSoClvzjzlGg41t7LBMtRsX899DlXUp8EKuq7dMmdTNiJ8o8WEtjYNkRPyReiilCHDhdqty2FLeN/YBHIThgEg8xy5lyGorxRcK1LZ7var15nVbn3WVgW3YSd44fB+O4CthE/HI/9FdaJPeFMjCLAE7zZ5kTfpikE543yHueTB87BQQiRdevWoVevXqo9XHrppWo7UzDMyZSuGgMcAs5T5L4Hsg7i1CFe7qmRKJl+Nio2L1NLtUvnjoJ9Uh84ZGXA9AhYCLqmRb9CV70O1dbPUDjv56z7wdBRZ/rZV6K94jO0GtbBkPF9uFi/uoSBsL+axDp3oMX2EcwPXE0QjyCwR6EscSD0GZcgP2s0TM9PI1xvI0A72L/egP2xP+PgpKHYv/A36Gg2okYGxKYMYv8PtC/RmY3/zez7piW3EZwdgRvTwPnUiLzTM3jS68lurJpoookm3zUJPldlmZ+2VFuTkyWNO/Sw/JqgOioNlWOzUE7nuzoT5XQVhNoKQnI5nZdg6+e1KoazXzkdxr8/hNoNNLLdrWgiEFe+sAO2tKdg+vuDsP5+Liy3zoSZQG6/Yw7s/7sAtsmrUPnIe6jfZgV8HWjb64Qj/TnYb86Ba3Qa82Xao2U5dybzkvyzUDUmk2XqLsfYwDXTqBnwZT0XAs5d0lnC7upbDs7bVxGcz6aRS0AScJaZRgXOkQTn89FY9A4Bpxhl88fCOrUPDeIBsBBiLTTgS2mIg+BcVfo+CnNHKKCyTOmLYhr2zbLEu9kM8/I7YON1UzyBeuH1aHZ8ylwrYXszA6VTh8JJ2LYkxEI/JYqQPAhFOSPhfX8huYiGdpsD/q1LUTbrChycEA3jgzehvUqHxk+WopTgbGFZxTiXcjumEbAIFrqU81B7nOAcnJgJAqecmjx48GCMGTNGQdLll1+u3g3/bZAg7B15B7ucCxQGzsUKnAWIpd7iVL3ZWO/mtAvRpmacDypwdsqspQxYTBtMncfANPeK7ndjN6pXTtlfGIeiaedCn3Ipal+dDO/SmwnNkYQ3wtbU/tTB91H+wgQ0vDoBrpyLUBA/BCUP3oaa/FfRUb4PnnfnoiB3DIrm3ISKHU+oGeauOh30by2FcfsrLKwXtsfuYXuKUbBsEYBnm7MRDk1T+sF3ksE52B5qa2tx11134aKLLsLw4cOVW7hwoWozJ1s6a4ywL78N5skBXUk9OHn/DvaVwqTzFDij1Qbj7MvhIJzKIId1egyBl/Wf+TN10j063Owve2F/Mwv5KT9CScr58L81Db7XEqBn33YmRsCeEAkd9ex+bgJqtj0G9+o7YJjSByVp58L9VjbaXZ+h/NNVyKeudmdfDcfG+ehoNBGgvfB++gTyX8hER0MZarbKQWTDjgy4BMCZeiPUK3Cu08D5lIrdbsdrr72mPoeOBGmiiSaaaPL1iYymW61W7RmryUmRhu1lMP0qC56rUuAnqHrp3GMz4KXzjSHIjkmHb2zAOUcnw3BdChy5L6BdX4VD9gb4n/gIhXfNxYGxiYTaJHiZTuXIFNRcmQb/Fcnqu/OqZMJ2EowE7pJfZsGW8xyadtpxeIcHzj8vpn8KbKOZLv/bGdY2NjWQ9+hAGfx0LikTy2a9PAm+jGeBJtnZ3A3O/yLffnAuUeAcC6cA1fSBammtJYGgOuMCNBa+pfY46+dfo2ahrLJsVPYyEqIN6d9HY/7zTKUaLc5tsD17L0rTfojihLNQ9X4Omg+shu0Bxpsihv8gGuQDCAO3oLloLZoOrIGZaRom9EPJzBFwbpzJtF6AYc3/YWfSCOiW3oW6YoE1P2FrL8wvJqJoxd/RVlVGcF6iZt3MTNNKoHIkClQQshJioCMQ1BYdHziLHAFNOjk5edeuXWqmWU47fuedd9RWwW+DhINzR2f7EXCW1nnIsgnFuSNhlKW/iQNgSRxIaCLkTI6CPfV8HC5dj1ZfIXRZP1N7kyWMcmwThikCwz+C740stJUfIJDZ1XJr3bJ7sHfKBSgdHwUbgc0sS6llZnhKJEonxKBw4mAU5IyF493Fatl+R5MFzd59BOVyBWTGtVOxPXUMylb+E426jUCbF52Hqtnf7HCs/gtK4vvBTIC3JsjeXZaV0GggSHo3zuNNnTxwDtZjTU0NPvnkE2zdulUBs7yuUU7TluX9J/s3sqPGBOvy22GcLCdTE0LZvkVf1oQ4HJx2Pso/fkQNMOjnXAVrfCT1OQgm6spCnZVNGYSilIvgfXYi2hxb2cjdaNK/A8Pqv2HntB9hb/y5ME0dqpbpS9+x0pXE98fe8Wdj34yfwLTmb2gyblDL6VuqdOhsc6iVJY7XM9QWiqKH7kD1gdfQ1eLA4WYPujoqUbflYeimDGaa/emkHJLuAJjiI2B8+PbPwfkEq00D5+MUWT4oDVbkZDdWTTTRRJPvoihjq3v2RRug1OTrlCBwCjgbBZyvTIaPoOoRSB0T+O8VaB4jEJsKJ8FXf1MafCveRYezFdUbD0L3jwehH5UI58gZKrzz6nTGTYd3FKF5VDo8o9PgJHA7eF0OB/Pyu+eKFJRdOQ2ld8yG/f6VsN2QBePoGTDeuwz++evhmrEWul/nwkxId0l6Y8VlMA2WieUzXz4d3oznQvY4n34zznXbV6IkieBMKHEQpgSoZB+seWo0DEkXoImA1F6xH/q51wT2UibKq4hoEBNaddPOgm7WGPg3LkB7VRGByIq6g+tQ9shfsTftJypdhzLOCTzTB8GcQOgm+BiSzsWB1B/hYM4VsD3+TzSb3ofAd2d7FdBqRe3utShc/HvszhkDy4sz0OreQ0hwoN6xC4dbKtC0ZRFKpg2DSZVXDp2Kg5Plt07tB92M/wycg8+60Ofd448/jqKiopBQ33wJvQ/VVuX4d3mmy2cEZpxlNt8ggxgJBGfqwkqILpsyELrUS9BW8hZaPPtQlPZTGGV5sICqrAYg/JgTqLv4GMIVgWzezfBuXo3ORhs6m8wo37wM+vk3I3/yMOgJeZYpMSibEIHSlB/C9vw0NFFnsvS+sXQDwe0eHMi9Fo6X09Di2slCuVBfvAGFy/+KPdnXw/FiCtW8DZ3ebXA8/BvoCc6iUymHTf4T6PWTB8D99oKTDs6h7UEOzczKygoJcfJZRMDZvOwOGCbJgAHvPyGa/+NgnDqA4HwuKj+WpdoVKMxjH5nQF8aEwTBSVw7Wv2NKP8aLpR76Q88+5H5nIQ5XGYAWN6p3rkXZ4jsJuefCRp06Gd4UH4uSyUNRtujX9H8a7JBqS4T77TnIn3szTE9M4KWPgDYb29GHMDw1CTtzbkTZmvFoIZCjxYSKt7JROnmQAvsAOMcFwHliBAyLQ2acT7DaNHA+ThFjrq2t7chI2slusJpoookm3yUJPlNlgDK4LUYTTb4uCYJz/Y4yGH6ZDdeVKfAQdl2j0+Ek/LpHCwSnwT4mhX4zoL8mGRVPbALK2+F6chOKf54O6+UJ8BGEK65MQzmdALOKc3UaHGPT1BJsgWf5b7ta0hWgJkyPToX5ZwmwXzwJxp9MhjP9eRwqrEZXWT06DI2oW38AJbfkwHZVskrTd1W6cm6Wr2zkNHhkxvk03uNcu20liqafrQDFNpUgKpCUGABnPQ30xsI3CM4HUTLvRsJTJAE1AsZpA1CWOFiBsFn2uiacjbIHf42qHSuBJis6Gq3wbV2B0rxRMI6LhG0iIXz6EIL2UBgnxqFkwiCUPPALVO95nka6A501xXBtnIeiR+9F1d7nFCR3Nhrg27wU++f8Antyfw7fuw+qV+JIXTd9/ABKpw4iLNAw74ZAOyHQQigvnX7BcS/VPpqIjSnvQpZXO33rpSsUnLcQnK9A2STWE8HYPGWQ+l86aRCKU3+C1pKNaG9woujB3+PgBILzxL5wTI4iaA+kGwzT1MHQC2RP7E/IOh+Gh3+Pqn1rCU2EKf9BODYuQH7maBycdA7MK+5CQ9Eb6CIYt7nlQKnpKEz/MUoZt2xiP5QQBktmXoVygllX5QF0Npeh8rOnUPDQn3Bg/m9hfORP0Cf/QK1UsMnJ3JPl0KtYOsL7pIFwbljIm2oLv9uTJvK6suzs7PDLJ1UEnE3L7qS+BrBtR8MijvVhmDwQRexvVR8vZmNtQOnKe1A8LgZl8axbQrVtcj/WE/snQdrM/mxifRclnIfihbej8pM17G9mtNfoUPnBEpTMuRb74s9BUfZYlH+4GIfZD9FkQjXDlSz4NQoThlLX/aCfwD6bcTkML2dSn7vVgIcMkOlX/B0HZ90Ix5p/oHTW1WrG2cI2YpnSn+1lgMrfMD6CQH4rwdkZuLETfFRq4Hyc4vF4sGHDBvU5fCRIE0000USTE5PgM1Wn02Hv3r1hvppocmJyBJy3l6HsF1lwEoDdVxFqCaoOgV0BXH6XJdS6q6bBMX8dUMPf/rVbcPC6GbCMnE6QTYXnylTGk7ipcNE5ec0+JpVpBD57eM3NMLYxknYK/JcnK3/rXYtgmbAClsxncdhSi5otpdh992zolrxBaOuCe/4bsA5PRAXLpaD8ikB5dJcnwpO+9jQH59UomnYOjd1+yug1EZzlACnzFDnJ+jw0Fb+NwxUGAuxvUTA+Tu2RNcoyTIK2a0qMmg2U5b+l8f1QmHgWoecuNJW+B9nHfLi6CPZXslCQPBwF8QOQT0jLTx8J91uz0FlXrE7qrdi7DgXzf45SQkHZhBgcnPo9lK36p3pdEVCu9sQ6XkrDnrRRyF/6F1TveBrW5b+HfnJ3WRLkpOWBsE6RQ8RYjmnno0YD54B0he5xJjhnj+wG54HU72ACFiFnYjRMhOiqd+eR1mpxqLwA9heTUDj9hygbFwXjpH4wTiYQTe5PEIpVM9a2CbGwjItAwfTzoX/sXrRYtjGHOjRZdqBul6zQsACtTngJY8VZI1BC3eviRT/9YCIAm2TVAXVdQqgryLsW7u3Po7OjBR2NNpifvB97xrEdEZBlIMTKOPZJhEbCtoVlKY4f3A3OJ2/GOVz+K+BcTXBe+jvW2yC1dN7CfmYmEBsJ0sXxA+F/Ll6dA9BRVwTPumwcTB2B/Pihyl/qSsDVSL0apZ9MYh+d0AfF/F66/A+o0wdWeLT48+HasgZNjp3qe6N5E3SE4YLJ30fpxIEolf3SiWwvsmR+Qn8UThzCNnQVbG8/iMONXqrAi/L35yN/yrkK3E2qXQk4S5+UwZmBKBsfSXCWGWcNnE+pyPvNPv1UDpQ42o+WJppoookmJyrybJXXr8jWmODhKJpo8nVI8Fe7brseupszYL98hoJn+5UpsBGEHYRd18hUGC+fhtIJy9FuaUTlG/tQeA3DDJ8Ol/jTOa5IhkVmkAnDZv6XuMpP0hKQviIVvpHyPZlhZ8A1Igm6X2ai+TMr2hvJaeWt6uXLlodewY7v/w17/5iDNnsDPC/uRMllkwndybCNkvKkqDRLRkyFK+2Z03qPc+0nj6Ig8Vwa1zSOJwfA2SDLNydH0nAehoqdT6OLQFW+fS2KF/wWexPOQdEkASBCzRQxzgm8U4cwzhBCWT+UjI9BwYyLYX8pCS3uvayeKtSVbkTZyrtgXf1XNJV9SB140Wx6B9Yn7sWBhB+gQNKTJaaTYmGfEInicXHYnzoctlemoclG26+9FvUl76N09T3Yl3A+iifKTLcY5jEoIzzrxUgXqKDxXpJ4nnoV0leV0xacTVtQmHkF9Apgpf4Gwyxwyrq3TohAScJ5sDybiDbnZ+pU65ri92B65C8omno+dSpLbmXWty901LV+0lDY4mNhnhiBIoJRUerP4Fo/n9EKgRYnqvLfgH7JH6jXYdARsgXW9ZPYPpinUWawCYNlE+JQQAjel3UNHB8+hsOtFehqcsD+XAIKx7NshDWDCs/PhHaTtE0CYTHhzf3WfN5b8xdu9WTKfwecjShb+nsUTxii7lsGHAyTB1Fn7J8y65/4QxjXjEOzbTMfbH7UGbZA9/j9KJz2fRjvj1ArBlSf6IZnM+HbTIDWj4tCYdL/wPrKDLS596tl9G3eXXC8koaipEupT8I1daWfInUvqzhkBrs/dc2490chf+r/oHD1eDT7SiCHxdXsfhpF074Hy8RINdhhkjJSx0aZ7eZnPcuie0gD51Muwb13YthpS7U10UQTTU6ONDQ0qANRtGfst1u+TH9f5ney5F/AecR0OEcSUAmntivlfzKchFzDtWmoeacQrXvdKLh9JsyXJcDDcPaRM2Cjc16eDBedewQ/0zkI4A75zGvOkeIYViBagTMhe3giiplO634XvOv34mD8w2jLd6PhgAu65MfhXrsJ8LfDnvE89JdNhfUqxpFDw5iGgH3pZd8RcE44V80sClAJ2Mg7egVKS2QZ74O3oHLfK0CrC+3VJXC+nacOmSoY1x8GMeJpmOtpJMsyUbOcwDw5Grr4gWp2SpczGv4Nc9Dh3x84JbvFRiM9H/bX81CU8TOUTOiPsnhJQ/KUmc3+LMcggsJAAkMMPhvXD8Wr7sOhGq8qa7vlXVgyfkDQi1JgJTBQJvt0Zcm2LGMlFAoA1uZr4KzkC+C8GQUEZ91E1tUkcaxn6qls8hDqkfU/IRpF9/dDSfZouDcuREetjTrzomLb4yib/wsUEKhEJ/pJMusZB6vMMBLodFOoo4lxBK6hMM+/HuYV/4v8GRfj4P2yfJiwJzPWAusMY44foJbqFzOf0uSL4XqeoO6S/esVqDnwOqxLfocSgrqRurUwfR0BXT9ZZlHZRiYNVgMjRRMGEZzlcLDTHJyrCM6sj6IgOE+KZT0MhkkGjVgPevav/HGDUZz+UzheyyI7F4GVierda2F46A4cmHQOisf3V31K+qkauKDurNSFaXwMCscNQFnuNfA+8U91fkH+eIIu+7R9oswwywx/lAJtE8MXsx/mTxgK06LbULX7ebYLNw75CmFfPxvFmSPZ7wjW8TJAMigAz8zHoGbHB0En4PyggLMrcGMn+KjUwPk4RY6ELy4uVp+1pdqaaKKJJl+vBJ+pcgjKnj17wnw1+aZJ8LyP0IPcQgeWQ/1Dr4Ue/hbqFxyYDpdgmNDP4e64pDOQdu02HUpvTIXtsmkKfAWCBYqdlyfBSEg1JjyKTlM9nFkvQDd8KmFZ/JNho7/1skRemwLdyAQU0+nGzoD+hjQUjJ6OwisSUDpiKgyMY7piuoJmAWrj8AQU3ZaL1t0O+Jd/gAOXjoN+wiNo2OdCZyXrwtEE78oPoB8zA/bhzOPKZLogzHeDc+ozXwTno9TTt1nqCM5Fk8+jcT0gMKs3OU4dDqVmqyYPUjN8hUmXwrxmIpotWyFLsJvt22F6Ziryp/wPDeNodbiQvDpIoFmdwEzYMU8cBMu90dDHnwXd/F+jfMsS+D9+GMXzf4vCyeeomUhDvBjZAgYDFPQKJOnimd+4WBRO/x84XkhAs0NmrVvRaN0J25P/B5uc3DtRlvsGyiizWjIzZpgi6cUx7wtRe+DNsLs8fpE2fVqCs3kLDqaPgk4AiaBjiJdZZNadwPMkmQWW77FqVrEg/mwUzLsdvs9eZEQPIa4ErrfmY3/aVSi4n+1jXAz1K/uVBxJuBxLi+ilw0o2LUpBlILCVTZKDvPoRzAlthF3DhP4ovi8Ge+MvgHHV39BU+hbkHdBNts9geCqR+r6YbYlxJgxQgCewLeUS4DOwnKqtsIwyI+p6U2acT++l2u1VZhgX3Un4ZX2wLqQ+pH0H9MT+QqAuk9d8EXYPTDgLxXN+gfLNq9UZA+21Jrg+WIaDmaOw//5IFFCvxVOGsC8SuicQjMf3Izz3g55xi8TJIWKsd8s49tlxMigSqw710o+PxoH72B+zroL7/UWEXzPQaGJfXo3i2b9guuegZDz1FD9YDYAF9WacKGWWNhWH0vsiUfrAndqM86kWp9OJN954Q30O/tBrookmmmjy9Ypsi5HnrSbfTAkCsrwOJQjBR4Ph4PWg+3dgHfou2/D8wsOFgrqU42jxwkWwU36167aXQn9dCiwEZ/MVM2AeOR2WkUkwj0jEgVGJ8L2+Cw07bDj4ywxYfpYIu8AvwxRemYADBGDjgpfR9H4RGvNdaC7xo6W0HI2FXjRtNqD8kfeQ/7eFKB41DfbLpzPtJJQSpA/emoPGfQTnRz9G0YgpKCR0F/wmG/r7lqP47oXIvzIRpuGMMyKJZZH91EnqNVQC60U/nQRH8tM0Fk9jcN66GoWTzlUQJEa5zPaJwWsUA53Gr4UGtYkwVHD/QBxIHQ732/PQWW9kPdShdv96FM8lCE8cilLCrsCRlUBlEcNb0qAhLSf7ltAgLxx/NooYrmS8LPvsp4xzy0RxMWoPpWkijWxCwv74c1C8+A9o1H3APKrRWatTS3N3p43F/onnwsj0ZOZRQN84UQ4/EqgSyCK8Mw3dpAtRk6+Bs5IvzDhvRX7aaKULWeqrnyh7yqlzQo6O9VgcPwwl8UNZh6zfCYTn+/phR/yPULxqHBq79zA3O7aj7NH7cWDyBdARiEwEaBP1YZgwWMGxSm+CgDJBavwQGOlM1Knh/6JRct9gFMy8Gf4da9VrjjoJYK53FmB/8gjsu3cAiu+X8ggQDgjAs6TLsuknDuY1mREfoFwhy+988ztwOBjB2bToDrVtQepVlraL3soUNFOH4wepupcBDPOEWAJqFPZPOBdFi/+Met27bMg+HHYfgOmJBOyfcjGK7htIEGZcmbEeH6uckWkble4GqzwEpo0TBaT7EbgHYu+US2B4ero6/E0OnWjQvY/SZX/BrgnnUw+B9FQZGF6eH6UC0BNl/7oMpshn9n3qvvSBP6CjXjtV+5RKc3MzvF7vkR9xTTTRRBNNvl4JzjyGgpgm31wRPQUl+NsYqr/Q38pQaA6V8DhHk/Df3VBw/rJ4oXK4G5xrt5VCd00KrD9JgOGKJOivIOBePg2mn0xB0e256DDVwr1kIwovn6JmpR2XTVezvubJj6K5mIBsq0PNpmKUv7Id3mc2wff0JvjXbkX1O4WoL6lEh60J3lmvoHjEVJiYrv5nUxUkN+11wv34x8i/fCosI6Yzv6mw/WgSTD+eDMPwBJgJzma5Tmi2DZ8eCEP4LvxJfDc4d34OzqeZKHCOPzdgnMeLYS3GeVy3gR4wpg002sUQLr4vDgXjh0G34HZU73pVLeVtryuDc+NDyM++nrA1FJZ7xSiXw8IGo2jSYJSoGUMC1DhJi0AtM82SNv2NNLit4yNhuK8v0yV8z7kZFR8vY31b0dXiRdWu51C68JcoGEe4u09O9x2sXpujmzToiIEuhr8Y6HqCuJ5QXhqvgfMRCQVnYwCci8dJ3Qk4C5zKTLCAGfVFHRVPZN0qUJXDoFifBOOC/4vFwZThcK2fGXiHc5sXlbtfg+6h36GIbUFPfRvGE76oPwFo3QRZpcB0xhHC7x2IQgJbfvpVcLy+AO2+MnT+f3tvAqZFdeZ9z3V93/t+M5OoyCKIGvcliZMrMZlJ8k5mMvNmZpL3nZkYcQMFuhuaRYwIKuICiAIioCKLgAEFldUVFWTfuul93/eFbqBZuul9X/7f/T/Vpy3Kp7FpG3i6vX96U1XnnDrn1DlVT59/3aeqao7gjPQr3/IcOfYqEcxXGMHM/Vgf3gzJsELRiOh24cypxSL0EkWAO8K58axDvZBcMuG88I9I5g2FcRS29tp0hHO2Ofedfsqhh59tyPYJugJxj/8Q+RufQV0R++s0KmO/QOrCEYh75BbpD2nTcWxbima2r7T7ON7w4DUu+wdfjqhHb0bykkCcSfhc9j+KuuIo5G6YjpjHfyT5y++BiHS7L/fLHceXj11hbsDY+p0tnO9Bswrni0tTU5N59q6zP/6KoihK97G/qQUFBebN2op/ws+Fbd++3dxMZp/xMSa+OLO0tLRDyFpRS+wMAr7wjUKAHmJOx1+yZAn27NmDwsLCs9L7wsYdPXoUxcXFpuzExMSOOnQFO3gvP5iG5N88icI7RAyLMM4QcZv9k8mIv2UMCqetQVN+JdICFiH7joko/LvJyL9zMlLvnISypbvM/qfSCpGy7GPE/fkNRI6cg8hRcxHzyKuIf2U9jhxOMi/+Kt0YhjgRznl/J3n/6FEk/v451IcfwdE3dyPqZ5OQI+VRHBdLfN6dIqxvH4fkW4ORfMcEZP70MSn3ceMRz/rp40j84QQUTF1ztse5j0HhnDjhWhlMU1A53kgrmh1h6ni80iaIYJ5AcXQlUmVwHv/YbchcOQFVGXs4rxQ1R+JQsPYJJDz2QyQE0rM8VAbPQ0RUcYDOb/s6g3vuny75pU4cbJ5XjQ+8AsnTKMxeRNPJNMnrNMoTtiN72Vjp55tFWP018oL/JwqMgB9ghHjaBNa1XUCMG2REFoVzupSVqsL5K84SzgcR99SvkDyGIref6YNMei1FbOUEXybtyCnW/cx5kEEhNa7dyytxmUF/KwL6SiS/8Duc2PcWWquL0Fp1BMe/XIzEGb9BlAjkVBF4/GxR8iOyLoIuabTs8+gtyH3nMVQVhqGt+SQqUncj/c1gREt4sgiqbD4HPY6Cj0LZEccUgRRkrAMFXTqnJI+jh1W2JT5hzAAc+eS7IZyzF/yxXeiyz9geTv+wPRiWFjxQ2uwK6TsRqHJ9Jo672rnGpL/ixwxC3PO/xdHtr6K1NAUt5Vk4sfctJM3+PSLHDjX5plP8TqAn/3KkjflrRI/tb2aQnDywTvr4CFrOpOHoF/OR9Oz/Qvwo6Zeg75vy2Ee50nc8d9LGy7XO3wWGB3/PXIuZwQPkWqQnux9SAr6H1JdVOF90+Af700+dH0IVzoqiKBeGrKwsJCRwWpbij4SHh+NHP/oRNm/ebLYpil988UXk5uZ6Ujp8/PHH+OCDD8zfTd58bmxsxMKFC7Fx40acOnXKCOqusn79+o7PQlKwuz3elk7/NreP3s8cSkPcPz+BnDseRe6PHzOiOe4nk3D4/05H5cF0NJdUI2bsAsT+cBxyRDTn3PkYMm6fgPRRrwJljWgsrUVjxmk059ahQawxvxZNhQ1ozi5D6+k6NJ+oFeG0BCk/noRc2T/rh4+Yad91YYVGOMf8dJLjbb7zceTeMQmJ/yBpnnoHhQu3ykDvDST9QuJ+LIJdxHOuCPek278Dwnn/CiSIcE7ngNx499qn8BpvkjOFM4vPWY7nYPgqGbAPkYG6hI35HuLHDkTUU79A3qZZ0j+Z0s98G/NWpLw2ApFjJM/R/YwHOmfs38o+jkgyg/6xV4gQuwKRj4iwWjMZtfmh0rhn0Hg0ETnvTUf01J8hUcRY5liKZUfEZ3OaKT1l9EjSs2XqZYUzBcDlRoAZ4Ry31XuYXaZvC+dftgvnK82zzhQ3acGDjQDL5Iukgi83Xt204EFIlX5O4SyAcfQeD0aGCLHUgCsQP+5apCy8HxXx8lvQehJ1x6OQs3EaQifdgriA7yNOBFl4EF8k9SdUxn0oCvAkmkpikfPuFMRN+TvEBQ1EwtjBkv9VRghn0+NMLzinkEvZWZxd0C7ejXBm/5o4K5wHovA7IZzzRDj/CUlBnBLNPqNgpohmWw00Hn32TaZcX7wBkSZtlCzCOVXi+GhFtoQnyTUWNeE6JM39A8oj1kmmx9B4MhmFH81B+OSfSX8NQI4I28SHv4fYKXei+NNZaD7Nl4ydRGnoRiTM+U/EjB+C1EDmd4XpEwplnh9Z9IRLn6TIecLHMNg3OeZGCMMHmn7jeZYy+vsinIehuUKF80WFf+A5YHBPEVMURVF6Dv6uUlg1NDTob6yfEhcXh3vvvRfjx4834pUe5Tlz5hhPdElJiRHFkydPxq5du1BRUYHAwEDcc8895mYIPcwhISH413/9V0ybNs1sx8bGGi80b0xPmTLFeKL5VvWCggIsWLAAjz/+ONatW2c808OHD8eIESOQkZFh8q+srDR/l5966inMmDHDvMCT582HH37YUY8tW7Y4U7nbT6eyEArnqUj/0SPI+rvHkCrLhPvnoio0D63FInyLqlATVYiYkfMRdmcwEn/8iIjXcTh813ic3honouwoDj++WITeUsRPXYWYqSsR+8gyxExZhtq0Epz4LBahv5qEOBHeCXdK3rcFI+p301AdUYCi5TsQ/sOxSPnhRMT/cDyi/uHPKFmxSwYYrWg60YAWEeFHZm6S/SYi684/G2GfeEswCqb8pW+/HGz/ShFD1yFtLAfnFFDOQN1MD7WeLiNouJQBs4ioHBEvuSJ46GXiy6JixgxA6qzfojRE2qqxGK31hTix8zXEP/O/JG4o0oKYXvII+j4SAy5DdPBQpMz7b5RHbaZCQGtFEY7vWIb46b+WeL5Q6HIZoFNks8zBIhKGyLbjcaNYTudzmaxfe32M941et6ArkTyewtm5wdMd+pZwbnEJ50OIeULaN1DaauyVSB07QJZ8EdtQY+mynTWmHzJM3ECxwUgZKyJJBHMal2OHiHgWQSQCKmHU9xE1/kbkrJ2ChuJo04flKduQtuABxEz/DxRvX4y22kIz3f7IXmnLp/8R8Q9fgTTp+ywRdMw/IfgasWtlfZApN9OUOwjJwVc75Y7tb+qUKuvpplxuX4n4gP4o+Gh+3xfOZXnIeuVuJMjxOn3AN1T3N9cp2yNtzFVO20hYprRfFj3TY9in7F8R13ymWdosOXAI4kZfhYhxNyBtZTBqCkIl81OoytqP1NfHIObRnyNn6XjU5Eo4ylCZfwjpy4IRO+Z6xI/qb260sN15cyVZrkP2EfNn2TxHeA6Z+vCcoaeZ/cbfA9OHA5A08vtImTtM36p9seEfY/vMlgpnRVGUCwPF2OnTp/U31k+Jjo7GmjVrsGjRIsybN8/MxuI6xezrr7+OTz75BPn5+Xj22WcRGhpqRC9FAIU1xWxeXp4ZAO7duxdffPEFPv/8c7M+f/58k1dERARycnLw5ZdfYv/+/di3b58R6pwOvmrVKrz33nsm3dKlS3Hw4EEjmjmoDAsLwyuvvIJjx45h1qxZ2LBhg5m98Nhjj5mp4ZbS0DTE/+MUZN7xiIhnEbg/fRSn1x4S0XsSyQELkDZqAepiinDmUCYyX3gPhTPWo/ClTTJgex1pj61Ec04Z4iYtRvQNo5B0U6CZ4n3gxhFIn7MRTQVVSJr8pgzW3sDRWZtwRPY98sy7yF70IWryTplno3NmvIvCWeuR/fy7KFi7By0Flch97SOE3PMMijaHoSGlFPHDZiNRhDU/TxVz21jkUTj34ZeDle9bgTgKGA6QRYhmiEBOl0FyhgyCjVFQt1uqxKeMo7dwkPFYUmTR65Qmojg64PsIn3gL0mTQXZm2x3iQa4/HI3f9M4ib+nNEjxqEuKABSBGBfWzHEjMVFHUncCr8QyTNvw/RY65B0qjLHZHEgbnxhg4SAUBhxW3ZdxzraI11Y7wIa4qFcSK8OJ1YhfNXuIVzlg/hLOIrLUiEUBBFc3/zTLIRPfQuUxRJX2QGUZD1k3ARvmMo4vqLsB2AeNknatRgJEz/Jxz77HW0lmaitaoQ9SezgaojKIv9GAmLRiBs7I0i3OS8oegbcxlyOEU7kFODByJpzBCzNIJdyk6Rvkwe2y6cpR5OXaR/pT5GOEtd6CUt+GiBHFvTWYd6Ibl0wvmPiB/NRyMGmXZKN+3P5SDTLoljh0p7sQ2l/4KuEONNp0FIkvAU6T/Td7JvypirkRQ4ANEPX47YJ3+Gwo9eQvOpZPNZqfKCOLTWnEJjSQZyN7+AWF6rI/ub2QW8DimcU+Q8YTk8LzJEoGeKsR4si2KdIp19lmiENfvJ6TcjnKVMFc6XAD6/xTvtRAd0iqIoPYv9XaXIiYyM9MQq/gL7ZvXq1eZZ4yeffBJvvfUWli1bZoTryy+/bGZnEU7lfuedd8zXKDhVm55pepPplaYnOSYmxohiCueVK1di586dZ5VDMU0BTDF83333GRG9adMmM1WbN1ZYB4pylkE4U4HCnfWjuKZoJvRsU8BbToemIv7XjyPrtgnIEPGc8MvHUb8zDce/jMbu2x7EvtseQtHGA0Atv1RTjaYj1TLAq8WZbSk4/E+TUROag5ItEYj92STJYyLSbhmHhP/zPJoyzqDkw2gc+NWfUfpRHJpLatAk+zeLmG48Xo2WBhEQZfWSZyUaj4jlV6JNxHBrYTkO/vFpfHL1fyH+iZVAYT0yH1mG6FuCkHLnJETeNgY5k1f16anaFM6xY69FShAFFb17HJzTc+QIl4wxFFMUNVeZgTothV4mPtNqxNSVRojx7b9xMlgOD7gGCVN/gSPvT0PjURm3NZehLHknkldORtbm2Wg4miBhZ1CVsgPZy4MQ8+iPERkgA+6AfsgP+BszEE8eSwHFF0fRq0URx/qwHBnQSzyFm/HAiSjICKLA42d5+iFFhHPSuOtVOFtcwrkhKwTRU3+FhICB0obSX/ROBl6FrIArxa5AhrRdmogrR0gPdJkIL7FktrsxEVJBPDfkPBERnjBqABKl/zJf+gNOHVqLysStyFz1KCL//ENEj7oMqYHslwHmxXFJQdLPQVcZIZgRKEIv4HJkSnxGoIh21kHqkiLxyezPINaFZVHci1gMZHn9v1vCef7d0r79O9qM7WCXTjsNQTLbR/ouk958aU/2V8KYa6S9RVTLtZFkRPYAp39FhCeNuhIx0l+Js/8Dxw+sQENxGIr3LEfsjN8javR1SBnZT9q6n+wjIjzI6bukIF7zQ82NizQ+z276hnn2N0ahzD5LGsNzi/3Ec4ZCW/r9ocuQPOdeNOvnqC4ufI6Ld9KJPuOsKIrSs9iZPLxJSZGlv7H+CYUphTLhTQ56g4OCgowQ5rPO9AaTt99+24hnTpvmdGkKagpbeoQpsJmP9TqvWLGi43OPhC/9ohebwprTsTnlevfu3UYQW+FMYcFnnm1duA/z5wDz3XffNR5wQo80Rb2llM84/3oKMm4V4Xz7RMTfOQGnlu9AU3454l94WwZva9CQV46T60MQds8sRN/7IuLvnYO0f5+BuDuCkbPwYzRmlCPmTxJ+8xhE3D4WRYu2iiJvRdpDC5Fwa7CknYn4YS8i4d6XEPdfMxAxfgGqk4txbEsIQu99HnHM948zkfTsGiOs8z6QsqYuw6mQDNTFHEf0/3kWCbcHG6943E1ByH2sbwpneyRnKJzHXItkiiZ6IMc44tR6tjIoksxgnV4vGShzGrUIZqZJbfdYZgX0RzYFWeAQI6qSR30PMZJf3HP/guO7pf1qikXnVIgaqEbjqXRkr5+B2Md/gsRRlyN19OVm8J9sRBXL6ud4PinajFfL8XI62/SecRoo1x2Rl0HhQDEnQj5ZBvEJwTegLFaFs8H1jHND5iFETfkl4kXo8gYDBVGKCOeUAGnTABG10nc0rqeJgE2niBVh7IRfbab8Mi5V+jlN+jtFjN7rRAprWY+TfGPG3YqER25DFKcHj7oKmaNp/Y0gTqfXedTVSAoY2p4fyx5oyk8OFIEnYi45YLAJS5Z8nfpxXcqklzyAXlARfaMHIP/D74BwLs1D5st3I25kf2kXaSuKUdMeXA4yNxEyAq4wfZko10CitFOytGWqtBvbK9Wscyl9Ra818zD9x/4aiLiH+yNWrpXEx39qZpwkjuS16OTP9wskB1GM90em9KvJI9CZ0ZHEsoJ4Tgxu7yde9yxT0vCzYoHsJ6dP+ZuSYIQzn3F2hPO3HVqocO4i9fX1HW8NVeGsKIrSs9jfVv0UlX/DqdQUq/ybSPh88y9+8QsUFBQYIcvp1JxCzWeOOeWaQnfx4sXmTelvvPGGEc6c4k3hTDFM4cz1uXPnmueVt27disOHD5t9duzYYTzNv/71r82Na4rr5cuXIzs725TDweTMmTNNGXwJGcP4d5qig6Ke59ATTzxxlnCu2JeK+L+fjJRbxiPt9keQKsuEf30aJzdHifiVBJXAie0JiJewpBuDkHRTMNJvCEbWTeOQeuNYxN/9ApoySpH/2lbsv20Uov40C43Jp3FsQyii7xiLjFvGIf1mEb03cr8xSL52NKJ/8zhqQ/NRtHgbwm8ZheSbxiBRLPLHwcietRENWSLojrWgLrYEKZNWIOKOMVK3CUY4R9wciOzHVvZJ4UxBRSvb9xfEBV1nBtP0ZqWKKE4ee3m7YLlaBIuYDILTZUBNrx89hOkU2RKWKgNoLjNlQJ4poiedJgKX024pcuJGDUTEmFuQ+/oo1EesRfmOxUh8/g84TK/0yCuNoMoMpOeK5Q4VUTzUeDEzAwa0l/eVsRxjFMssh17MYOf7v1mBlxkhkSTiLDr4ZpyK3eY93C7TV4Qzz9RmmBfNG+o5VXvyXSKQrnBukoiYShZhmxDgiNlEClqujxaBLOG0pABH0DI8WSzFxA02liyWKAKZlsAl040U4fXwlUboJUt+FMqpks5a8miW5TaW6RjLpzFfIxTlHEg2wnog0kddYQR7sgi7iJFXIffDheBH7i4Wl0Q4n8pHxrx7Ef/QQCSNYnvyeeUrEC/XZbzpC76s7UozBTtBrot40w9sOwpje9OB7cd2FDHMmyMB7LOrzFvvGZYsojzp4X5IkXMiledDgCPAHSEu+wdQNDs3MZJ4ffFGSeBX/W7S2rzay0viurH+iJdrNeahv0XS7D+gpbzAHFfrtxxbqHDuInxZTVlZmVnv6ncjFUVRlPODz8AmJyd7gxU/gcKXjy1xajSFKT3MFK58Y3ZdXZ3xML/55psdU6WZnp5nvriLLwirrq42Avn48ePmhV8UwYR5UhTTO82XilF0cwo3BTEFND3ILItv46Yo5kCSdeCz00z3/vvvG0804aequM6/0wcOHDDTyu1QqVyEc+wv/oxEEcwpd0wSofsIEkTo7rprHEo+DENdYRn23fscYm4YbbzSKbdNRIoIbH4qKklEcdTfTUDJpsOojTqKXf/8KAoXf4bGzDJE/+fzSLgpEKmSLvmH3I/CfCKSbh6L6H95AnWHC3Bk6ZcIuyMIqYy7bQLSpA7RdwQj5r9nIn3sEsT927OIku1kEc2pjJf9wyXPrD4qnO2RVOx6Swa418mAl17faxyP8RgZRItoTgkUQW28yM50XU4Pda9TaJtpvEGDjdfY8YTR08WB8wATliCD6JiRfBnUtYgLHGrWOTCnZ8t4Em1643Ue3GlZ7vV0EWD0aiXwGUwR6lnGoyYDeRFdMWNvwulofau2Ec5tX3n46jNDET3550gQsUSRmzJ6gBFgjnCmqPIaRbM37DzMCO/uWWIABeBAI/aSpZ4ZIy83Ij9RBGTEyMHI3cKXgzWcdbwXkkshnJtP5SB53jDEjBBBKsedMqof0gL4cr0Bcp4PQdooEbSj5LqhJ99ldtsd3tX1c+/Lvjh3Gt7YMDc7pM9Spb4J0o8xIy5Dygu/R0tZoTmubyvfVDh3Ef7h5Z1wosJZURTlwkDBRJGl+Dd2doB724uvsJ7E16wEd5nu9eY2Z73sQAqif/6oiOVxSLhjIpJvE1EsAjb8hlFInrAYTQWVIoYWIfKm0eb55WQRubEihBNot4lwviUQOa98jLqsKuwZ8QJOfhKJ0oMZIqjHI+GWsebzUcmSb9ztzH884m4OQti/TkVNuCOcQ34YiJRbxyFDBHm6lJss9YgT4R57wxgk3jgWybeOR6II5kTJI0XEc7gI+KxHV/RJ4ezQhvLdbyI6SEStCNH4wGvhTJcdZDyEaRwQ03tlvFidGz1VFDxmqig912afgSKeONV3MOIkr9hRshQznkmTllM8v0rreKmcsr/JTHmyLz1n9Famjm73fI4agDg5lrLILd4D7TJ9Rzi3obVNfiNa6XduQ33GIYROuguRD1yJ2AelvR+8HAkP9kP8cNplSDB2uVl3tp11Ln2Fd2W9O/vGD79C7EqwXhSN8cP7I0nqGi91jnuwP8Lv74fC9bNEDHT9U3rflosvnNvQdDoV8XPvRvgDA6R95LyXdkiTdkp86EokSLukSDslj7gSSWJc2nW77Q3vSprOwruepp9Zpoilsg9HXI3IeyVsxn+hpbTQnJPNbfwt7f7vqArnLsLPY/DEJfxRu9ADAkVRlO8a9rdVf2P9F/eUeve0em+YO9w+v27NHe/d9q4zP36uyhvmLcfXvh3G9O0im8I56q5JIlKDEXfHBMSKQE0UgZpy/RiE/XIymhJP4uiS7Ubgcjp1kojlWBHB8beKIBYhHXFzADJf+Qi1WRXYOmwact7djdID6Yi8Y6wI53GSXtJJ2vjbaSK6RTiH/stUVItwLhLhvP/2AMSLwI7jVO0bAhEly3gR0oncR+rC/SmcWa8ECQu/vq8LZ+D03r8gPOg6EZ1XGq8evUaJ9OCO6o90PoM8iuuDz2mcusspvpxmmypiO3UUjZ4nyU/WE0dS4DrTgJNGOmH0UH2Vlt4qTuUd4kzr9VGG21jHpAB6tOiVZLmyPVoE1kP9EB10A07FfOw9zC7Dc7YvCGdOxG9tk2vXPAvchqqcKITMfgCHH/8NIqf8M+If/yViH/8Voqf+I2L8yab8RuyfzDJi6m8RKRbN9cd/iygJD/vzL5H70etAc633gC8Yl0I415/OQsTCIBwIvguHx/0DIsb/QuynCJl4Fw4+chdCJ/5E7Kd+ZYdpE+5C+PifI2LczxE6/tfYF/ATRMwdhYayQjkjW9DY1shbOt4D7jIqnM8D/jHmH2v7R9qGedfttg3zpvMV7o3zxnvjfO3nxhvnzc8b5yvcxnnTeON8rfsyb1pf4b7MHe9O11n4N8V3Fu6O88Z7w73mjfOu2213uK84X+u+zJvWV3hncTbMV5w3/JviOwv3xrnj3XjL8cZbvHFdKe+bwn3Fd7buNTd22xvn3cdXvDtdZ+HeOG+8O84d7o5z4w13p/fu903h3jTu+HOt+8rXLvkSKT6nqvgn3r5zi1Viha2N86bzlYeNt3G+8vSGudN583aX0RHXHl66LxmRP3sESSKUKVajjXdYhPON4xB+SyCKVu1GZcxRhP7uScTdECAimGKY3uTxSJY0EbcEIXOhCOe8SoS9+DYqRRCXbktGzB3jkHqDCOBbRADfOhEpt0x0vMkijiP+aQpqDufjyBvbcPDmUYi4fQySh83Bkec3IC14KQ7/7FHEMe2tUo4IZ9Yn8o7xks94RF43GpmTHOFsjst1jH2FkzvfRviD1yJl2N8i/b7LkPDg9xH58PcQO4KewL812/RMnsvixeKGiz14hWzTk0lPI/Oi0Vt4hYmLMx5Om+ar+ATGcf/hX8/bt0kew7+HuBGXSz37mfXk+/8Gyfd8D6EP3YzjMZ97D7PL8HztK8K5TYRzi/xHn3NDbQWqixJRUxiLGi6PxDvbR5JQ629WGIc6U894sQTUFsVJeIIJry6IQPnJQjRfxOvwYgvnFjm0hroanM6Mxqn4XTiduB+lyftxOmUvTqbuE9uLUym7xbjc70fGuu3DqVTWdy9OJ+/D6YQdKMsMQ1NDtZyHbWhq47/d7zsVzl2EL0Lh9yv5jVHCP1xuEe3+o26X1rx35t32Tft54ztL683PG89tcq793Xf13ftx6R0I2TbwVV5n6958vXG+9vOVxleYPTb3fraO7v185esO62w/X9vepdt8hVnztqWvvH3l01l559rPV32t2fOyO/t1Fu9dP9+29JpNc654X/tzm+ezN8yu2+P2dfze8rx5+wrzdX276+ZeP1ebuNO46+LezxvurY+vsHOV5U3vK42vdrLr33Q++6qbO95u22Pmi6HsM842XPFvekU/tVfx5P5khNw1EQnXBYmwFZErAjdORDGfX464fjRi75uD5txyZCz8AIdvGIk0EdgJt9LjLAL6hrGI4DPHr3wogwLJ8nQTKsMKkTT2DcTdFIykm8Yh5jYnz8SbOE07GHE/CEDkPz6O2sMFyF/wKT699h6kPvMOGjNOoy6/FA35VShadwAhPxfxfONYpMp+STdTqE9AgtTv0A9GI2PSm31SOLeZ/1pRErIJoU/8FnGTf4bEyb9A9NRfIuLJXyFGlnFT/wFxU2Q55VfntFjaVFr7Ph5zwn95Vnzs1L8/K97Z/+t5+7JY2SdG9o8xy1+bZdyUnyHuz3ch9Mn/wEkZtHe3l/g72FeEM988LX+NjXBu/8uGjovRr2EdfXklGcZbARfz1WCXQDiLtZpu4j/svd4M688bOM5xtbU/ttNdVDh3kaamJuzatavjExfELSB8DRK9g0e3ULHbvvYl7m2bzh3uNW95na17w3yV5ys/r9l494Davb/32Hzl6113L73luMO9Zfsqz5u/3T5XW3rFj3s/b76+tjvbzxvu3Zdm6+Nrf6/Zfdz5+trPnm++9vVuu9vSa96ybNi52tKdztf55V33mq/y3OHefd3xxN2X7v287eEtz9sOdt3Xft66+Nqvs/S+0nblfHafJ+48fPWBr/PZu+5eusvxlme3bR29+7jzPlc8l53lQRjGl0nxBqW7DorSU5QcSsK+n09EzA8CRQiLSL1hAhJvFKEqwjfmhiAcvj0Ihev2o/5INcLunoHoq4ZL3BjE3igC+sZgHL4xEJEj5iP/nf3Im70Z4b+bhr23BiCaIvnmcYgWER530wRZ8nnoYMRfOxqRv5qMmshClH6ZhMQX3kVDYRVOfBKJfb97AklzNqDtaANSH38Lh64fiZQbRICLpV5PoT4ee69/GGmPLDt7qnYfuS7kCjcvj2quOI2ao0moKY5HXXE6ao9mofaY2NF0VB8TO54h299kst/xtJ6xr+XtNSnrWKpYCmqLJX2x1LU4s307HjWSpq6+Bnx1VHd6ir99fUM4w3FdiloxWqVdMzvnMY3ndPt53X5a+4M5mrnNmAlz1c95FXyrs+D2ReJiC+c25+qUtUZZazC3PpraQ8wtPNsWtr38xdgpPOdM5zhHwVrb88xJwxs63OgeKpy7CAdw/E4k3xzKpRUldmBnB4GWztaJezDoHjR64841aPQOKr15dgbr7Kaz/bxl03tn8Zbr3XbjLu9c6bzb3dmP6521u7dN3Pu5+9Eb5y3PjbeO7rTnakvvfm7OVXZn+3nTeeM6q8u52sR7fvVEW3ZWD9Ld8/JcbXKuOp9rPzfeuM7q0t39vPVy4+2DrqwT97VKOkvr3a+zNvFue+vc2X5c9253BuP4tmW+adniPZcU5dtgz6QTB5Ow/2fjESWCNk4EaoII1MQfjEP89cGIvmkswq99GGH/+ynUp55C+YFM7P35eERcO1JE9RhEiHCOEkF88JYA7LnlYRy47iFEXi9CWoR1ND8xdf1YJNwwFlH0PMuSHuTwH4xC6F0TcerjaLQUVANFdWirB2KmLMWu//HvOPS7qWiQ8MLlu7HvmgekPoGIEZEe357X7utGIHXi0r75jLMcSoegcjZ7Ne6/Yjyulm4qK/7G9hXhbH7CjQht4YGZABNmjUFG3viPtVfK+RvWIe6dK8+a09ud//3uaS62cOax8XngZnC+AG9wtRk92tF39rp1N4ofGBdGO+OrHuK2cx62B9K43U1UOHcROzjkZ6k4lZAnMQeo/ERVQUEBampqzKcx+HmNEydOmAuOn8NgHPfhZzry8/PN83uMO3nypEnLfSjE+QkW5sVyOHjkJzbo5a6srDRvmeXLyVheUVFRRxy9Mozjpzu4zXB+roN5sGzmycGorRfz5Q+yjeP0c9aNdWS9GMe62zoznnXm84aMKykpMfmwLNaZcawDy2O57jrn5uaaerHO3IdvJec607Ns3oBgvVgW68U8WA7j2JYsn/mzTFtnbjPclm0/N2LrzLK5r21LW2e2GeNYJuNsnVknxrFerCvrzLrbtqTny7Yl42xbuuvMdmMc68T2Yhz7lnEs29v/rBf7336KhWWzzt62tPWydWa9bP9729LWi3nYetk6s162LW3/s86sF+trzz2GcT9vW9o6cz/u724vd1uyzqwX121bsu62zrYt2ceMs33MPNhOvtqSZdu2ZNneOtv+97Yl41gHbx+zDb1taa8Xpmd59jp297E9L21bcp3txDjWz1e9vP3PPuKxMS97PDzHbNm2XrbO7ra0fWzrbOvFfrHXi62zuy0Zx/POtqXtY/ZFZ3W2ccyPZTLO/vb4akum4X62LdkfPCdYHvN2//a468x6MY77sExeE2yf0NDQDmHO9CqclR6j/VQ6tTcRIT8RATx0JCJFoEbxJWEiUuN+ECzCWLZvCEDo0BFIGPM6Wo/U4eiH4dj39xNx8JqHRSSPkXRjEX/dGMT+INB4raN/ECT7jEHM9UGSj4TfEIRo2U5gGsk3/KYgHLp5FML/eQqi756BqNHzUZtyDGUhWYgYuxAFq3eirbgeSVJeyLXDzXPVkTdKvpJPvOS555oH+7RwbqVXr0UG6aI0OfW1qY3jWg7am2Wl2Yx6nSN2jr5jx7PWuWg72yw2aWfmTuRr/6+V1b7exnpSUvGRIKdvKC74/KS56SnHZIRiN+grwtm0CZx2QlujMSPHTBPzH5g24tRZe6PVHwy09vo73koaRXV7lU1sh+/1onDxhbPTFs4kZ7iEMtuH1ytfuNjeJu1N5g9mq9khmHkPhNbGira46s2A7qHCuYvYC4o/aBz82kE7B5NRUVFmgMvBINft9ys5EIyMjDQDSA4wuZ6fn2/iMjMzzTPTHLxyX37X0g6k+Y3KmJgYM+BmORxMcnDJASu/dckfUwobDkZDQkLMIJ5puQ8vLubBvCjwWVfWi2Wlp6ebY+DANSwszAgbDrpZLwpwwm9q8hhYLw6OIyIizMCXcH9bLw6AmYcdLPOZRFsv1odlc8lt7sPvarL+TM/j4XExH5aVmppq8igoKDB5cuDNNmO9ODWecawf68L6st6+2pL5cV+2JQfy3I9tGRsba+rBtmD+VlywTvyuKOvFtmS9KIS8bcnj5/HwmNmWLJttwfzZx8yTbWX7mG3Idma9eHzcx93HxPYxxQPrxTj2sbstWS/Wx7YltxnOevN4bFtyf9aZZTNf5sG2Yb1YLtuM+bMteTysH7dZX9vHPCe4H9PYtqRgYh48xxnHfuL5x3pQhDEPd1vSmI5hrDPT8Pi4D4+Jcfa8ZN5sF1svd1uyzvZbr+62tNeS7WOeL4xztyXPK+ZhbxKwXPYx68g2ZJwVkGxLxnOdbck49jHzYRvYtmQ5rLNtS6ZjfRjHa93dloyzbclzxF5LzJd58FxiefzcEs9L28fcz4pxtiPPPebB42Ac+5j1Yp3t9cJznGWzPVgGy2K92CbetuQ6ryHbx+62ZL14jIxjvWyd2ZaMsyKedbJtafuYaex5afuYbWnrxTqzb1gm68XjZxzbiv3PfdiGzJPnNJfE/tYqSo/R5gyUTu9JQsidwYgcOgoRInojRJxGXh9gBHCkWPQPAow3ev81wxE/aRma86txdGs09vzzZIQMuh9xsl/8tUGIvXYMokUYU0xHiEX/QES3iGrmESPrMddRUAdK2GjEXReAw7Lv/v5/wo4hwxAdtBBVIXmoySxDfdJpZMzZhH23jZY8RyHuWhHOUgenToHYM+R+pI5f0ieFM4/EmVXZZszxalGi8FiNjDapunTETuM41lm4L3PjK6wzWG/zHyew0pwtfuqGx2AEWJczOxv+9vU54dwuwZx2YpxtH/nNZ1t5++VSWwdnuyj5r/nLxM9s0S4Sl0I4s1+sCO1YMX3leKN5g8vbbP5i5l+uGPXMTf7j+M9Z8y7+qvhEhbOiKIpySei4w68oFxznPDslwvngneMQcfVoEbUUy6MRfv0oWR+FaBG40RSu14vgvWYU9gx9ADH8tnN2OSpjCxEduBDbbngAoVcNR/Tg0YgeKulEIEfSREhzGX1tIGJkPeK60Yi49mFEDHkQO66+F/v/4ykUv7IV4X94FjuvewCHfvkoDj8wF3t/Px07b5U6SHnxQwMQc00AwkUwh0kdImS5d3C7cK5qv6nkOqK+gD2eswe+7mGt/x6xratrqO7a6j59RTiTr9roq5Cz2+fbttaF5us9enZvXxwuvnD+CnOU7pO7zelFb0/6He46twf0RL1VOCuKoiiK0sdxBksUzvt/PBZhg0eK2A0QgTsSYT8YKctR7dsiYq8dJUJ2tAnbPfR+hP9pFspDstFyohGF7x9C2D0vYM+dY7HruuE4NGQ4Qgc+iMMDH0DIIIpqWYqw3nPtcGy/9WHs/7cnkfbyFlRll6Eh7QziRi5CyOAHEDl4OPYNeQD7r3kIh68ZKWJbBLsI99DrR+PADaMRcj2F92jsHXgvUsa9cdZbtZW+TV8SzkrPcCmFs3I2KpwVRVGUi47X0+zdVpSexTm/Topw3vujsTg8+GFEiDgOu/ZhhIrR4xs+lJ5fEdFDRUzLdogI6sNDR+DQgPtw6M5gpM/egOqYI2jOPoOju1OQ8dqnSJ64BFF3z0LY76fj8B+eweE/zkBCwCJkzXwfeZvCUZ1yAnVpp1H49j4c+Pdp2Cd5Rg8ZKWUx75GIvXoUosUiho4yAjpEhPwhEeyhIt4jpA67BwxDcvDir6Zqu7wnKqP7JiqcFS8qnP0HFc6KoijKRccrlL3bitKzfCWc99wxBqFXPSTilWL1IYSIhYmIDb9ahPMQEdFXP2y2Q69x1qMGi3i+6gFsG3of9v36UURPWYH8jaGojy5CXXYZqnNOozanFDVi1RknUZtdivrYoyj5JBZpM9cj7H+LYL5hBPZJHoeHSFlXizA3ZYlIl/zDhz6MwyxzCKd2S3kSHmniRmLHwHt8CGf+0/H0odLHUOGseFHh7D+ocFYURVEuOl6h7N1WlJ7EPtd2YncSdt8ehJBBFLAPI3ToQzgkwjlUxGuICFW+PfswBezgdiEry0gRu6FXP4QDV4/AgYEPYNegYdh940PY/9NxOPgf0xAZsABJT61G8rS/ICZwEcL/ewb2/v0j2HnrSOy8+j7Z516EDRpu8ooYPFLyF8F+tZiI40NS7kGKd1mGSzlRkibmqocRfZVT/raBf0LC2Nddwln+7fiGU+8SzvadBvblf25zx3UFpuPLBGl2f29e7nCbzhfefS81vVU4e/vWG+7uX9t/Np2379z5dNan7nW+pLKrfWf3setd3e9S0l3h7D4+b/t62/Sb6M4+xJ3W9ltXcZdl17195z0XvHjr7U7vtq6iwllRFEVRlD5NW4dwTsSu2wJxcMBwhA4W0TxkhBHEXIaIUA2RZdhVIxAuFirrhxgndpA2xAkPG/ggwmT/w/0fxMF+92Kv2K5+w7BjwDDs6n8v9gy4D3sH3YeDg+5HyODhOMDp3rJ/qIjiQ1LGIRHsIbLO8lmeKWOIU14YbfAIEdVO2Of970b8mFddLwcz8tllvQcOVs8lYM8V58Wdl69BL+Pcg/XO8vYOzP0B1qe3Cmfb1rYtfbWptx+8225s3zBPimMv7n19lXUu3ALK3+mucCb23O6snbt6/La93NvnQ1fLsdh62/73tb+3Pp2lsXHuNPZc7SzvzlDhrCiKoihKn8YtnHfeGogDInwPXfUQDohI3T9kOA6KwKUX+vAgEdBiDKeFUEC3b++noB0owlbSMe1BiTsoeYTKevgAsYEPmSngTLdX8jwwmGVImva8nPIewr4h3JdlOeWFmnzayxji2IF2+7yfCOegV10vB+v6AM/fsANXGj9JyE/y8bN2/DweP1Fn03QFr+jh4JdC0346ktjPPfJTd3YA7sUtKLjkp/h8CbSLCevRG4UzsSKEn25k29tt9gE/X2j7gm1cUFBgPovI7fz8fPN5TX6+kMZPKNpPdFqBQ/ipTH4ukp9NZP8SfqKU54+v/vVi68Jybb5d2e9S013h7L7muM7PX7L9eJ3w05D8PGdXsdcQry9+brKr7cY2Zr+xze1nd78JW29bpi2LebD+/M1gPxJ+dtP2v686eUUzzz1+ptO2i/t3pCuocFYURVEUpU9jh0UluxKw45bROHClCFsK2auGi9B9UISrmIjY/RSwFMrt64cobAeMMHH7uD3QWT8w6EHsFztg0nPJ/ESA0wYNxz56mmV5uH3fPRTPg5z997FMsUODmNYpg+HMi2Xuo4CmmJbwbZf9EfGBi/qMcLZ8/PHHePLJJ7FmzRqsWLHCLM9nEE+s4OXAecOGDVi2bBlWrlyJhQsXmu/dU5yvXr26y/ly8L1t2zaT36WktwpnK0IIRRnbvq6uzmyXlJSYvjl69KjZzsvLw7hx4/DRRx+ZbQphngOPPvooJkyYgHfeeceIRSt4CEXX8uXLsWrVKrz66qt47bXXjLim4N61a5dJ0xUoug4dOuQN9mu+rXAmFKxvv/22yYfLxYsX45VXXjFteD7w2t24caM3uFOSk5Nx8OBBczMlJSWlyzem3MKWFBUVmf5/6623TN8vXbrUnFfs+71793r27hzeNDif9F5UOCuKoiiK0qexku3ErkRsv2Uk9vW7H/sHDMdeEb07RTjvEeG8f+Bw7KZoHcg3actShOteCmiKWpftE8FL0bxvwIPmmWezLvvvHeSsHxjIdRHOkkdIfyePnVc5y4MDmIezP9PspVimGKfANnFOuVyyDtu/999IHL0AqGo2TzS30Ktij6djpfdBobtlyxazzsH95s2bsX79erNNrxIHwwcOHDCDZgrZgoKCDuFNAWU9TIz/5JNPjOiyHsgvvvgCn376KY4fP4433ngDOTk5ZtDNATs9X8yL3ip6zbZu3Yr9+/cbTzPLGz58uPFoEQ6wP//88w4PNgV4RESEEV5d8Zp1l74gnNmmFLdWOBcXFxuRxr4j7LNnn30WzzzzTEcaQsFMcWSxfc7+mj9/vjlvrNdwyZIlRsTt27fP9CPPCZZD2Gf0YjMthRsFOkUbPY0Ujk899ZQ5r3iu7d692xjPAcI8KPytcPcHekI48/rgTSqe5xbe3OCxnzhxwpzbLIdkZGTgww8/RGZmZkfahIQEbN++HQsWLMDatWvNjAIKV8Jrw7Y9b1jxBhSvH/bJSy+9hMmTJ5t49glhn+/Zswdffvllx42qwsJCMwuF15zNy7Y/606xzP62/c8bKNz/s88+M+Wxz2196Fm3eXAGA/fjsbA+U6ZMMf3Pc4G/Efyt4AwHwnOAvxe8GcObO25sXVQ4K4qiKIrSp7GDnuNfxmHzDcPwxd/8X+y67E/YfsU9+KzfPfhcbNdl9+DLy4cZ28HlFWfbDrt++T3Y3m67rrwXO6+8z4TtkLy+7LCz89nuycdJ683XxrWbbG/5//4dkQ+/BFQ2gn6altY2x8xBOeYfQ/vzg6KZA3MLxQ2FFge+FE8cJFNAUVDHxcVh3rx5RuhycEyPsh0Uc/D7+uuvm8GxxU69pBigUOAgmN4pTumld23RokWmvLlz55q8mIaCgWL9nnvuMcKCg/E5c+aYOrz55ptGDLz33nt45JFHjHjoqtesO/RW4ewWmWxD3rRwC2e2Oz3O9DzaNqcIozfSwjamR9ELxcwLL7xgzgGLfW59586dxngOWNFNjyL7l4Jo1qxZpj15cyUrKwtPP/208WzzZgqFOOvJ+vDGDcUgZ0JQ1PO8sefSpRbQ3RXOFtaf4pNty7Zh29lrhwKWbTBp0qQObyyPn/1FgUnBSVE9e/Zs07733XefuUYpuNl+hOKTQpYCmtcuvdm8scHzgHnxugkJCcHMmTPNNU7BzhspLIN1YhhnGrCvXn75ZdN39vENQiE/bdq0s8Js3/AmDOvCGyg8fwh/W9inPLdYJvuecex/9v2f//xnMyuFs1R4fdt24HkWHBxsfot4o8WW4b4ppMJZURRFUZQ+TVurozCPh6Vjx8jZCL17BqLufgFRf5yNiLsdi5H18D+9gLB7zmWzO9bDh83GZ7+ZhO2/fQwR973UHmetPf0w7/5fz+dctuO/pyN6/jq0VDcYj3NbCwdxjnA2Y/lLO57vNhTO1uNMOKDlYHrHjh1mCi8H6pxOO3r0aOOF4iA4MTHRDJA55ddCIcWBOgfBxA5uCb1OHOhTPHFQT+HMATpFNIXI448/btY5KKeIoNDmIJ7bY8aMMV5M5ktBwQE4vVas34WmNwtnKzDZXhQjVjjzhgW32cbsTyukKAbdgnDdunWmr7zw5gk9l/a5Vnc/0+tI4cz2sqKbgo2ijGKIIomiih5E1o+iijc/CgoKjPeRYpGim+s853iTJj093eRjj6k3C2cr/CiWKWbp/aVY5E0jXh+8TnhN2RsY06dPNzMGCM95evqZ3p6PFMUUzmzTDz74wIRxlgeFKb3FvKYsvEnCa4ZtzvZ+8cUXTXtTqNtZG6wD08yYMaPDw00BnZ2d3ZEPZ4HwerX9757xwdkEvOnF+m/atMmEUcjz94SeaApl3gRh+YQ3SHhjjOcNZzykpaUZ8c3y7Q0CK9CtYLYCmqhwVhRFURSlb0Ph3NyGZhGg9Scq0VhSJVaNpuPOsv5ENRpPVKHh5DdbXUkFGmXZXFqDj//yPvZu/gwtZbVfS9cTVl9SiYbTVWhp5uCtjXO1jVnNbIZyl3ZM3y0omu3zrYTCgANdDsTvv/9+I544mKdg5kulKGLfffddIx44jdbCqbYchHPAa7FTqjn1k3lwoM78KOIYRwFHIcdpmhzkT5061ZRLbyi3mf+wYcOMyKCAZRiFPetAsXCh6a3C2e2V480Kii07fZ7eXQouChI+Xztx4sQOryNFtH3OtjPhTNFDMcVzwcI8KYgogimcKa6ZJ6Eop+eS5fNmC0U0PZa8+cJZDBSEPOeCgoKM15Flsl4UzOx3eh6JWzhdSr6NcLaij6KTfcLriAKVwtS+nI3HzufMmZbCmd5WwmuHHmO2kW0Tth3bkDcl7DVMEUpBSkHNPnTD9CwzNzfXCGfe1OBUbytE6bXmtcUbYLxmKbbZ17zmLLzpQe+3fWyC8HqloKYot8LZ3oyjkGef8ni4zpshPC7mybJZfz6nTe8yrzW2C8U0p6Pz98FOH7dtZ28+EBXOiqIoiqL0aTq8Lp14jow31xvYBT74eAt27L6wXkjWjV9xpte8raXVuQnQTm8Vzhws00Nl33DMwTbFD6dQW4HEQTKnWDKeg/wHHngAAQEBZmBN7ICW+3HgS+8zxbF9TpYDaw74+UwyRRSnC1NcUShTONgXVVF8MZ7CgAKLgpUihd5mCi8OsjlwpwCwL6G6kB7I3iqc3eKC7cUbGhS87GOKJfZxfn6+EUDu50eZznoKKeDYZ16YLwUtb4TwfODsASvo7LOyFMWc4svZA0xHocQbJZxmT3heUCzR3n//fVMX+3gA96EA42wDCjjr+bTHdCH7uyt0Vzi7veX2GWf31HhC7y099RTJhJ59tg+vM7Yjz39erxSgDKPHmvlwSjdvhvCa45JtyRtL3J/Ck55s3tzgdcN+ZdvSq8trkN5uPu/OGQgUqhTt9GzzGuTNleeee+6s56tZR9aFfWj7nyKcgpyim9clZwvwfGA8hTJvynDqPX8X7DHSA22nbbP+PA62C89HxvGaYz3sIwH2pom7HVU4K4qiKIrSpzHiUwY+tNb2/xjKLVpLu33lxz2HtXEg5UwV/Pjjj7D9y+1m/WvpesBYO/NCMG6Cx+DU/KxkvQS3+KDQ4bOkdsDNgbmdHkkhxOeL7UCcUHxxKq31KBKbHwfunGpJ0ct9OBimN5mDXwoyDs45uKao4iCdQo2DdpbJwTUH8fRQc8BNccZBOAU8BQAH0RRU9mVGHOBfaHqzcLZGocJ2ZNva59V5o4I3Kdj+dsotYRgFEY+b3mP3TAQ3FMBsF/YJhRFFE4Ucb4xQ9FH88gYKzwHeCGGeFF+cMWDrQJHMPuRzrxRLFJE8BxhPIUVBxvOCgs+f6K5wJvY6YZtTxLrfB2DjeX3Q20oKCgo62tA+309PMK8dGqdMs594U4JpGMb+4KwNlsH+47PrNPYL685rk9O/2X+8ljgLgPvaa5zXPj3BPEd4HdJbzHoQezOGN9IYznxZHm+AMC/2Ic8B3mxjXXgNM5714DRs+xvDsllnzijh8/IU8vx9YD3Y/7zmeXON5xXPA9s23psmKpwVRVEURenTODIZ7ULTbrUL5zZ6cVudKdBtXun6dWuVRDTyySef4ottVjh/PW1PmKlqi/nfvCDMK5xNml6C9eBxcJyfn28Gr/Qm2zca20EqB8124GwHrxzMcqDcmQeQ+bnz4gu87FRUrnOqKEW0nT7MN2wzvX3TM6FIoKeMUGRxaqcVecyLefsquyfpC8LZthGFCMULPX+EQpfm9uSxfdm3FNvsX/dbti1u8UcxbKcNE/aJ7XOKZ/Yzl+xfwv5014HnAoUx0xCKQopoK9BYP6a50P18PnRXONvrzRqPzZ7/btjmDLdtwP7gue/uC7Yf29Zeh4TXC68hhtl8mQfT2Rf4cZvXEtPaNie87uw1ThjHdmd6rrOv7Tli+4J9ynq5+5/Xpe1rlsGyeT7Y+vAmGvvfTvNmnux/HgPLY3529gnL/Kb+V+GsKIqiKEqfpkM4G6dyq2MclLULZ06Bbm3hQPMsTerTOFPazpbeuvUzfP7FF86Gj7Tf2vhPu2LmwrwUzB3X5qz3BtyDeF/YtyS74bY3nNudDWotdsBNfKX1lsM07jdle+Ntve0x+Mqzp2D+vVE4E9tOvtrI/UInrnv71dvmbtziyR1m93Gvu3GXSbz1cu/jKw9vmZeKnhLO34S3T0hnItKbzleYrzb19om7b73l2/7yVX+Ge88pN77K9va3G/e54V73osJZURRFUZQ+jX2vFsdCnJJtJjybac+cCu3E0a/Y9nXpeg4Dvvj8M3y2datZd/Cm+ZbGCrdxINcumjnua3U8z0bmOdG9AjvQdQ/k7bYdPLsHyXbdLbLsundQ697PnW9nedEoCLz5etN462TTXEiYf28UzradffWlbTsbbtd99ZG3b23e7n3cfeTuF7e5+9dbxrn2s+msEV91uph0VzgT2972eH0di7ddrHm33WHe/rNhvvbxZd583H3qbn9r3v3tvraf7X7u8m2Yd93bJu6lje8MFc6KoiiKovRt2gXnV6KTkrnNcUBzjEQdbbRq+0aXDNi27XNs3fqJWXckrDfNtzebqxHO7W7n3iqc3QNT9+DWHf5Ng2WaF++A2WvevLpTpjvuQsL8e6NwdosSX+arPQnXvWLJy7ny8JbhK8wtmtz7utN749z1cK9fCr6NcPYeo69j8R6/24g7D1/Xjjtf97avNO6yfJVr01iz5Xv39+ZFs+V703mX3v282zYvX6hwVhRFURSlb2NEsWN29Wtx54Ed0PElV3wx1cXAlNjZMfQSbLt1tn2p8NbDve2Nu9Bw0N4bhTM5V1udK+5Ccr7lnm/6i8G3Ec6WrhxXV9J0hZ7Kx/Jt8zuf/Zn2XOlVOCuKoiiKonSDHTt2mDfVKkpP0ZuFs3Jh6AnhrPQMKpwVRVEURVG6AT+rws8VKUpPocJZ8aLC2X/eZbsAABljSURBVH9Q4awoiqIoitJF3FP5+G1ffr9UUXoKFc6KFxXO/oMKZ0VRFEVRlC7ifnnMvn37sGXLFk8KRek+KpwVLyqc/QcVzoqiKIqiKF3E7XHev38/Nm/e7EmhKN1HhbPiRYWz/6DCWVEURVEUpYu4hfPBgwexceNGTwpF6T4qnBUvKpz9BxXOiqIoiqIoXcQtnENCQrBhwwZPCkXpPiqcFS8qnP0HFc6KoiiKoijd4PDhw3j//ffP+d1PRTkfVDgrXlQ4+w8qnBVFURRFUc4DK5TDw8Px3nvvqXBWegwVzooXFc7+gwpnRVEURVGU88AK5YiICKxbt67jLduK8m1R4ax4UeHsP6hwVhRFURRFOQ+scI6KisLatWvR0tLiSaEo3UOFs+JFhbP/oMJZURRFURTlPLDCOSYmBu+8844KZ6XHUOGseFHh7D+ocFYURVEUReki7rdqx8bGYs2aNWhubvakUpTuocJZ8aLC2X9Q4awoiqIoitJF3MKZ4mb16tUqnJUeQ4Wz4kWFs/+gwllRFEVRFKUbcEBLkaPCWekpVDgrXlQ4+w8qnBVFURRFUbpBcnIyVq1ahaamJm+UonQLFc6KFxXO/oMKZ0VRFEVRlC7inqqdmpqKlStXqnBWegwVzooXFc7+gwpnRVEURVGULkJhY4Vzeno6VqxYgcbGRk8qxR+xNz3Yh+5+9CdUOCteVDj7DyqcFUVRFEVRuojb45yRkYHly5ercO4lWMGswlnpTahw9h9UOCuKoiiKopwHVnBlZmZi6dKlaGho8KRQ/BH3TQ8VzkpvQYWz/6DCWVEURVEUpRvk5OTgjTfeQH19vTdK8VNKS0sRFhbml6KZqHBWvKhw9h9UOCuKoiiKonSDvLw8Fc69jOzsbMyfP98b7DeocFa8qHD2H1Q4K4qiKIqinAfWW1lQUIDFixejrq7Ok0LxVzhL4JVXXvEG+w0qnBUvKpz9BxXOiqIoiqIoXcT9nGxhYSFeffVVFc69iNzcXCxcuNAb7DeocFa8qHD2H1Q4K4qiKIqidBH3s7FFRUVYtGgRampqXCkUf0aFs9LbUOHsP6hwVhRFURRFOQ+seD569KgRztXV1Z4Uir+iwlnpbahw9h9UOCuKoiiKohDq4VZam7PuNrsiornVCudjx7Bo4auorKg02wxv87mvD0w5MPGt8o81/ueNV3oOFc5Kb0OFs/+gwllRFEVRlO881KdG87ZS/DaLPm42IvkrAWwi0dbSglYxcux4CV59dTHKyyvMthHUInzOEr0+hTHLcJLSey05GuN/KpwvLCqcld6GCmf/QYWzoiiKoijfeahPHfFK0dzULpypbNsjjbKWNC0NxkjFmXIsWbIMtXXO56haRXC3tDbKsqldFTvG/0zeFN7MxIS1QUqR0pxYJ9xRye1FmTRKz6LCWeltqHD2H1Q4K4qiKIqiGOFKsdxC17EoZOMqdhzN7Uq2TURNs4jq5tYGfLBpA95cugzz5s3H+vc3YPGrC1FRccYI4CY0ihRucgliZ/+vjG/mbncoG3HdXu5Zwpl7MoXSk6hwVnobKpz9BxXOiqIoiqIolKoiiil1jXylYJZFU4dRyHKKtiNu1659G3/zN3+Nfldeif/3f/w/ePKpJzriKJkd6Wxk81kwB4abyd5M3kxrpitbtPpX6Smo21MpPYgKZ6W3ocLZf1DhrCiKoiiKX8LnfykkrNlvKHe27ct8xduwsxFZ3NaIUok73tSGE/WtON7YguLGZhxtEJP1ErFTDW04JXo27XQZ/v53/4a/+qu/Qr/BVyMkLR2nWttQIvEnxU4Ya3WssRUlTV/lV9Rupc0isOlsbm4Bp3c383nnDu80PdBU1TpduydR4az0NlQ4+w8qnBVFURRF8UsoIlroieULuVxC1y2AvWE2vXcf0lm4QxvOtLVgZ1kN1ubX4t28Orx9pEKsHO/kV2F1Ya2s12J1fj1WHa3HupO1CFq8Gn/1PwfiPyc9gy3Hq/DWsRqsKqyX/euwTvJ4p7Aaa45U462iKvylWPIoqpDtCqwtrMSagjPYVHwKufX0TYuQl7LN884dwrl9CrcK5x5FhbPS21Dh7D+ocFYURVEUxS+hiGhubu4QxZWVlWhocF7MZYUzhXBtbe1Zotgum5qaUFZWhvr6etTU1HSEW/NytKkVK45U4vmsBszKbcWzuTV4LrMcs9Nr8ayEPZNdh2fFpuVW43kRxE8fzsDPxs/Ek9uiME9E8lO5FZieXYvncurwTE4Npku6p3MrMS2vXJYVeDqnSuLqMSunGc+JuJ6VXYKQylrw1WIUzjSjk6mZeWzmSWelJ1HhrPQ2VDj7DyqcFUVRFEXxS6zApYikCJ4+fTrmzJmDurq6jmnab775JhYvXuxTCFNQR0REICMjA8uXL0dFRftno9rz9HKioRlvFlWJwG3GrLwWLCquw+riaqzPqzNe6LcLq4y3+C+FFXirqALrjlRgfW4pNhSUY/WRcvxF9n1HBPVqEdGrimuwRrbXSvi6Qnquq4yn+rXiJswuaMbT+U14IasKh8sb0AgK5WbwPdtnC+eOj1MpPYQKZ6W3ocLZf1DhrCiKoiiKX+L2DNPTPHPmTIwePRrR0dEmrKioyGy/9tprZpse6d27d2PPnj04deqU8TBzmZ+fj1deeaVDOPsSzaSksQkrjpzBs7n1mJVbjeXHKxHe2IITUoXS5jaUSn4nm1tQ0tKG42Jclkocn3k+1tzqbMvyBJ9nlvSnZVne2IoKWZ6QNFENbWY69wv51ZhR0IKXM0TYlzU6LwSz347mXG0G+K6i8i3pbcK5s3NV6dvYG4MkMTGxQzjbcD0vLg0qnBVFURRF8VvsAJFeZgoeiuQPPvjAhFEgc/v99983onjp0qV4++23sWbNGqxatQpHjx7FO++8g9jYWJOOwvpcFIooXllYgRk59ZiRL+K5oBKriqoQX91oplMTvueaTx473mDnP0flfmXOp6TaBbBQJ5ZS04h3imowN7scM3Lr8Hx+G+ZkVuFQZb15a7fZg8fq/A9z2Do27nH8XTjz0YSVK1ciJibGbKtA+m7Cfrc3DXkThbNtiH0URc+LS4MKZ0VRFEVR/BY7QORzyi+//DI++ugjvPXWW2b69ZYtW/D5558boXzmzBns37/fTM2ePHkyRo4ciezsbKxevdoIZ07n/ibhXNzYilUF5Xghtxov5lVhVm4VZmY34rWsWuwuqUGpnQ5uXt4FR0Ub77BVu05QC59VbuH3oIFqCdtbXonX8svwfE4dXsosx8s5lXghrwFzMytwsEqF88XE34UzRRHP6aysLLOtAum7h/UoW+HMc5a/ccQKZ1+PpigXHhXOiqIoiqL4LW7hPHfuXBw8eNAIZnqXKZRDQkKMl/nEiRN48sknMXXqVKxbt85M66a4Zhy9d6+//vo3CudjIpzfEuE8K7sCSwursErE8ot59ZiZ1YK5WdXYcrTcfFLK6OU2muNb5jafU+b3mc2gt8V5OzanbH9+vApzck5hem4lns+vxZqianxyugGvyvqcjHIVzhcZfxfOfJb/3XffNc+1Kt9NrGi2v33JyclYsGCBzzjl4qLCWVEURVEUv8UtnGfMmGGeb/7www8xbNgw5OXlITQ01HhjKKJfeuklIzwOHDhgPM4pKSnGOx0VFWUGnvYZ587gN5eXF1VhuojktUdrkdrchi9L67EgtwLP5dRittia4grE1tWjCqxba8ezyS1t9mVeraiXfxNrGrBOxPecrEo8m1+JOXlV+OhEPYpbJK6hDa/mqXC+FPi7cOY5yhfecbYEUYH03cP9bgfC9zbwRqGN06nalw4VzoqiKIqi+CV2yiKhcF6xYgXS09PNy3L4si9+YorP/3388cc4ffq0GVzSKz1//nxMmTLFCOetW7ciLS3NePGqq6s78vVFSWMrlhbV4OnsOrxbUINSSVcl6jW2qhYr88sxK7MRs3Kq8Xp+GfaU1eOMGdxS6VJAOwPd6tY2hJTVYXH+GcyUtM/lNEj6SoSUN6CyfSycVtuGRbl1eCnjjAjnhg7hfKnprF3OF1/52L50x3m3fdGVNL7obJ+cnJwO79258FVfb9y3xebj9iBylsQbb7xhZkf0VDlK78MtnJctW2Zm2hCeDzpV+9KhwllRFEVRFL/Eel6sl4UvCKNHmS9Q4lu2OYjkNkU1qaqqMm/apteOYY2NjSYd03DpzsuXIOFU7aVF1ZieXYP1IpzLmymKOTW7BbkNLdhcWIt5GTV4IasO8zOr8cGxWhQzTTvFzS345FgF5mVWmTdzz8yuwLrCamTWNqOJyUyZzUivacFrOXXtHudGM9VbuTgUFBR0vIXd3+D5PW/ePOzdu9cbpXxH4QsQZ8+e3XHT71y/X8qFR4WzoiiKoih+ifWuWLNhdtDY2bobd5hbiPtKe1yE87KiCjybXSnCuQpnKIrp2WltEHHbjJPNrdhWUodFIppnZlMY12HtkWpk1Lcgu64R6wvL8VxuJZ7JacB8Ed9bS6qNF9tMuW5un9aNJqRQOOfW4eWcKrx+KBrvbNqMjRvXY9PGTdi0QWzzJmzesgUfbP7APM/Nt4jT+GI0a/Sy0z799FN88sknxrhOD/tnn33WYXzR1BdffGFs27Zt2L59e4ft2LGjw3bu3Gls165dHZ/0ooBz2759+4wdOHCgw+gJs3bo0CHzzDmnz1s7fPgwwsLCOowvb6NFRkYa4zR6Tr+n8Vl0a3yhGy0uLs7MKqAlJCR0LDnrgMZngfkMKI0zDGipqanGONOAMxRo9OTS28zjmzZtmpkK7TbGWeN07vz8/A6j2KYVFhYaO3LkiDHepCkuLu4wvsX92LFjxo4fP26spKTEGJ/Bp508edJ8Io0zJLjkNstj+3KWBIUzw/myu7KyMpSWlqK8vFytjxr72Wvsf56TvM6feeaZsz5Ndq7fL+XCo8JZURRFURS/xC2c3YNGt5h2i2GvWTHNdPRSu9P74lgThXMlpudU4r3CMzjdKmW0Sh7N3K8JsieqJL+Iiga8WViB2VlnMDOrAguLarG4sArzMssxI6cGrxfUIKysHrWyL18S1ij5tLXyG818fVgrkmpb8GpePebnVOPtxAxsF9G0a9cO7Nq5S2w3doiA3bFDbPsObP/SEbkUvRS/FMI0imK3aKZRSHOwzWfArdjevHkzNm3adJZt3Ljxa7Zhw4YOW79+fYe5t9977z3z6S+uc8ltToHn0q57jS9qo61du/asdX4mzIbZbbfZz4pxaY3bXuNb02nubX4H2W18zp3GfOfMmWOej7dhNH66jMbPQNHc23w8wIZznc8fc2mN28uXL+9Y+jJOteVjBG5j2JIlS4z3my+yu/fee/Hwww+bOO7DOLXvpvEc4PnEa4w3Z4iv3zbl4qPCWVEURVEUv8SKXq8Idm/7GlB6B5dct/tZEe4LCmfzjLMI2vcKy1DKfSRtsxjfms0XgPE/PpOcW9+ETcVnMDu7DE8VNmBaXqP5LvN7R2qQXtdi0ptp3iKW6ym5zXPQ3LMFyTVtWJRTj5fSynG4/rs3UdtXv7lvhtA4vd5tnHZvjdPu3cZp+dY43bm2ttY8/86lXedUVy7poeZL5PgMMaf2c0nj9H56ALnkdmceQXqA3WY9x3bpNXqUrbfZep+tJ5qeaXqpuc28mJ6ea7cnm+tMo9Y3zc5UcG/zfHB/AcD9W+deKhcfFc6KoiiKovgldsDoHiR6B4y+4rz7uMO84W6ONbdiuQjf5zNrsT7/DE5TxMH5NjMlbzPXuTsd1q1tKJH0n56qxtz8cszJqcAnJ+pMmJmb3UZB2CSim2/ddoLQ1mTEdJoI54W59ZiTXo5DlfVGZNMzzXTcm2/n5oeuOq/pufmm4/wuU1BQgEWLFnmDFcVv8f6u6fV96VDhrCiKoiiKAr7cqxlLiivxTHY13i8oQ5nxTsNRznxUuYUCl88pi9RtbTQBVRKfXtmElOomnKH4ZWJ6l9u4xiej6Wl2ghzp3YqU2ja8kl+L2Zmnsb+qzhHOFMpGXFMwc592Fa3j4x7F3z9HpSiK/6LCWVEURVEURShp4DPOnKpdK8K5HOUtVLxw3MxGyHLqdoPI33oJEhHMeOuSNq5iKmfjjjYCuNUIZz7b3OoSzm1Irm3FgvwazM46hQPVdc7nqNqYpl1hOwpdhfMFQIWzoijdRYWzoiiKoiiKcLqeU7Wr8VRuFd49cgZlLfQDU8PSx9wMPrncJsK5tY0C2tG2jk6mh9glpDsEL18n1h7evk1/ckpNK14TcT4nowyHqurMLo5Y5rRu+qibzfPURofbyik9ggpnRVG6iwpnRVEURVEU4aTxOFdgWt4ZvFskwpnKuB0zBbvD3HKWYrhR/hVRTZH8tWcPue2EGREuxu84L82qwdz0ShysogebkZzizaeb6aNuNrkZT3RHPv6Dr+crvc9f0twvMXI/l+nrOU1vnt703nBfeXQFFc6KonQXFc6KoiiKoijCicZWLC+qxNN5lVhRUImYygZkVDcgU8RthrFGpFU1Ia26EVliubVNyKtvQm5dE7Lqm43lGGtBTl2LhLeY+Py6RuTXNiO7rhmZDc3YV96C13Ia8GJGNfZJvs7LwfjpKjPf23icue7S7X6FFazuN5xzyU9+0WyY/QSYjXe/2dya903B7nSdWWfx7vw6Q4WzoijdRYWzoiiKoiiKcJTfcT5yBtPza/BSbi0WZFfhFbF5OdV4Ma9awuoxVwTvvNwavJxXhUUF1VhcWIfF+Q1Ykt+IN2S5uIDfdK7GGwU1ElaHpfmVYhVYKtuLxV49Uo2XjzRhVn6LCOczOFhZiwZ8NcPbeT6az0W3fN257Ufw00lvvPEGoqOjzbYvsepLxHrDuO3Gve1O+0357N69G19++aVZP5cnWoWzoijdRYWzoiiKoiiKcLS5FW8VnsGsjErMzagSYVuJGdmOPU/LqpW4aszMrMCMHLHscrP+QkYFXkqvFKvA7IxyzMo6jVmZZyS8UrbPiJWaNLMyKzGL+2RJWolblHoUsVW1RjDTw2wEn/mPzzvzuWn4rXDet28fAgMDsWTJkg6xS48vv43Mbw/z+8qE32Dmt5X5jVoubTp+V5nfNua+TMN9GEaYznqq6bXmt5iJzZvfcrbw28z87i0/MfXaa691hKtwVhSlp1HhrCiKoiiKwieVW1uQWFmP7UVnsO3IGWw9Wo6Pjpfj0+Nl+OyYmGx/fqwcXxw7g89l/Yti2S4SO3oGnxUz/Rl8epTLUrP+WXGFWHl7WCU+le1Pi8tknzKT//5TlTjRTM8yhbJ5RRj4lHOTmaxtPkrll1DoLlu2DJs2bcL8+fNx7NgxI1RXrlyJJ554Ao888oiJp9Bdt24dHnvsMUyZMsUIVobFxMSYsAULFiArKwtvvvkmxo0bh+effx55eXn48MMPsWPHDlNWQkICPvjgAxM+c+ZMPProo1i9erXJh+U++eSTJu/7778fq1at6qijCmdFUXoaFc6KoiiKoij09LbxA1LOR6Po06wXo4+USxp9qNYYz5d3cWnTes2m9YbbfRhnXgxGj2270HOecvYfZ7P7+WMrRil2Z8yYYby/9PRu2LDBxM2aNcuIXrJ27Vojfl9++WW8/vrrJmzNmjX47LPPjLeaopn7bN682QhnsnXrVhO+a9curFixwniWKc63bdtmpoV/8sknxhtNUc51CvUtW7aYfKZNm4bly5d31FmFs6IoPY0KZ0VRFEVRFMUnVoTaF2+Rv/zlL7jnnnvMNO3x48dj0qRJOHPmDN5//33k5OSYNHv37jWil17gqKiojjCK55CQEHz00UcmbOnSpdi/f79Zz8/Px4svvojExEQjjiMjI43ITU5ONsL42WefxeLFi43nmcKZQj0zM9Psy7IptokKZ0VRLgQqnBVFURRFURSfWLFslxUVFWa6dGhoqBHLJSUleOqpp4x3mR5ghhNOr7aeYuuFpneZgjk8PNysEwpreo3JoUOH8NJLL5nnoynOg4ODzXPLfI557ty5RnBXVlbiwIEDiIuLMwL44MGDZt9XXnnFCHnSmWgmKpwVRekuKpwVRVEURVEUn9hp2lY48+3Vzz33nHlpl4We5Xnz5hkPMD3DFMoUvnxpF0Xq6NGjTRinUp88edJ4oCmsSUZGhhHL69evN9O6OY2b0Av905/+FHv27DHbFOScxk3hzXwogGNjYzF9+nQjvO+77z59xllRlAuKCmdFURRFURTFJ3baszVOp6b4dEPPM8Uwn3fms80ff/wxiouLTRyfb+b06i+++MK84IuUlpYaUW3FLfOjBzolJcVsM5wv/woLC+t40zbhS8WYjs9YW+h55rPR/CzWkSNHzqqrL1Q4K4rSXVQ4K4qiKIqiKN8avkE7PT39a2F2OrU/oMJZUZTuosJZURRFURRF6Tb25WF8NplTuO3UbvuNZpqd6n2pUeGsKEp3UeGsKIqiKIqidBsKZQpm++Ztt9n4zqZOX2xUOCuK0l1UOCuKoiiKoijdxnqc3cLZ/ayx3fYHVDgritJdVDgriqIoiqIo3cbrUfaue+MvJfzONN/OrSiKcr6ocFYURVEURVG+E2RnZ5tvPvuLkFcUpfegwllRFEVRFEX5TkCPswpnRVG6gwpnRVEURVEU5TvB6dOnsX//fhXOiqKcNyqcFUVRFEVRlD6P+0VlfJGZoijK+fD/A1ljqyRJ0NNMAAAAAElFTkSuQmCC;" vertex="1" parent="1">
          <mxGeometry x="26" y="263" width="717" height="335.68" as="geometry" />
        </mxCell>
        <mxCell id="I9yQGdXgGvzj8MIX47bs-2" value="" style="rounded=0;whiteSpace=wrap;html=1;" vertex="1" parent="1">
          <mxGeometry x="22" y="617" width="922" height="323" as="geometry" />
        </mxCell>
        <mxCell id="I9yQGdXgGvzj8MIX47bs-8" style="edgeStyle=orthogonalEdgeStyle;rounded=0;orthogonalLoop=1;jettySize=auto;html=1;entryX=0;entryY=0.5;entryDx=0;entryDy=0;" edge="1" parent="1" source="I9yQGdXgGvzj8MIX47bs-3" target="I9yQGdXgGvzj8MIX47bs-4">
          <mxGeometry relative="1" as="geometry" />
        </mxCell>
        <mxCell id="I9yQGdXgGvzj8MIX47bs-3" value="" style="html=1;verticalLabelPosition=bottom;align=center;labelBackgroundColor=#ffffff;verticalAlign=top;strokeWidth=2;strokeColor=#0080F0;shadow=0;dashed=0;shape=mxgraph.ios7.icons.user;" vertex="1" parent="1">
          <mxGeometry x="51" y="757.5" width="30" height="30" as="geometry" />
        </mxCell>
        <mxCell id="I9yQGdXgGvzj8MIX47bs-27" style="edgeStyle=orthogonalEdgeStyle;rounded=0;orthogonalLoop=1;jettySize=auto;html=1;" edge="1" parent="1" source="I9yQGdXgGvzj8MIX47bs-4" target="I9yQGdXgGvzj8MIX47bs-26">
          <mxGeometry relative="1" as="geometry" />
        </mxCell>
        <mxCell id="I9yQGdXgGvzj8MIX47bs-4" value="" style="rounded=1;whiteSpace=wrap;html=1;" vertex="1" parent="1">
          <mxGeometry x="176" y="745.12" width="82" height="54.75" as="geometry" />
        </mxCell>
        <mxCell id="I9yQGdXgGvzj8MIX47bs-5" value="" style="verticalLabelPosition=bottom;html=1;verticalAlign=top;align=center;strokeColor=none;fillColor=#00BEF2;shape=mxgraph.azure.github_code;pointerEvents=1;" vertex="1" parent="1">
          <mxGeometry x="202" y="748" width="34.75" height="35.25" as="geometry" />
        </mxCell>
        <mxCell id="I9yQGdXgGvzj8MIX47bs-9" value="&lt;b&gt;Github&lt;/b&gt;" style="text;html=1;strokeColor=none;fillColor=none;align=center;verticalAlign=middle;whiteSpace=wrap;rounded=0;" vertex="1" parent="1">
          <mxGeometry x="189.37" y="778" width="60" height="30" as="geometry" />
        </mxCell>
        <mxCell id="I9yQGdXgGvzj8MIX47bs-10" value="code commit" style="text;html=1;strokeColor=none;fillColor=none;align=center;verticalAlign=middle;whiteSpace=wrap;rounded=0;" vertex="1" parent="1">
          <mxGeometry x="89" y="748" width="73" height="30" as="geometry" />
        </mxCell>
        <mxCell id="I9yQGdXgGvzj8MIX47bs-12" value="&lt;b&gt;Developer&lt;/b&gt;" style="text;html=1;strokeColor=none;fillColor=none;align=center;verticalAlign=middle;whiteSpace=wrap;rounded=0;" vertex="1" parent="1">
          <mxGeometry x="36" y="783.25" width="60" height="30" as="geometry" />
        </mxCell>
        <mxCell id="I9yQGdXgGvzj8MIX47bs-26" value="" style="rounded=0;whiteSpace=wrap;html=1;" vertex="1" parent="1">
          <mxGeometry x="359" y="711.5" width="323" height="122" as="geometry" />
        </mxCell>
        <mxCell id="I9yQGdXgGvzj8MIX47bs-28" value="Text" style="text;html=1;strokeColor=none;fillColor=none;align=center;verticalAlign=middle;whiteSpace=wrap;rounded=0;" vertex="1" parent="1">
          <mxGeometry x="406" y="695" width="60" height="30" as="geometry" />
        </mxCell>
        <mxCell id="I9yQGdXgGvzj8MIX47bs-29" value="Build triggers" style="text;html=1;strokeColor=none;fillColor=none;align=center;verticalAlign=middle;whiteSpace=wrap;rounded=0;" vertex="1" parent="1">
          <mxGeometry x="268" y="748" width="76" height="30" as="geometry" />
        </mxCell>
      </root>
    </mxGraphModel>
  </diagram>
</mxfile>
